<?xml version="1.0" standalone="no"?>
<!DOCTYPE svg PUBLIC "-//W3C//DTD SVG 1.1//EN" "http://www.w3.org/Graphics/SVG/1.1/DTD/svg11.dtd" >
<svg>
<metadata>
Created by FontForge 20120731 at Sat Aug  6 11:40:19 2016
 By www
Digitized data copyright A^(c) 2012-2013, The Mozilla Foundation and Telefonica S.A.
</metadata>
<defs>
<font id="FiraMono" horiz-adv-x="600" >
  <font-face 
    font-family="Fira Mono"
    font-weight="400"
    font-stretch="normal"
    units-per-em="1000"
    panose-1="2 11 6 9 5 0 0 2 0 4"
    ascent="800"
    descent="-200"
    x-height="527"
    cap-height="689"
    bbox="-275 -500 1192 1050"
    underline-thickness="50"
    underline-position="-50"
    unicode-range="U+000D-1F310"
  />
<missing-glyph 
d="M90 1050h420v-1550h-420v1550zM456 -448v1446h-311v-1446h311zM307 173q0 -11 -8 -17.5t-17 -6.5q-10 0 -17.5 6.5t-7.5 17.5v84q54 3 72.5 20t18.5 57q0 29 -11.5 49t-49.5 20q-29 0 -52 -11q-8 -3 -13 -3q-11 0 -17.5 6.5t-6.5 16.5t9 17.5t23 12t30 7t31 2.5
q32 0 53.5 -9.5t34 -25.5t18 -37t5.5 -43q0 -53 -22 -81.5t-73 -36.5v-45zM247 85q0 15 10 25t25 10t25 -10t10 -25q0 -16 -10 -26.5t-25 -10.5t-25 10.5t-10 26.5z" />
    <glyph glyph-name=".notdef" 
d="M90 1050h420v-1550h-420v1550zM456 -448v1446h-311v-1446h311zM307 173q0 -11 -8 -17.5t-17 -6.5q-10 0 -17.5 6.5t-7.5 17.5v84q54 3 72.5 20t18.5 57q0 29 -11.5 49t-49.5 20q-29 0 -52 -11q-8 -3 -13 -3q-11 0 -17.5 6.5t-6.5 16.5t9 17.5t23 12t30 7t31 2.5
q32 0 53.5 -9.5t34 -25.5t18 -37t5.5 -43q0 -53 -22 -81.5t-73 -36.5v-45zM247 85q0 15 10 25t25 10t25 -10t10 -25q0 -16 -10 -26.5t-25 -10.5t-25 10.5t-10 26.5z" />
    <glyph glyph-name=".null" 
 />
    <glyph glyph-name="nonmarkingreturn" unicode="&#xd;" 
 />
    <glyph glyph-name="space" unicode=" " 
 />
    <glyph glyph-name="exclam" unicode="!" 
d="M230 58q0 29 20 49t49 20q30 0 50 -20t20 -49t-20 -49.5t-50 -20.5q-29 0 -49 20.5t-20 49.5zM258 230l-11 459h102l-10 -459h-81z" />
    <glyph glyph-name="quotedbl" unicode="&#x22;" 
d="M176 477l-16 262h110l-16 -262h-78zM346 477l-16 262h110l-16 -262h-78z" />
    <glyph glyph-name="numbersign" unicode="#" 
d="M462 455l-29 -219h79v-69h-89l-21 -167h-78l22 167h-140l-22 -167h-78l22 167h-77v69h86l30 219h-79v70h88l22 164h78l-23 -164h141l22 164h78l-23 -164h78v-70h-87zM215 236h140l30 219h-141z" />
    <glyph glyph-name="dollar" unicode="$" 
d="M277 -11q-72 5 -124.5 33t-86.5 61l53 59q32 -32 70.5 -52.5t87.5 -24.5v269q-91 30 -138 76t-47 116q0 31 11.5 60.5t35 53t58 39t80.5 20.5v150h69v-150q60 -6 106.5 -28.5t78.5 -51.5l-54 -56q-58 53 -131 62v-222q39 -13 74 -30.5t62 -42.5t42.5 -59t15.5 -80
q0 -36 -12.5 -69.5t-36.5 -60t-60.5 -45t-84.5 -24.5v-146h-69v143zM443 188q0 41 -21 70t-76 52v-241q97 20 97 119zM187 529q0 -34 18.5 -57.5t71.5 -45.5v197q-40 -7 -65 -30t-25 -64z" />
    <glyph glyph-name="percent" unicode="%" 
d="M107 548q0 -17 3 -34t11 -30.5t21.5 -21.5t34.5 -8t34 8t20 21t9.5 30.5t2.5 35.5t-2.5 35t-9.5 30.5t-20 21.5t-34 8t-34.5 -8t-21.5 -21.5t-11 -30.5t-3 -36zM323 549q0 -35 -11 -63t-30.5 -48t-46.5 -30.5t-58 -10.5q-32 0 -58.5 10.5t-46 30.5t-30.5 47.5t-11 62.5
t11 63.5t30.5 48.5t46 30.5t58.5 10.5q31 0 58 -10.5t46.5 -30t30.5 -48t11 -63.5zM354 140q0 -18 3 -35t10.5 -30.5t21 -22t34.5 -8.5t34.5 8t21 21.5t10.5 31t3 35.5t-3 34.5t-10.5 30t-21 21.5t-34.5 8t-34.5 -8t-21 -21t-10.5 -30t-3 -35zM568 140q0 -35 -11 -63.5
t-30 -48t-46 -30t-58 -10.5q-64 0 -105.5 40.5t-41.5 111.5q0 70 41.5 111t105.5 41q31 0 58 -10.5t46 -30.5t30 -48t11 -63zM92 -28l-56 35l463 701l57 -35z" />
    <glyph glyph-name="ampersand" unicode="&#x26;" 
d="M208 390q-67 16 -93.5 56.5t-26.5 88.5q0 33 13.5 63t38 52.5t60 36t79.5 13.5q47 0 87.5 -15t82.5 -60l-54 -49q-26 29 -52 42.5t-63 13.5q-51 0 -76.5 -27.5t-25.5 -71.5q0 -23 9 -43t25.5 -35.5t38 -24.5t47.5 -9h276v-70h-87v-271q-12 -15 -30 -31t-43.5 -29.5
t-59.5 -22.5t-77 -9q-59 0 -101 17.5t-70 46.5t-41 66.5t-13 76.5q0 78 40.5 127t115.5 65v3zM280 61q40 0 71.5 13t51.5 37v240h-117q-38 0 -65 -14t-44.5 -36t-26 -49t-8.5 -53q0 -27 8 -52t24.5 -44t43 -30.5t62.5 -11.5z" />
    <glyph glyph-name="quotesingle" unicode="'" 
d="M261 477l-16 262h110l-16 -262h-78z" />
    <glyph glyph-name="parenleft" unicode="(" 
d="M258 350q0 -80 14 -142.5t38 -115t57 -99t72 -95.5l-59 -40q-42 50 -81.5 99.5t-69.5 107.5t-48.5 127t-18.5 158t18.5 158t48.5 127t69.5 107.5t81.5 99.5l59 -40q-39 -49 -72 -95.5t-57 -99t-38 -114.5t-14 -143z" />
    <glyph glyph-name="parenright" unicode=")" 
d="M342 350q0 81 -14 143t-38 114.5t-57 99t-72 95.5l59 40q42 -50 81.5 -99.5t69.5 -107.5t48.5 -127t18.5 -158t-18.5 -158t-48.5 -127t-69.5 -107.5t-81.5 -99.5l-59 40q39 49 72 95.5t57 99t38 115t14 142.5z" />
    <glyph glyph-name="asterisk" unicode="*" 
d="M329 585l140 60l27 -85l-147 -32l105 -109l-73 -55l-80 130l-75 -132l-75 51l101 115l-148 32l27 85l139 -60l-15 153h90z" />
    <glyph glyph-name="plus" unicode="+" 
d="M257 349v150h84v-150h147v-76h-147v-149h-84v149h-145v76h145z" />
    <glyph glyph-name="comma" unicode="," 
d="M384 86q0 -20 -5 -39.5t-17 -45.5l-80 -183h-79l48 199q-16 11 -25 29.5t-9 39.5q0 35 24 59t59 24q36 0 60 -24t24 -59z" />
    <glyph glyph-name="hyphen" unicode="-" 
d="M123 274v78h354v-78h-354z" />
    <glyph glyph-name="period" unicode="." 
d="M209 79q0 19 7 35.5t19 28.5t28.5 19t35.5 7q39 0 65 -26t26 -64t-26 -64.5t-65 -26.5q-38 0 -64 26.5t-26 64.5z" />
    <glyph glyph-name="slash" unicode="/" 
d="M124 -104l-74 33l427 881l73 -35z" />
    <glyph glyph-name="zero" unicode="0" 
d="M300 61q31 0 56 16t42 50.5t26 88t9 129.5q0 151 -35 217t-98 66q-31 0 -55.5 -16t-42 -50t-26.5 -88t-9 -129q0 -76 9 -129.5t26.5 -88t42 -50.5t55.5 -16zM300 -12q-113 0 -170.5 92t-57.5 265q0 172 57.5 264t170.5 92t170.5 -92t57.5 -264q0 -173 -57.5 -265
t-170.5 -92zM235 345q0 27 18.5 46t46.5 19q29 0 47.5 -19t18.5 -46q0 -28 -18.5 -47t-47.5 -19q-28 0 -46.5 19t-18.5 47z" />
    <glyph glyph-name="one" unicode="1" 
d="M297 588l-165 -100l-44 64l220 137h81v-615h141v-74h-402v74h169v514z" />
    <glyph glyph-name="two" unicode="2" 
d="M489 511q0 -45 -18 -91t-55 -98t-93 -112t-132 -133h313l-11 -77h-410v73q89 88 149 152.5t96 114.5t51 89.5t15 78.5q0 56 -33 86t-84 30q-43 0 -74.5 -17t-63.5 -57l-64 45q41 51 92 78.5t115 27.5q47 0 85.5 -14t65.5 -39.5t41.5 -60.5t14.5 -76z" />
    <glyph glyph-name="three" unicode="3" 
d="M515 198q0 -45 -17.5 -83t-49 -66.5t-76.5 -44.5t-99 -16q-60 0 -117.5 22.5t-97.5 70.5l60 50q29 -35 69.5 -51.5t82.5 -16.5q70 0 109.5 36.5t39.5 99.5q0 36 -10.5 60.5t-29 39.5t-44.5 21.5t-56 6.5h-53l11 71h36q25 0 48 7t41 21.5t28.5 36.5t10.5 52q0 27 -10 48.5
t-27 35.5t-40 21.5t-50 7.5q-45 0 -78 -15.5t-67 -47.5l-50 55q45 42 95 61.5t105 19.5q49 0 89 -14t67.5 -37.5t42.5 -55t15 -66.5q0 -32 -11 -58.5t-29 -47.5t-41.5 -34.5t-49.5 -18.5v-4q28 -2 55.5 -13.5t49.5 -32.5t35 -51.5t13 -69.5z" />
    <glyph glyph-name="four" unicode="4" 
d="M440 165v-165h-89v165h-282v65l202 471l77 -32l-182 -431h185l9 180h80v-180h87v-73h-87z" />
    <glyph glyph-name="five" unicode="5" 
d="M519 220q0 -50 -17.5 -92t-49 -73.5t-75 -49t-96.5 -17.5q-60 0 -112 20.5t-92 68.5l62 52q29 -35 64 -50.5t77 -15.5q67 0 105 43t38 115q0 40 -9.5 67.5t-26.5 44.5t-40 24.5t-50 7.5q-23 0 -48 -6t-48 -17h-72v347h363l-11 -73h-264v-203q27 14 55 19t52 5
q43 0 79 -15t61.5 -43.5t40 -68.5t14.5 -90z" />
    <glyph glyph-name="six" unicode="6" 
d="M438 598q-23 17 -45 23.5t-46 6.5q-36 0 -68 -17.5t-57 -51t-40 -83.5t-17 -115q33 44 77.5 66t89.5 22q37 0 72 -13.5t62 -41t43.5 -70t16.5 -99.5q0 -56 -17.5 -100t-47 -74.5t-69 -46.5t-83.5 -16q-63 0 -108 26t-73.5 70t-41.5 102t-13 123q0 87 19.5 159.5t55 124
t86.5 80t114 28.5q36 0 67.5 -9.5t62.5 -31.5zM315 376q-42 0 -82.5 -26t-66.5 -67q2 -104 36.5 -163t106.5 -59q62 0 92.5 43t30.5 118q0 43 -9.5 72.5t-25 47.5t-37 26t-45.5 8z" />
    <glyph glyph-name="seven" unicode="7" 
d="M234 -10l-86 26l267 598h-321v75h414v-69z" />
    <glyph glyph-name="eight" unicode="8" 
d="M509 530q0 -47 -30.5 -87.5t-89.5 -70.5q69 -30 108.5 -77t39.5 -110q0 -42 -16.5 -78t-47.5 -62.5t-75.5 -41.5t-99.5 -15q-56 0 -100 15t-74 41.5t-45.5 62t-15.5 76.5q0 63 37.5 106.5t101.5 70.5q-57 29 -84 71.5t-27 96.5q0 46 19.5 79t50.5 54t67.5 30.5t71.5 9.5
q38 0 75.5 -10t67 -30.5t48 -53t18.5 -77.5zM441 184q0 34 -13 56.5t-36.5 39t-56.5 29.5t-73 27q-21 -10 -39.5 -23t-32.5 -31.5t-22.5 -42.5t-8.5 -55q0 -57 35 -90t104 -33q70 0 106.5 35t36.5 88zM181 527q0 -53 39 -82.5t107 -51.5q92 53 92 133q0 47 -31 76t-88 29
t-88 -27t-31 -77z" />
    <glyph glyph-name="nine" unicode="9" 
d="M130 47q134 35 212 109.5t87 178.5l-2 1q-21 -34 -60.5 -58.5t-96.5 -24.5q-42 0 -78.5 16t-63.5 45t-42 69.5t-15 90.5q0 52 18.5 94.5t50 71.5t73 45t87.5 16q55 0 97.5 -20t71.5 -55.5t44 -85t15 -107.5q0 -100 -23.5 -173.5t-70.5 -127.5t-118 -91t-165 -63zM432 420
q-1 106 -32.5 157t-101.5 51q-57 0 -95.5 -38t-38.5 -118q0 -38 10 -65.5t26.5 -45.5t39 -26.5t47.5 -8.5q51 0 85.5 25t59.5 69z" />
    <glyph glyph-name="colon" unicode=":" 
d="M216 72q0 17 6.5 32t17.5 26.5t26 18t33 6.5q36 0 60 -24.5t24 -58.5q0 -35 -24 -59.5t-60 -24.5q-35 0 -59 24.5t-24 59.5zM216 431q0 35 24 59t59 24q36 0 60 -24t24 -59t-24 -59.5t-60 -24.5q-18 0 -33 6.5t-26 18t-17.5 27t-6.5 32.5z" />
    <glyph glyph-name="semicolon" unicode=";" 
d="M216 431q0 35 24 59t59 24q36 0 60 -24t24 -59t-24 -59.5t-60 -24.5q-18 0 -33 6.5t-26 18t-17.5 27t-6.5 32.5zM383 86q0 -20 -5 -39.5t-17 -45.5l-80 -183h-79l48 199q-16 11 -25 29.5t-9 39.5q0 35 24 59t59 24q36 0 60 -24t24 -59z" />
    <glyph glyph-name="less" unicode="&#x3c;" 
d="M471 596l44 -69l-350 -214l350 -215l-48 -67l-381 238v89z" />
    <glyph glyph-name="equal" unicode="=" 
d="M102 176v78h396v-78h-396zM102 368v78h396v-78h-396z" />
    <glyph glyph-name="greater" unicode="&#x3e;" 
d="M515 358v-89l-381 -238l-48 67l350 215l-350 214l44 69z" />
    <glyph glyph-name="question" unicode="?" 
d="M319 230h-91v38q0 41 13 69t32.5 49t42.5 37.5t42.5 33t32.5 35.5t13 47q0 42 -32.5 64t-81.5 22q-35 0 -72 -17t-68 -55l-64 48q44 51 97 75.5t116 24.5q47 0 84.5 -13t63.5 -35t39.5 -50t13.5 -58q0 -40 -13.5 -66.5t-33.5 -46t-43.5 -35t-43.5 -33.5t-33.5 -41.5
t-13.5 -59.5v-33zM207 58q0 29 20 49t49 20q30 0 50 -20t20 -49t-20 -49.5t-50 -20.5q-29 0 -49 20.5t-20 49.5z" />
    <glyph glyph-name="at" unicode="@" 
d="M8 591q68 59 137.5 84.5t138.5 25.5q96 0 155.5 -35.5t92 -93.5t44 -133t11.5 -153q0 -95 -6 -165.5t-22.5 -117.5t-45.5 -70.5t-74 -23.5q-31 0 -53.5 15t-36.5 36.5t-21 46t-7 44.5h-4q-7 -18 -18.5 -35t-28 -31t-38.5 -22.5t-52 -8.5q-41 0 -70 17t-47 48t-26.5 72.5
t-8.5 91.5q0 131 51.5 195t146.5 64q35 0 68.5 -7.5t75.5 -30.5v-296q0 -39 5 -64t14 -39t21.5 -19.5t26.5 -5.5q22 0 34.5 23t18 63.5t6.5 96t1 121.5q0 72 -8 134.5t-31 108.5t-64.5 72t-109.5 26q-50 0 -106.5 -18.5t-119.5 -73.5zM229 376q-65 0 -89 -48t-24 -145
q0 -36 3.5 -66t12.5 -51.5t23.5 -33t36.5 -11.5q25 0 42 9.5t28 23t17.5 28t10.5 25.5v255q-28 14 -61 14z" />
    <glyph glyph-name="A" unicode="A" 
d="M430 173h-265l-53 -173h-95l223 689h120l223 -689h-100zM188 250h219l-107 353h-4z" />
    <glyph glyph-name="B" unicode="B" 
d="M443 195q0 38 -11.5 62.5t-31 39t-45.5 20t-56 5.5h-112v-245h108q25 0 51.5 4.5t48 17.5t35 36t13.5 60zM416 509q0 57 -35 81t-97 24h-97v-216h105q60 0 92 26t32 85zM543 197q0 -57 -22.5 -94.5t-59.5 -60.5t-84 -32.5t-95 -9.5h-190v689h175q46 0 90.5 -8t79 -28
t55.5 -53.5t21 -84.5q0 -33 -10.5 -58.5t-27.5 -43.5t-38.5 -29t-43.5 -16v-4q26 -5 52.5 -15.5t48.5 -30t35.5 -49t13.5 -72.5z" />
    <glyph glyph-name="C" unicode="C" 
d="M358 68q57 0 94.5 18t63.5 41l49 -62q-32 -30 -84 -53.5t-127 -23.5q-65 0 -120 23t-95 68.5t-62 112t-22 153.5t24 153.5t64.5 111.5t94.5 68t115 23q68 0 114.5 -18t87.5 -50l-52 -61q-32 26 -68 38.5t-76 12.5q-41 0 -78 -14.5t-65 -47t-44 -85.5t-16 -131
q0 -75 15.5 -127.5t42.5 -85.5t64 -48.5t80 -15.5z" />
    <glyph glyph-name="D" unicode="D" 
d="M454 348q0 88 -18.5 140t-48 80t-65.5 36.5t-71 8.5h-76v-538h77q37 0 73 11.5t64.5 41.5t46.5 83t18 137zM555 348q0 -108 -28.5 -176t-73.5 -106t-101 -52t-111 -14h-161v689h150q61 0 119.5 -13t104 -50t73.5 -104t28 -174z" />
    <glyph glyph-name="E" unicode="E" 
d="M207 613v-225h254v-76h-254v-237h311v-75h-406v689h398l-11 -76h-292z" />
    <glyph glyph-name="F" unicode="F" 
d="M220 613v-235h267v-75h-267v-303h-95v689h411l-11 -76h-305z" />
    <glyph glyph-name="G" unicode="G" 
d="M315 -12q-63 0 -113 22.5t-85.5 67t-54.5 111.5t-19 156t24.5 155.5t65 111t92.5 67t108 22.5q35 0 63 -5t52 -15t44.5 -24t41.5 -33l-56 -58q-32 29 -66 43t-78 14q-36 0 -70.5 -14t-61 -47t-42.5 -86t-16 -131q0 -74 11.5 -127t34 -87t55.5 -49.5t77 -15.5q68 0 126 32
v204h-130l-11 77h235v-330q-47 -26 -100.5 -43.5t-126.5 -17.5z" />
    <glyph glyph-name="H" unicode="H" 
d="M425 0v323h-250v-323h-95v689h95v-288h250v288h95v-689h-95z" />
    <glyph glyph-name="I" unicode="I" 
d="M500 614h-152v-539h152v-75h-400v75h152v539h-152v75h400v-75z" />
    <glyph glyph-name="J" unicode="J" 
d="M450 186q0 -112 -77 -196t-242 -129l-23 71q64 21 110.5 44.5t77 54t45 69.5t14.5 90v424h-245v75h340v-503z" />
    <glyph glyph-name="K" unicode="K" 
d="M195 0h-95v689h95v-689zM200 368l262 321h108l-261 -315l280 -374h-117z" />
    <glyph glyph-name="L" unicode="L" 
d="M131 0v689h95v-606h313l-11 -83h-397z" />
    <glyph glyph-name="M" unicode="M" 
d="M481 0l-20 353q-2 50 -3.5 101.5t-1.5 86.5q0 16 0.5 27t0.5 16h-3l-109 -461h-91l-114 461h-4v-161q0 -37 -2 -70l-17 -353h-88l39 689h126l106 -460h4l101 460h127l39 -689h-90z" />
    <glyph glyph-name="N" unicode="N" 
d="M390 0l-232 583h-4q1 -6 3 -30t4 -59t4 -76.5t2 -81.5v-336h-87v689h127l235 -586h4q-1 6 -3 28.5t-4.5 56t-4 76t-1.5 89.5v336h87v-689h-130z" />
    <glyph glyph-name="O" unicode="O" 
d="M556 344q0 -79 -16 -144.5t-48.5 -112.5t-80.5 -73t-111 -26t-111 25.5t-80.5 72t-48.5 112t-16 145.5q0 79 16 144.5t48.5 113t80.5 74t111 26.5t111 -25.5t80.5 -72.5t48.5 -113t16 -146zM457 344q0 136 -36.5 207.5t-120.5 71.5t-120.5 -72t-36.5 -208
q0 -137 37.5 -207t119.5 -70q84 0 120.5 70.5t36.5 207.5z" />
    <glyph glyph-name="P" unicode="P" 
d="M458 475q0 39 -12 65.5t-33 43t-50 24t-63 7.5h-95v-287h95q34 0 63 6.5t50 23t33 45t12 72.5zM559 476q0 -60 -20 -102.5t-55 -69.5t-84.5 -39t-107.5 -12h-87v-253h-95v689h180q125 0 197 -52t72 -161z" />
    <glyph glyph-name="Q" unicode="Q" 
d="M556 344q0 -109 -30.5 -190.5t-103.5 -123.5l1 -3q33 -7 59.5 -19t47.5 -31t37.5 -47t29.5 -66l-96 -37q-16 40 -34 70.5t-42.5 51t-57 31t-77.5 10.5q-60 0 -106 25t-77 71t-47 111.5t-16 145.5q0 79 16 144.5t48.5 113t80.5 74t111 26.5t111 -25.5t80.5 -72.5
t48.5 -113t16 -146zM457 344q0 136 -36.5 207.5t-120.5 71.5t-120.5 -72t-36.5 -208q0 -137 37.5 -207t119.5 -70q84 0 120.5 70.5t36.5 207.5z" />
    <glyph glyph-name="R" unicode="R" 
d="M540 494q0 -39 -12.5 -70t-35 -54.5t-52.5 -40t-65 -25.5l202 -304h-113l-184 292h-88v-292h-95v689h181q130 0 196 -49t66 -146zM439 494q0 65 -37 93t-115 28h-95v-250h96q72 0 111.5 29.5t39.5 99.5z" />
    <glyph glyph-name="S" unicode="S" 
d="M540 192q0 -45 -17 -82.5t-49.5 -64.5t-79 -42t-105.5 -15q-81 0 -143 23.5t-106 65.5l55 61q36 -34 82 -53t109 -19q30 0 58 7.5t49.5 23t34.5 38.5t13 54q0 24 -7 42.5t-23.5 33.5t-45.5 28t-72 27q-50 15 -90 33.5t-68 42.5t-42.5 54.5t-14.5 70.5t17 73t47 57
t71.5 37t91.5 13q72 0 126.5 -21t96.5 -59l-54 -60q-37 32 -79 47t-86 15q-28 0 -52.5 -6t-42.5 -18t-28.5 -30.5t-10.5 -43.5q0 -22 8 -38.5t27 -31t50 -27.5t78 -27q41 -13 78 -28.5t64.5 -39t43.5 -58t16 -83.5z" />
    <glyph glyph-name="T" unicode="T" 
d="M346 609v-609h-95v609h-213v80h524l-10 -80h-206z" />
    <glyph glyph-name="U" unicode="U" 
d="M531 224q0 -53 -16 -96t-46 -74.5t-73 -48.5t-97 -17t-97 17t-72.5 48.5t-45 74.5t-15.5 96v465h95v-461q0 -81 34.5 -120.5t100.5 -39.5q136 0 136 160v461h96v-465z" />
    <glyph glyph-name="V" unicode="V" 
d="M304 109l178 580h96l-227 -689h-102l-227 689h102l176 -580h4z" />
    <glyph glyph-name="W" unicode="W" 
d="M494 0h-120l-74 503h-4l-85 -503h-125l-82 689h95l52 -580h4l91 500h110l74 -497h4l75 577h87z" />
    <glyph glyph-name="X" unicode="X" 
d="M45 689h108l142 -256h4l148 256h102l-197 -317l220 -372h-108l-167 302h-4l-164 -302h-102l212 367z" />
    <glyph glyph-name="Y" unicode="Y" 
d="M348 265v-265h-96v264l-232 425h105l176 -337h3l177 337h99z" />
    <glyph glyph-name="Z" unicode="Z" 
d="M174 81h357l-11 -81h-452v76l360 533h-324v80h427v-77z" />
    <glyph glyph-name="bracketleft" unicode="[" 
d="M181 -116v932h237v-77h-150v-779h150v-76h-237z" />
    <glyph glyph-name="backslash" unicode="\" 
d="M50 775l73 35l427 -881l-74 -33z" />
    <glyph glyph-name="bracketright" unicode="]" 
d="M182 -116v76h150v779h-150v77h237v-932h-237z" />
    <glyph glyph-name="asciicircum" unicode="^" 
d="M259 840h82l189 -313h-98l-133 233l-132 -233h-97z" />
    <glyph glyph-name="underscore" unicode="_" 
d="M-3 -182v79h606v-79h-606z" />
    <glyph glyph-name="grave" unicode="`" 
d="M390 638l-209 84l47 78l190 -113z" />
    <glyph glyph-name="a" unicode="a" 
d="M482 119q0 -32 10 -46t32 -21l-22 -64q-35 5 -61.5 22t-38.5 52q-28 -38 -73 -56t-93 -18q-80 0 -127 44.5t-47 118.5q0 82 65 126t186 44h77v41q0 56 -32.5 79t-90.5 23q-26 0 -61.5 -6.5t-76.5 -20.5l-24 68q49 18 93 26t83 8q101 0 151 -45.5t50 -126.5v-248zM261 57
q38 0 72 19t57 54v130h-72q-85 0 -120 -28.5t-35 -76.5q0 -98 98 -98z" />
    <glyph glyph-name="b" unicode="b" 
d="M189 460q29 38 66.5 58.5t82.5 20.5q52 0 89.5 -19.5t61.5 -55.5t35 -87t11 -113q0 -60 -13.5 -110.5t-40 -87.5t-65.5 -57.5t-90 -20.5q-91 0 -142 66l-6 -54h-81v739l92 11v-290zM304 61q63 0 97.5 49.5t34.5 153.5q0 103 -30.5 152.5t-89.5 49.5q-42 0 -74 -25
t-53 -57v-257q20 -31 50 -48.5t65 -17.5z" />
    <glyph glyph-name="c" unicode="c" 
d="M336 66q33 0 68 10.5t67 34.5l44 -63q-37 -30 -86 -45t-94 -15q-60 0 -106.5 19.5t-78.5 55t-48.5 86t-16.5 112.5q0 60 17 110.5t49 88t78.5 58.5t106.5 21q51 0 96.5 -14t82.5 -45l-45 -62q-32 24 -65.5 34.5t-68.5 10.5q-67 0 -109.5 -49.5t-42.5 -152.5
q0 -52 11.5 -89t31.5 -60.5t48 -34.5t61 -11z" />
    <glyph glyph-name="d" unicode="d" 
d="M296 466q-63 0 -97.5 -50t-34.5 -153t31 -152.5t91 -49.5q42 0 73 24.5t52 56.5v259q-21 31 -50.5 48t-64.5 17zM272 539q86 0 139 -61v272l92 -11v-739h-81l-8 68q-29 -41 -66.5 -60.5t-82.5 -19.5q-51 0 -89 20t-62.5 56t-36.5 86.5t-12 112.5q0 60 14 110.5t40.5 87
t65 57.5t87.5 21z" />
    <glyph glyph-name="e" unicode="e" 
d="M171 232q6 -88 48.5 -128.5t102.5 -40.5q36 0 71 10.5t69 38.5l42 -61q-37 -29 -85 -46t-99 -17q-59 0 -104.5 20t-77 56t-47.5 86.5t-16 112.5q0 60 16 110.5t46 87t72.5 57.5t95.5 21q104 0 162.5 -69.5t58.5 -190.5q0 -14 -0.5 -26t-1.5 -21h-353zM305 466
q-54 0 -91.5 -40.5t-42.5 -125.5h266q-2 82 -36 124t-96 42z" />
    <glyph glyph-name="f" unicode="f" 
d="M401 750q45 0 80 -7.5t67 -21.5l-29 -67q-26 11 -54.5 16.5t-58.5 5.5q-108 0 -108 -86v-103h178l-10 -71h-168v-416h-92v416h-124v71h124v102q0 37 14.5 66.5t40.5 50.5t62 32.5t78 11.5z" />
    <glyph glyph-name="g" unicode="g" 
d="M141 -25q-4 -8 -6.5 -18.5t-2.5 -22.5q0 -35 35.5 -55t114.5 -20q44 0 73 6.5t46.5 17.5t25 25.5t7.5 31.5q0 33 -26.5 50.5t-99.5 20.5q-100 4 -152 28t-52 79q0 25 13.5 48t39.5 41q-40 23 -62 61t-22 86q0 39 14.5 73t42 58.5t66.5 39t87 14.5q43 0 78 3.5t64.5 10
t53.5 15t46 18.5l27 -83q-33 -11 -70 -13.5t-78 -2.5v-3q39 -18 61.5 -52t22.5 -79q0 -38 -14 -70.5t-40.5 -56.5t-64 -37.5t-84.5 -13.5q-18 0 -37 2t-36 7q-10 -8 -16 -19.5t-6 -21.5q0 -12 5 -21t19 -15.5t39.5 -10t66.5 -4.5q100 -3 153.5 -39t53.5 -108
q0 -41 -19.5 -71t-52.5 -49.5t-77.5 -28.5t-95.5 -9q-62 0 -106 9.5t-72 27t-41 41t-13 52.5q0 18 3.5 37.5t16.5 39.5zM167 354q0 -52 31 -85t85 -33t84 32.5t30 86.5q0 57 -29 87.5t-85 30.5q-55 0 -85.5 -34t-30.5 -85z" />
    <glyph glyph-name="h" unicode="h" 
d="M97 0v738l92 10v-288q32 38 76 58.5t91 20.5q77 0 112.5 -41t35.5 -115v-383h-92v377q0 48 -21 69t-66 21q-21 0 -41 -7.5t-37.5 -19.5t-32.5 -27.5t-25 -30.5v-382h-92z" />
    <glyph glyph-name="i" unicode="i" 
d="M370 71h147v-71h-400v71h161v385h-156v71h248v-456zM389 715q0 -27 -18 -45t-47 -18t-46.5 18t-17.5 45q0 26 17.5 44t46.5 18t47 -18t18 -44z" />
    <glyph glyph-name="j" unicode="j" 
d="M378 62q0 -57 -20 -100.5t-55 -76.5t-82.5 -56.5t-102.5 -41.5l-28 71q37 14 72.5 30.5t63 40t44 54.5t16.5 73v400h-171v71h263v-465zM387 715q0 -27 -18 -45t-47 -18t-46.5 18t-17.5 45q0 26 17.5 44t46.5 18t47 -18t18 -44z" />
    <glyph glyph-name="k" unicode="k" 
d="M97 0v739l92 11v-750h-92zM198 288l222 239h115l-225 -237l251 -290h-118z" />
    <glyph glyph-name="l" unicode="l" 
d="M496 16q-19 -11 -54.5 -19.5t-73.5 -8.5q-73 0 -116.5 40.5t-43.5 113.5v526h-161v71h253v-605q0 -38 23.5 -54t61.5 -16q21 0 43.5 5t43.5 13z" />
    <glyph glyph-name="m" unicode="m" 
d="M132 0h-84v527h71l6 -60q22 31 48.5 51.5t65.5 20.5q30 0 56.5 -13.5t37.5 -55.5q22 31 49 50t67 19q20 0 38.5 -6t33 -22.5t23 -45t8.5 -73.5v-392h-84v378q0 47 -5.5 68t-33.5 21q-23 0 -45 -14t-43 -46v-407h-82v378q0 47 -6 68t-34 21q-23 0 -44.5 -14t-42.5 -46
v-407z" />
    <glyph glyph-name="n" unicode="n" 
d="M97 0v527h79l7 -72q32 41 79 62.5t94 21.5q77 0 112.5 -41t35.5 -115v-383h-92v323q0 39 -3 66t-12 44.5t-26 25.5t-46 8q-21 0 -41 -7.5t-37.5 -19.5t-32.5 -27.5t-25 -30.5v-382h-92z" />
    <glyph glyph-name="o" unicode="o" 
d="M432 264q0 103 -32.5 152t-98.5 49t-99.5 -49t-33.5 -153q0 -103 33 -152t99 -49t99 49t33 153zM70 263q0 61 15 112t44 87.5t72.5 56.5t99.5 20t99 -19.5t72 -55.5t43.5 -86.5t14.5 -113.5q0 -61 -15 -112t-44 -87.5t-72 -56.5t-99 -20t-99 19.5t-72 55.5t-44 86.5
t-15 113.5z" />
    <glyph glyph-name="p" unicode="p" 
d="M97 -213v740h79l7 -72q29 41 69.5 62.5t86.5 21.5q52 0 88.5 -19.5t59.5 -55.5t33 -87t10 -113q0 -60 -12.5 -110.5t-38 -87.5t-63.5 -57.5t-89 -20.5q-88 0 -138 60v-250zM305 63q63 0 95 48.5t32 152.5q0 103 -28 152.5t-88 49.5q-42 0 -74 -25t-53 -57v-257
q20 -31 50 -47.5t66 -16.5z" />
    <glyph glyph-name="q" unicode="q" 
d="M295 466q-127 0 -127 -203q0 -103 29 -151.5t88 -48.5q42 0 73.5 23.5t52.5 55.5v259q-20 31 -50 48t-66 17zM503 -213l-92 11v266q-29 -39 -66 -57.5t-81 -18.5q-53 0 -90 19.5t-60 55.5t-33.5 87t-10.5 113q0 60 13 110.5t38.5 87t63.5 57.5t87 21q91 0 145 -68l7 56
h79v-740z" />
    <glyph glyph-name="r" unicode="r" 
d="M452 0h-360v71h121v385h-121v71h201l11 -101q23 56 63 84.5t87 28.5q19 0 33 -1.5t37 -6.5l-17 -91q-20 5 -33.5 7t-30.5 2q-25 0 -47 -11.5t-40 -31t-31 -45t-20 -52.5v-238h147v-71z" />
    <glyph glyph-name="s" unicode="s" 
d="M275 62q59 0 92.5 21.5t33.5 58.5q0 19 -4.5 33t-18 25t-38 20t-65.5 20q-39 10 -71 22.5t-55 30t-35.5 41.5t-12.5 59q0 33 14.5 60t41.5 46t64.5 29.5t83.5 10.5q57 0 102.5 -15.5t80.5 -40.5l-41 -62q-29 21 -63 33t-77 12q-62 0 -86.5 -17.5t-24.5 -49.5
q0 -17 6.5 -28.5t22.5 -21.5t41.5 -19t64.5 -20q38 -11 69 -23t53.5 -30t34.5 -44t12 -64q0 -43 -19 -73.5t-50.5 -50t-72 -28.5t-83.5 -9q-73 0 -126 21t-88 51l51 58q31 -26 73.5 -41t89.5 -15z" />
    <glyph glyph-name="t" unicode="t" 
d="M532 27q-28 -18 -67 -28.5t-78 -10.5q-88 0 -134 45.5t-46 117.5v306h-120v70h120v119l92 11v-130h181l-11 -70h-170v-305q0 -45 22.5 -66.5t75.5 -21.5q29 0 54.5 7t45.5 19z" />
    <glyph glyph-name="u" unicode="u" 
d="M189 527v-372q0 -51 20.5 -73t64.5 -22q42 0 79 24t58 57v386h92v-527h-79l-7 70q-31 -40 -76 -61t-92 -21q-77 0 -114.5 41t-37.5 115v383h92z" />
    <glyph glyph-name="v" unicode="v" 
d="M353 0h-107l-189 527h98l145 -442h3l145 442h95z" />
    <glyph glyph-name="w" unicode="w" 
d="M494 0h-125l-65 373h-4l-68 -373h-122l-94 527h92l64 -457h4l77 390h103l72 -388h4l64 455h88z" />
    <glyph glyph-name="x" unicode="x" 
d="M295 220l-139 -220h-104l193 278l-170 249h108l116 -190h4l117 190h104l-169 -245l193 -282h-111l-138 220h-4z" />
    <glyph glyph-name="y" unicode="y" 
d="M358 -3q-14 -42 -34 -78t-48.5 -63.5t-67.5 -45.5t-92 -23l-13 72q40 7 67.5 18.5t46.5 28.5t31 40.5t23 53.5h-31l-182 527h98l144 -453h4l143 453h95z" />
    <glyph glyph-name="z" unicode="z" 
d="M211 77h290l-11 -77h-391v69l289 380h-266v78h376v-70z" />
    <glyph glyph-name="braceleft" unicode="{" 
d="M146 387q52 0 76 26t24 78v186q0 47 15.5 77.5t43 48.5t65.5 25.5t83 7.5v-71q-54 0 -87 -16.5t-33 -61.5v-199q0 -65 -28 -96.5t-77 -39.5v-4q49 -8 77 -38.5t28 -97.5v-199q0 -46 33 -62t87 -16v-71q-45 0 -83 7.5t-65.5 25.5t-43 48.5t-15.5 77.5v185q0 52 -24 78.5
t-76 26.5v74z" />
    <glyph glyph-name="bar" unicode="|" 
d="M258 807h83v-909h-83v909z" />
    <glyph glyph-name="braceright" unicode="}" 
d="M454 313q-52 0 -76 -26.5t-24 -78.5v-185q0 -47 -15.5 -77.5t-43 -48.5t-65.5 -25.5t-83 -7.5v71q54 0 87 16t33 62v199q0 67 28 97.5t77 38.5v4q-49 8 -77 39.5t-28 96.5v199q0 45 -33 61.5t-87 16.5v71q45 0 83 -7.5t65.5 -25.5t43 -48.5t15.5 -77.5v-186q0 -52 24 -78
t76 -26v-74z" />
    <glyph glyph-name="asciitilde" unicode="~" 
d="M395 226q-35 0 -61 15.5t-47.5 34.5t-41 34.5t-43.5 15.5q-32 0 -55 -24t-43 -60l-63 31q12 23 26.5 46.5t34 42t45 30.5t58.5 12q37 0 63.5 -15.5t47.5 -34.5t40 -34.5t42 -15.5q31 0 54.5 24t43.5 60l63 -32q-12 -23 -26.5 -46t-34 -42t-45 -30.5t-58.5 -11.5z" />
    <glyph glyph-name="uni00A0" unicode="&#xa0;" 
 />
    <glyph glyph-name="exclamdown" unicode="&#xa1;" 
d="M369 430q0 -29 -20.5 -49t-49.5 -20t-49 20t-20 49t20 49.5t49 20.5t49.5 -20.5t20.5 -49.5zM338 258l14 -456h-105l13 456h78z" />
    <glyph glyph-name="cent" unicode="&#xa2;" 
d="M338 66q29 0 56 9.5t59 34.5l44 -64q-29 -24 -59.5 -36t-62.5 -17v-147h-79v148q-96 13 -144.5 83.5t-48.5 183.5q0 54 12.5 100.5t36.5 82.5t60.5 59t84.5 30v151h78v-150q32 -4 62.5 -16.5t59.5 -35.5l-45 -60q-32 24 -58.5 32.5t-55.5 8.5q-64 0 -100 -49.5
t-36 -152.5q0 -104 36.5 -149.5t99.5 -45.5z" />
    <glyph glyph-name="sterling" unicode="&#xa3;" 
d="M153 514q0 40 13 74.5t38 59.5t61 39t82 14q56 0 102 -20.5t80 -67.5l-61 -46q-25 31 -53 44.5t-64 13.5q-106 0 -106 -118v-118h204v-61h-204v-119q0 -41 -10.5 -75t-45.5 -53v-4h331l-11 -77h-438v73q30 9 46.5 22.5t24.5 30t9.5 36.5t1.5 44v122h-81v61h81v125z" />
    <glyph glyph-name="currency" unicode="&#xa4;" 
d="M178 521q53 33 123 33q71 0 121 -33l88 88l56 -56l-86 -87q17 -25 26.5 -56.5t9.5 -67.5q0 -38 -10 -69t-27 -57l87 -86l-56 -56l-89 87q-50 -32 -120 -32q-71 0 -123 32l-88 -88l-56 56l88 88q-17 26 -26 57t-9 68q0 36 9 67t25 56l-87 89l56 56zM301 202q62 0 93 37
t31 103t-31 103t-93 37t-93.5 -37t-31.5 -103t31.5 -103t93.5 -37z" />
    <glyph glyph-name="yen" unicode="&#xa5;" 
d="M227 346l-191 343h103l162 -313h4l162 313h97l-192 -343h117v-61h-141v-84h141v-61h-141v-140h-96v140h-139v61h139v84h-139v61h114z" />
    <glyph glyph-name="brokenbar" unicode="&#xa6;" 
d="M258 807h83v-356h-83v356zM258 254h83v-356h-83v356z" />
    <glyph glyph-name="section" unicode="&#xa7;" 
d="M103 319q0 41 24 73t57 52q-28 21 -43.5 48t-15.5 61t15 61.5t41 46.5t61 29.5t75 10.5q55 0 95.5 -15t74.5 -39l-42 -61q-30 20 -60 31t-72 11t-67.5 -18.5t-25.5 -49.5q0 -17 5 -29t18.5 -22.5t37.5 -21t62 -23.5q80 -26 116.5 -60t36.5 -93q0 -42 -23.5 -74t-56.5 -52
q27 -20 43 -47t16 -62q0 -34 -14.5 -61.5t-40.5 -46.5t-62 -29t-79 -10q-56 0 -98.5 15t-75.5 40l42 61q30 -21 61.5 -32t73.5 -11t70 18t28 50q0 16 -5 28.5t-18.5 23t-37.5 21t-62 22.5q-80 27 -117 60.5t-37 93.5zM193 331q0 -21 7 -35t26 -26t51.5 -24.5t83.5 -30.5
q22 19 34 41t12 43q0 20 -7 33.5t-26 25.5t-51.5 24.5t-83.5 31.5q-23 -19 -34.5 -41t-11.5 -42z" />
    <glyph glyph-name="dieresis" unicode="&#xa8;" 
d="M195 654q-25 0 -41.5 16.5t-16.5 40.5t16.5 40.5t41.5 16.5q24 0 40.5 -16.5t16.5 -40.5t-16.5 -40.5t-40.5 -16.5zM404 654q-24 0 -40.5 16.5t-16.5 40.5t16.5 40.5t40.5 16.5q25 0 41.5 -16.5t16.5 -40.5t-16.5 -40.5t-41.5 -16.5z" />
    <glyph glyph-name="copyright" unicode="&#xa9;" 
d="M309 308q26 0 46.5 9t37.5 25l34 -50q-21 -19 -50 -33t-71 -14q-72 0 -118 48.5t-46 141.5q0 46 13 81.5t35.5 59.5t52 36.5t62.5 12.5q38 0 64.5 -10t52.5 -30l-37 -49q-36 29 -76 29q-38 0 -64.5 -30t-26.5 -100q0 -66 25 -96.5t66 -30.5zM301 174q54 0 94 20.5
t67 55.5t40 82.5t13 101.5t-13 102t-40 83.5t-67 56t-94 20.5t-94.5 -20.5t-67.5 -56t-40 -83.5t-13 -102t13 -101.5t40 -82.5t67.5 -55.5t94.5 -20.5zM301 121q-65 0 -116 24.5t-86 67t-53.5 99.5t-18.5 122t18.5 122.5t53.5 100t86 67t116 24.5t115.5 -24.5t85.5 -67
t53 -100t18 -122.5t-18 -122t-53 -99.5t-85.5 -67t-115.5 -24.5z" />
    <glyph glyph-name="ordfeminine" unicode="&#xaa;" 
d="M459 415q0 -23 8 -34t25 -16l-20 -58q-32 4 -53.5 17.5t-32.5 41.5q-25 -29 -60.5 -44t-73.5 -15q-69 0 -110.5 36.5t-41.5 96.5q0 67 57 102.5t160 35.5h58v28q0 42 -25 59t-72 17q-21 0 -53 -5.5t-68 -18.5l-24 62q45 17 84 23.5t73 6.5q87 0 128 -37.5t41 -103.5v-194
zM273 370q29 0 56 14.5t46 40.5v94h-55q-69 0 -99 -19.5t-30 -55.5q0 -37 21.5 -55.5t60.5 -18.5zM105 0v79h395v-79h-395z" />
    <glyph glyph-name="guillemotleft" unicode="&#xab;" 
d="M309 86l-55 -35l-175 209v65l175 210l55 -35l-133 -207zM520 86l-55 -35l-176 209v65l176 210l55 -35l-133 -207z" />
    <glyph glyph-name="logicalnot" unicode="&#xac;" 
d="M488 131h-83v143h-293v77h376v-220z" />
    <glyph glyph-name="uni00AD" unicode="&#xad;" 
d="M143 274v78h314v-78h-314z" />
    <glyph glyph-name="registered" unicode="&#xae;" 
d="M300 236q-53 0 -100 20t-81.5 54.5t-54.5 81t-20 99.5t20 100t54.5 82t81.5 55t100 20t99.5 -20t81 -55t54.5 -82t20 -100t-20 -99.5t-54.5 -81t-81 -54.5t-99.5 -20zM300 285q43 0 79.5 16t63.5 44t42 65.5t15 80.5t-15 81t-42 66t-63.5 44.5t-79.5 16.5t-80 -16.5
t-64 -44.5t-42 -66t-15 -81t15 -80.5t42 -65.5t64 -44t80 -16zM409 551q0 -32 -18.5 -51.5t-47.5 -27.5l85 -118h-68l-74 108h-28v-108h-58v282h85q124 0 124 -85zM349 551q0 40 -62 40h-29v-84h31q29 0 44.5 10t15.5 34z" />
    <glyph glyph-name="macron" unicode="&#xaf;" 
d="M436 682h-273v69h273v-69z" />
    <glyph glyph-name="degree" unicode="&#xb0;" 
d="M230 497q35 0 61 23.5t26 71.5t-26 71.5t-61 23.5q-34 0 -60.5 -23t-26.5 -71q0 -49 26.5 -72.5t60.5 -23.5zM230 434q-31 0 -60.5 10.5t-52.5 30.5t-37 50t-14 68q0 37 14 66.5t37 49.5t52.5 30.5t60.5 10.5t61 -10.5t52.5 -30.5t36.5 -49.5t14 -67.5t-14 -67.5
t-36.5 -49.5t-52.5 -30.5t-61 -10.5z" />
    <glyph glyph-name="plusminus" unicode="&#xb1;" 
d="M343 274v-124h-86v124h-145v76h145v150h86v-150h145v-76h-145zM112 0v78h376v-78h-376z" />
    <glyph glyph-name="twosuperior" unicode="&#xb2;" 
d="M436 599q0 -24 -8.5 -43t-28 -37t-51.5 -36.5t-78 -41.5h176l-9 -63h-278v55q59 36 97 59.5t60 41t30.5 31.5t8.5 30q0 22 -15 34.5t-42 12.5q-24 0 -47 -10.5t-45 -36.5l-53 40q61 70 149 70q65 0 99.5 -29.5t34.5 -76.5z" />
    <glyph glyph-name="threesuperior" unicode="&#xb3;" 
d="M453 473q0 -45 -40.5 -73t-114.5 -28q-41 0 -81 13t-71 45l48 40q23 -20 50 -29.5t56 -9.5q38 0 55.5 12.5t17.5 35.5q0 26 -17 36.5t-52 10.5h-47l8 45h35q29 0 45 8.5t16 28.5q0 39 -59 39q-27 0 -52 -8.5t-51 -28.5l-41 43q35 29 72 40.5t78 11.5q62 0 96.5 -24
t34.5 -62q0 -26 -15 -42t-49 -22v-3q36 -5 57 -23t21 -56z" />
    <glyph glyph-name="acute" unicode="&#xb4;" 
d="M181 687l190 112l47 -77l-209 -84z" />
    <glyph glyph-name="mu" unicode="&#xb5;" 
d="M178 527v-296q0 -39 2.5 -69.5t11 -51.5t25.5 -32t46 -11q45 0 78 23t55 54v383h92v-357q0 -52 8.5 -95t17.5 -75l-86 -12q-8 14 -14.5 39t-8.5 45q-23 -38 -61 -61t-77 -23q-67 0 -97 42l-4 -1q5 -21 8 -43t3 -42v-146l-91 -11v740h92z" />
    <glyph glyph-name="paragraph" unicode="&#xb6;" 
d="M476 -213v828h-109v-817l-83 -11v499q-61 1 -106.5 16.5t-76 42.5t-46 63t-15.5 78q0 43 16 80t48 64.5t79.5 43t110.5 15.5h265v-891z" />
    <glyph glyph-name="periodcentered" unicode="&#xb7;" 
d="M209 338q0 19 7 35.5t19 28.5t28.5 19t35.5 7q39 0 65 -26t26 -64t-26 -64.5t-65 -26.5q-38 0 -64 26.5t-26 64.5z" />
    <glyph glyph-name="cedilla" unicode="&#xb8;" 
d="M338 -141q0 26 -23 34t-64 8l9 115h61v-72q50 -5 72 -29.5t22 -55.5q0 -25 -10 -43.5t-27.5 -31t-40 -19t-47.5 -6.5q-31 0 -58.5 7t-47.5 18l28 51q14 -8 32 -12t35 -4q26 0 42.5 9t16.5 31z" />
    <glyph glyph-name="onesuperior" unicode="&#xb9;" 
d="M328 378v236l-94 -51l-37 52l145 84h61v-321h-75z" />
    <glyph glyph-name="ordmasculine" unicode="&#xba;" 
d="M415 529q0 79 -30.5 116t-84.5 37t-85 -37t-31 -116q0 -80 31 -117t85 -37t84.5 37t30.5 117zM94 529q0 49 14.5 89.5t41.5 69.5t65 45.5t85 16.5t85 -15.5t64.5 -44.5t41 -70t14.5 -91q0 -49 -14.5 -90t-41 -70t-64.5 -45.5t-85 -16.5t-85 16t-65 45t-41.5 70t-14.5 91z
M103 0v79h395v-79h-395z" />
    <glyph glyph-name="guillemotright" unicode="&#xbb;" 
d="M212 293l-133 207l55 35l175 -210v-65l-175 -209l-55 35zM422 293l-133 207l55 35l176 -210v-65l-176 -209l-55 35z" />
    <glyph glyph-name="onequarter" unicode="&#xbc;" 
d="M525 56v-56h-76v56h-179v50l134 225l65 -26l-113 -188h93l7 85h69v-85h54v-61h-54zM158 378v236l-94 -51l-37 52l145 84h61v-321h-75zM37 183l-32 56l535 256l31 -56z" />
    <glyph glyph-name="onehalf" unicode="&#xbd;" 
d="M153 378v236l-94 -51l-37 52l145 84h61v-321h-75zM32 183l-32 56l535 256l31 -56zM581 221q0 -24 -8.5 -43t-28 -37t-51.5 -36.5t-78 -41.5h176l-9 -63h-278v55q59 36 97 59.5t60 41t30.5 31.5t8.5 30q0 22 -15 34.5t-42 12.5q-24 0 -47 -10.5t-45 -36.5l-53 40
q61 70 149 70q65 0 99.5 -29.5t34.5 -76.5z" />
    <glyph glyph-name="threequarters" unicode="&#xbe;" 
d="M318 473q0 -45 -40.5 -73t-114.5 -28q-41 0 -81 13t-71 45l48 40q23 -20 50 -29.5t56 -9.5q38 0 55.5 12.5t17.5 35.5q0 26 -17 36.5t-52 10.5h-47l8 45h35q29 0 45 8.5t16 28.5q0 39 -59 39q-27 0 -52 -8.5t-51 -28.5l-41 43q35 29 72 40.5t78 11.5q62 0 96.5 -24
t34.5 -62q0 -26 -15 -42t-49 -22v-3q36 -5 57 -23t21 -56zM43 183l-32 56l535 256l31 -56zM532 56v-56h-76v56h-179v50l134 225l65 -26l-113 -188h93l7 85h69v-85h54v-61h-54z" />
    <glyph glyph-name="questiondown" unicode="&#xbf;" 
d="M393 430q0 -29 -20.5 -49t-49.5 -20t-49 20t-20 49t20 49.5t49 20.5t49.5 -20.5t20.5 -49.5zM281 258h91v-38q0 -41 -13 -69t-32.5 -49t-42.5 -37.5t-42.5 -33t-32.5 -36t-13 -46.5q0 -42 32.5 -64t81.5 -22q35 0 72 17t68 55l64 -48q-44 -51 -97 -75.5t-116 -24.5
q-47 0 -84.5 13t-63.5 35t-39.5 50t-13.5 58q0 40 13.5 66.5t33.5 46t43.5 35t43.5 33.5t33.5 41.5t13.5 59.5v33z" />
    <glyph glyph-name="Agrave" unicode="&#xc0;" 
d="M430 173h-265l-53 -173h-95l223 689h120l223 -689h-100zM188 250h219l-107 353h-4zM388 755l-209 82l48 77l188 -110z" />
    <glyph glyph-name="Aacute" unicode="&#xc1;" 
d="M430 173h-265l-53 -173h-95l223 689h120l223 -689h-100zM188 250h219l-107 353h-4zM182 806l189 109l47 -77l-208 -81z" />
    <glyph glyph-name="Acircumflex" unicode="&#xc2;" 
d="M430 173h-265l-53 -173h-95l223 689h120l223 -689h-100zM188 250h219l-107 353h-4zM174 759l-40 45l136 111h61l135 -111l-39 -45l-127 81z" />
    <glyph glyph-name="Atilde" unicode="&#xc3;" 
d="M430 173h-265l-53 -173h-95l223 689h120l223 -689h-100zM188 250h219l-107 353h-4zM352 773q-22 0 -37.5 7.5t-27.5 16.5t-22.5 16.5t-22.5 7.5q-17 0 -28 -11.5t-23 -32.5l-57 25q15 35 42 62t71 27q22 0 38 -7.5t28 -16.5l22 -17q10 -7 22 -7q17 0 28 11t23 32l57 -25
q-16 -35 -43 -61.5t-70 -26.5z" />
    <glyph glyph-name="Adieresis" unicode="&#xc4;" 
d="M430 173h-265l-53 -173h-95l223 689h120l223 -689h-100zM188 250h219l-107 353h-4zM194 769q-24 0 -40.5 16t-16.5 41q0 24 16.5 40t40.5 16q25 0 41.5 -16t16.5 -40q0 -25 -16.5 -41t-41.5 -16zM404 769q-25 0 -41.5 16t-16.5 41q0 24 16.5 40t41.5 16q24 0 41 -16
t17 -40q0 -25 -17 -41t-41 -16z" />
    <glyph glyph-name="Aring" unicode="&#xc5;" 
d="M430 173h-265l-53 -173h-95l223 689h120l223 -689h-100zM188 250h219l-107 353h-4zM246 845q0 -26 14.5 -41.5t39.5 -15.5q24 0 38.5 15.5t14.5 41.5t-14.5 41t-38.5 15q-25 0 -39.5 -15t-14.5 -41zM414 845q0 -45 -31.5 -75.5t-82.5 -30.5t-82.5 30.5t-31.5 75.5
q0 44 31.5 74.5t82.5 30.5t82.5 -30.5t31.5 -74.5z" />
    <glyph glyph-name="AE" unicode="&#xc6;" 
d="M328 173h-197l-47 -173h-96l199 689h379l-11 -75h-230l49 -227h183v-75h-169l50 -237h169v-75h-244zM153 250h159l-69 355h-5z" />
    <glyph glyph-name="Ccedilla" unicode="&#xc7;" 
d="M383 -141q0 26 -23 34t-64 8l7 91q-55 8 -100.5 35t-78.5 71.5t-51 106.5t-18 140q0 87 24 153.5t64.5 111.5t94.5 68t115 23q68 0 114.5 -18t87.5 -50l-52 -61q-32 26 -68 38.5t-76 12.5q-41 0 -78 -14.5t-65 -47t-44 -85.5t-16 -131q0 -75 15.5 -127.5t42.5 -85.5
t64 -48.5t80 -15.5q57 0 94.5 18t63.5 41l49 -62q-32 -29 -80.5 -52t-118.5 -25v-44q50 -5 72 -29.5t22 -55.5q0 -25 -10 -43.5t-27.5 -31t-40 -19t-47.5 -6.5q-31 0 -58.5 7t-47.5 18l28 51q14 -8 32 -12t34 -4q27 0 43.5 9t16.5 31z" />
    <glyph glyph-name="Egrave" unicode="&#xc8;" 
d="M207 613v-225h254v-76h-254v-237h311v-75h-406v689h398l-11 -76h-292zM401 755l-209 82l48 77l188 -110z" />
    <glyph glyph-name="Eacute" unicode="&#xc9;" 
d="M207 613v-225h254v-76h-254v-237h311v-75h-406v689h398l-11 -76h-292zM203 804l189 109l47 -77l-208 -81z" />
    <glyph glyph-name="Ecircumflex" unicode="&#xca;" 
d="M207 613v-225h254v-76h-254v-237h311v-75h-406v689h398l-11 -76h-292zM184 759l-40 45l136 111h61l135 -111l-39 -45l-127 81z" />
    <glyph glyph-name="Edieresis" unicode="&#xcb;" 
d="M207 613v-225h254v-76h-254v-237h311v-75h-406v689h398l-11 -76h-292zM204 769q-24 0 -40.5 16t-16.5 41q0 24 16.5 40t40.5 16q25 0 41.5 -16t16.5 -40q0 -25 -16.5 -41t-41.5 -16zM414 769q-25 0 -41.5 16t-16.5 41q0 24 16.5 40t41.5 16q24 0 41 -16t17 -40
q0 -25 -17 -41t-41 -16z" />
    <glyph glyph-name="Igrave" unicode="&#xcc;" 
d="M500 614h-152v-539h152v-75h-400v75h152v539h-152v75h400v-75zM391 755l-209 82l48 77l188 -110z" />
    <glyph glyph-name="Iacute" unicode="&#xcd;" 
d="M500 614h-152v-539h152v-75h-400v75h152v539h-152v75h400v-75zM182 804l189 109l47 -77l-208 -81z" />
    <glyph glyph-name="Icircumflex" unicode="&#xce;" 
d="M500 614h-152v-539h152v-75h-400v75h152v539h-152v75h400v-75zM174 759l-40 45l136 111h61l135 -111l-39 -45l-127 81z" />
    <glyph glyph-name="Idieresis" unicode="&#xcf;" 
d="M500 614h-152v-539h152v-75h-400v75h152v539h-152v75h400v-75zM195 769q-24 0 -40.5 16t-16.5 41q0 24 16.5 40t40.5 16q25 0 41.5 -16t16.5 -40q0 -25 -16.5 -41t-41.5 -16zM405 769q-25 0 -41.5 16t-16.5 41q0 24 16.5 40t41.5 16q24 0 41 -16t17 -40q0 -25 -17 -41
t-41 -16z" />
    <glyph glyph-name="Eth" unicode="&#xd0;" 
d="M561 348q0 -108 -28.5 -176t-73.5 -106t-101 -52t-111 -14h-161v318h-72v70h72v301h150q61 0 119.5 -13t104 -50t73.5 -104t28 -174zM460 348q0 88 -18.5 140t-48 80t-65.5 36.5t-71 8.5h-76v-225h172v-70h-172v-243h77q37 0 73 11.5t64.5 41.5t46.5 83t18 137z" />
    <glyph glyph-name="Ntilde" unicode="&#xd1;" 
d="M390 0l-232 583h-4q1 -6 3 -30t4 -59t4 -76.5t2 -81.5v-336h-87v689h127l235 -586h4q-1 6 -3 28.5t-4.5 56t-4 76t-1.5 89.5v336h87v-689h-130zM352 773q-22 0 -37.5 7.5t-27.5 16.5t-22.5 16.5t-22.5 7.5q-17 0 -28 -11.5t-23 -32.5l-57 25q15 35 42 62t71 27
q22 0 38 -7.5t28 -16.5l22 -17q10 -7 22 -7q17 0 28 11t23 32l57 -25q-16 -35 -43 -61.5t-70 -26.5z" />
    <glyph glyph-name="Ograve" unicode="&#xd2;" 
d="M556 344q0 -79 -16 -144.5t-48.5 -112.5t-80.5 -73t-111 -26t-111 25.5t-80.5 72t-48.5 112t-16 145.5q0 79 16 144.5t48.5 113t80.5 74t111 26.5t111 -25.5t80.5 -72.5t48.5 -113t16 -146zM457 344q0 136 -36.5 207.5t-120.5 71.5t-120.5 -72t-36.5 -208
q0 -137 37.5 -207t119.5 -70q84 0 120.5 70.5t36.5 207.5zM389 755l-209 82l48 77l188 -110z" />
    <glyph glyph-name="Oacute" unicode="&#xd3;" 
d="M556 344q0 -79 -16 -144.5t-48.5 -112.5t-80.5 -73t-111 -26t-111 25.5t-80.5 72t-48.5 112t-16 145.5q0 79 16 144.5t48.5 113t80.5 74t111 26.5t111 -25.5t80.5 -72.5t48.5 -113t16 -146zM457 344q0 136 -36.5 207.5t-120.5 71.5t-120.5 -72t-36.5 -208
q0 -137 37.5 -207t119.5 -70q84 0 120.5 70.5t36.5 207.5zM184 804l189 109l47 -77l-208 -81z" />
    <glyph glyph-name="Ocircumflex" unicode="&#xd4;" 
d="M556 344q0 -79 -16 -144.5t-48.5 -112.5t-80.5 -73t-111 -26t-111 25.5t-80.5 72t-48.5 112t-16 145.5q0 79 16 144.5t48.5 113t80.5 74t111 26.5t111 -25.5t80.5 -72.5t48.5 -113t16 -146zM457 344q0 136 -36.5 207.5t-120.5 71.5t-120.5 -72t-36.5 -208
q0 -137 37.5 -207t119.5 -70q84 0 120.5 70.5t36.5 207.5zM174 759l-40 45l136 111h61l135 -111l-39 -45l-127 81z" />
    <glyph glyph-name="Otilde" unicode="&#xd5;" 
d="M556 344q0 -79 -16 -144.5t-48.5 -112.5t-80.5 -73t-111 -26t-111 25.5t-80.5 72t-48.5 112t-16 145.5q0 79 16 144.5t48.5 113t80.5 74t111 26.5t111 -25.5t80.5 -72.5t48.5 -113t16 -146zM457 344q0 136 -36.5 207.5t-120.5 71.5t-120.5 -72t-36.5 -208
q0 -137 37.5 -207t119.5 -70q84 0 120.5 70.5t36.5 207.5zM353 773q-22 0 -37.5 7.5t-27.5 16.5t-22.5 16.5t-22.5 7.5q-17 0 -28 -11.5t-23 -32.5l-57 25q15 35 42 62t71 27q22 0 38 -7.5t28 -16.5l22 -17q10 -7 22 -7q17 0 28 11t23 32l57 -25q-16 -35 -43 -61.5
t-70 -26.5z" />
    <glyph glyph-name="Odieresis" unicode="&#xd6;" 
d="M556 344q0 -79 -16 -144.5t-48.5 -112.5t-80.5 -73t-111 -26t-111 25.5t-80.5 72t-48.5 112t-16 145.5q0 79 16 144.5t48.5 113t80.5 74t111 26.5t111 -25.5t80.5 -72.5t48.5 -113t16 -146zM457 344q0 136 -36.5 207.5t-120.5 71.5t-120.5 -72t-36.5 -208
q0 -137 37.5 -207t119.5 -70q84 0 120.5 70.5t36.5 207.5zM195 769q-24 0 -40.5 16t-16.5 41q0 24 16.5 40t40.5 16q25 0 41.5 -16t16.5 -40q0 -25 -16.5 -41t-41.5 -16zM405 769q-25 0 -41.5 16t-16.5 41q0 24 16.5 40t41.5 16q24 0 41 -16t17 -40q0 -25 -17 -41t-41 -16z
" />
    <glyph glyph-name="multiply" unicode="&#xd7;" 
d="M244 297l-118 118l56 57l118 -119l118 119l56 -57l-118 -118l118 -118l-56 -56l-118 118l-118 -118l-56 56z" />
    <glyph glyph-name="Oslash" unicode="&#xd8;" 
d="M164 28q-60 42 -90 123t-30 192q0 79 16 144.5t48.5 113t80.5 74t111 26.5q31 0 63 -8l37 126l79 -21l-43 -138q60 -43 90 -124.5t30 -191.5q0 -79 -16 -144.5t-48.5 -112.5t-80.5 -73t-111 -26q-17 0 -32.5 2t-29.5 5l-38 -126l-79 21zM457 344q0 91 -12 150.5t-43 91.5
l-149 -515q11 -2 22 -3.5t25 -1.5q84 0 120.5 70.5t36.5 207.5zM143 343q0 -91 12.5 -149.5t42.5 -90.5l149 514q-21 6 -47 6q-84 0 -120.5 -72t-36.5 -208z" />
    <glyph glyph-name="Ugrave" unicode="&#xd9;" 
d="M531 224q0 -53 -16 -96t-46 -74.5t-73 -48.5t-97 -17t-97 17t-72.5 48.5t-45 74.5t-15.5 96v465h95v-461q0 -81 34.5 -120.5t100.5 -39.5q136 0 136 160v461h96v-465zM381 755l-209 82l48 77l188 -110z" />
    <glyph glyph-name="Uacute" unicode="&#xda;" 
d="M531 224q0 -53 -16 -96t-46 -74.5t-73 -48.5t-97 -17t-97 17t-72.5 48.5t-45 74.5t-15.5 96v465h95v-461q0 -81 34.5 -120.5t100.5 -39.5q136 0 136 160v461h96v-465zM191 804l189 109l47 -77l-208 -81z" />
    <glyph glyph-name="Ucircumflex" unicode="&#xdb;" 
d="M531 224q0 -53 -16 -96t-46 -74.5t-73 -48.5t-97 -17t-97 17t-72.5 48.5t-45 74.5t-15.5 96v465h95v-461q0 -81 34.5 -120.5t100.5 -39.5q136 0 136 160v461h96v-465zM174 759l-40 45l136 111h61l135 -111l-39 -45l-127 81z" />
    <glyph glyph-name="Udieresis" unicode="&#xdc;" 
d="M531 224q0 -53 -16 -96t-46 -74.5t-73 -48.5t-97 -17t-97 17t-72.5 48.5t-45 74.5t-15.5 96v465h95v-461q0 -81 34.5 -120.5t100.5 -39.5q136 0 136 160v461h96v-465zM194 769q-24 0 -40.5 16t-16.5 41q0 24 16.5 40t40.5 16q25 0 41.5 -16t16.5 -40q0 -25 -16.5 -41
t-41.5 -16zM404 769q-25 0 -41.5 16t-16.5 41q0 24 16.5 40t41.5 16q24 0 41 -16t17 -40q0 -25 -17 -41t-41 -16z" />
    <glyph glyph-name="Yacute" unicode="&#xdd;" 
d="M348 265v-265h-96v264l-232 425h105l176 -337h3l177 337h99zM192 804l189 109l47 -77l-208 -81z" />
    <glyph glyph-name="Thorn" unicode="&#xde;" 
d="M458 353q0 78 -43 112t-114 34h-104v-297h105q34 0 63 7t49.5 24.5t32 46.5t11.5 73zM558 355q0 -60 -19.5 -103.5t-54.5 -71t-84 -40.5t-107 -13h-96v-127h-95v689h95v-116h94q127 0 197 -53t70 -165z" />
    <glyph glyph-name="germandbls" unicode="&#xdf;" 
d="M92 533q0 107 53.5 162t150.5 55q40 0 72.5 -10.5t55.5 -30t36 -46t13 -58.5q0 -36 -17.5 -59.5t-38 -41.5t-38 -35t-17.5 -40q0 -22 14.5 -38t36.5 -31t48 -31t48 -38t36.5 -52t14.5 -72q0 -44 -15 -77t-40.5 -56t-60 -34.5t-72.5 -11.5q-40 0 -71.5 8.5t-57.5 25.5
l36 63q18 -11 40.5 -17t43.5 -6q48 0 75.5 25t27.5 76q0 31 -14.5 53t-35.5 39.5t-46.5 32.5t-46.5 33t-35.5 40.5t-14.5 55.5q0 36 17.5 58t38.5 40t38.5 36t17.5 46q0 13 -4.5 27.5t-15 26.5t-28 19.5t-42.5 7.5q-54 0 -82.5 -32t-28.5 -107v-539h-92v533z" />
    <glyph glyph-name="agrave" unicode="&#xe0;" 
d="M482 119q0 -32 10 -46t32 -21l-22 -64q-35 5 -61.5 22t-38.5 52q-28 -38 -73 -56t-93 -18q-80 0 -127 44.5t-47 118.5q0 82 65 126t186 44h77v41q0 56 -32.5 79t-90.5 23q-26 0 -61.5 -6.5t-76.5 -20.5l-24 68q49 18 93 26t83 8q101 0 151 -45.5t50 -126.5v-248zM261 57
q38 0 72 19t57 54v130h-72q-85 0 -120 -28.5t-35 -76.5q0 -98 98 -98zM385 622l-206 93l47 77l188 -120z" />
    <glyph glyph-name="aacute" unicode="&#xe1;" 
d="M482 119q0 -32 10 -46t32 -21l-22 -64q-35 5 -61.5 22t-38.5 52q-28 -38 -73 -56t-93 -18q-80 0 -127 44.5t-47 118.5q0 82 65 126t186 44h77v41q0 56 -32.5 79t-90.5 23q-26 0 -61.5 -6.5t-76.5 -20.5l-24 68q49 18 93 26t83 8q101 0 151 -45.5t50 -126.5v-248zM261 57
q38 0 72 19t57 54v130h-72q-85 0 -120 -28.5t-35 -76.5q0 -98 98 -98zM179 672l188 119l47 -77l-205 -92z" />
    <glyph glyph-name="acircumflex" unicode="&#xe2;" 
d="M482 119q0 -32 10 -46t32 -21l-22 -64q-35 5 -61.5 22t-38.5 52q-28 -38 -73 -56t-93 -18q-80 0 -127 44.5t-47 118.5q0 82 65 126t186 44h77v41q0 56 -32.5 79t-90.5 23q-26 0 -61.5 -6.5t-76.5 -20.5l-24 68q49 18 93 26t83 8q101 0 151 -45.5t50 -126.5v-248zM261 57
q38 0 72 19t57 54v130h-72q-85 0 -120 -28.5t-35 -76.5q0 -98 98 -98zM169 627l-42 44l136 121h61l135 -121l-40 -44l-125 91z" />
    <glyph glyph-name="atilde" unicode="&#xe3;" 
d="M482 119q0 -32 10 -46t32 -21l-22 -64q-35 5 -61.5 22t-38.5 52q-28 -38 -73 -56t-93 -18q-80 0 -127 44.5t-47 118.5q0 82 65 126t186 44h77v41q0 56 -32.5 79t-90.5 23q-26 0 -61.5 -6.5t-76.5 -20.5l-24 68q49 18 93 26t83 8q101 0 151 -45.5t50 -126.5v-248zM261 57
q38 0 72 19t57 54v130h-72q-85 0 -120 -28.5t-35 -76.5q0 -98 98 -98zM347 650q-22 0 -37.5 7.5t-27.5 16.5t-22.5 16.5t-22.5 7.5q-17 0 -28 -11.5t-23 -32.5l-57 26q15 35 42.5 61.5t70.5 26.5q22 0 38 -7.5t28 -16.5l22 -17q10 -7 22 -7q17 0 28 11.5t23 32.5l57 -25
q-15 -35 -42.5 -62t-70.5 -27z" />
    <glyph glyph-name="adieresis" unicode="&#xe4;" 
d="M482 119q0 -32 10 -46t32 -21l-22 -64q-35 5 -61.5 22t-38.5 52q-28 -38 -73 -56t-93 -18q-80 0 -127 44.5t-47 118.5q0 82 65 126t186 44h77v41q0 56 -32.5 79t-90.5 23q-26 0 -61.5 -6.5t-76.5 -20.5l-24 68q49 18 93 26t83 8q101 0 151 -45.5t50 -126.5v-248zM261 57
q38 0 72 19t57 54v130h-72q-85 0 -120 -28.5t-35 -76.5q0 -98 98 -98zM193 647q-25 0 -41.5 16t-16.5 40q0 25 16.5 41t41.5 16q24 0 40.5 -16t16.5 -41q0 -24 -16.5 -40t-40.5 -16zM402 647q-24 0 -40.5 16t-16.5 40q0 25 16.5 41t40.5 16q25 0 41.5 -16t16.5 -41
q0 -24 -16.5 -40t-41.5 -16z" />
    <glyph glyph-name="aring" unicode="&#xe5;" 
d="M482 119q0 -32 10 -46t32 -21l-22 -64q-35 5 -61.5 22t-38.5 52q-28 -38 -73 -56t-93 -18q-80 0 -127 44.5t-47 118.5q0 82 65 126t186 44h77v41q0 56 -32.5 79t-90.5 23q-26 0 -61.5 -6.5t-76.5 -20.5l-24 68q49 18 93 26t83 8q101 0 151 -45.5t50 -126.5v-248zM261 57
q38 0 72 19t57 54v130h-72q-85 0 -120 -28.5t-35 -76.5q0 -98 98 -98zM244 722q0 -26 14.5 -41t38.5 -15q25 0 39 15t14 41t-14 41t-39 15q-24 0 -38.5 -15t-14.5 -41zM411 722q0 -44 -31.5 -74.5t-82.5 -30.5t-82.5 30.5t-31.5 74.5q0 45 31.5 75.5t82.5 30.5t82.5 -30.5
t31.5 -75.5z" />
    <glyph glyph-name="ae" unicode="&#xe6;" 
d="M338 232q7 -88 33 -129t78 -41q29 0 51 10t47 29l41 -60q-30 -24 -63.5 -38.5t-77.5 -14.5q-54 0 -89.5 23t-60.5 66q-17 -23 -33 -40t-34 -28t-38.5 -16t-45.5 -5q-70 0 -111 44.5t-41 118.5q0 83 53.5 126.5t159.5 43.5h45v41q0 55 -23.5 79.5t-67.5 24.5
q-26 0 -48.5 -6.5t-54.5 -20.5l-24 66q34 16 68.5 25t67.5 9q60 0 91 -23.5t47 -62.5q14 40 46 63t80 23q45 0 77.5 -18t53.5 -51.5t31 -81.5t10 -109q0 -14 -0.5 -25.5t-1.5 -21.5h-266zM160 57q32 0 55.5 23.5t49.5 69.5q-7 24 -10 52t-3 58h-40q-70 0 -96.5 -28.5
t-26.5 -75.5q0 -49 19.5 -74t51.5 -25zM431 466q-22 0 -38 -8.5t-27.5 -28t-18 -51.5t-9.5 -78h182q-2 82 -20.5 124t-68.5 42z" />
    <glyph glyph-name="ccedilla" unicode="&#xe7;" 
d="M366 -141q0 26 -23 34t-64 8l7 91q-97 15 -149 86.5t-52 182.5q0 60 17 110.5t49 88t78.5 58.5t106.5 21q51 0 96.5 -14t82.5 -45l-45 -62q-32 24 -65.5 34.5t-68.5 10.5q-67 0 -109.5 -49.5t-42.5 -152.5q0 -52 11.5 -89t31.5 -60.5t48 -34.5t61 -11t68 10.5t67 34.5
l44 -63q-35 -28 -79 -42.5t-87 -16.5v-45q50 -5 72 -29.5t22 -55.5q0 -25 -10 -43.5t-27.5 -31t-40 -19t-47.5 -6.5q-31 0 -58.5 7t-47.5 18l28 51q14 -8 32 -12t35 -4q26 0 42.5 9t16.5 31z" />
    <glyph glyph-name="egrave" unicode="&#xe8;" 
d="M171 232q6 -88 48.5 -128.5t102.5 -40.5q36 0 71 10.5t69 38.5l42 -61q-37 -29 -85 -46t-99 -17q-59 0 -104.5 20t-77 56t-47.5 86.5t-16 112.5q0 60 16 110.5t46 87t72.5 57.5t95.5 21q104 0 162.5 -69.5t58.5 -190.5q0 -14 -0.5 -26t-1.5 -21h-353zM305 466
q-54 0 -91.5 -40.5t-42.5 -125.5h266q-2 82 -36 124t-96 42zM394 622l-206 93l47 77l188 -120z" />
    <glyph glyph-name="eacute" unicode="&#xe9;" 
d="M171 232q6 -88 48.5 -128.5t102.5 -40.5q36 0 71 10.5t69 38.5l42 -61q-37 -29 -85 -46t-99 -17q-59 0 -104.5 20t-77 56t-47.5 86.5t-16 112.5q0 60 16 110.5t46 87t72.5 57.5t95.5 21q104 0 162.5 -69.5t58.5 -190.5q0 -14 -0.5 -26t-1.5 -21h-353zM305 466
q-54 0 -91.5 -40.5t-42.5 -125.5h266q-2 82 -36 124t-96 42zM188 672l188 119l47 -77l-205 -92z" />
    <glyph glyph-name="ecircumflex" unicode="&#xea;" 
d="M171 232q6 -88 48.5 -128.5t102.5 -40.5q36 0 71 10.5t69 38.5l42 -61q-37 -29 -85 -46t-99 -17q-59 0 -104.5 20t-77 56t-47.5 86.5t-16 112.5q0 60 16 110.5t46 87t72.5 57.5t95.5 21q104 0 162.5 -69.5t58.5 -190.5q0 -14 -0.5 -26t-1.5 -21h-353zM305 466
q-54 0 -91.5 -40.5t-42.5 -125.5h266q-2 82 -36 124t-96 42zM182 627l-42 44l136 121h61l135 -121l-40 -44l-125 91z" />
    <glyph glyph-name="edieresis" unicode="&#xeb;" 
d="M171 232q6 -88 48.5 -128.5t102.5 -40.5q36 0 71 10.5t69 38.5l42 -61q-37 -29 -85 -46t-99 -17q-59 0 -104.5 20t-77 56t-47.5 86.5t-16 112.5q0 60 16 110.5t46 87t72.5 57.5t95.5 21q104 0 162.5 -69.5t58.5 -190.5q0 -14 -0.5 -26t-1.5 -21h-353zM305 466
q-54 0 -91.5 -40.5t-42.5 -125.5h266q-2 82 -36 124t-96 42zM201 647q-25 0 -41.5 16t-16.5 40q0 25 16.5 41t41.5 16q24 0 40.5 -16t16.5 -41q0 -24 -16.5 -40t-40.5 -16zM410 647q-24 0 -40.5 16t-16.5 40q0 25 16.5 41t40.5 16q25 0 41.5 -16t16.5 -41q0 -24 -16.5 -40
t-41.5 -16z" />
    <glyph glyph-name="igrave" unicode="&#xec;" 
d="M517 0h-400v71h161v385h-156v71h248v-456h147v-71zM367 622l-206 93l47 77l188 -120z" />
    <glyph glyph-name="iacute" unicode="&#xed;" 
d="M517 0h-400v71h161v385h-156v71h248v-456h147v-71zM184 672l188 119l47 -77l-205 -92z" />
    <glyph glyph-name="icircumflex" unicode="&#xee;" 
d="M176 627l-42 44l136 121h61l135 -121l-40 -44l-125 91zM517 0h-400v71h161v385h-156v71h248v-456h147v-71z" />
    <glyph glyph-name="idieresis" unicode="&#xef;" 
d="M195 647q-25 0 -41.5 16t-16.5 40q0 25 16.5 41t41.5 16q24 0 40.5 -16t16.5 -41q0 -24 -16.5 -40t-40.5 -16zM404 647q-24 0 -40.5 16t-16.5 40q0 25 16.5 41t40.5 16q25 0 41.5 -16t16.5 -41q0 -24 -16.5 -40t-41.5 -16zM517 0h-400v71h161v385h-156v71h248v-456h147
v-71z" />
    <glyph glyph-name="eth" unicode="&#xf0;" 
d="M165 563l78 82q-24 11 -52 19.5t-62 15.5l20 70q44 -9 81 -20.5t68 -27.5l70 74l54 -47l-61 -63q91 -62 132.5 -160t41.5 -241q0 -63 -17 -114t-48.5 -87.5t-75.5 -56t-99 -19.5q-48 0 -90 16.5t-73.5 48t-49.5 77.5t-18 105q0 55 17 100.5t46.5 78t67.5 50t80 17.5
q49 0 88.5 -17t62.5 -44l3 1q-12 57 -44.5 105.5t-79.5 82.5l-76 -78zM442 266q0 34 -3 66q-25 38 -64 57.5t-86 19.5q-26 0 -49.5 -10t-41.5 -31t-29 -53t-11 -76q0 -88 38 -133t98 -45q69 0 108.5 51.5t39.5 153.5z" />
    <glyph glyph-name="ntilde" unicode="&#xf1;" 
d="M97 0v527h79l7 -72q32 41 79 62.5t94 21.5q77 0 112.5 -41t35.5 -115v-383h-92v323q0 39 -3 66t-12 44.5t-26 25.5t-46 8q-21 0 -41 -7.5t-37.5 -19.5t-32.5 -27.5t-25 -30.5v-382h-92zM357 650q-22 0 -37.5 7.5t-27.5 16.5t-22.5 16.5t-22.5 7.5q-17 0 -28 -11.5
t-23 -32.5l-57 26q15 35 42.5 61.5t70.5 26.5q22 0 38 -7.5t28 -16.5l22 -17q10 -7 22 -7q17 0 28 11.5t23 32.5l57 -25q-15 -35 -42.5 -62t-70.5 -27z" />
    <glyph glyph-name="ograve" unicode="&#xf2;" 
d="M432 264q0 103 -32.5 152t-98.5 49t-99.5 -49t-33.5 -153q0 -103 33 -152t99 -49t99 49t33 153zM70 263q0 61 15 112t44 87.5t72.5 56.5t99.5 20t99 -19.5t72 -55.5t43.5 -86.5t14.5 -113.5q0 -61 -15 -112t-44 -87.5t-72 -56.5t-99 -20t-99 19.5t-72 55.5t-44 86.5
t-15 113.5zM387 622l-206 93l47 77l188 -120z" />
    <glyph glyph-name="oacute" unicode="&#xf3;" 
d="M432 264q0 103 -32.5 152t-98.5 49t-99.5 -49t-33.5 -153q0 -103 33 -152t99 -49t99 49t33 153zM70 263q0 61 15 112t44 87.5t72.5 56.5t99.5 20t99 -19.5t72 -55.5t43.5 -86.5t14.5 -113.5q0 -61 -15 -112t-44 -87.5t-72 -56.5t-99 -20t-99 19.5t-72 55.5t-44 86.5
t-15 113.5zM184 672l188 119l47 -77l-205 -92z" />
    <glyph glyph-name="ocircumflex" unicode="&#xf4;" 
d="M432 264q0 103 -32.5 152t-98.5 49t-99.5 -49t-33.5 -153q0 -103 33 -152t99 -49t99 49t33 153zM70 263q0 61 15 112t44 87.5t72.5 56.5t99.5 20t99 -19.5t72 -55.5t43.5 -86.5t14.5 -113.5q0 -61 -15 -112t-44 -87.5t-72 -56.5t-99 -20t-99 19.5t-72 55.5t-44 86.5
t-15 113.5zM176 627l-42 44l136 121h61l135 -121l-40 -44l-125 91z" />
    <glyph glyph-name="otilde" unicode="&#xf5;" 
d="M353 650q-22 0 -37.5 7.5t-27.5 16.5t-22.5 16.5t-22.5 7.5q-17 0 -28 -11.5t-23 -32.5l-57 26q15 35 42.5 61.5t70.5 26.5q22 0 38 -7.5t28 -16.5l22 -17q10 -7 22 -7q17 0 28 11.5t23 32.5l57 -25q-15 -35 -42.5 -62t-70.5 -27zM432 264q0 103 -32.5 152t-98.5 49
t-99.5 -49t-33.5 -153q0 -103 33 -152t99 -49t99 49t33 153zM70 263q0 61 15 112t44 87.5t72.5 56.5t99.5 20t99 -19.5t72 -55.5t43.5 -86.5t14.5 -113.5q0 -61 -15 -112t-44 -87.5t-72 -56.5t-99 -20t-99 19.5t-72 55.5t-44 86.5t-15 113.5z" />
    <glyph glyph-name="odieresis" unicode="&#xf6;" 
d="M196 647q-25 0 -41.5 16t-16.5 40q0 25 16.5 41t41.5 16q24 0 40.5 -16t16.5 -41q0 -24 -16.5 -40t-40.5 -16zM405 647q-24 0 -40.5 16t-16.5 40q0 25 16.5 41t40.5 16q25 0 41.5 -16t16.5 -41q0 -24 -16.5 -40t-41.5 -16zM432 264q0 103 -32.5 152t-98.5 49t-99.5 -49
t-33.5 -153q0 -103 33 -152t99 -49t99 49t33 153zM70 263q0 61 15 112t44 87.5t72.5 56.5t99.5 20t99 -19.5t72 -55.5t43.5 -86.5t14.5 -113.5q0 -61 -15 -112t-44 -87.5t-72 -56.5t-99 -20t-99 19.5t-72 55.5t-44 86.5t-15 113.5z" />
    <glyph glyph-name="divide" unicode="&#xf7;" 
d="M112 274v77h376v-77h-376zM230 115q0 29 20.5 49t49.5 20t49.5 -20t20.5 -49t-20.5 -49.5t-49.5 -20.5t-49.5 20.5t-20.5 49.5zM230 511q0 29 20.5 49t49.5 20t49.5 -20t20.5 -49t-20.5 -49t-49.5 -20t-49.5 20t-20.5 49z" />
    <glyph glyph-name="oslash" unicode="&#xf8;" 
d="M70 263q0 61 15 112t44 87.5t72.5 56.5t99.5 20q12 0 24 -1t23 -3l38 120l75 -22l-41 -124q54 -32 82 -95t28 -150q0 -61 -15 -112t-44 -87.5t-72 -56.5t-99 -20q-13 0 -25 1t-23 3l-37 -123l-75 22l41 126q-55 32 -83 95t-28 151zM168 263q0 -126 49 -172l115 370
q-15 3 -31 3q-66 0 -99.5 -48.5t-33.5 -152.5zM432 264q0 122 -48 169l-115 -368q13 -3 31 -3q66 0 99 49t33 153z" />
    <glyph glyph-name="ugrave" unicode="&#xf9;" 
d="M189 527v-372q0 -51 20.5 -73t64.5 -22q42 0 79 24t58 57v386h92v-527h-79l-7 70q-31 -40 -76 -61t-92 -21q-77 0 -114.5 41t-37.5 115v383h92zM382 622l-206 93l47 77l188 -120z" />
    <glyph glyph-name="uacute" unicode="&#xfa;" 
d="M189 527v-372q0 -51 20.5 -73t64.5 -22q42 0 79 24t58 57v386h92v-527h-79l-7 70q-31 -40 -76 -61t-92 -21q-77 0 -114.5 41t-37.5 115v383h92zM200 672l188 119l47 -77l-205 -92z" />
    <glyph glyph-name="ucircumflex" unicode="&#xfb;" 
d="M189 527v-372q0 -51 20.5 -73t64.5 -22q42 0 79 24t58 57v386h92v-527h-79l-7 70q-31 -40 -76 -61t-92 -21q-77 0 -114.5 41t-37.5 115v383h92zM176 627l-42 44l136 121h61l135 -121l-40 -44l-125 91z" />
    <glyph glyph-name="udieresis" unicode="&#xfc;" 
d="M189 527v-372q0 -51 20.5 -73t64.5 -22q42 0 79 24t58 57v386h92v-527h-79l-7 70q-31 -40 -76 -61t-92 -21q-77 0 -114.5 41t-37.5 115v383h92zM196 647q-25 0 -41.5 16t-16.5 40q0 25 16.5 41t41.5 16q24 0 40.5 -16t16.5 -41q0 -24 -16.5 -40t-40.5 -16zM405 647
q-24 0 -40.5 16t-16.5 40q0 25 16.5 41t40.5 16q25 0 41.5 -16t16.5 -41q0 -24 -16.5 -40t-41.5 -16z" />
    <glyph glyph-name="yacute" unicode="&#xfd;" 
d="M358 -3q-14 -42 -34 -78t-48.5 -63.5t-67.5 -45.5t-92 -23l-13 72q40 7 67.5 18.5t46.5 28.5t31 40.5t23 53.5h-31l-182 527h98l144 -453h4l143 453h95zM200 672l188 119l47 -77l-205 -92z" />
    <glyph glyph-name="thorn" unicode="&#xfe;" 
d="M189 463q29 37 67.5 56.5t82.5 19.5q52 0 88.5 -19.5t59.5 -55.5t33 -87t10 -113q0 -60 -12.5 -110.5t-38 -87.5t-63.5 -57.5t-89 -20.5q-88 0 -138 60v-250l-92 -11v952l92 11v-287zM189 127q20 -31 50 -47.5t66 -16.5q63 0 95 48.5t32 152.5q0 103 -28 152.5t-88 49.5
q-42 0 -74 -25t-53 -57v-257z" />
    <glyph glyph-name="ydieresis" unicode="&#xff;" 
d="M358 -3q-14 -42 -34 -78t-48.5 -63.5t-67.5 -45.5t-92 -23l-13 72q40 7 67.5 18.5t46.5 28.5t31 40.5t23 53.5h-31l-182 527h98l144 -453h4l143 453h95zM197 647q-25 0 -41.5 16t-16.5 40q0 25 16.5 41t41.5 16q24 0 40.5 -16t16.5 -41q0 -24 -16.5 -40t-40.5 -16z
M406 647q-24 0 -40.5 16t-16.5 40q0 25 16.5 41t40.5 16q25 0 41.5 -16t16.5 -41q0 -24 -16.5 -40t-41.5 -16z" />
    <glyph glyph-name="Amacron" unicode="&#x100;" 
d="M430 173h-265l-53 -173h-95l223 689h120l223 -689h-100zM188 250h219l-107 353h-4zM436 796h-273v70h273v-70z" />
    <glyph glyph-name="amacron" unicode="&#x101;" 
d="M482 119q0 -32 10 -46t32 -21l-22 -64q-35 5 -61.5 22t-38.5 52q-28 -38 -73 -56t-93 -18q-80 0 -127 44.5t-47 118.5q0 82 65 126t186 44h77v41q0 56 -32.5 79t-90.5 23q-26 0 -61.5 -6.5t-76.5 -20.5l-24 68q49 18 93 26t83 8q101 0 151 -45.5t50 -126.5v-248zM261 57
q38 0 72 19t57 54v130h-72q-85 0 -120 -28.5t-35 -76.5q0 -98 98 -98zM431 674h-273v69h273v-69z" />
    <glyph glyph-name="Abreve" unicode="&#x102;" 
d="M430 173h-265l-53 -173h-95l223 689h120l223 -689h-100zM188 250h219l-107 353h-4zM299 760q-35 0 -62 12t-45.5 31t-29 42t-13.5 46l61 13q20 -74 89 -74q71 0 91 74l61 -13q-3 -23 -14 -46t-29.5 -42t-45.5 -31t-63 -12z" />
    <glyph glyph-name="abreve" unicode="&#x103;" 
d="M482 119q0 -32 10 -46t32 -21l-22 -64q-35 5 -61.5 22t-38.5 52q-28 -38 -73 -56t-93 -18q-80 0 -127 44.5t-47 118.5q0 82 65 126t186 44h77v41q0 56 -32.5 79t-90.5 23q-26 0 -61.5 -6.5t-76.5 -20.5l-24 68q49 18 93 26t83 8q101 0 151 -45.5t50 -126.5v-248zM261 57
q38 0 72 19t57 54v130h-72q-85 0 -120 -28.5t-35 -76.5q0 -98 98 -98zM292 628q-35 0 -61.5 13t-45.5 33t-29.5 45t-13.5 49l61 13q11 -38 32.5 -61t56.5 -23q36 0 58.5 23t33.5 61l61 -13q-3 -24 -14 -49t-30 -45t-46.5 -33t-62.5 -13z" />
    <glyph glyph-name="Aogonek" unicode="&#x104;" 
d="M431 173h-265l-53 -173h-96l224 689h120l223 -689q-28 -17 -45.5 -33.5t-27.5 -33t-13.5 -32t-3.5 -28.5q0 -23 15 -38t49 -15q20 0 36.5 5t25.5 10l25 -54q-24 -12 -47.5 -17t-49.5 -5q-63 0 -97 30t-34 81q0 36 24.5 70.5t67.5 59.5h-25zM189 250h219l-107 353h-4z" />
    <glyph glyph-name="aogonek" unicode="&#x105;" 
d="M482 119q0 -32 10 -46t32 -21l-22 -64q-23 -12 -37.5 -27.5t-23 -31.5t-11.5 -31t-3 -25q0 -23 14.5 -38t49.5 -15q20 0 36.5 5t24.5 10l25 -54q-24 -12 -47.5 -17t-48.5 -5q-63 0 -97 30t-34 81q0 38 27 73.5t73 59.5q-35 19 -48 59q-28 -38 -73 -56t-93 -18
q-80 0 -127 44.5t-47 118.5q0 82 65 126t186 44h77v41q0 56 -32.5 79t-90.5 23q-26 0 -61.5 -6.5t-76.5 -20.5l-24 68q49 18 93 26t83 8q101 0 151 -45.5t50 -126.5v-248zM261 57q38 0 72 19t57 54v130h-72q-85 0 -120 -28.5t-35 -76.5q0 -98 98 -98z" />
    <glyph glyph-name="Cacute" unicode="&#x106;" 
d="M358 68q57 0 94.5 18t63.5 41l49 -62q-32 -30 -84 -53.5t-127 -23.5q-65 0 -120 23t-95 68.5t-62 112t-22 153.5t24 153.5t64.5 111.5t94.5 68t115 23q68 0 114.5 -18t87.5 -50l-52 -61q-32 26 -68 38.5t-76 12.5q-41 0 -78 -14.5t-65 -47t-44 -85.5t-16 -131
q0 -75 15.5 -127.5t42.5 -85.5t64 -48.5t80 -15.5zM225 804l189 109l47 -77l-208 -81z" />
    <glyph glyph-name="cacute" unicode="&#x107;" 
d="M336 66q33 0 68 10.5t67 34.5l44 -63q-37 -30 -86 -45t-94 -15q-60 0 -106.5 19.5t-78.5 55t-48.5 86t-16.5 112.5q0 60 17 110.5t49 88t78.5 58.5t106.5 21q51 0 96.5 -14t82.5 -45l-45 -62q-32 24 -65.5 34.5t-68.5 10.5q-67 0 -109.5 -49.5t-42.5 -152.5
q0 -52 11.5 -89t31.5 -60.5t48 -34.5t61 -11zM207 672l188 119l47 -77l-205 -92z" />
    <glyph glyph-name="Ccircumflex" unicode="&#x108;" 
d="M358 68q57 0 94.5 18t63.5 41l49 -62q-32 -30 -84 -53.5t-127 -23.5q-65 0 -120 23t-95 68.5t-62 112t-22 153.5t24 153.5t64.5 111.5t94.5 68t115 23q68 0 114.5 -18t87.5 -50l-52 -61q-32 26 -68 38.5t-76 12.5q-41 0 -78 -14.5t-65 -47t-44 -85.5t-16 -131
q0 -75 15.5 -127.5t42.5 -85.5t64 -48.5t80 -15.5zM225 759l-40 45l136 111h61l135 -111l-39 -45l-127 81z" />
    <glyph glyph-name="ccircumflex" unicode="&#x109;" 
d="M336 66q33 0 68 10.5t67 34.5l44 -63q-37 -30 -86 -45t-94 -15q-60 0 -106.5 19.5t-78.5 55t-48.5 86t-16.5 112.5q0 60 17 110.5t49 88t78.5 58.5t106.5 21q51 0 96.5 -14t82.5 -45l-45 -62q-32 24 -65.5 34.5t-68.5 10.5q-67 0 -109.5 -49.5t-42.5 -152.5
q0 -52 11.5 -89t31.5 -60.5t48 -34.5t61 -11zM200 627l-42 44l136 121h61l135 -121l-40 -44l-125 91z" />
    <glyph glyph-name="Cdotaccent" unicode="&#x10a;" 
d="M358 68q57 0 94.5 18t63.5 41l49 -62q-32 -30 -84 -53.5t-127 -23.5q-65 0 -120 23t-95 68.5t-62 112t-22 153.5t24 153.5t64.5 111.5t94.5 68t115 23q68 0 114.5 -18t87.5 -50l-52 -61q-32 26 -68 38.5t-76 12.5q-41 0 -78 -14.5t-65 -47t-44 -85.5t-16 -131
q0 -75 15.5 -127.5t42.5 -85.5t64 -48.5t80 -15.5zM414 837q0 -27 -17.5 -45t-46.5 -18t-46.5 18t-17.5 45q0 26 17.5 44t46.5 18t46.5 -18t17.5 -44z" />
    <glyph glyph-name="cdotaccent" unicode="&#x10b;" 
d="M336 66q33 0 68 10.5t67 34.5l44 -63q-37 -30 -86 -45t-94 -15q-60 0 -106.5 19.5t-78.5 55t-48.5 86t-16.5 112.5q0 60 17 110.5t49 88t78.5 58.5t106.5 21q51 0 96.5 -14t82.5 -45l-45 -62q-32 24 -65.5 34.5t-68.5 10.5q-67 0 -109.5 -49.5t-42.5 -152.5
q0 -52 11.5 -89t31.5 -60.5t48 -34.5t61 -11zM389 715q0 -27 -18 -45t-47 -18t-46.5 18t-17.5 45q0 26 17.5 44t46.5 18t47 -18t18 -44z" />
    <glyph glyph-name="Ccaron" unicode="&#x10c;" 
d="M358 68q57 0 94.5 18t63.5 41l49 -62q-32 -30 -84 -53.5t-127 -23.5q-65 0 -120 23t-95 68.5t-62 112t-22 153.5t24 153.5t64.5 111.5t94.5 68t115 23q68 0 114.5 -18t87.5 -50l-52 -61q-32 26 -68 38.5t-76 12.5q-41 0 -78 -14.5t-65 -47t-44 -85.5t-16 -131
q0 -75 15.5 -127.5t42.5 -85.5t64 -48.5t80 -15.5zM352 833l126 82l39 -45l-135 -111h-61l-136 111l40 45z" />
    <glyph glyph-name="ccaron" unicode="&#x10d;" 
d="M336 66q33 0 68 10.5t67 34.5l44 -63q-37 -30 -86 -45t-94 -15q-60 0 -106.5 19.5t-78.5 55t-48.5 86t-16.5 112.5q0 60 17 110.5t49 88t78.5 58.5t106.5 21q51 0 96.5 -14t82.5 -45l-45 -62q-32 24 -65.5 34.5t-68.5 10.5q-67 0 -109.5 -49.5t-42.5 -152.5
q0 -52 11.5 -89t31.5 -60.5t48 -34.5t61 -11zM325 701l125 91l40 -44l-135 -121h-61l-136 121l42 44z" />
    <glyph glyph-name="Dcaron" unicode="&#x10e;" 
d="M454 348q0 88 -18.5 140t-48 80t-65.5 36.5t-71 8.5h-76v-538h77q37 0 73 11.5t64.5 41.5t46.5 83t18 137zM555 348q0 -108 -28.5 -176t-73.5 -106t-101 -52t-111 -14h-161v689h150q61 0 119.5 -13t104 -50t73.5 -104t28 -174zM274 833l126 82l39 -45l-135 -111h-61
l-136 111l40 45z" />
    <glyph glyph-name="dcaron" unicode="&#x10f;" 
d="M267 466q-63 0 -97.5 -50t-34.5 -153t31 -152.5t91 -49.5q42 0 73 24.5t52 56.5v259q-21 31 -50.5 48t-64.5 17zM243 539q86 0 139 -61v272l92 -11v-739h-81l-8 68q-29 -41 -66.5 -60.5t-82.5 -19.5q-51 0 -89 20t-62.5 56t-36.5 86.5t-12 112.5q0 60 14 110.5t40.5 87
t65 57.5t87.5 21zM512 763q0 23 17 39t41 16t40.5 -16t16.5 -39q0 -14 -4 -27t-13 -31l-50 -106h-53l28 117q-23 18 -23 47z" />
    <glyph glyph-name="Dcroat" unicode="&#x110;" 
d="M561 348q0 -108 -28.5 -176t-73.5 -106t-101 -52t-111 -14h-161v318h-72v70h72v301h150q61 0 119.5 -13t104 -50t73.5 -104t28 -174zM460 348q0 88 -18.5 140t-48 80t-65.5 36.5t-71 8.5h-76v-225h172v-70h-172v-243h77q37 0 73 11.5t64.5 41.5t46.5 83t18 137z" />
    <glyph glyph-name="dcroat" unicode="&#x111;" 
d="M267 539q86 0 139 -61v119h-166v70h166v83l92 -11v-72h79v-70h-79v-597h-81l-8 68q-29 -41 -66.5 -60.5t-82.5 -19.5q-51 0 -89 20t-62.5 56t-36.5 86.5t-12 112.5q0 60 14 110.5t40.5 87t65 57.5t87.5 21zM291 466q-63 0 -97.5 -50t-34.5 -153t31 -152.5t91 -49.5
q42 0 73 24.5t52 56.5v259q-21 31 -50.5 48t-64.5 17z" />
    <glyph glyph-name="Emacron" unicode="&#x112;" 
d="M207 613v-225h254v-76h-254v-237h311v-75h-406v689h398l-11 -76h-292zM446 796h-273v70h273v-70z" />
    <glyph glyph-name="emacron" unicode="&#x113;" 
d="M171 232q6 -88 48.5 -128.5t102.5 -40.5q36 0 71 10.5t69 38.5l42 -61q-37 -29 -85 -46t-99 -17q-59 0 -104.5 20t-77 56t-47.5 86.5t-16 112.5q0 60 16 110.5t46 87t72.5 57.5t95.5 21q104 0 162.5 -69.5t58.5 -190.5q0 -14 -0.5 -26t-1.5 -21h-353zM305 466
q-54 0 -91.5 -40.5t-42.5 -125.5h266q-2 82 -36 124t-96 42zM442 674h-273v69h273v-69z" />
    <glyph glyph-name="Ebreve" unicode="&#x114;" 
d="M207 613v-225h254v-76h-254v-237h311v-75h-406v689h398l-11 -76h-292zM309 760q-35 0 -62 12t-45.5 31t-29 42t-13.5 46l61 13q20 -74 89 -74q71 0 91 74l61 -13q-3 -23 -14 -46t-29.5 -42t-45.5 -31t-63 -12z" />
    <glyph glyph-name="ebreve" unicode="&#x115;" 
d="M171 232q6 -88 48.5 -128.5t102.5 -40.5q36 0 71 10.5t69 38.5l42 -61q-37 -29 -85 -46t-99 -17q-59 0 -104.5 20t-77 56t-47.5 86.5t-16 112.5q0 60 16 110.5t46 87t72.5 57.5t95.5 21q104 0 162.5 -69.5t58.5 -190.5q0 -14 -0.5 -26t-1.5 -21h-353zM305 466
q-54 0 -91.5 -40.5t-42.5 -125.5h266q-2 82 -36 124t-96 42zM305 628q-35 0 -61.5 13t-45.5 33t-29.5 45t-13.5 49l61 13q11 -38 32.5 -61t56.5 -23q36 0 58.5 23t33.5 61l61 -13q-3 -24 -14 -49t-30 -45t-46.5 -33t-62.5 -13z" />
    <glyph glyph-name="Edotaccent" unicode="&#x116;" 
d="M207 613v-225h254v-76h-254v-237h311v-75h-406v689h398l-11 -76h-292zM374 837q0 -27 -17.5 -45t-46.5 -18t-46.5 18t-17.5 45q0 26 17.5 44t46.5 18t46.5 -18t17.5 -44z" />
    <glyph glyph-name="edotaccent" unicode="&#x117;" 
d="M171 232q6 -88 48.5 -128.5t102.5 -40.5q36 0 71 10.5t69 38.5l42 -61q-37 -29 -85 -46t-99 -17q-59 0 -104.5 20t-77 56t-47.5 86.5t-16 112.5q0 60 16 110.5t46 87t72.5 57.5t95.5 21q104 0 162.5 -69.5t58.5 -190.5q0 -14 -0.5 -26t-1.5 -21h-353zM305 466
q-54 0 -91.5 -40.5t-42.5 -125.5h266q-2 82 -36 124t-96 42zM370 715q0 -27 -18 -45t-47 -18t-46.5 18t-17.5 45q0 26 17.5 44t46.5 18t47 -18t18 -44z" />
    <glyph glyph-name="Eogonek" unicode="&#x118;" 
d="M167 613v-225h254v-76h-254v-237h311v-75q-28 -16 -45.5 -33t-27 -33.5t-13 -32t-3.5 -28.5q0 -23 15 -38t49 -15q20 0 36.5 5t25.5 10l25 -54q-24 -12 -47.5 -17t-49.5 -5q-63 0 -97 30t-34 81q0 36 24.5 70.5t67.5 59.5h-332v689h398l-11 -76h-292z" />
    <glyph glyph-name="eogonek" unicode="&#x119;" 
d="M171 232q6 -88 48.5 -128.5t102.5 -40.5q36 0 71 10.5t69 38.5l42 -61q-56 -39 -93 -84t-37 -94q0 -23 15 -38t49 -15q20 0 36.5 5t25.5 10l25 -54q-24 -12 -47.5 -17t-49.5 -5q-63 0 -97 30t-34 81q0 35 23.5 69.5t64.5 60.5q-17 -6 -32 -9t-33 -3q-59 0 -104.5 20
t-77 56t-47.5 86.5t-16 112.5q0 60 16 110.5t46 87t72.5 57.5t95.5 21q104 0 162.5 -69.5t58.5 -190.5q0 -14 -0.5 -26t-1.5 -21h-353zM305 466q-54 0 -91.5 -40.5t-42.5 -125.5h266q-2 82 -36 124t-96 42z" />
    <glyph glyph-name="Ecaron" unicode="&#x11a;" 
d="M207 613v-225h254v-76h-254v-237h311v-75h-406v689h398l-11 -76h-292zM311 833l126 82l39 -45l-135 -111h-61l-136 111l40 45z" />
    <glyph glyph-name="ecaron" unicode="&#x11b;" 
d="M171 232q6 -88 48.5 -128.5t102.5 -40.5q36 0 71 10.5t69 38.5l42 -61q-37 -29 -85 -46t-99 -17q-59 0 -104.5 20t-77 56t-47.5 86.5t-16 112.5q0 60 16 110.5t46 87t72.5 57.5t95.5 21q104 0 162.5 -69.5t58.5 -190.5q0 -14 -0.5 -26t-1.5 -21h-353zM305 466
q-54 0 -91.5 -40.5t-42.5 -125.5h266q-2 82 -36 124t-96 42zM307 701l125 91l40 -44l-135 -121h-61l-136 121l42 44z" />
    <glyph glyph-name="Gcircumflex" unicode="&#x11c;" 
d="M325 -12q-63 0 -113 22.5t-85.5 67t-54.5 111.5t-19 156t24.5 155.5t65 111t92.5 67t108 22.5q35 0 63 -5t52 -15t44.5 -24t41.5 -33l-56 -58q-32 29 -66 43t-78 14q-36 0 -70.5 -14t-61 -47t-42.5 -86t-16 -131q0 -74 11.5 -127t34 -87t55.5 -49.5t77 -15.5q68 0 126 32
v204h-130l-11 77h235v-330q-47 -26 -100.5 -43.5t-126.5 -17.5zM206 759l-40 45l136 111h61l135 -111l-39 -45l-127 81z" />
    <glyph glyph-name="gcircumflex" unicode="&#x11d;" 
d="M141 -25q-4 -8 -6.5 -18.5t-2.5 -22.5q0 -35 35.5 -55t114.5 -20q44 0 73 6.5t46.5 17.5t25 25.5t7.5 31.5q0 33 -26.5 50.5t-99.5 20.5q-100 4 -152 28t-52 79q0 25 13.5 48t39.5 41q-40 23 -62 61t-22 86q0 39 14.5 73t42 58.5t66.5 39t87 14.5q43 0 78 3.5t64.5 10
t53.5 15t46 18.5l27 -83q-33 -11 -70 -13.5t-78 -2.5v-3q39 -18 61.5 -52t22.5 -79q0 -38 -14 -70.5t-40.5 -56.5t-64 -37.5t-84.5 -13.5q-18 0 -37 2t-36 7q-10 -8 -16 -19.5t-6 -21.5q0 -12 5 -21t19 -15.5t39.5 -10t66.5 -4.5q100 -3 153.5 -39t53.5 -108
q0 -41 -19.5 -71t-52.5 -49.5t-77.5 -28.5t-95.5 -9q-62 0 -106 9.5t-72 27t-41 41t-13 52.5q0 18 3.5 37.5t16.5 39.5zM167 354q0 -52 31 -85t85 -33t84 32.5t30 86.5q0 57 -29 87.5t-85 30.5q-55 0 -85.5 -34t-30.5 -85zM168 627l-42 44l136 121h61l135 -121l-40 -44
l-125 91z" />
    <glyph glyph-name="Gbreve" unicode="&#x11e;" 
d="M325 -12q-63 0 -113 22.5t-85.5 67t-54.5 111.5t-19 156t24.5 155.5t65 111t92.5 67t108 22.5q35 0 63 -5t52 -15t44.5 -24t41.5 -33l-56 -58q-32 29 -66 43t-78 14q-36 0 -70.5 -14t-61 -47t-42.5 -86t-16 -131q0 -74 11.5 -127t34 -87t55.5 -49.5t77 -15.5q68 0 126 32
v204h-130l-11 77h235v-330q-47 -26 -100.5 -43.5t-126.5 -17.5zM329 760q-35 0 -62 12t-45.5 31t-29 42t-13.5 46l61 13q20 -74 89 -74q71 0 91 74l61 -13q-3 -23 -14 -46t-29.5 -42t-45.5 -31t-63 -12z" />
    <glyph glyph-name="gbreve" unicode="&#x11f;" 
d="M141 -25q-4 -8 -6.5 -18.5t-2.5 -22.5q0 -35 35.5 -55t114.5 -20q44 0 73 6.5t46.5 17.5t25 25.5t7.5 31.5q0 33 -26.5 50.5t-99.5 20.5q-100 4 -152 28t-52 79q0 25 13.5 48t39.5 41q-40 23 -62 61t-22 86q0 39 14.5 73t42 58.5t66.5 39t87 14.5q43 0 78 3.5t64.5 10
t53.5 15t46 18.5l27 -83q-33 -11 -70 -13.5t-78 -2.5v-3q39 -18 61.5 -52t22.5 -79q0 -38 -14 -70.5t-40.5 -56.5t-64 -37.5t-84.5 -13.5q-18 0 -37 2t-36 7q-10 -8 -16 -19.5t-6 -21.5q0 -12 5 -21t19 -15.5t39.5 -10t66.5 -4.5q100 -3 153.5 -39t53.5 -108
q0 -41 -19.5 -71t-52.5 -49.5t-77.5 -28.5t-95.5 -9q-62 0 -106 9.5t-72 27t-41 41t-13 52.5q0 18 3.5 37.5t16.5 39.5zM167 354q0 -52 31 -85t85 -33t84 32.5t30 86.5q0 57 -29 87.5t-85 30.5q-55 0 -85.5 -34t-30.5 -85zM291 628q-35 0 -61.5 13t-45.5 33t-29.5 45
t-13.5 49l61 13q11 -38 32.5 -61t56.5 -23q36 0 58.5 23t33.5 61l61 -13q-3 -24 -14 -49t-30 -45t-46.5 -33t-62.5 -13z" />
    <glyph glyph-name="Gdotaccent" unicode="&#x120;" 
d="M325 -12q-63 0 -113 22.5t-85.5 67t-54.5 111.5t-19 156t24.5 155.5t65 111t92.5 67t108 22.5q35 0 63 -5t52 -15t44.5 -24t41.5 -33l-56 -58q-32 29 -66 43t-78 14q-36 0 -70.5 -14t-61 -47t-42.5 -86t-16 -131q0 -74 11.5 -127t34 -87t55.5 -49.5t77 -15.5q68 0 126 32
v204h-130l-11 77h235v-330q-47 -26 -100.5 -43.5t-126.5 -17.5zM395 837q0 -27 -17.5 -45t-46.5 -18t-46.5 18t-17.5 45q0 26 17.5 44t46.5 18t46.5 -18t17.5 -44z" />
    <glyph glyph-name="gdotaccent" unicode="&#x121;" 
d="M141 -25q-4 -8 -6.5 -18.5t-2.5 -22.5q0 -35 35.5 -55t114.5 -20q44 0 73 6.5t46.5 17.5t25 25.5t7.5 31.5q0 33 -26.5 50.5t-99.5 20.5q-100 4 -152 28t-52 79q0 25 13.5 48t39.5 41q-40 23 -62 61t-22 86q0 39 14.5 73t42 58.5t66.5 39t87 14.5q43 0 78 3.5t64.5 10
t53.5 15t46 18.5l27 -83q-33 -11 -70 -13.5t-78 -2.5v-3q39 -18 61.5 -52t22.5 -79q0 -38 -14 -70.5t-40.5 -56.5t-64 -37.5t-84.5 -13.5q-18 0 -37 2t-36 7q-10 -8 -16 -19.5t-6 -21.5q0 -12 5 -21t19 -15.5t39.5 -10t66.5 -4.5q100 -3 153.5 -39t53.5 -108
q0 -41 -19.5 -71t-52.5 -49.5t-77.5 -28.5t-95.5 -9q-62 0 -106 9.5t-72 27t-41 41t-13 52.5q0 18 3.5 37.5t16.5 39.5zM167 354q0 -52 31 -85t85 -33t84 32.5t30 86.5q0 57 -29 87.5t-85 30.5q-55 0 -85.5 -34t-30.5 -85zM358 715q0 -27 -18 -45t-47 -18t-46.5 18t-17.5 45
q0 26 17.5 44t46.5 18t47 -18t18 -44z" />
    <glyph glyph-name="uni0122" unicode="&#x122;" 
d="M325 -12q-63 0 -113 22.5t-85.5 67t-54.5 111.5t-19 156t24.5 155.5t65 111t92.5 67t108 22.5q35 0 63 -5t52 -15t44.5 -24t41.5 -33l-56 -58q-32 29 -66 43t-78 14q-36 0 -70.5 -14t-61 -47t-42.5 -86t-16 -131q0 -74 11.5 -127t34 -87t55.5 -49.5t77 -15.5q68 0 126 32
v204h-130l-11 77h235v-330q-47 -26 -100.5 -43.5t-126.5 -17.5zM278 -126q0 24 16.5 40t40.5 16t40.5 -16t16.5 -40q0 -14 -4 -27t-12 -31l-50 -106h-54l29 117q-23 18 -23 47z" />
    <glyph glyph-name="uni0123" unicode="&#x123;" 
d="M141 -25q-4 -8 -6.5 -18.5t-2.5 -22.5q0 -35 35.5 -55t114.5 -20q44 0 73 6.5t46.5 17.5t25 25.5t7.5 31.5q0 33 -26.5 50.5t-99.5 20.5q-100 4 -152 28t-52 79q0 25 13.5 48t39.5 41q-40 23 -62 61t-22 86q0 39 14.5 73t42 58.5t66.5 39t87 14.5q43 0 78 3.5t64.5 10
t53.5 15t46 18.5l27 -83q-33 -11 -70 -13.5t-78 -2.5v-3q39 -18 61.5 -52t22.5 -79q0 -38 -14 -70.5t-40.5 -56.5t-64 -37.5t-84.5 -13.5q-18 0 -37 2t-36 7q-10 -8 -16 -19.5t-6 -21.5q0 -12 5 -21t19 -15.5t39.5 -10t66.5 -4.5q100 -3 153.5 -39t53.5 -108
q0 -41 -19.5 -71t-52.5 -49.5t-77.5 -28.5t-95.5 -9q-62 0 -106 9.5t-72 27t-41 41t-13 52.5q0 18 3.5 37.5t16.5 39.5zM167 354q0 -52 31 -85t85 -33t84 32.5t30 86.5q0 57 -29 87.5t-85 30.5q-55 0 -85.5 -34t-30.5 -85zM347 698q0 -23 -17 -39.5t-41 -16.5t-40.5 16.5
t-16.5 39.5q0 14 4 27t13 31l50 106h53l-28 -117q23 -18 23 -47z" />
    <glyph glyph-name="Hcircumflex" unicode="&#x124;" 
d="M425 0v323h-250v-323h-95v689h95v-288h250v288h95v-689h-95zM174 759l-40 45l136 111h61l135 -111l-39 -45l-127 81z" />
    <glyph glyph-name="hcircumflex" unicode="&#x125;" 
d="M97 0v738l92 10v-288q32 38 76 58.5t91 20.5q77 0 112.5 -41t35.5 -115v-383h-92v377q0 48 -21 69t-66 21q-21 0 -41 -7.5t-37.5 -19.5t-32.5 -27.5t-25 -30.5v-382h-92zM174 779l-40 45l136 111h61l135 -111l-39 -45l-127 81z" />
    <glyph glyph-name="Hbar" unicode="&#x126;" 
d="M425 0v323h-250v-323h-95v508h-77v69h77v112h95v-112h250v112h95v-112h78v-69h-78v-508h-95zM425 401v107h-250v-107h250z" />
    <glyph glyph-name="hbar" unicode="&#x127;" 
d="M103 0v597h-79v70h79v71l92 10v-81h166v-70h-166v-137q32 38 76 58.5t91 20.5q77 0 112.5 -41t35.5 -115v-383h-92v377q0 48 -21 69t-66 21q-21 0 -41 -7.5t-37.5 -19.5t-32.5 -27.5t-25 -30.5v-382h-92z" />
    <glyph glyph-name="Itilde" unicode="&#x128;" 
d="M500 614h-152v-539h152v-75h-400v75h152v539h-152v75h400v-75zM353 773q-22 0 -37.5 7.5t-27.5 16.5t-22.5 16.5t-22.5 7.5q-17 0 -28 -11.5t-23 -32.5l-57 25q15 35 42 62t71 27q22 0 38 -7.5t28 -16.5l22 -17q10 -7 22 -7q17 0 28 11t23 32l57 -25q-16 -35 -43 -61.5
t-70 -26.5z" />
    <glyph glyph-name="itilde" unicode="&#x129;" 
d="M517 0h-400v71h161v385h-156v71h248v-456h147v-71zM344 650q-22 0 -37.5 7.5t-27.5 16.5t-22.5 16.5t-22.5 7.5q-17 0 -28 -11.5t-23 -32.5l-57 26q15 35 42.5 61.5t70.5 26.5q22 0 38 -7.5t28 -16.5l22 -17q10 -7 22 -7q17 0 28 11.5t23 32.5l57 -25q-15 -35 -42.5 -62
t-70.5 -27z" />
    <glyph glyph-name="Imacron" unicode="&#x12a;" 
d="M500 614h-152v-539h152v-75h-400v75h152v539h-152v75h400v-75zM436 796h-273v70h273v-70z" />
    <glyph glyph-name="imacron" unicode="&#x12b;" 
d="M427 674h-273v69h273v-69zM517 0h-400v71h161v385h-156v71h248v-456h147v-71z" />
    <glyph glyph-name="Ibreve" unicode="&#x12c;" 
d="M500 614h-152v-539h152v-75h-400v75h152v539h-152v75h400v-75zM299 760q-35 0 -62 12t-45.5 31t-29 42t-13.5 46l61 13q20 -74 89 -74q71 0 91 74l61 -13q-3 -23 -14 -46t-29.5 -42t-45.5 -31t-63 -12z" />
    <glyph glyph-name="ibreve" unicode="&#x12d;" 
d="M298 628q-35 0 -61.5 13t-45.5 33t-29.5 45t-13.5 49l61 13q11 -38 32.5 -61t56.5 -23q36 0 58.5 23t33.5 61l61 -13q-3 -24 -14 -49t-30 -45t-46.5 -33t-62.5 -13zM517 0h-400v71h161v385h-156v71h248v-456h147v-71z" />
    <glyph glyph-name="Iogonek" unicode="&#x12e;" 
d="M500 614h-152v-539h152v-75h-152q-28 -16 -45.5 -33t-27 -33.5t-13 -32t-3.5 -28.5q0 -23 15 -38t49 -15q20 0 36.5 5t25.5 10l25 -54q-24 -12 -47.5 -17t-49.5 -5q-63 0 -97 30t-34 81q0 36 24.5 70.5t67.5 59.5h-174v75h152v539h-152v75h400v-75z" />
    <glyph glyph-name="iogonek" unicode="&#x12f;" 
d="M517 0h-145q-28 -16 -45.5 -33t-27 -33.5t-13 -32t-3.5 -28.5q0 -23 15 -38t49 -15q20 0 36.5 5t25.5 10l25 -54q-24 -12 -47.5 -17t-49.5 -5q-63 0 -97 30t-34 81q0 36 24.5 70.5t67.5 59.5h-181v71h161v385h-156v71h248v-456h147v-71zM389 715q0 -27 -18 -45t-47 -18
t-46.5 18t-17.5 45q0 26 17.5 44t46.5 18t47 -18t18 -44z" />
    <glyph glyph-name="Idotaccent" unicode="&#x130;" 
d="M501 614h-152v-539h152v-75h-400v75h152v539h-152v75h400v-75zM364 837q0 -27 -17.5 -45t-46.5 -18t-46.5 18t-17.5 45q0 26 17.5 44t46.5 18t46.5 -18t17.5 -44z" />
    <glyph glyph-name="dotlessi" unicode="&#x131;" 
d="M517 0h-400v71h161v385h-156v71h248v-456h147v-71z" />
    <glyph glyph-name="IJ" unicode="&#x132;" 
d="M198 -68q64 21 110.5 44.5t77 54t45 69.5t14.5 90v424h-236v-539h77v-75h-270v75h97v539h-97v75h524v-503q0 -112 -77 -196t-242 -129z" />
    <glyph glyph-name="ij" unicode="&#x133;" 
d="M328 0h-271v71h91v387h-86v69h453v-465q0 -57 -20 -100.5t-55 -76.5t-82.5 -56.5t-102.5 -41.5l-28 71q37 14 72.5 30.5t63.5 40t45 54.5t17 73v402h-188v-387h91v-71zM259 715q0 -27 -18 -45t-47 -18t-46.5 18t-17.5 45q0 26 17.5 44t46.5 18t47 -18t18 -44zM524 715
q0 -27 -18 -45t-47 -18t-46.5 18t-17.5 45q0 26 17.5 44t46.5 18t47 -18t18 -44z" />
    <glyph glyph-name="Jcircumflex" unicode="&#x134;" 
d="M450 186q0 -112 -77 -196t-242 -129l-23 71q64 21 110.5 44.5t77 54t45 69.5t14.5 90v424h-245v75h340v-503zM168 759l-40 45l136 111h61l135 -111l-39 -45l-127 81z" />
    <glyph glyph-name="jcircumflex" unicode="&#x135;" 
d="M176 627l-42 44l136 121h61l135 -121l-40 -44l-125 91zM90 -142q37 14 72.5 30.5t63 40t44 54.5t16.5 73v400h-171v71h263v-465q0 -57 -20 -100.5t-55 -76.5t-82.5 -56.5t-102.5 -41.5z" />
    <glyph glyph-name="uni0136" unicode="&#x136;" 
d="M195 0h-95v689h95v-689zM200 368l262 321h108l-261 -315l280 -374h-117zM251 -126q0 24 17 40t41 16t40.5 -16t16.5 -40q0 -23 -17 -57l-50 -106h-53l29 116q-11 9 -17.5 21t-6.5 26z" />
    <glyph glyph-name="uni0137" unicode="&#x137;" 
d="M97 0v739l92 11v-750h-92zM198 288l222 239h115l-225 -237l251 -290h-118zM236 -126q0 24 16.5 40t40.5 16t40.5 -16t16.5 -40q0 -14 -4 -27t-12 -31l-50 -106h-54l29 117q-23 18 -23 47z" />
    <glyph glyph-name="kgreenlandic" unicode="&#x138;" 
d="M97 0v527h92v-527h-92zM198 282l222 245h115l-227 -239l253 -288h-118z" />
    <glyph glyph-name="Lacute" unicode="&#x139;" 
d="M131 0v689h95v-606h313l-11 -83h-397zM100 804l189 109l47 -77l-208 -81z" />
    <glyph glyph-name="lacute" unicode="&#x13a;" 
d="M496 16q-19 -11 -54.5 -19.5t-73.5 -8.5q-73 0 -116.5 40.5t-43.5 113.5v526h-161v71h253v-605q0 -38 23.5 -54t61.5 -16q21 0 43.5 5t43.5 13zM139 824l189 109l47 -77l-208 -81z" />
    <glyph glyph-name="uni013B" unicode="&#x13b;" 
d="M131 0v689h95v-606h313l-11 -83h-397zM268 -126q0 24 17 40t41 16t40.5 -16t16.5 -40q0 -23 -17 -57l-50 -106h-53l29 116q-11 9 -17.5 21t-6.5 26z" />
    <glyph glyph-name="uni013C" unicode="&#x13c;" 
d="M496 16q-19 -11 -54.5 -19.5t-73.5 -8.5q-73 0 -116.5 40.5t-43.5 113.5v526h-161v71h253v-605q0 -38 23.5 -54t61.5 -16q21 0 43.5 5t43.5 13zM290 -126q0 24 16.5 40t40.5 16t40.5 -16t16.5 -40q0 -14 -4 -27t-12 -31l-50 -106h-54l29 117q-23 18 -23 47z" />
    <glyph glyph-name="Lcaron" unicode="&#x13d;" 
d="M131 0v689h95v-606h313l-11 -83h-397zM314 638q0 23 17 39t41 16t40.5 -16t16.5 -39q0 -14 -4 -27t-13 -31l-50 -106h-53l28 117q-23 18 -23 47z" />
    <glyph glyph-name="lcaron" unicode="&#x13e;" 
d="M496 16q-19 -11 -54.5 -19.5t-73.5 -8.5q-73 0 -116.5 40.5t-43.5 113.5v526h-161v71h253v-605q0 -38 23.5 -54t61.5 -16q21 0 43.5 5t43.5 13zM392 763q0 23 17 39t41 16t40.5 -16t16.5 -39q0 -14 -4 -27t-13 -31l-50 -106h-53l28 117q-23 18 -23 47z" />
    <glyph glyph-name="Ldot" unicode="&#x13f;" 
d="M131 0v689h95v-606h313l-11 -83h-397zM477 362q0 -27 -18 -45t-47 -18t-46.5 18t-17.5 45q0 26 17.5 44t46.5 18t47 -18t18 -44z" />
    <glyph glyph-name="ldot" unicode="&#x140;" 
d="M496 16q-19 -11 -54.5 -19.5t-73.5 -8.5q-73 0 -116.5 40.5t-43.5 113.5v526h-161v71h253v-605q0 -38 23.5 -54t61.5 -16q21 0 43.5 5t43.5 13zM481 360q0 -27 -18 -45t-47 -18t-46.5 18t-17.5 45q0 26 17.5 44t46.5 18t47 -18t18 -44z" />
    <glyph glyph-name="Lslash" unicode="&#x141;" 
d="M131 0v264l-56 -35l-38 60l94 57v343h95v-284l160 100l39 -59l-199 -123v-240h313l-11 -83h-397z" />
    <glyph glyph-name="lslash" unicode="&#x142;" 
d="M496 16q-19 -11 -54.5 -19.5t-73.5 -8.5q-73 0 -116.5 40.5t-43.5 113.5v159l-65 -40l-38 58l103 62v287h-161v71h253v-301l87 54l38 -58l-125 -77v-223q0 -38 23.5 -54t61.5 -16q21 0 43.5 5t43.5 13z" />
    <glyph glyph-name="Nacute" unicode="&#x143;" 
d="M390 0l-232 583h-4q1 -6 3 -30t4 -59t4 -76.5t2 -81.5v-336h-87v689h127l235 -586h4q-1 6 -3 28.5t-4.5 56t-4 76t-1.5 89.5v336h87v-689h-130zM202 804l189 109l47 -77l-208 -81z" />
    <glyph glyph-name="nacute" unicode="&#x144;" 
d="M97 0v527h79l7 -72q32 41 79 62.5t94 21.5q77 0 112.5 -41t35.5 -115v-383h-92v323q0 39 -3 66t-12 44.5t-26 25.5t-46 8q-21 0 -41 -7.5t-37.5 -19.5t-32.5 -27.5t-25 -30.5v-382h-92zM195 672l188 119l47 -77l-205 -92z" />
    <glyph glyph-name="uni0145" unicode="&#x145;" 
d="M390 0l-232 583h-4q1 -6 3 -30t4 -59t4 -76.5t2 -81.5v-336h-87v689h127l235 -586h4q-1 6 -3 28.5t-4.5 56t-4 76t-1.5 89.5v336h87v-689h-130zM242 -126q0 24 17 40t41 16t40.5 -16t16.5 -40q0 -23 -17 -57l-50 -106h-53l29 116q-11 9 -17.5 21t-6.5 26z" />
    <glyph glyph-name="uni0146" unicode="&#x146;" 
d="M97 0v527h79l7 -72q32 41 79 62.5t94 21.5q77 0 112.5 -41t35.5 -115v-383h-92v323q0 39 -3 66t-12 44.5t-26 25.5t-46 8q-21 0 -41 -7.5t-37.5 -19.5t-32.5 -27.5t-25 -30.5v-382h-92zM244 -126q0 24 16.5 40t40.5 16t40.5 -16t16.5 -40q0 -14 -4 -27t-12 -31l-50 -106
h-54l29 117q-23 18 -23 47z" />
    <glyph glyph-name="Ncaron" unicode="&#x147;" 
d="M390 0l-232 583h-4q1 -6 3 -30t4 -59t4 -76.5t2 -81.5v-336h-87v689h127l235 -586h4q-1 6 -3 28.5t-4.5 56t-4 76t-1.5 89.5v336h87v-689h-130zM300 833l126 82l39 -45l-135 -111h-61l-136 111l40 45z" />
    <glyph glyph-name="ncaron" unicode="&#x148;" 
d="M97 0v527h79l7 -72q32 41 79 62.5t94 21.5q77 0 112.5 -41t35.5 -115v-383h-92v323q0 39 -3 66t-12 44.5t-26 25.5t-46 8q-21 0 -41 -7.5t-37.5 -19.5t-32.5 -27.5t-25 -30.5v-382h-92zM306 701l125 91l40 -44l-135 -121h-61l-136 121l42 44z" />
    <glyph glyph-name="napostrophe" unicode="&#x149;" 
d="M97 0v527h79l7 -72q32 41 79 62.5t94 21.5q77 0 112.5 -41t35.5 -115v-383h-92v323q0 39 -3 66t-12 44.5t-26 25.5t-46 8q-21 0 -41 -7.5t-37.5 -19.5t-32.5 -27.5t-25 -30.5v-382h-92zM47 807q0 23 17 39t41 16t40.5 -16t16.5 -39q0 -14 -4 -27t-13 -31l-50 -106h-53
l28 117q-23 18 -23 47z" />
    <glyph glyph-name="Eng" unicode="&#x14a;" 
d="M520 0q0 -43 -12.5 -76t-36 -59t-56.5 -45t-74 -33l-24 72q33 13 54.5 27t34 31t17.5 37t5 46h-38l-232 583h-4q1 -6 3 -30t4 -59t4 -76.5t2 -81.5v-336h-87v689h127l235 -586h4q-1 6 -3 28.5t-4.5 56t-4 76t-1.5 89.5v336h87v-689z" />
    <glyph glyph-name="eng" unicode="&#x14b;" 
d="M504 32q0 -57 -10.5 -95.5t-30.5 -65.5t-50 -46t-70 -37l-34 67q26 12 45.5 24.5t32 31t19 46t6.5 69.5v297q0 39 -3 66t-12 44.5t-26 25.5t-46 8q-21 0 -41 -7.5t-37.5 -19.5t-32.5 -27.5t-25 -30.5v-382h-92v527h79l7 -72q32 41 79 62.5t94 21.5q77 0 112.5 -41
t35.5 -115v-351z" />
    <glyph glyph-name="Omacron" unicode="&#x14c;" 
d="M556 344q0 -79 -16 -144.5t-48.5 -112.5t-80.5 -73t-111 -26t-111 25.5t-80.5 72t-48.5 112t-16 145.5q0 79 16 144.5t48.5 113t80.5 74t111 26.5t111 -25.5t80.5 -72.5t48.5 -113t16 -146zM457 344q0 136 -36.5 207.5t-120.5 71.5t-120.5 -72t-36.5 -208
q0 -137 37.5 -207t119.5 -70q84 0 120.5 70.5t36.5 207.5zM436 796h-273v70h273v-70z" />
    <glyph glyph-name="omacron" unicode="&#x14d;" 
d="M436 674h-273v69h273v-69zM432 264q0 103 -32.5 152t-98.5 49t-99.5 -49t-33.5 -153q0 -103 33 -152t99 -49t99 49t33 153zM70 263q0 61 15 112t44 87.5t72.5 56.5t99.5 20t99 -19.5t72 -55.5t43.5 -86.5t14.5 -113.5q0 -61 -15 -112t-44 -87.5t-72 -56.5t-99 -20
t-99 19.5t-72 55.5t-44 86.5t-15 113.5z" />
    <glyph glyph-name="Obreve" unicode="&#x14e;" 
d="M556 344q0 -79 -16 -144.5t-48.5 -112.5t-80.5 -73t-111 -26t-111 25.5t-80.5 72t-48.5 112t-16 145.5q0 79 16 144.5t48.5 113t80.5 74t111 26.5t111 -25.5t80.5 -72.5t48.5 -113t16 -146zM457 344q0 136 -36.5 207.5t-120.5 71.5t-120.5 -72t-36.5 -208
q0 -137 37.5 -207t119.5 -70q84 0 120.5 70.5t36.5 207.5zM299 760q-35 0 -62 12t-45.5 31t-29 42t-13.5 46l61 13q20 -74 89 -74q71 0 91 74l61 -13q-3 -23 -14 -46t-29.5 -42t-45.5 -31t-63 -12z" />
    <glyph glyph-name="obreve" unicode="&#x14f;" 
d="M432 264q0 103 -32.5 152t-98.5 49t-99.5 -49t-33.5 -153q0 -103 33 -152t99 -49t99 49t33 153zM70 263q0 61 15 112t44 87.5t72.5 56.5t99.5 20t99 -19.5t72 -55.5t43.5 -86.5t14.5 -113.5q0 -61 -15 -112t-44 -87.5t-72 -56.5t-99 -20t-99 19.5t-72 55.5t-44 86.5
t-15 113.5zM298 628q-35 0 -61.5 13t-45.5 33t-29.5 45t-13.5 49l61 13q11 -38 32.5 -61t56.5 -23q36 0 58.5 23t33.5 61l61 -13q-3 -24 -14 -49t-30 -45t-46.5 -33t-62.5 -13z" />
    <glyph glyph-name="Ohungarumlaut" unicode="&#x150;" 
d="M556 344q0 -79 -16 -144.5t-48.5 -112.5t-80.5 -73t-111 -26t-111 25.5t-80.5 72t-48.5 112t-16 145.5q0 79 16 144.5t48.5 113t80.5 74t111 26.5t111 -25.5t80.5 -72.5t48.5 -113t16 -146zM457 344q0 136 -36.5 207.5t-120.5 71.5t-120.5 -72t-36.5 -208
q0 -137 37.5 -207t119.5 -70q84 0 120.5 70.5t36.5 207.5zM195 792l80 176l78 -37l-100 -166zM359 792l89 176l77 -40l-110 -165z" />
    <glyph glyph-name="ohungarumlaut" unicode="&#x151;" 
d="M144 662l80 176l78 -37l-100 -166zM308 662l89 176l77 -40l-110 -165zM432 264q0 103 -32.5 152t-98.5 49t-99.5 -49t-33.5 -153q0 -103 33 -152t99 -49t99 49t33 153zM70 263q0 61 15 112t44 87.5t72.5 56.5t99.5 20t99 -19.5t72 -55.5t43.5 -86.5t14.5 -113.5
q0 -61 -15 -112t-44 -87.5t-72 -56.5t-99 -20t-99 19.5t-72 55.5t-44 86.5t-15 113.5z" />
    <glyph glyph-name="OE" unicode="&#x152;" 
d="M330 344q0 76 -6.5 129t-21 87t-36.5 49.5t-53 15.5q-30 0 -51.5 -15.5t-35.5 -49.5t-21 -87.5t-7 -129.5t7.5 -129t21.5 -86.5t35.5 -49t50.5 -15.5q30 0 52.5 15.5t36.5 49t21 87t7 129.5zM359 614q26 -33 42 -88.5t20 -138.5h150v-75h-150q-2 -86 -19.5 -144
t-46.5 -93h260v-75h-331q-17 -5 -34 -8.5t-37 -3.5q-109 0 -161 89t-52 266q0 174 52.5 266t160.5 92q20 0 37.5 -3t36.5 -9h320l-11 -75h-237z" />
    <glyph glyph-name="oe" unicode="&#x153;" 
d="M448 539q44 0 75.5 -18t51.5 -51.5t29.5 -81.5t9.5 -109q0 -14 -0.5 -25.5t-1.5 -21.5h-260q7 -88 32 -129t76 -41q28 0 49 10t46 29l41 -60q-30 -24 -62.5 -38.5t-75.5 -14.5q-55 0 -92.5 25.5t-57.5 73.5q-19 -45 -50.5 -72t-89.5 -27q-44 0 -76.5 19.5t-53.5 55.5
t-31 86.5t-10 113.5q0 61 10 112t30.5 87.5t53 56.5t77.5 20q61 0 92.5 -27.5t48.5 -73.5q18 44 50.5 72.5t88.5 28.5zM263 264q0 104 -19 153t-66 49q-48 0 -67.5 -49.5t-19.5 -153.5q0 -107 19.5 -154t67.5 -47q47 0 66 45.5t19 156.5zM445 466q-22 0 -38 -8.5t-27.5 -28
t-18 -51.5t-9.5 -78h176q-2 82 -18.5 124t-64.5 42z" />
    <glyph glyph-name="Racute" unicode="&#x154;" 
d="M540 494q0 -39 -12.5 -70t-35 -54.5t-52.5 -40t-65 -25.5l202 -304h-113l-184 292h-88v-292h-95v689h181q130 0 196 -49t66 -146zM439 494q0 65 -37 93t-115 28h-95v-250h96q72 0 111.5 29.5t39.5 99.5zM186 804l189 109l47 -77l-208 -81z" />
    <glyph glyph-name="racute" unicode="&#x155;" 
d="M452 0h-360v71h121v385h-121v71h201l11 -101q23 56 63 84.5t87 28.5q19 0 33 -1.5t37 -6.5l-17 -91q-20 5 -33.5 7t-30.5 2q-25 0 -47 -11.5t-40 -31t-31 -45t-20 -52.5v-238h147v-71zM203 672l188 119l47 -77l-205 -92z" />
    <glyph glyph-name="uni0156" unicode="&#x156;" 
d="M540 494q0 -39 -12.5 -70t-35 -54.5t-52.5 -40t-65 -25.5l202 -304h-113l-184 292h-88v-292h-95v689h181q130 0 196 -49t66 -146zM439 494q0 65 -37 93t-115 28h-95v-250h96q72 0 111.5 29.5t39.5 99.5zM245 -126q0 24 17 40t41 16t40.5 -16t16.5 -40q0 -23 -17 -57
l-50 -106h-53l29 116q-11 9 -17.5 21t-6.5 26z" />
    <glyph glyph-name="uni0157" unicode="&#x157;" 
d="M452 0h-360v71h121v385h-121v71h201l11 -101q23 56 63 84.5t87 28.5q19 0 33 -1.5t37 -6.5l-17 -91q-20 5 -33.5 7t-30.5 2q-25 0 -47 -11.5t-40 -31t-31 -45t-20 -52.5v-238h147v-71zM214 -126q0 24 16.5 40t40.5 16t40.5 -16t16.5 -40q0 -14 -4 -27t-12 -31l-50 -106
h-54l29 117q-23 18 -23 47z" />
    <glyph glyph-name="Rcaron" unicode="&#x158;" 
d="M540 494q0 -39 -12.5 -70t-35 -54.5t-52.5 -40t-65 -25.5l202 -304h-113l-184 292h-88v-292h-95v689h181q130 0 196 -49t66 -146zM439 494q0 65 -37 93t-115 28h-95v-250h96q72 0 111.5 29.5t39.5 99.5zM290 833l126 82l39 -45l-135 -111h-61l-136 111l40 45z" />
    <glyph glyph-name="rcaron" unicode="&#x159;" 
d="M452 0h-360v71h121v385h-121v71h201l11 -101q23 56 63 84.5t87 28.5q19 0 33 -1.5t37 -6.5l-17 -91q-20 5 -33.5 7t-30.5 2q-25 0 -47 -11.5t-40 -31t-31 -45t-20 -52.5v-238h147v-71zM300 701l125 91l40 -44l-135 -121h-61l-136 121l42 44z" />
    <glyph glyph-name="Sacute" unicode="&#x15a;" 
d="M540 192q0 -45 -17 -82.5t-49.5 -64.5t-79 -42t-105.5 -15q-81 0 -143 23.5t-106 65.5l55 61q36 -34 82 -53t109 -19q30 0 58 7.5t49.5 23t34.5 38.5t13 54q0 24 -7 42.5t-23.5 33.5t-45.5 28t-72 27q-50 15 -90 33.5t-68 42.5t-42.5 54.5t-14.5 70.5t17 73t47 57
t71.5 37t91.5 13q72 0 126.5 -21t96.5 -59l-54 -60q-37 32 -79 47t-86 15q-28 0 -52.5 -6t-42.5 -18t-28.5 -30.5t-10.5 -43.5q0 -22 8 -38.5t27 -31t50 -27.5t78 -27q41 -13 78 -28.5t64.5 -39t43.5 -58t16 -83.5zM193 804l189 109l47 -77l-208 -81z" />
    <glyph glyph-name="sacute" unicode="&#x15b;" 
d="M275 62q59 0 92.5 21.5t33.5 58.5q0 19 -4.5 33t-18 25t-38 20t-65.5 20q-39 10 -71 22.5t-55 30t-35.5 41.5t-12.5 59q0 33 14.5 60t41.5 46t64.5 29.5t83.5 10.5q57 0 102.5 -15.5t80.5 -40.5l-41 -62q-29 21 -63 33t-77 12q-62 0 -86.5 -17.5t-24.5 -49.5
q0 -17 6.5 -28.5t22.5 -21.5t41.5 -19t64.5 -20q38 -11 69 -23t53.5 -30t34.5 -44t12 -64q0 -43 -19 -73.5t-50.5 -50t-72 -28.5t-83.5 -9q-73 0 -126 21t-88 51l51 58q31 -26 73.5 -41t89.5 -15zM181 672l188 119l47 -77l-205 -92z" />
    <glyph glyph-name="Scircumflex" unicode="&#x15c;" 
d="M540 192q0 -45 -17 -82.5t-49.5 -64.5t-79 -42t-105.5 -15q-81 0 -143 23.5t-106 65.5l55 61q36 -34 82 -53t109 -19q30 0 58 7.5t49.5 23t34.5 38.5t13 54q0 24 -7 42.5t-23.5 33.5t-45.5 28t-72 27q-50 15 -90 33.5t-68 42.5t-42.5 54.5t-14.5 70.5t17 73t47 57
t71.5 37t91.5 13q72 0 126.5 -21t96.5 -59l-54 -60q-37 32 -79 47t-86 15q-28 0 -52.5 -6t-42.5 -18t-28.5 -30.5t-10.5 -43.5q0 -22 8 -38.5t27 -31t50 -27.5t78 -27q41 -13 78 -28.5t64.5 -39t43.5 -58t16 -83.5zM185 759l-40 45l136 111h61l135 -111l-39 -45l-127 81z
" />
    <glyph glyph-name="scircumflex" unicode="&#x15d;" 
d="M275 62q59 0 92.5 21.5t33.5 58.5q0 19 -4.5 33t-18 25t-38 20t-65.5 20q-39 10 -71 22.5t-55 30t-35.5 41.5t-12.5 59q0 33 14.5 60t41.5 46t64.5 29.5t83.5 10.5q57 0 102.5 -15.5t80.5 -40.5l-41 -62q-29 21 -63 33t-77 12q-62 0 -86.5 -17.5t-24.5 -49.5
q0 -17 6.5 -28.5t22.5 -21.5t41.5 -19t64.5 -20q38 -11 69 -23t53.5 -30t34.5 -44t12 -64q0 -43 -19 -73.5t-50.5 -50t-72 -28.5t-83.5 -9q-73 0 -126 21t-88 51l51 58q31 -26 73.5 -41t89.5 -15zM177 627l-42 44l136 121h61l135 -121l-40 -44l-125 91z" />
    <glyph glyph-name="Scedilla" unicode="&#x15e;" 
d="M334 -141q0 26 -23 34t-64 8l7 88q-69 5 -122.5 27.5t-91.5 60.5l55 61q36 -34 82 -53t109 -19q30 0 58 7.5t49.5 23t34.5 38.5t13 54q0 24 -7 42.5t-23.5 33.5t-45.5 28t-72 27q-50 15 -90 33.5t-68 42.5t-42.5 54.5t-14.5 70.5t17 73t47 57t71.5 37t91.5 13
q72 0 126.5 -21t96.5 -59l-54 -60q-37 32 -79 47t-86 15q-28 0 -52.5 -6t-42.5 -18t-28.5 -30.5t-10.5 -43.5q0 -22 8 -38.5t27 -31t50 -27.5t78 -27q41 -13 78 -28.5t64.5 -39t43.5 -58t16 -83.5q0 -86 -58.5 -140.5t-164.5 -62.5v-45q50 -5 72 -29.5t22 -55.5
q0 -25 -10 -43.5t-27.5 -31t-40 -19t-47.5 -6.5q-31 0 -58.5 7t-47.5 18l28 51q14 -8 32 -12t34 -4q27 0 43.5 9t16.5 31z" />
    <glyph glyph-name="scedilla" unicode="&#x15f;" 
d="M332 -141q0 26 -23 34t-64 8l7 88q-65 3 -112 23t-79 48l51 58q31 -26 73.5 -41t89.5 -15q59 0 92.5 21.5t33.5 58.5q0 19 -4.5 33t-18 25t-38 20t-65.5 20q-39 10 -71 22.5t-55 30t-35.5 41.5t-12.5 59q0 33 14.5 60t41.5 46t64.5 29.5t83.5 10.5q57 0 102.5 -15.5
t80.5 -40.5l-41 -62q-29 21 -63 33t-77 12q-62 0 -86.5 -17.5t-24.5 -49.5q0 -17 6.5 -28.5t22.5 -21.5t41.5 -19t64.5 -20q38 -11 69 -23t53.5 -30t34.5 -44t12 -64t-15 -66.5t-40.5 -47.5t-59 -30t-70.5 -15v-46q50 -5 72 -29.5t22 -55.5q0 -25 -10 -43.5t-27.5 -31
t-40 -19t-47.5 -6.5q-31 0 -58.5 7t-47.5 18l28 51q14 -8 32 -12t35 -4q26 0 42.5 9t16.5 31z" />
    <glyph glyph-name="Scaron" unicode="&#x160;" 
d="M540 192q0 -45 -17 -82.5t-49.5 -64.5t-79 -42t-105.5 -15q-81 0 -143 23.5t-106 65.5l55 61q36 -34 82 -53t109 -19q30 0 58 7.5t49.5 23t34.5 38.5t13 54q0 24 -7 42.5t-23.5 33.5t-45.5 28t-72 27q-50 15 -90 33.5t-68 42.5t-42.5 54.5t-14.5 70.5t17 73t47 57
t71.5 37t91.5 13q72 0 126.5 -21t96.5 -59l-54 -60q-37 32 -79 47t-86 15q-28 0 -52.5 -6t-42.5 -18t-28.5 -30.5t-10.5 -43.5q0 -22 8 -38.5t27 -31t50 -27.5t78 -27q41 -13 78 -28.5t64.5 -39t43.5 -58t16 -83.5zM312 833l126 82l39 -45l-135 -111h-61l-136 111l40 45z
" />
    <glyph glyph-name="scaron" unicode="&#x161;" 
d="M275 62q59 0 92.5 21.5t33.5 58.5q0 19 -4.5 33t-18 25t-38 20t-65.5 20q-39 10 -71 22.5t-55 30t-35.5 41.5t-12.5 59q0 33 14.5 60t41.5 46t64.5 29.5t83.5 10.5q57 0 102.5 -15.5t80.5 -40.5l-41 -62q-29 21 -63 33t-77 12q-62 0 -86.5 -17.5t-24.5 -49.5
q0 -17 6.5 -28.5t22.5 -21.5t41.5 -19t64.5 -20q38 -11 69 -23t53.5 -30t34.5 -44t12 -64q0 -43 -19 -73.5t-50.5 -50t-72 -28.5t-83.5 -9q-73 0 -126 21t-88 51l51 58q31 -26 73.5 -41t89.5 -15zM300 701l125 91l40 -44l-135 -121h-61l-136 121l42 44z" />
    <glyph glyph-name="uni0162" unicode="&#x162;" 
d="M363 -141q0 26 -23 34t-64 8l7 99h-32v609h-213v80h524l-10 -80h-206v-665q50 -5 72 -29.5t22 -55.5q0 -25 -10 -43.5t-27.5 -31t-40 -19t-47.5 -6.5q-31 0 -58.5 7t-47.5 18l28 51q14 -8 32 -12t34 -4q27 0 43.5 9t16.5 31z" />
    <glyph glyph-name="uni0163" unicode="&#x163;" 
d="M414 -141q0 26 -23 34t-64 8l7 93q-62 13 -94.5 55t-32.5 102v306h-120v70h120v119l92 11v-130h181l-11 -70h-170v-305q0 -45 22.5 -66.5t75.5 -21.5q29 0 54.5 7t45.5 19l35 -63q-26 -17 -62 -27t-73 -12v-44q50 -5 72 -29.5t22 -55.5q0 -25 -10 -43.5t-27.5 -31
t-40 -19t-47.5 -6.5q-31 0 -58.5 7t-47.5 18l28 51q14 -8 32 -12t35 -4q26 0 42.5 9t16.5 31z" />
    <glyph glyph-name="Tcaron" unicode="&#x164;" 
d="M346 609v-609h-95v609h-213v80h524l-10 -80h-206zM297 833l126 82l39 -45l-135 -111h-61l-136 111l40 45z" />
    <glyph glyph-name="tcaron" unicode="&#x165;" 
d="M532 27q-28 -18 -67 -28.5t-78 -10.5q-88 0 -134 45.5t-46 117.5v306h-120v70h120v119l92 11v-130h181l-11 -70h-170v-305q0 -45 22.5 -66.5t75.5 -21.5q29 0 54.5 7t45.5 19zM377 763q0 23 17 39t41 16t40.5 -16t16.5 -39q0 -14 -4 -27t-13 -31l-50 -106h-53l28 117
q-23 18 -23 47z" />
    <glyph glyph-name="Tbar" unicode="&#x166;" 
d="M346 609v-176h130v-70h-130v-363h-95v363h-129v70h129v176h-213v80h524l-10 -80h-206z" />
    <glyph glyph-name="tbar" unicode="&#x167;" 
d="M532 27q-28 -18 -67 -28.5t-78 -10.5q-88 0 -134 45.5t-46 117.5v134h-109v68h109v104h-120v70h120v119l92 11v-130h181l-11 -70h-170v-104h171v-68h-171v-133q0 -45 22.5 -66.5t75.5 -21.5q29 0 54.5 7t45.5 19z" />
    <glyph glyph-name="Utilde" unicode="&#x168;" 
d="M531 224q0 -53 -16 -96t-46 -74.5t-73 -48.5t-97 -17t-97 17t-72.5 48.5t-45 74.5t-15.5 96v465h95v-461q0 -81 34.5 -120.5t100.5 -39.5q136 0 136 160v461h96v-465zM352 773q-22 0 -37.5 7.5t-27.5 16.5t-22.5 16.5t-22.5 7.5q-17 0 -28 -11.5t-23 -32.5l-57 25
q15 35 42 62t71 27q22 0 38 -7.5t28 -16.5l22 -17q10 -7 22 -7q17 0 28 11t23 32l57 -25q-16 -35 -43 -61.5t-70 -26.5z" />
    <glyph glyph-name="utilde" unicode="&#x169;" 
d="M189 527v-372q0 -51 20.5 -73t64.5 -22q42 0 79 24t58 57v386h92v-527h-79l-7 70q-31 -40 -76 -61t-92 -21q-77 0 -114.5 41t-37.5 115v383h92zM353 650q-22 0 -37.5 7.5t-27.5 16.5t-22.5 16.5t-22.5 7.5q-17 0 -28 -11.5t-23 -32.5l-57 26q15 35 42.5 61.5t70.5 26.5
q22 0 38 -7.5t28 -16.5l22 -17q10 -7 22 -7q17 0 28 11.5t23 32.5l57 -25q-15 -35 -42.5 -62t-70.5 -27z" />
    <glyph glyph-name="Umacron" unicode="&#x16a;" 
d="M531 224q0 -53 -16 -96t-46 -74.5t-73 -48.5t-97 -17t-97 17t-72.5 48.5t-45 74.5t-15.5 96v465h95v-461q0 -81 34.5 -120.5t100.5 -39.5q136 0 136 160v461h96v-465zM436 796h-273v70h273v-70z" />
    <glyph glyph-name="umacron" unicode="&#x16b;" 
d="M189 527v-372q0 -51 20.5 -73t64.5 -22q42 0 79 24t58 57v386h92v-527h-79l-7 70q-31 -40 -76 -61t-92 -21q-77 0 -114.5 41t-37.5 115v383h92zM436 674h-273v69h273v-69z" />
    <glyph glyph-name="Ubreve" unicode="&#x16c;" 
d="M531 224q0 -53 -16 -96t-46 -74.5t-73 -48.5t-97 -17t-97 17t-72.5 48.5t-45 74.5t-15.5 96v465h95v-461q0 -81 34.5 -120.5t100.5 -39.5q136 0 136 160v461h96v-465zM299 760q-35 0 -62 12t-45.5 31t-29 42t-13.5 46l61 13q20 -74 89 -74q71 0 91 74l61 -13
q-3 -23 -14 -46t-29.5 -42t-45.5 -31t-63 -12z" />
    <glyph glyph-name="ubreve" unicode="&#x16d;" 
d="M189 527v-372q0 -51 20.5 -73t64.5 -22q42 0 79 24t58 57v386h92v-527h-79l-7 70q-31 -40 -76 -61t-92 -21q-77 0 -114.5 41t-37.5 115v383h92zM299 628q-35 0 -61.5 13t-45.5 33t-29.5 45t-13.5 49l61 13q11 -38 32.5 -61t56.5 -23q36 0 58.5 23t33.5 61l61 -13
q-3 -24 -14 -49t-30 -45t-46.5 -33t-62.5 -13z" />
    <glyph glyph-name="Uring" unicode="&#x16e;" 
d="M531 224q0 -53 -16 -96t-46 -74.5t-73 -48.5t-97 -17t-97 17t-72.5 48.5t-45 74.5t-15.5 96v465h95v-461q0 -81 34.5 -120.5t100.5 -39.5q136 0 136 160v461h96v-465zM246 845q0 -26 14.5 -41.5t39.5 -15.5q24 0 38.5 15.5t14.5 41.5t-14.5 41t-38.5 15q-25 0 -39.5 -15
t-14.5 -41zM414 845q0 -45 -31.5 -75.5t-82.5 -30.5t-82.5 30.5t-31.5 75.5q0 44 31.5 74.5t82.5 30.5t82.5 -30.5t31.5 -74.5z" />
    <glyph glyph-name="uring" unicode="&#x16f;" 
d="M189 527v-372q0 -51 20.5 -73t64.5 -22q42 0 79 24t58 57v386h92v-527h-79l-7 70q-31 -40 -76 -61t-92 -21q-77 0 -114.5 41t-37.5 115v383h92zM247 722q0 -26 14.5 -41t38.5 -15q25 0 39 15t14 41t-14 41t-39 15q-24 0 -38.5 -15t-14.5 -41zM414 722q0 -44 -31.5 -74.5
t-82.5 -30.5t-82.5 30.5t-31.5 74.5q0 45 31.5 75.5t82.5 30.5t82.5 -30.5t31.5 -75.5z" />
    <glyph glyph-name="Uhungarumlaut" unicode="&#x170;" 
d="M531 224q0 -53 -16 -96t-46 -74.5t-73 -48.5t-97 -17t-97 17t-72.5 48.5t-45 74.5t-15.5 96v465h95v-461q0 -81 34.5 -120.5t100.5 -39.5q136 0 136 160v461h96v-465zM177 792l80 176l78 -37l-100 -166zM341 792l89 176l77 -40l-110 -165z" />
    <glyph glyph-name="uhungarumlaut" unicode="&#x171;" 
d="M189 527v-372q0 -51 20.5 -73t64.5 -22q42 0 79 24t58 57v386h92v-527h-79l-7 70q-31 -40 -76 -61t-92 -21q-77 0 -114.5 41t-37.5 115v383h92zM173 662l80 176l78 -37l-100 -166zM337 662l89 176l77 -40l-110 -165z" />
    <glyph glyph-name="Uogonek" unicode="&#x172;" 
d="M531 224q0 -71 -28 -124.5t-82 -82.5q-65 -36 -90 -73.5t-25 -70.5q0 -23 14.5 -38t49.5 -15q20 0 36.5 5t24.5 10l25 -54q-24 -12 -47.5 -17t-48.5 -5q-63 0 -97 30t-34 81q0 32 20 63t55 55q-57 0 -101 17.5t-74 48.5t-45 74.5t-15 95.5v465h95v-461q0 -81 34.5 -120.5
t100.5 -39.5q136 0 136 160v461h96v-465z" />
    <glyph glyph-name="uogonek" unicode="&#x173;" 
d="M189 527v-372q0 -51 20.5 -73t64.5 -22q42 0 79 24t58 57v386h92v-527q-28 -16 -45.5 -33t-27 -33.5t-13 -32t-3.5 -28.5q0 -23 15 -38t49 -15q20 0 36.5 5t25.5 10l25 -54q-24 -12 -47.5 -17t-49.5 -5q-63 0 -97 30t-34 81q0 36 27 71t74 59h-14l-7 70q-31 -40 -76 -61
t-92 -21q-77 0 -114.5 41t-37.5 115v383h92z" />
    <glyph glyph-name="Wcircumflex" unicode="&#x174;" 
d="M494 0h-120l-74 503h-4l-85 -503h-125l-82 689h95l52 -580h4l91 500h110l74 -497h4l75 577h87zM174 759l-40 45l136 111h61l135 -111l-39 -45l-127 81z" />
    <glyph glyph-name="wcircumflex" unicode="&#x175;" 
d="M494 0h-125l-65 373h-4l-68 -373h-122l-94 527h92l64 -457h4l77 390h103l72 -388h4l64 455h88zM176 627l-42 44l136 121h61l135 -121l-40 -44l-125 91z" />
    <glyph glyph-name="Ycircumflex" unicode="&#x176;" 
d="M348 265v-265h-96v264l-232 425h105l176 -337h3l177 337h99zM174 759l-40 45l136 111h61l135 -111l-39 -45l-127 81z" />
    <glyph glyph-name="ycircumflex" unicode="&#x177;" 
d="M358 -3q-14 -42 -34 -78t-48.5 -63.5t-67.5 -45.5t-92 -23l-13 72q40 7 67.5 18.5t46.5 28.5t31 40.5t23 53.5h-31l-182 527h98l144 -453h4l143 453h95zM177 627l-42 44l136 121h61l135 -121l-40 -44l-125 91z" />
    <glyph glyph-name="Ydieresis" unicode="&#x178;" 
d="M348 265v-265h-96v264l-232 425h105l176 -337h3l177 337h99zM195 769q-24 0 -40.5 16t-16.5 41q0 24 16.5 40t40.5 16q25 0 41.5 -16t16.5 -40q0 -25 -16.5 -41t-41.5 -16zM405 769q-25 0 -41.5 16t-16.5 41q0 24 16.5 40t41.5 16q24 0 41 -16t17 -40q0 -25 -17 -41
t-41 -16z" />
    <glyph glyph-name="Zacute" unicode="&#x179;" 
d="M174 81h357l-11 -81h-452v76l360 533h-324v80h427v-77zM205 804l189 109l47 -77l-208 -81z" />
    <glyph glyph-name="zacute" unicode="&#x17a;" 
d="M211 77h290l-11 -77h-391v69l289 380h-266v78h376v-70zM187 672l188 119l47 -77l-205 -92z" />
    <glyph glyph-name="Zdotaccent" unicode="&#x17b;" 
d="M174 81h357l-11 -81h-452v76l360 533h-324v80h427v-77zM378 837q0 -27 -17.5 -45t-46.5 -18t-46.5 18t-17.5 45q0 26 17.5 44t46.5 18t46.5 -18t17.5 -44z" />
    <glyph glyph-name="zdotaccent" unicode="&#x17c;" 
d="M211 77h290l-11 -77h-391v69l289 380h-266v78h376v-70zM370 715q0 -27 -18 -45t-47 -18t-46.5 18t-17.5 45q0 26 17.5 44t46.5 18t47 -18t18 -44z" />
    <glyph glyph-name="Zcaron" unicode="&#x17d;" 
d="M174 81h357l-11 -81h-452v76l360 533h-324v80h427v-77zM316 833l126 82l39 -45l-135 -111h-61l-136 111l40 45z" />
    <glyph glyph-name="zcaron" unicode="&#x17e;" 
d="M211 77h290l-11 -77h-391v69l289 380h-266v78h376v-70zM306 701l125 91l40 -44l-135 -121h-61l-136 121l42 44z" />
    <glyph glyph-name="florin" unicode="&#x192;" 
d="M103 -146q26 12 45 24.5t32 31.5t19 46.5t6 69.5v430h-84v71h84v71q0 66 42 109t123 43q38 0 66 -7t60 -21l-30 -66q-25 11 -48 15.5t-43 4.5q-44 0 -61.5 -19t-17.5 -58v-72h129l-11 -71h-118v-414q0 -60 -9.5 -100t-29 -68.5t-50 -48t-71.5 -37.5z" />
    <glyph glyph-name="AEacute" unicode="&#x1fc;" 
d="M328 173h-197l-47 -173h-96l199 689h379l-11 -75h-230l49 -227h183v-75h-169l50 -237h169v-75h-244zM153 250h159l-69 355h-5zM236 804l189 109l47 -77l-208 -81z" />
    <glyph glyph-name="aeacute" unicode="&#x1fd;" 
d="M338 232q7 -88 33 -129t78 -41q29 0 51 10t47 29l41 -60q-30 -24 -63.5 -38.5t-77.5 -14.5q-54 0 -89.5 23t-60.5 66q-17 -23 -33 -40t-34 -28t-38.5 -16t-45.5 -5q-70 0 -111 44.5t-41 118.5q0 83 53.5 126.5t159.5 43.5h45v41q0 55 -23.5 79.5t-67.5 24.5
q-26 0 -48.5 -6.5t-54.5 -20.5l-24 66q34 16 68.5 25t67.5 9q60 0 91 -23.5t47 -62.5q14 40 46 63t80 23q45 0 77.5 -18t53.5 -51.5t31 -81.5t10 -109q0 -14 -0.5 -25.5t-1.5 -21.5h-266zM160 57q32 0 55.5 23.5t49.5 69.5q-7 24 -10 52t-3 58h-40q-70 0 -96.5 -28.5
t-26.5 -75.5q0 -49 19.5 -74t51.5 -25zM431 466q-22 0 -38 -8.5t-27.5 -28t-18 -51.5t-9.5 -78h182q-2 82 -20.5 124t-68.5 42zM198 672l188 119l47 -77l-205 -92z" />
    <glyph glyph-name="Oslashacute" unicode="&#x1fe;" 
d="M164 28q-60 42 -90 123t-30 192q0 79 16 144.5t48.5 113t80.5 74t111 26.5q31 0 63 -8l37 126l79 -21l-43 -138q60 -43 90 -124.5t30 -191.5q0 -79 -16 -144.5t-48.5 -112.5t-80.5 -73t-111 -26q-17 0 -32.5 2t-29.5 5l-38 -126l-79 21zM457 344q0 91 -12 150.5t-43 91.5
l-149 -515q11 -2 22 -3.5t25 -1.5q84 0 120.5 70.5t36.5 207.5zM143 343q0 -91 12.5 -149.5t42.5 -90.5l149 514q-21 6 -47 6q-84 0 -120.5 -72t-36.5 -208zM155 832l189 109l47 -77l-208 -81z" />
    <glyph glyph-name="oslashacute" unicode="&#x1ff;" 
d="M70 263q0 61 15 112t44 87.5t72.5 56.5t99.5 20q12 0 24 -1t23 -3l38 120l75 -22l-41 -124q54 -32 82 -95t28 -150q0 -61 -15 -112t-44 -87.5t-72 -56.5t-99 -20q-13 0 -25 1t-23 3l-37 -123l-75 22l41 126q-55 32 -83 95t-28 151zM168 263q0 -126 49 -172l115 370
q-15 3 -31 3q-66 0 -99.5 -48.5t-33.5 -152.5zM432 264q0 122 -48 169l-115 -368q13 -3 31 -3q66 0 99 49t33 153zM174 673l188 119l47 -77l-205 -92z" />
    <glyph glyph-name="uni0218" unicode="&#x218;" 
d="M540 192q0 -45 -17 -82.5t-49.5 -64.5t-79 -42t-105.5 -15q-81 0 -143 23.5t-106 65.5l55 61q36 -34 82 -53t109 -19q30 0 58 7.5t49.5 23t34.5 38.5t13 54q0 24 -7 42.5t-23.5 33.5t-45.5 28t-72 27q-50 15 -90 33.5t-68 42.5t-42.5 54.5t-14.5 70.5t17 73t47 57
t71.5 37t91.5 13q72 0 126.5 -21t96.5 -59l-54 -60q-37 32 -79 47t-86 15q-28 0 -52.5 -6t-42.5 -18t-28.5 -30.5t-10.5 -43.5q0 -22 8 -38.5t27 -31t50 -27.5t78 -27q41 -13 78 -28.5t64.5 -39t43.5 -58t16 -83.5zM242 -126q0 24 16.5 40t40.5 16t40.5 -16t16.5 -40
q0 -14 -4 -27t-12 -31l-50 -106h-54l29 117q-23 18 -23 47z" />
    <glyph glyph-name="uni0219" unicode="&#x219;" 
d="M275 62q59 0 92.5 21.5t33.5 58.5q0 19 -4.5 33t-18 25t-38 20t-65.5 20q-39 10 -71 22.5t-55 30t-35.5 41.5t-12.5 59q0 33 14.5 60t41.5 46t64.5 29.5t83.5 10.5q57 0 102.5 -15.5t80.5 -40.5l-41 -62q-29 21 -63 33t-77 12q-62 0 -86.5 -17.5t-24.5 -49.5
q0 -17 6.5 -28.5t22.5 -21.5t41.5 -19t64.5 -20q38 -11 69 -23t53.5 -30t34.5 -44t12 -64q0 -43 -19 -73.5t-50.5 -50t-72 -28.5t-83.5 -9q-73 0 -126 21t-88 51l51 58q31 -26 73.5 -41t89.5 -15zM239 -126q0 24 16.5 40t40.5 16t40.5 -16t16.5 -40q0 -14 -4 -27t-12 -31
l-50 -106h-54l29 117q-23 18 -23 47z" />
    <glyph glyph-name="uni021A" unicode="&#x21a;" 
d="M346 609v-609h-95v609h-213v80h524l-10 -80h-206zM244 -126q0 24 17 40t41 16t40.5 -16t16.5 -40q0 -23 -17 -57l-50 -106h-53l29 116q-11 9 -17.5 21t-6.5 26z" />
    <glyph glyph-name="uni021B" unicode="&#x21b;" 
d="M532 27q-28 -18 -67 -28.5t-78 -10.5q-88 0 -134 45.5t-46 117.5v306h-120v70h120v119l92 11v-130h181l-11 -70h-170v-305q0 -45 22.5 -66.5t75.5 -21.5q29 0 54.5 7t45.5 19zM307 -126q0 24 16.5 40t40.5 16t40.5 -16t16.5 -40q0 -14 -4 -27t-12 -31l-50 -106h-54
l29 117q-23 18 -23 47z" />
    <glyph glyph-name="dotlessj" unicode="&#x237;" 
d="M90 -142q37 14 72.5 30.5t63 40t44 54.5t16.5 73v400h-171v71h263v-465q0 -57 -20 -100.5t-55 -76.5t-82.5 -56.5t-102.5 -41.5z" />
    <glyph glyph-name="circumflex" unicode="&#x2c6;" 
d="M174 642l-40 45l136 113h61l135 -113l-39 -45l-126 84z" />
    <glyph glyph-name="caron" unicode="&#x2c7;" 
d="M300 716l127 84l39 -45l-135 -113h-61l-136 113l40 45z" />
    <glyph glyph-name="uni02C9" unicode="&#x2c9;" 
d="M436 682h-273v69h273v-69z" />
    <glyph glyph-name="breve" unicode="&#x2d8;" 
d="M298 643q-35 0 -61.5 12t-45.5 31t-29.5 43t-13.5 47l61 13q21 -76 89 -76q71 0 92 76l61 -13q-3 -23 -14 -47t-30 -43t-46.5 -31t-62.5 -12z" />
    <glyph glyph-name="dotaccent" unicode="&#x2d9;" 
d="M364 722q0 -26 -18 -44t-47 -18t-46.5 18t-17.5 44q0 27 17.5 45t46.5 18t47 -18t18 -45z" />
    <glyph glyph-name="ring" unicode="&#x2da;" 
d="M247 730q0 -26 14 -41t39 -15q24 0 38.5 15t14.5 41t-14 41t-39 15t-39 -15t-14 -41zM414 730q0 -45 -31.5 -75.5t-82.5 -30.5t-82.5 30.5t-31.5 75.5t31.5 75.5t82.5 30.5t82.5 -30.5t31.5 -75.5z" />
    <glyph glyph-name="ogonek" unicode="&#x2db;" 
d="M263 -127q0 -23 14.5 -38t49.5 -15q20 0 36.5 5t25.5 10l24 -54q-23 -12 -47 -17t-49 -5q-63 0 -97 30t-34 81q0 48 41.5 91t109.5 65h69q-45 -18 -73 -38.5t-43.5 -40.5t-21 -39t-5.5 -35z" />
    <glyph glyph-name="tilde" unicode="&#x2dc;" 
d="M352 658q-22 0 -37.5 7.5t-27.5 16.5l-22 16q-10 8 -22 8q-17 0 -28 -11.5t-23 -32.5l-57 26q15 35 42 61.5t71 26.5q22 0 37.5 -7.5t27.5 -16.5t22.5 -16.5t22.5 -7.5q17 0 28 11.5t23 32.5l56 -26q-15 -35 -42 -61.5t-71 -26.5z" />
    <glyph glyph-name="hungarumlaut" unicode="&#x2dd;" 
d="M136 675l77 171l80 -38l-97 -158zM300 675l86 171l78 -41l-106 -157z" />
    <glyph glyph-name="gravecomb" unicode="&#x300;" 
d="M388 622l-206 93l47 77l188 -120z" />
    <glyph glyph-name="acutecomb" unicode="&#x301;" 
d="M182 672l188 119l47 -77l-205 -92z" />
    <glyph glyph-name="uni0302" unicode="&#x302;" 
d="M176 627l-42 44l136 121h61l135 -121l-40 -44l-125 91z" />
    <glyph glyph-name="tildecomb" unicode="&#x303;" 
d="M352 650q-22 0 -37.5 7.5t-27.5 16.5t-22.5 16.5t-22.5 7.5q-17 0 -28 -11.5t-23 -32.5l-57 26q15 35 42.5 61.5t70.5 26.5q22 0 38 -7.5t28 -16.5l22 -17q10 -7 22 -7q17 0 28 11.5t23 32.5l57 -25q-15 -35 -42.5 -62t-70.5 -27z" />
    <glyph glyph-name="uni0304" unicode="&#x304;" 
d="M436 674h-273v69h273v-69z" />
    <glyph glyph-name="uni0306" unicode="&#x306;" 
d="M298 628q-35 0 -61.5 13t-45.5 33t-29.5 45t-13.5 49l61 13q11 -38 32.5 -61t56.5 -23q36 0 58.5 23t33.5 61l61 -13q-3 -24 -14 -49t-30 -45t-46.5 -33t-62.5 -13z" />
    <glyph glyph-name="uni0307" unicode="&#x307;" 
d="M364 715q0 -27 -18 -45t-47 -18t-46.5 18t-17.5 45q0 26 17.5 44t46.5 18t47 -18t18 -44z" />
    <glyph glyph-name="uni0308" unicode="&#x308;" 
d="M195 647q-25 0 -41.5 16t-16.5 40q0 25 16.5 41t41.5 16q24 0 40.5 -16t16.5 -41q0 -24 -16.5 -40t-40.5 -16zM404 647q-24 0 -40.5 16t-16.5 40q0 25 16.5 41t40.5 16q25 0 41.5 -16t16.5 -41q0 -24 -16.5 -40t-41.5 -16z" />
    <glyph glyph-name="uni030A" unicode="&#x30a;" 
d="M247 722q0 -26 14.5 -41t38.5 -15q25 0 39 15t14 41t-14 41t-39 15q-24 0 -38.5 -15t-14.5 -41zM414 722q0 -44 -31.5 -74.5t-82.5 -30.5t-82.5 30.5t-31.5 74.5q0 45 31.5 75.5t82.5 30.5t82.5 -30.5t31.5 -75.5z" />
    <glyph glyph-name="uni030B" unicode="&#x30b;" 
d="M135 662l80 176l78 -37l-100 -166zM299 662l89 176l77 -40l-110 -165z" />
    <glyph glyph-name="uni030C" unicode="&#x30c;" 
d="M301 701l125 91l40 -44l-135 -121h-61l-136 121l42 44z" />
    <glyph glyph-name="uni0312" unicode="&#x312;" 
d="M355 698q0 -23 -17 -39.5t-41 -16.5t-40.5 16.5t-16.5 39.5q0 14 4 27t13 31l50 106h53l-28 -117q23 -18 23 -47z" />
    <glyph glyph-name="uni0313" unicode="&#x313;" 
d="M245 807q0 23 17 39t41 16t40.5 -16t16.5 -39q0 -14 -4 -27t-13 -31l-50 -106h-53l28 117q-23 18 -23 47z" />
    <glyph glyph-name="uni0326" unicode="&#x326;" 
d="M246 -126q0 24 16.5 40t40.5 16t40.5 -16t16.5 -40q0 -14 -4 -27t-12 -31l-50 -106h-54l29 117q-23 18 -23 47z" />
    <glyph glyph-name="uni0327" unicode="&#x327;" 
d="M338 -141q0 26 -23 34t-64 8l9 115h61v-72q50 -5 72 -29.5t22 -55.5q0 -25 -10 -43.5t-27.5 -31t-40 -19t-47.5 -6.5q-31 0 -58.5 7t-47.5 18l28 51q14 -8 32 -12t35 -4q26 0 42.5 9t16.5 31z" />
    <glyph glyph-name="uni0328" unicode="&#x328;" 
d="M352 0q-28 -16 -45.5 -33t-27 -33.5t-13 -32t-3.5 -28.5q0 -23 15 -38t49 -15q20 0 36.5 5t25.5 10l25 -54q-24 -12 -47.5 -17t-49.5 -5q-63 0 -97 30t-34 81q0 48 41.5 91t110.5 65z" />
    <glyph glyph-name="uni0335" unicode="&#x335;" 
d="M474 278h-349v70h349v-70z" />
    <glyph glyph-name="uni0336" unicode="&#x336;" 
d="M627 278h-653v70h653v-70z" />
    <glyph glyph-name="tonos" unicode="&#x384;" 
d="M231 601l38 211l100 -18l-69 -205z" />
    <glyph glyph-name="dieresistonos" unicode="&#x385;" 
d="M185 612q-25 0 -41.5 16t-16.5 40q0 25 16.5 41t41.5 16q24 0 40.5 -16t16.5 -41q0 -24 -16.5 -40t-40.5 -16zM414 612q-24 0 -40.5 16t-16.5 40q0 25 16.5 41t40.5 16q25 0 41.5 -16t16.5 -41q0 -24 -16.5 -40t-41.5 -16zM265 727l29 179l101 -18l-62 -171z" />
    <glyph glyph-name="Alphatonos" unicode="&#x386;" 
d="M430 173h-265l-53 -173h-95l223 689h120l223 -689h-100zM188 250h219l-107 353h-4zM47 512l48 189l100 -16l-78 -185z" />
    <glyph glyph-name="Epsilontonos" unicode="&#x388;" 
d="M207 613v-225h254v-76h-254v-237h311v-75h-406v689h398l-11 -76h-292zM-65 512l48 189l100 -16l-78 -185z" />
    <glyph glyph-name="Etatonos" unicode="&#x389;" 
d="M425 0v323h-250v-323h-95v689h95v-288h250v288h95v-689h-95zM-97 512l48 189l100 -16l-78 -185z" />
    <glyph glyph-name="Iotatonos" unicode="&#x38a;" 
d="M500 614h-152v-539h152v-75h-400v75h152v539h-152v75h400v-75zM-69 512l48 189l100 -16l-78 -185z" />
    <glyph glyph-name="Omicrontonos" unicode="&#x38c;" 
d="M556 344q0 -79 -16 -144.5t-48.5 -112.5t-80.5 -73t-111 -26t-111 25.5t-80.5 72t-48.5 112t-16 145.5q0 79 16 144.5t48.5 113t80.5 74t111 26.5t111 -25.5t80.5 -72.5t48.5 -113t16 -146zM457 344q0 136 -36.5 207.5t-120.5 71.5t-120.5 -72t-36.5 -208
q0 -137 37.5 -207t119.5 -70q84 0 120.5 70.5t36.5 207.5zM-63 512l48 189l100 -16l-78 -185z" />
    <glyph glyph-name="Upsilontonos" unicode="&#x38e;" 
d="M348 265v-265h-96v264l-232 425h105l176 -337h3l177 337h99zM-127 512l48 189l100 -16l-78 -185z" />
    <glyph glyph-name="Omegatonos" unicode="&#x38f;" 
d="M300 623q-39 0 -68 -15t-49 -47.5t-30 -84t-10 -124.5q0 -119 32 -185.5t92 -96.5v-70h-212v75h112v4q-59 30 -91 97t-32 176q0 83 18 148t51 109.5t80.5 68t106.5 23.5t106.5 -23.5t80.5 -68t51 -109.5t18 -148q0 -109 -33 -175t-92 -98v-4h114v-75h-211v70
q60 30 91.5 96.5t31.5 185.5q0 73 -10 124.5t-30 84t-49.5 47.5t-67.5 15zM-64 512l48 189l100 -16l-78 -185z" />
    <glyph glyph-name="iotadieresistonos" unicode="&#x390;" 
d="M236 458q-19 -2 -37 -3t-37 -1q-26 0 -51.5 2t-50.5 6l10 72q27 -4 58.5 -5.5t65.5 -1.5t68 1.5t66 5.5v-400q0 -38 23.5 -54t61.5 -16q21 0 43.5 5t43.5 13l24 -66q-19 -11 -54.5 -19.5t-73.5 -8.5q-73 0 -116.5 40.5t-43.5 113.5v316zM162 612q-25 0 -41.5 16t-16.5 40
q0 25 16.5 41t41.5 16q24 0 40.5 -16t16.5 -41q0 -24 -16.5 -40t-40.5 -16zM391 612q-24 0 -40.5 16t-16.5 40q0 25 16.5 41t40.5 16q25 0 41.5 -16t16.5 -41q0 -24 -16.5 -40t-41.5 -16zM242 727l29 179l101 -18l-62 -171z" />
    <glyph glyph-name="Alpha" unicode="&#x391;" 
d="M430 173h-265l-53 -173h-95l223 689h120l223 -689h-100zM188 250h219l-107 353h-4z" />
    <glyph glyph-name="Beta" unicode="&#x392;" 
d="M443 195q0 38 -11.5 62.5t-31 39t-45.5 20t-56 5.5h-112v-245h108q25 0 51.5 4.5t48 17.5t35 36t13.5 60zM416 509q0 57 -35 81t-97 24h-97v-216h105q60 0 92 26t32 85zM543 197q0 -57 -22.5 -94.5t-59.5 -60.5t-84 -32.5t-95 -9.5h-190v689h175q46 0 90.5 -8t79 -28
t55.5 -53.5t21 -84.5q0 -33 -10.5 -58.5t-27.5 -43.5t-38.5 -29t-43.5 -16v-4q26 -5 52.5 -15.5t48.5 -30t35.5 -49t13.5 -72.5z" />
    <glyph glyph-name="Gamma" unicode="&#x393;" 
d="M546 689l-10 -82h-310v-607h-95v689h415z" />
    <glyph glyph-name="uni0394" unicode="&#x394;" 
d="M240 689h120l223 -689h-566zM136 78h323l-159 525h-4z" />
    <glyph glyph-name="Epsilon" unicode="&#x395;" 
d="M207 613v-225h254v-76h-254v-237h311v-75h-406v689h398l-11 -76h-292z" />
    <glyph glyph-name="Zeta" unicode="&#x396;" 
d="M174 81h357l-11 -81h-452v76l360 533h-324v80h427v-77z" />
    <glyph glyph-name="Eta" unicode="&#x397;" 
d="M425 0v323h-250v-323h-95v689h95v-288h250v288h95v-689h-95z" />
    <glyph glyph-name="Theta" unicode="&#x398;" 
d="M399 310h-199v74h199v-74zM556 344q0 -79 -16 -144.5t-48.5 -112.5t-80.5 -73t-111 -26t-111 25.5t-80.5 72t-48.5 112t-16 145.5q0 79 16 144.5t48.5 113t80.5 74t111 26.5t111 -25.5t80.5 -72.5t48.5 -113t16 -146zM457 344q0 136 -36.5 207.5t-120.5 71.5t-120.5 -72
t-36.5 -208q0 -137 37.5 -207t119.5 -70q84 0 120.5 70.5t36.5 207.5z" />
    <glyph glyph-name="Iota" unicode="&#x399;" 
d="M500 614h-152v-539h152v-75h-400v75h152v539h-152v75h400v-75z" />
    <glyph glyph-name="Kappa" unicode="&#x39a;" 
d="M195 0h-95v689h95v-689zM200 368l262 321h108l-261 -315l280 -374h-117z" />
    <glyph glyph-name="Lambda" unicode="&#x39b;" 
d="M117 0h-96l219 689h120l218 -689h-100l-178 597h-4z" />
    <glyph glyph-name="Mu" unicode="&#x39c;" 
d="M481 0l-20 353q-2 50 -3.5 101.5t-1.5 86.5q0 16 0.5 27t0.5 16h-3l-109 -461h-91l-114 461h-4v-161q0 -37 -2 -70l-17 -353h-88l39 689h126l106 -460h4l101 460h127l39 -689h-90z" />
    <glyph glyph-name="Nu" unicode="&#x39d;" 
d="M390 0l-232 583h-4q1 -6 3 -30t4 -59t4 -76.5t2 -81.5v-336h-87v689h127l235 -586h4q-1 6 -3 28.5t-4.5 56t-4 76t-1.5 89.5v336h87v-689h-130z" />
    <glyph glyph-name="Xi" unicode="&#x39e;" 
d="M125 392h341v-85h-341v85zM74 689h443l-13 -85h-430v85zM74 87h452v-87h-452v87z" />
    <glyph glyph-name="Omicron" unicode="&#x39f;" 
d="M556 344q0 -79 -16 -144.5t-48.5 -112.5t-80.5 -73t-111 -26t-111 25.5t-80.5 72t-48.5 112t-16 145.5q0 79 16 144.5t48.5 113t80.5 74t111 26.5t111 -25.5t80.5 -72.5t48.5 -113t16 -146zM457 344q0 136 -36.5 207.5t-120.5 71.5t-120.5 -72t-36.5 -208
q0 -137 37.5 -207t119.5 -70q84 0 120.5 70.5t36.5 207.5z" />
    <glyph glyph-name="Pi" unicode="&#x3a0;" 
d="M425 0v608h-250v-608h-95v689h440v-689h-95z" />
    <glyph glyph-name="Rho" unicode="&#x3a1;" 
d="M458 475q0 39 -12 65.5t-33 43t-50 24t-63 7.5h-95v-287h95q34 0 63 6.5t50 23t33 45t12 72.5zM559 476q0 -60 -20 -102.5t-55 -69.5t-84.5 -39t-107.5 -12h-87v-253h-95v689h180q125 0 197 -52t72 -161z" />
    <glyph glyph-name="Sigma" unicode="&#x3a3;" 
d="M406 315l-225 -237h348v-78h-458v78l250 266l-250 266v79h458v-78h-349l226 -234v-62z" />
    <glyph glyph-name="Tau" unicode="&#x3a4;" 
d="M346 609v-609h-95v609h-213v80h524l-10 -80h-206z" />
    <glyph glyph-name="Upsilon" unicode="&#x3a5;" 
d="M348 265v-265h-96v264l-232 425h105l176 -337h3l177 337h99z" />
    <glyph glyph-name="Phi" unicode="&#x3a6;" 
d="M256 0v81q-120 4 -183 70t-63 196q0 125 59.5 191t186.5 72v79h88v-79q126 -6 186 -71.5t60 -191.5q0 -130 -63 -196t-183 -70v-81h-88zM104 347q0 -102 36 -148.5t118 -51.5v397q-39 -1 -68 -11.5t-48 -34t-28.5 -60.5t-9.5 -91zM496 347q0 54 -9.5 91.5t-28.5 61
t-48 34t-68 10.5v-397q82 5 118 52t36 148z" />
    <glyph glyph-name="Chi" unicode="&#x3a7;" 
d="M45 689h108l142 -256h4l148 256h102l-197 -317l220 -372h-108l-167 302h-4l-164 -302h-102l212 367z" />
    <glyph glyph-name="Psi" unicode="&#x3a8;" 
d="M255 0v201q-62 5 -107.5 25t-75.5 51t-44.5 72.5t-14.5 89.5v250h91v-246q0 -36 7.5 -65t25 -50t47 -33.5t73.5 -16.5v411h87v-410q85 8 118.5 49.5t33.5 114.5v246h91v-250q0 -48 -14.5 -89t-44.5 -72t-75.5 -50.5t-106.5 -25.5v-202h-91z" />
    <glyph glyph-name="uni03A9" unicode="&#x3a9;" 
d="M300 623q-39 0 -68 -15t-49 -47.5t-30 -84t-10 -124.5q0 -119 32 -185.5t92 -96.5v-70h-212v75h112v4q-59 30 -91 97t-32 176q0 83 18 148t51 109.5t80.5 68t106.5 23.5t106.5 -23.5t80.5 -68t51 -109.5t18 -148q0 -109 -33 -175t-92 -98v-4h114v-75h-211v70
q60 30 91.5 96.5t31.5 185.5q0 73 -10 124.5t-30 84t-49.5 47.5t-67.5 15z" />
    <glyph glyph-name="Iotadieresis" unicode="&#x3aa;" 
d="M500 614h-152v-539h152v-75h-400v75h152v539h-152v75h400v-75zM194 769q-24 0 -40.5 16t-16.5 41q0 24 16.5 40t40.5 16q25 0 41.5 -16t16.5 -40q0 -25 -16.5 -41t-41.5 -16zM404 769q-25 0 -41.5 16t-16.5 41q0 24 16.5 40t41.5 16q24 0 41 -16t17 -40q0 -25 -17 -41
t-41 -16z" />
    <glyph glyph-name="Upsilondieresis" unicode="&#x3ab;" 
d="M348 265v-265h-96v264l-232 425h105l176 -337h3l177 337h99zM197 769q-24 0 -40.5 16t-16.5 41q0 24 16.5 40t40.5 16q25 0 41.5 -16t16.5 -40q0 -25 -16.5 -41t-41.5 -16zM407 769q-25 0 -41.5 16t-16.5 41q0 24 16.5 40t41.5 16q24 0 41 -16t17 -40q0 -25 -17 -41
t-41 -16z" />
    <glyph glyph-name="alphatonos" unicode="&#x3ac;" 
d="M514 -13q-30 5 -56 26.5t-34 64.5l-17 72h-4q-10 -33 -23.5 -62.5t-33.5 -51.5t-47.5 -35t-63.5 -13q-48 0 -82.5 20t-57 56t-33 86.5t-10.5 112.5q0 60 13 110.5t38 87t61.5 57.5t82.5 21q40 0 68.5 -11.5t48 -31t31.5 -46t18 -56.5h4l38 134l84 -24l-83 -227l48 -161
q6 -20 15 -31t29 -18zM247 61q17 0 34.5 8t35 30.5t33 63.5t27.5 107q-16 101 -44 148.5t-74 47.5q-54 0 -82 -52t-28 -151q0 -103 26 -152.5t72 -49.5zM224 601l38 211l100 -18l-69 -205z" />
    <glyph glyph-name="epsilontonos" unicode="&#x3ad;" 
d="M394 239h-91q-66 0 -94.5 -20t-28.5 -63t36 -68.5t102 -25.5q57 0 101.5 15t81.5 41l48 -60q-39 -29 -99.5 -49.5t-137.5 -20.5q-50 0 -92 10.5t-73 31.5t-48.5 51.5t-17.5 70.5q0 29 10.5 51.5t27.5 38t40 25t48 13.5v4q-44 11 -74.5 41t-30.5 73q0 35 17 61.5t46 44
t68 26.5t83 9q51 0 106 -12.5t97 -41.5l-45 -56q-34 20 -73.5 29t-79.5 9q-59 0 -91.5 -19t-32.5 -60q0 -35 29.5 -56t82.5 -21h96zM277 601l38 211l100 -18l-69 -205z" />
    <glyph glyph-name="etatonos" unicode="&#x3ae;" 
d="M504 -202l-92 -11v536q0 39 -3 66t-12 44.5t-26 25.5t-46 8q-21 0 -41 -7.5t-37.5 -19.5t-32.5 -27.5t-25 -30.5v-382h-92v357q0 52 -8.5 95t-17.5 75l86 12q8 -14 15 -40.5t9 -46.5q34 43 81 65t94 22q77 0 112.5 -41t35.5 -115v-585zM259 601l38 211l100 -18l-69 -205z
" />
    <glyph glyph-name="iotatonos" unicode="&#x3af;" 
d="M236 458q-19 -2 -37 -3t-37 -1q-26 0 -51.5 2t-50.5 6l10 72q27 -4 58.5 -5.5t65.5 -1.5t68 1.5t66 5.5v-400q0 -38 23.5 -54t61.5 -16q21 0 43.5 5t43.5 13l24 -66q-19 -11 -54.5 -19.5t-73.5 -8.5q-73 0 -116.5 40.5t-43.5 113.5v316zM224 601l38 211l100 -18l-69 -205
z" />
    <glyph glyph-name="upsilondieresistonos" unicode="&#x3b0;" 
d="M99 527h92v-336q0 -69 22.5 -99t75.5 -30q67 0 106 50.5t39 150.5q0 57 -6 123t-20 141h93q12 -65 19 -130.5t7 -146.5q0 -60 -17.5 -108.5t-49 -82.5t-75.5 -52.5t-97 -18.5q-50 0 -86 14t-59 39t-33.5 60t-10.5 76v350zM187 612q-25 0 -41.5 16t-16.5 40q0 25 16.5 41
t41.5 16q24 0 40.5 -16t16.5 -41q0 -24 -16.5 -40t-40.5 -16zM416 612q-24 0 -40.5 16t-16.5 40q0 25 16.5 41t40.5 16q25 0 41.5 -16t16.5 -41q0 -24 -16.5 -40t-41.5 -16zM267 727l29 179l101 -18l-62 -171z" />
    <glyph glyph-name="alpha" unicode="&#x3b1;" 
d="M514 -13q-30 5 -56 26.5t-34 64.5l-17 72h-4q-10 -33 -23.5 -62.5t-33.5 -51.5t-47.5 -35t-63.5 -13q-48 0 -82.5 20t-57 56t-33 86.5t-10.5 112.5q0 60 13 110.5t38 87t61.5 57.5t82.5 21q40 0 68.5 -11.5t48 -31t31.5 -46t18 -56.5h4l38 134l84 -24l-83 -227l48 -161
q6 -20 15 -31t29 -18zM247 61q17 0 34.5 8t35 30.5t33 63.5t27.5 107q-16 101 -44 148.5t-74 47.5q-54 0 -82 -52t-28 -151q0 -103 26 -152.5t72 -49.5z" />
    <glyph glyph-name="beta" unicode="&#x3b2;" 
d="M79 356q0 102 21.5 176.5t57.5 122.5t83 71.5t98 23.5q44 0 74.5 -12t49.5 -31.5t27.5 -45t8.5 -53.5q0 -54 -38.5 -95.5t-110.5 -70.5v-4q50 -2 86 -18.5t59.5 -46t34.5 -69t11 -85.5q0 -45 -15.5 -86.5t-45 -74t-73 -51.5t-99.5 -19q-63 0 -107 25t-71 72.5t-39 116
t-12 154.5zM307 62q63 0 98 41.5t35 111.5q0 39 -6 70.5t-21.5 54.5t-41 35.5t-64.5 12.5q-27 0 -57 -12.5t-72 -32.5q0 -65 6 -117t20.5 -88.5t39 -56t63.5 -19.5zM336 680q-29 0 -55 -12.5t-47.5 -42.5t-36 -81t-18.5 -127q51 21 92.5 39.5t71.5 40t46 49t16 65.5
q0 32 -17.5 50.5t-51.5 18.5z" />
    <glyph glyph-name="gamma" unicode="&#x3b3;" 
d="M253 19q-17 71 -41 144.5t-52 139t-58.5 119t-61.5 83.5l93 33q25 -30 49.5 -74.5t46.5 -98.5t41 -117t33 -130h4l160 421l93 -21l-216 -500q-23 -56 -23 -117q0 -24 3 -49t8 -54l-74 -11q-26 52 -26 117q0 59 21 115z" />
    <glyph glyph-name="delta" unicode="&#x3b4;" 
d="M65 243q0 45 12 82.5t33.5 67.5t50.5 51.5t63 35.5q-54 28 -75.5 58t-21.5 72q0 33 14 59t39.5 44t60.5 27.5t77 9.5q54 0 93.5 -15.5t74.5 -44.5l-46 -54q-33 26 -62.5 35t-63.5 9q-43 0 -67.5 -17.5t-24.5 -49.5q0 -17 6 -29t19.5 -22.5t36 -20.5t54.5 -23
q51 -21 89.5 -45t63.5 -56t37.5 -74t12.5 -99q0 -51 -16 -97.5t-47 -82t-75 -56t-100 -20.5t-100.5 20t-75 54.5t-46.5 81t-16 99.5zM442 244q0 44 -7.5 75t-25 54t-47 41.5t-72.5 36.5q-69 -33 -97.5 -83.5t-28.5 -124.5q0 -85 36.5 -133t102.5 -48t102.5 46t36.5 136z" />
    <glyph glyph-name="epsilon" unicode="&#x3b5;" 
d="M394 239h-91q-66 0 -94.5 -20t-28.5 -63t36 -68.5t102 -25.5q57 0 101.5 15t81.5 41l48 -60q-39 -29 -99.5 -49.5t-137.5 -20.5q-50 0 -92 10.5t-73 31.5t-48.5 51.5t-17.5 70.5q0 29 10.5 51.5t27.5 38t40 25t48 13.5v4q-44 11 -74.5 41t-30.5 73q0 35 17 61.5t46 44
t68 26.5t83 9q51 0 106 -12.5t97 -41.5l-45 -56q-34 20 -73.5 29t-79.5 9q-59 0 -91.5 -19t-32.5 -60q0 -35 29.5 -56t82.5 -21h96z" />
    <glyph glyph-name="zeta" unicode="&#x3b6;" 
d="M527 -43q0 -57 -39.5 -100.5t-120.5 -79.5l-37 64q43 22 70.5 45.5t27.5 60.5q0 13 -5.5 22.5t-18 17.5t-33.5 15.5t-51 18.5q-53 18 -92.5 37.5t-65.5 45.5t-39.5 61.5t-13.5 86.5t19 99.5t53.5 94t83 88t107.5 81.5l-2 3q-8 -3 -27.5 -6t-39.5 -3q-59 0 -110 23.5
t-80 76.5l71 41q22 -36 55.5 -56t84.5 -20q48 0 86 15.5t72 42.5l52 -57q-81 -68 -141.5 -124.5t-101.5 -106t-61.5 -95.5t-20.5 -94q0 -36 8.5 -60.5t27 -42.5t48 -31.5t70.5 -27.5q39 -13 69.5 -25t51.5 -27t32 -35t11 -49z" />
    <glyph glyph-name="eta" unicode="&#x3b7;" 
d="M504 -202l-92 -11v536q0 39 -3 66t-12 44.5t-26 25.5t-46 8q-21 0 -41 -7.5t-37.5 -19.5t-32.5 -27.5t-25 -30.5v-382h-92v357q0 52 -8.5 95t-17.5 75l86 12q8 -14 15 -40.5t9 -46.5q34 43 81 65t94 22q77 0 112.5 -41t35.5 -115v-585z" />
    <glyph glyph-name="theta" unicode="&#x3b8;" 
d="M70 371q0 88 15 158t44 119t72.5 75.5t99.5 26.5t99 -25.5t72 -74t43.5 -119t14.5 -159.5q0 -88 -15 -159t-44 -121t-72 -77t-99 -27t-99 26.5t-72 76t-44 120.5t-15 160zM301 675q-67 0 -100 -63.5t-36 -210.5h270q-3 147 -35.5 210.5t-98.5 63.5zM300 62
q65 0 97.5 63.5t36.5 205.5h-269q4 -142 37 -205.5t98 -63.5z" />
    <glyph glyph-name="iota" unicode="&#x3b9;" 
d="M236 458q-19 -2 -37 -3t-37 -1q-26 0 -51.5 2t-50.5 6l10 72q27 -4 58.5 -5.5t65.5 -1.5t68 1.5t66 5.5v-400q0 -38 23.5 -54t61.5 -16q21 0 43.5 5t43.5 13l24 -66q-19 -11 -54.5 -19.5t-73.5 -8.5q-73 0 -116.5 40.5t-43.5 113.5v316z" />
    <glyph glyph-name="kappa" unicode="&#x3ba;" 
d="M171 750q22 -55 25.5 -115.5t3.5 -137.5v-497h-92v512q0 40 -1.5 72t-5 59t-8.5 49.5t-12 45.5zM448 539l78 -38l-212 -210l148 -159q16 -17 28.5 -28.5t24 -19t23 -12.5t25.5 -9l-32 -75q-21 3 -37.5 8.5t-31.5 15t-29.5 24t-32.5 34.5l-196 218z" />
    <glyph glyph-name="lambda" unicode="&#x3bb;" 
d="M238 539h36q-11 30 -24 53.5t-33 41t-48.5 29.5t-69.5 18l14 71q60 -9 103.5 -26.5t73.5 -45.5t49.5 -67.5t31.5 -92.5q22 -97 43.5 -175.5t44.5 -140t48.5 -107t56.5 -76.5l-96 -33q-55 70 -96.5 185.5t-71.5 287.5h-4l-161 -474l-89 20z" />
    <glyph glyph-name="uni03BC" unicode="&#x3bc;" 
d="M191 527v-296q0 -39 2.5 -69.5t11 -51.5t25.5 -32t46 -11q45 0 78 23t55 54v383h92v-357q0 -52 8.5 -95t17.5 -75l-86 -12q-8 14 -14.5 39t-8.5 45q-23 -38 -61 -61t-77 -23q-67 0 -97 42l-4 -1q5 -21 8 -43t3 -42v-146l-91 -11v740h92z" />
    <glyph glyph-name="nu" unicode="&#x3bd;" 
d="M233 0q-17 72 -39 149t-48 147t-55.5 125.5t-60.5 83.5l91 33q27 -32 52.5 -81.5t47 -109.5t40 -127.5t32.5 -134.5h4l161 454l92 -21l-206 -518h-111z" />
    <glyph glyph-name="xi" unicode="&#x3be;" 
d="M96 265q0 44 16 76t39.5 53.5t51 33t50.5 15.5v4q-23 7 -44 18t-38 27t-27 38t-10 51q0 40 18 71t48.5 53t71 33.5t85.5 11.5q56 0 105.5 -14.5t91.5 -44.5l-44 -54q-34 22 -73 32.5t-77 10.5q-63 0 -97 -25t-34 -74q0 -50 31.5 -75.5t87.5 -25.5h119l-11 -79h-116
q-34 0 -61 -10.5t-45.5 -28.5t-28.5 -42t-10 -51q0 -39 10.5 -64.5t33.5 -44t58.5 -32.5t86.5 -30q43 -14 74.5 -27t51 -28.5t29 -36t9.5 -49.5q0 -57 -39.5 -100.5t-120.5 -79.5l-37 64q45 22 71.5 47t26.5 62q0 25 -18.5 38t-71.5 30q-57 19 -105.5 38.5t-83.5 47.5
t-54.5 66.5t-19.5 94.5z" />
    <glyph glyph-name="omicron" unicode="&#x3bf;" 
d="M432 264q0 103 -32.5 152t-98.5 49t-99.5 -49t-33.5 -153q0 -103 33 -152t99 -49t99 49t33 153zM70 263q0 61 15 112t44 87.5t72.5 56.5t99.5 20t99 -19.5t72 -55.5t43.5 -86.5t14.5 -113.5q0 -61 -15 -112t-44 -87.5t-72 -56.5t-99 -20t-99 19.5t-72 55.5t-44 86.5
t-15 113.5z" />
    <glyph glyph-name="pi" unicode="&#x3c0;" 
d="M117 0v452h-77v75h359q25 0 45.5 1.5t38.5 3.5t35 5t35 7l11 -76q-44 -11 -92 -14v-313q0 -32 12.5 -50t36.5 -29l-32 -74q-21 6 -40.5 17t-34.5 28t-23.5 41t-8.5 56v322h-175v-452h-90z" />
    <glyph glyph-name="rho" unicode="&#x3c1;" 
d="M91 -213v484q0 132 54.5 200t161.5 68q117 0 170 -69.5t53 -205.5q0 -56 -13 -106t-39 -88t-65 -60t-91 -22q-43 0 -78 14.5t-61 45.5v-250zM300 63q63 0 97 51t34 150q0 104 -31.5 153.5t-94.5 49.5q-68 0 -95 -54.5t-27 -156.5v-129q20 -31 50.5 -47.5t66.5 -16.5z" />
    <glyph glyph-name="sigma1" unicode="&#x3c2;" 
d="M513 -43q0 -57 -40.5 -101t-119.5 -79l-37 64q19 11 37 22t31.5 23.5t21.5 28t8 35.5q0 13 -6 22.5t-18.5 17t-32 15t-47.5 17.5q-50 18 -89 38.5t-66 50.5t-41 71t-14 100q0 54 18 101t52 81.5t81.5 54.5t106.5 20q50 0 92 -13t80 -42l-45 -60q-32 22 -61.5 30.5
t-65.5 8.5q-34 0 -63 -11.5t-50.5 -34t-34 -56.5t-12.5 -79q0 -44 8.5 -73t27.5 -49t48 -34t70 -29q35 -13 64.5 -24.5t51 -27t33.5 -36.5t12 -52z" />
    <glyph glyph-name="sigma" unicode="&#x3c3;" 
d="M429 264q0 79 -18.5 125.5t-46.5 72.5q-45 0 -81 -8t-61.5 -29.5t-39 -60.5t-13.5 -101q0 -103 33 -152t98 -49q64 0 96.5 49t32.5 153zM528 264q0 -61 -15 -112t-44 -87.5t-71.5 -56.5t-97.5 -20t-98 19.5t-72 55.5t-44.5 86.5t-15.5 113.5q0 61 16.5 111t48.5 85
t78.5 54.5t106.5 19.5q63 0 124 3t112 13l14 -74q-68 -12 -132 -12q39 -23 64.5 -72.5t25.5 -126.5z" />
    <glyph glyph-name="tau" unicode="&#x3c4;" 
d="M233 452h-170v75h285q29 0 52.5 1t43.5 3t38.5 5t38.5 8l11 -76q-34 -8 -72.5 -12t-81.5 -4h-53v-318q0 -38 23.5 -54t61.5 -16q21 0 43.5 5t43.5 13l24 -66q-19 -11 -54.5 -19.5t-73.5 -8.5q-73 0 -116.5 40.5t-43.5 113.5v310z" />
    <glyph glyph-name="upsilon" unicode="&#x3c5;" 
d="M99 527h92v-336q0 -69 22.5 -99t75.5 -30q67 0 106 50.5t39 150.5q0 57 -6 123t-20 141h93q12 -65 19 -130.5t7 -146.5q0 -60 -17.5 -108.5t-49 -82.5t-75.5 -52.5t-97 -18.5q-50 0 -86 14t-59 39t-33.5 60t-10.5 76v350z" />
    <glyph glyph-name="phi" unicode="&#x3c6;" 
d="M126 260q0 -91 26 -140.5t98 -60.5v260q0 52 8 92.5t25.5 69t46 43.5t69.5 15q86 0 125 -67.5t39 -203.5q0 -69 -16.5 -119.5t-46.5 -84t-72 -51.5t-94 -23v-192l-84 -11v203q-109 10 -161 73.5t-52 175.5q0 92 17.5 163t37.5 125h89q-28 -83 -41.5 -146.5t-13.5 -120.5z
M334 58q77 10 107.5 61t30.5 149q0 107 -15.5 154t-58.5 47q-24 0 -37 -13t-19 -35.5t-7 -52.5t-1 -64v-246z" />
    <glyph glyph-name="chi" unicode="&#x3c7;" 
d="M310 254l133 285l90 -21l-177 -335l198 -370l-93 -26l-154 321h-4l-146 -321l-91 20l189 377q-41 103 -92 181t-120 140l93 33q27 -28 50.5 -57.5t44.5 -63t39.5 -74t35.5 -89.5h4z" />
    <glyph glyph-name="psi" unicode="&#x3c8;" 
d="M259 512q0 40 -1.5 72t-5 59t-8.5 49.5t-12 45.5l82 12q22 -55 25.5 -115.5t3.5 -137.5v-434q40 5 65 20.5t39.5 40.5t19.5 59.5t5 78.5q0 57 -6.5 124t-19.5 141h90q5 -33 10 -64t8.5 -64t5.5 -68.5t2 -76.5q0 -113 -53 -181.5t-166 -79.5v-195l-84 -11v206
q-56 4 -95.5 22t-65.5 45t-38 61.5t-12 72.5v333h89v-326q0 -60 27.5 -95t94.5 -43v449z" />
    <glyph glyph-name="omega" unicode="&#x3c9;" 
d="M342 231q0 -38 3 -69.5t11 -53.5t22 -34t35 -12q43 0 58 51.5t15 146.5q0 57 -11 119.5t-37 147.5h89q17 -55 32.5 -125.5t15.5 -162.5q0 -118 -38.5 -184.5t-114.5 -66.5q-52 0 -83 30.5t-38 86.5h-4q-11 -52 -42 -84.5t-79 -32.5q-77 0 -114 64.5t-37 186.5
q0 92 15 162.5t32 125.5h88q-26 -84 -36 -147.5t-10 -119.5q0 -47 3 -84t11.5 -62.5t22.5 -38.5t36 -13q21 0 35 13.5t22 37t11 54t3 64.5v124l84 12v-136z" />
    <glyph glyph-name="iotadieresis" unicode="&#x3ca;" 
d="M236 458q-19 -2 -37 -3t-37 -1q-26 0 -51.5 2t-50.5 6l10 72q27 -4 58.5 -5.5t65.5 -1.5t68 1.5t66 5.5v-400q0 -38 23.5 -54t61.5 -16q21 0 43.5 5t43.5 13l24 -66q-19 -11 -54.5 -19.5t-73.5 -8.5q-73 0 -116.5 40.5t-43.5 113.5v316zM171 647q-25 0 -41.5 16t-16.5 40
q0 25 16.5 41t41.5 16q24 0 40.5 -16t16.5 -41q0 -24 -16.5 -40t-40.5 -16zM380 647q-24 0 -40.5 16t-16.5 40q0 25 16.5 41t40.5 16q25 0 41.5 -16t16.5 -41q0 -24 -16.5 -40t-41.5 -16z" />
    <glyph glyph-name="upsilondieresis" unicode="&#x3cb;" 
d="M99 527h92v-336q0 -69 22.5 -99t75.5 -30q67 0 106 50.5t39 150.5q0 57 -6 123t-20 141h93q12 -65 19 -130.5t7 -146.5q0 -60 -17.5 -108.5t-49 -82.5t-75.5 -52.5t-97 -18.5q-50 0 -86 14t-59 39t-33.5 60t-10.5 76v350zM196 647q-25 0 -41.5 16t-16.5 40q0 25 16.5 41
t41.5 16q24 0 40.5 -16t16.5 -41q0 -24 -16.5 -40t-40.5 -16zM405 647q-24 0 -40.5 16t-16.5 40q0 25 16.5 41t40.5 16q25 0 41.5 -16t16.5 -41q0 -24 -16.5 -40t-41.5 -16z" />
    <glyph glyph-name="omicrontonos" unicode="&#x3cc;" 
d="M432 264q0 103 -32.5 152t-98.5 49t-99.5 -49t-33.5 -153q0 -103 33 -152t99 -49t99 49t33 153zM70 263q0 61 15 112t44 87.5t72.5 56.5t99.5 20t99 -19.5t72 -55.5t43.5 -86.5t14.5 -113.5q0 -61 -15 -112t-44 -87.5t-72 -56.5t-99 -20t-99 19.5t-72 55.5t-44 86.5
t-15 113.5zM271 601l38 211l100 -18l-69 -205z" />
    <glyph glyph-name="upsilontonos" unicode="&#x3cd;" 
d="M99 527h92v-336q0 -69 22.5 -99t75.5 -30q67 0 106 50.5t39 150.5q0 57 -6 123t-20 141h93q12 -65 19 -130.5t7 -146.5q0 -60 -17.5 -108.5t-49 -82.5t-75.5 -52.5t-97 -18.5q-50 0 -86 14t-59 39t-33.5 60t-10.5 76v350zM256 601l38 211l100 -18l-69 -205z" />
    <glyph glyph-name="omegatonos" unicode="&#x3ce;" 
d="M342 231q0 -38 3 -69.5t11 -53.5t22 -34t35 -12q43 0 58 51.5t15 146.5q0 57 -11 119.5t-37 147.5h89q17 -55 32.5 -125.5t15.5 -162.5q0 -118 -38.5 -184.5t-114.5 -66.5q-52 0 -83 30.5t-38 86.5h-4q-11 -52 -42 -84.5t-79 -32.5q-77 0 -114 64.5t-37 186.5
q0 92 15 162.5t32 125.5h88q-26 -84 -36 -147.5t-10 -119.5q0 -47 3 -84t11.5 -62.5t22.5 -38.5t36 -13q21 0 35 13.5t22 37t11 54t3 64.5v124l84 12v-136zM251 601l38 211l100 -18l-69 -205z" />
    <glyph glyph-name="uni0401" unicode="&#x401;" 
d="M207 613v-225h254v-76h-254v-237h311v-75h-406v689h398l-11 -76h-292zM204 769q-24 0 -40.5 16t-16.5 41q0 24 16.5 40t40.5 16q25 0 41.5 -16t16.5 -40q0 -25 -16.5 -41t-41.5 -16zM414 769q-25 0 -41.5 16t-16.5 41q0 24 16.5 40t41.5 16q24 0 41 -16t17 -40
q0 -25 -17 -41t-41 -16z" />
    <glyph glyph-name="uni0402" unicode="&#x402;" 
d="M247 610v-216q27 24 62.5 41t80.5 17q91 0 134.5 -52t43.5 -153v-151q0 -53 -12 -91.5t-35 -65.5t-56 -45.5t-74 -32.5l-24 74q33 13 53.5 27.5t32.5 33t16.5 43t4.5 57.5v147q0 69 -24 99t-82 30q-45 0 -73.5 -17t-47.5 -34v-321h-93v610h-159v79h413l-10 -79h-151z" />
    <glyph glyph-name="uni0403" unicode="&#x403;" 
d="M546 689l-10 -82h-310v-607h-95v689h415zM233 804l189 109l47 -77l-208 -81z" />
    <glyph glyph-name="uni0404" unicode="&#x404;" 
d="M358 66q57 0 94.5 18t63.5 41l49 -60q-32 -30 -84 -53.5t-127 -23.5q-65 0 -120 23t-95 68.5t-62 112t-22 153.5t24 153.5t64.5 111.5t94.5 68t115 23q68 0 114.5 -18t87.5 -50l-52 -59q-32 26 -68 38.5t-76 12.5q-39 0 -73.5 -12.5t-62 -40t-45.5 -71.5t-23 -108h299
v-78h-301q3 -66 20 -113.5t44.5 -77.5t63.5 -44t77 -14z" />
    <glyph glyph-name="uni0405" unicode="&#x405;" 
d="M540 192q0 -45 -17 -82.5t-49.5 -64.5t-79 -42t-105.5 -15q-81 0 -143 23.5t-106 65.5l55 61q36 -34 82 -53t109 -19q30 0 58 7.5t49.5 23t34.5 38.5t13 54q0 24 -7 42.5t-23.5 33.5t-45.5 28t-72 27q-50 15 -90 33.5t-68 42.5t-42.5 54.5t-14.5 70.5t17 73t47 57
t71.5 37t91.5 13q72 0 126.5 -21t96.5 -59l-54 -60q-37 32 -79 47t-86 15q-28 0 -52.5 -6t-42.5 -18t-28.5 -30.5t-10.5 -43.5q0 -22 8 -38.5t27 -31t50 -27.5t78 -27q41 -13 78 -28.5t64.5 -39t43.5 -58t16 -83.5z" />
    <glyph glyph-name="uni0406" unicode="&#x406;" 
d="M500 614h-152v-539h152v-75h-400v75h152v539h-152v75h400v-75z" />
    <glyph glyph-name="uni0407" unicode="&#x407;" 
d="M500 614h-152v-539h152v-75h-400v75h152v539h-152v75h400v-75zM194 769q-24 0 -40.5 16t-16.5 41q0 24 16.5 40t40.5 16q25 0 41.5 -16t16.5 -40q0 -25 -16.5 -41t-41.5 -16zM404 769q-25 0 -41.5 16t-16.5 41q0 24 16.5 40t41.5 16q24 0 41 -16t17 -40q0 -25 -17 -41
t-41 -16z" />
    <glyph glyph-name="uni0408" unicode="&#x408;" 
d="M450 186q0 -112 -77 -196t-242 -129l-23 71q64 21 110.5 44.5t77 54t45 69.5t14.5 90v424h-245v75h340v-503z" />
    <glyph glyph-name="uni0409" unicode="&#x409;" 
d="M356 436q122 0 183 -51t61 -162q0 -60 -16.5 -102t-47.5 -69t-74.5 -39.5t-98.5 -12.5h-97v614h-90l-22 -304q-7 -91 -16 -146t-22.5 -88t-31.5 -51.5t-42 -36.5l-42 66q11 11 20.5 25.5t18 42t15 73.5t12.5 119l29 375h261v-253zM505 222q0 78 -34 111t-100 33h-15v-293
h15q32 0 57 6.5t42 23.5t26 46t9 73z" />
    <glyph glyph-name="uni040A" unicode="&#x40a;" 
d="M266 356h-136v-356h-90v689h90v-263h136v263h90v-263q122 0 183 -49t61 -158q0 -60 -16.5 -102t-47.5 -68t-74.5 -37.5t-98.5 -11.5h-97v356zM356 356v-283h15q32 0 57 6t42 21.5t26 44t9 73.5q0 79 -34 108.5t-100 29.5h-15z" />
    <glyph glyph-name="uni040B" unicode="&#x40b;" 
d="M247 610v-216q27 24 62.5 41t80.5 17q91 0 134.5 -52t43.5 -153v-247h-94v243q0 69 -24 99t-82 30q-45 0 -73.5 -17t-47.5 -34v-321h-93v610h-159v79h413l-10 -79h-151z" />
    <glyph glyph-name="uni040C" unicode="&#x40c;" 
d="M263 323h-68v-323h-95v689h95v-288h69l205 288h101l-226 -323l245 -366h-113zM214 804l189 109l47 -77l-208 -81z" />
    <glyph glyph-name="uni040E" unicode="&#x40e;" 
d="M376 186q-19 -45 -40 -79.5t-50.5 -58.5t-69.5 -38.5t-96 -21.5l-14 74q45 6 75.5 16.5t50.5 25.5t32.5 36t23.5 49h-39l-226 500h99l189 -435h4l172 435h96zM308 760q-35 0 -62 10.5t-45.5 27t-29 36.5t-13.5 39l61 13q19 -56 89 -56q72 0 91 56l61 -13q-3 -19 -14 -39
t-29.5 -36.5t-45.5 -27t-63 -10.5z" />
    <glyph glyph-name="uni040F" unicode="&#x40f;" 
d="M520 689v-689h-169v-150h-75l-15 150h-181v689h95v-611h250v611h95z" />
    <glyph glyph-name="uni0410" unicode="&#x410;" 
d="M430 173h-265l-53 -173h-95l223 689h120l223 -689h-100zM188 250h219l-107 353h-4z" />
    <glyph glyph-name="uni0411" unicode="&#x411;" 
d="M477 611h-286v-188h85q63 0 112.5 -12t84.5 -37t53.5 -64.5t18.5 -93.5q0 -59 -20 -100t-55 -67t-84.5 -37.5t-107.5 -11.5h-182v689h390zM444 215q0 37 -12 62.5t-33 41.5t-50 23t-63 7h-95v-273h95q34 0 63 6t50 21.5t33 42.5t12 69z" />
    <glyph glyph-name="uni0412" unicode="&#x412;" 
d="M443 195q0 38 -11.5 62.5t-31 39t-45.5 20t-56 5.5h-112v-245h108q25 0 51.5 4.5t48 17.5t35 36t13.5 60zM416 509q0 57 -35 81t-97 24h-97v-216h105q60 0 92 26t32 85zM543 197q0 -57 -22.5 -94.5t-59.5 -60.5t-84 -32.5t-95 -9.5h-190v689h175q46 0 90.5 -8t79 -28
t55.5 -53.5t21 -84.5q0 -33 -10.5 -58.5t-27.5 -43.5t-38.5 -29t-43.5 -16v-4q26 -5 52.5 -15.5t48.5 -30t35.5 -49t13.5 -72.5z" />
    <glyph glyph-name="uni0413" unicode="&#x413;" 
d="M546 689l-10 -82h-310v-607h-95v689h415z" />
    <glyph glyph-name="uni0414" unicode="&#x414;" 
d="M38 78q20 20 33 46t23 71t19.5 115.5t23.5 178.5l25 200h350v-611h51v-228h-75l-15 150h-387l-15 -150h-75v228h42zM245 611l-14 -126q-12 -102 -21 -170.5t-20 -114.5t-25.5 -73.5t-37.5 -48.5h290v533h-172z" />
    <glyph glyph-name="uni0415" unicode="&#x415;" 
d="M207 613v-225h254v-76h-254v-237h311v-75h-406v689h398l-11 -76h-292z" />
    <glyph glyph-name="uni0416" unicode="&#x416;" 
d="M260 326h-35l-119 -326h-90l139 366l-125 323h89l107 -291h34v291h80v-291h34l108 291h88l-125 -323l139 -366h-92l-118 326h-34v-326h-80v326z" />
    <glyph glyph-name="uni0417" unicode="&#x417;" 
d="M543 201q0 -45 -18.5 -83.5t-53 -67.5t-83 -45.5t-109.5 -16.5q-75 0 -140 25t-107 73l60 52q32 -35 81 -53.5t104 -18.5q79 0 122.5 36.5t43.5 99.5q0 34 -12 58.5t-33.5 40t-50.5 22.5t-63 7h-121l11 78h104q28 0 54.5 6.5t46.5 20t32 34t12 49.5q0 27 -11 47.5
t-30.5 33.5t-46 19.5t-57.5 6.5q-55 0 -99.5 -17.5t-79.5 -49.5l-53 57q46 42 107.5 64t127.5 22q55 0 99.5 -13.5t75.5 -36.5t47.5 -54t16.5 -66q0 -32 -11 -58t-30.5 -46t-45.5 -33t-55 -18v-4q31 -2 61 -14.5t53 -34t37 -52.5t14 -70z" />
    <glyph glyph-name="uni0418" unicode="&#x418;" 
d="M80 0v689h93v-336q0 -47 -1 -83.5t-3 -66.5t-4 -55t-5 -47h4l237 588h119v-689h-93v336q0 81 4.5 146t8.5 103h-4l-235 -585h-121z" />
    <glyph glyph-name="uni0419" unicode="&#x419;" 
d="M80 0v689h93v-336q0 -47 -1 -83.5t-3 -66.5t-4 -55t-5 -47h4l237 588h119v-689h-93v336q0 81 4.5 146t8.5 103h-4l-235 -585h-121zM299 760q-35 0 -62 10.5t-45.5 27t-29 36.5t-13.5 39l61 13q19 -56 89 -56q72 0 91 56l61 -13q-3 -19 -14 -39t-29.5 -36.5t-45.5 -27
t-63 -10.5z" />
    <glyph glyph-name="uni041A" unicode="&#x41a;" 
d="M263 323h-68v-323h-95v689h95v-288h69l205 288h101l-226 -323l245 -366h-113z" />
    <glyph glyph-name="uni041B" unicode="&#x41b;" 
d="M0 57q31 23 51.5 48t35 70t26.5 119t27 195l25 200h355v-689h-95v609h-177l-14 -124q-10 -88 -19 -154t-20 -115.5t-24 -84.5t-31 -61t-42 -45t-56 -37z" />
    <glyph glyph-name="uni041C" unicode="&#x41c;" 
d="M481 0l-20 353q-2 50 -3.5 101.5t-1.5 86.5q0 16 0.5 27t0.5 16h-3l-109 -461h-91l-114 461h-4v-161q0 -37 -2 -70l-17 -353h-88l39 689h126l106 -460h4l101 460h127l39 -689h-90z" />
    <glyph glyph-name="uni041D" unicode="&#x41d;" 
d="M425 0v323h-250v-323h-95v689h95v-288h250v288h95v-689h-95z" />
    <glyph glyph-name="uni041E" unicode="&#x41e;" 
d="M556 344q0 -79 -16 -144.5t-48.5 -112.5t-80.5 -73t-111 -26t-111 25.5t-80.5 72t-48.5 112t-16 145.5q0 79 16 144.5t48.5 113t80.5 74t111 26.5t111 -25.5t80.5 -72.5t48.5 -113t16 -146zM457 344q0 136 -36.5 207.5t-120.5 71.5t-120.5 -72t-36.5 -208
q0 -137 37.5 -207t119.5 -70q84 0 120.5 70.5t36.5 207.5z" />
    <glyph glyph-name="uni041F" unicode="&#x41f;" 
d="M425 0v608h-250v-608h-95v689h440v-689h-95z" />
    <glyph glyph-name="uni0420" unicode="&#x420;" 
d="M458 475q0 39 -12 65.5t-33 43t-50 24t-63 7.5h-95v-287h95q34 0 63 6.5t50 23t33 45t12 72.5zM559 476q0 -60 -20 -102.5t-55 -69.5t-84.5 -39t-107.5 -12h-87v-253h-95v689h180q125 0 197 -52t72 -161z" />
    <glyph glyph-name="uni0421" unicode="&#x421;" 
d="M358 68q57 0 94.5 18t63.5 41l49 -62q-32 -30 -84 -53.5t-127 -23.5q-65 0 -120 23t-95 68.5t-62 112t-22 153.5t24 153.5t64.5 111.5t94.5 68t115 23q68 0 114.5 -18t87.5 -50l-52 -61q-32 26 -68 38.5t-76 12.5q-41 0 -78 -14.5t-65 -47t-44 -85.5t-16 -131
q0 -75 15.5 -127.5t42.5 -85.5t64 -48.5t80 -15.5z" />
    <glyph glyph-name="uni0422" unicode="&#x422;" 
d="M346 609v-609h-95v609h-213v80h524l-10 -80h-206z" />
    <glyph glyph-name="uni0423" unicode="&#x423;" 
d="M376 186q-19 -45 -40 -79.5t-50.5 -58.5t-69.5 -38.5t-96 -21.5l-14 74q45 6 75.5 16.5t50.5 25.5t32.5 36t23.5 49h-39l-226 500h99l189 -435h4l172 435h96z" />
    <glyph glyph-name="uni0424" unicode="&#x424;" 
d="M256 -30v62q-119 5 -181.5 83t-62.5 232q0 149 59.5 226t184.5 86v60h88v-60q125 -9 184.5 -86t59.5 -226q0 -153 -63 -231t-181 -84v-62h-88zM493 347q0 66 -9 112t-28 74.5t-47 42t-67 15.5v-492q80 7 115.5 65t35.5 183zM258 591q-39 -2 -67 -15.5t-47 -42t-28 -74.5
t-9 -112q0 -125 35.5 -183t115.5 -65v492z" />
    <glyph glyph-name="uni0425" unicode="&#x425;" 
d="M45 689h108l142 -256h4l148 256h102l-197 -317l220 -372h-108l-167 302h-4l-164 -302h-102l212 367z" />
    <glyph glyph-name="uni0426" unicode="&#x426;" 
d="M515 689v-612h60v-227h-75l-15 150h-405v689h95v-611h245v611h95z" />
    <glyph glyph-name="uni0427" unicode="&#x427;" 
d="M425 0v290q-29 -23 -68.5 -38t-90.5 -15q-218 0 -218 230v222h95v-218q0 -82 30.5 -117.5t104.5 -35.5q56 0 91 17t56 34v320h95v-689h-95z" />
    <glyph glyph-name="uni0428" unicode="&#x428;" 
d="M338 689v-612h127v612h85v-689h-500v689h85v-612h127v612h76z" />
    <glyph glyph-name="uni0429" unicode="&#x429;" 
d="M338 689v-612h127v612h85v-612h50v-227h-75l-15 150h-460v689h85v-612h127v612h76z" />
    <glyph glyph-name="uni042A" unicode="&#x42a;" 
d="M213 436h100q63 0 112.5 -12.5t84.5 -38.5t53.5 -66t18.5 -96q0 -60 -20 -102.5t-55 -69.5t-84.5 -39t-107.5 -12h-197v608h-118v81h213v-253zM481 222q0 39 -12 65.5t-33 43t-50 24t-63 7.5h-110v-286h110q34 0 63 6t50 22.5t33 45t12 72.5z" />
    <glyph glyph-name="uni042B" unicode="&#x42b;" 
d="M123 436h57q126 0 187.5 -54.5t61.5 -158.5q0 -114 -64.5 -168.5t-182.5 -54.5h-152v689h93v-253zM332 222q0 70 -35.5 106.5t-106.5 36.5h-67v-291h67q69 0 105.5 33.5t36.5 114.5zM477 0v689h93v-689h-93z" />
    <glyph glyph-name="uni042C" unicode="&#x42c;" 
d="M185 436h100q63 0 112.5 -12.5t84.5 -38.5t53.5 -66t18.5 -96q0 -60 -20 -102.5t-55 -69.5t-84.5 -39t-107.5 -12h-197v689h95v-253zM453 222q0 39 -12 65.5t-33 43t-50 24t-63 7.5h-110v-286h110q34 0 63 6t50 22.5t33 45t12 72.5z" />
    <glyph glyph-name="uni042D" unicode="&#x42d;" 
d="M263 625q-57 0 -95.5 -19.5t-69.5 -44.5l-51 55q40 35 93.5 60t127.5 25q126 0 199.5 -86.5t73.5 -261.5q0 -90 -20 -158.5t-56.5 -114.5t-89 -69t-116.5 -23q-69 0 -125 24t-95 64l55 54q35 -32 73.5 -48t86.5 -16q88 0 135 59.5t53 189.5h-297v78h297
q-3 63 -16.5 107.5t-36 72t-54.5 40t-72 12.5z" />
    <glyph glyph-name="uni042E" unicode="&#x42e;" 
d="M387 -12q-52 0 -87.5 23.5t-58 67t-32.5 106t-11 140.5h-65v-325h-88v689h88v-290h66q3 70 15 126t34.5 95t56.5 60t82 21q54 0 91 -23t59.5 -68t32.5 -111.5t10 -154.5q0 -173 -45 -264.5t-148 -91.5zM387 626q-25 0 -43 -14t-29.5 -47t-17 -87t-5.5 -133
q0 -80 5.5 -134t17 -87t29.5 -47t43 -14t43.5 14t31 47t18.5 86.5t6 133.5q0 79 -6 133t-18.5 87t-31 47.5t-43.5 14.5z" />
    <glyph glyph-name="uni042F" unicode="&#x42f;" 
d="M281 274l-143 -274h-108l161 295q-60 27 -90 75.5t-30 112.5q0 99 66.5 152.5t196.5 53.5h186v-689h-95v274h-144zM172 483q0 -69 35 -101.5t102 -32.5h116v266h-100q-78 0 -115.5 -31.5t-37.5 -100.5z" />
    <glyph glyph-name="uni0430" unicode="&#x430;" 
d="M482 119q0 -32 10 -46t32 -21l-22 -64q-35 5 -61.5 22t-38.5 52q-28 -38 -73 -56t-93 -18q-80 0 -127 44.5t-47 118.5q0 82 65 126t186 44h77v41q0 56 -32.5 79t-90.5 23q-26 0 -61.5 -6.5t-76.5 -20.5l-24 68q49 18 93 26t83 8q101 0 151 -45.5t50 -126.5v-248zM261 57
q38 0 72 19t57 54v130h-72q-85 0 -120 -28.5t-35 -76.5q0 -98 98 -98z" />
    <glyph glyph-name="uni0431" unicode="&#x431;" 
d="M293 600q-29 -10 -49.5 -24t-35.5 -35.5t-24.5 -51t-15.5 -71.5h3q25 44 64.5 65t87.5 21q46 0 84 -18.5t64.5 -51.5t41 -78.5t14.5 -99.5q0 -68 -17.5 -118.5t-48.5 -83.5t-73 -49.5t-90 -16.5q-104 0 -165 71.5t-61 220.5q0 78 6 141t24.5 111.5t52.5 82t89 51.5
q29 9 51.5 17.5t43.5 18t43.5 21t50.5 28.5l39 -69q-26 -17 -46 -28t-40.5 -20t-42.5 -16.5t-50 -17.5zM167 253q0 -85 32.5 -138t100.5 -53q26 0 49.5 8t41 29t27.5 58.5t10 97.5q0 93 -30.5 134t-88.5 41q-66 0 -104 -42t-38 -135z" />
    <glyph glyph-name="uni0432" unicode="&#x432;" 
d="M438 160q0 44 -27.5 65.5t-90.5 21.5h-117v-175h108q67 0 97 20.5t30 67.5zM414 391q0 42 -31 59.5t-91 17.5q-26 0 -47.5 -1.5t-41.5 -4.5v-147h111q51 0 75.5 17t24.5 59zM535 155q0 -45 -19 -75t-50.5 -48t-72.5 -25t-85 -7h-197v520q41 8 87 13.5t92 5.5
q41 0 80.5 -6.5t70 -22.5t49.5 -43.5t19 -69.5q0 -45 -27 -70t-66 -36v-4q23 -4 44.5 -13.5t38 -25.5t26.5 -39t10 -54z" />
    <glyph glyph-name="uni0433" unicode="&#x433;" 
d="M246 0h-92v527h372l-11 -77h-269v-450z" />
    <glyph glyph-name="uni0434" unicode="&#x434;" 
d="M110 0l-15 -140h-71v213h37q17 15 30 35t22.5 52t16.5 79.5t12 117.5l12 170h345v-454h40v-213h-71l-15 140h-343zM237 454l-6 -91q-5 -72 -11.5 -120t-17 -80.5t-26 -53t-37.5 -36.5h268v381h-170z" />
    <glyph glyph-name="uni0435" unicode="&#x435;" 
d="M171 232q6 -88 48.5 -128.5t102.5 -40.5q36 0 71 10.5t69 38.5l42 -61q-37 -29 -85 -46t-99 -17q-59 0 -104.5 20t-77 56t-47.5 86.5t-16 112.5q0 60 16 110.5t46 87t72.5 57.5t95.5 21q104 0 162.5 -69.5t58.5 -190.5q0 -14 -0.5 -26t-1.5 -21h-353zM305 466
q-54 0 -91.5 -40.5t-42.5 -125.5h266q-2 82 -36 124t-96 42z" />
    <glyph glyph-name="uni0436" unicode="&#x436;" 
d="M261 0v245h-42l-110 -245h-92l131 284l-122 243h91l100 -214h44v214h78v-214h43l102 214h90l-122 -243l131 -284h-93l-110 245h-41v-245h-78z" />
    <glyph glyph-name="uni0437" unicode="&#x437;" 
d="M189 311h95q52 0 81.5 21t29.5 56q0 41 -31.5 60t-89.5 19q-42 0 -84.5 -12t-74.5 -36l-45 56q38 30 93.5 47t114.5 17q44 0 83 -8t67.5 -25t45 -44t16.5 -65q0 -43 -29.5 -72.5t-72.5 -40.5v-4q25 -4 48.5 -13t42 -24.5t29.5 -37.5t11 -53q0 -40 -18 -70.5t-50 -51.5
t-75.5 -31.5t-94.5 -10.5q-81 0 -136.5 21.5t-93.5 52.5l49 61q35 -28 78 -44.5t105 -16.5q68 0 102.5 25.5t34.5 68.5q0 83 -130 83h-107z" />
    <glyph glyph-name="uni0438" unicode="&#x438;" 
d="M503 527v-527h-89v238q0 70 4 121.5t7 68.5h-4l-216 -428h-108v527h89v-238q0 -31 -1 -60.5t-2.5 -55t-3.5 -44t-3 -27.5h4l214 425h109z" />
    <glyph glyph-name="uni0439" unicode="&#x439;" 
d="M503 527v-527h-89v238q0 70 4 121.5t7 68.5h-4l-216 -428h-108v527h89v-238q0 -31 -1 -60.5t-2.5 -55t-3.5 -44t-3 -27.5h4l214 425h109zM305 628q-35 0 -61.5 10.5t-45.5 27.5t-29.5 38t-13.5 41l61 13q21 -61 89 -61q71 0 92 61l61 -13q-3 -20 -14 -41t-30 -38
t-46.5 -27.5t-62.5 -10.5z" />
    <glyph glyph-name="uni043A" unicode="&#x43a;" 
d="M97 0v527h92v-212h87l148 212h101l-174 -244l200 -283h-109l-168 243h-85v-243h-92z" />
    <glyph glyph-name="uni043B" unicode="&#x43b;" 
d="M28 52q24 17 42 36t31.5 51t22.5 83.5t15 134.5l13 170h351v-527h-92v452h-176l-7 -89q-8 -94 -17 -155.5t-25.5 -103t-44 -67.5t-71.5 -49z" />
    <glyph glyph-name="uni043C" unicode="&#x43c;" 
d="M473 0l-19 249q-2 32 -3.5 64.5t-1.5 68.5v27q0 14 1 28h-4l-101 -349h-87l-112 349h-4q1 -16 1 -32v-33q0 -32 -0.5 -63.5t-2.5 -58.5l-14 -250h-86l37 527h117l107 -348h4l98 348h119l38 -527h-87z" />
    <glyph glyph-name="uni043D" unicode="&#x43d;" 
d="M408 0v232h-216v-232h-92v527h92v-221h216v221h92v-527h-92z" />
    <glyph glyph-name="uni043E" unicode="&#x43e;" 
d="M432 264q0 103 -32.5 152t-98.5 49t-99.5 -49t-33.5 -153q0 -103 33 -152t99 -49t99 49t33 153zM70 263q0 61 15 112t44 87.5t72.5 56.5t99.5 20t99 -19.5t72 -55.5t43.5 -86.5t14.5 -113.5q0 -61 -15 -112t-44 -87.5t-72 -56.5t-99 -20t-99 19.5t-72 55.5t-44 86.5
t-15 113.5z" />
    <glyph glyph-name="uni043F" unicode="&#x43f;" 
d="M408 0v452h-216v-452h-92v527h400v-527h-92z" />
    <glyph glyph-name="uni0440" unicode="&#x440;" 
d="M97 -213v740h79l7 -72q29 41 69.5 62.5t86.5 21.5q52 0 88.5 -19.5t59.5 -55.5t33 -87t10 -113q0 -60 -12.5 -110.5t-38 -87.5t-63.5 -57.5t-89 -20.5q-88 0 -138 60v-250zM305 63q63 0 95 48.5t32 152.5q0 103 -28 152.5t-88 49.5q-42 0 -74 -25t-53 -57v-257
q20 -31 50 -47.5t66 -16.5z" />
    <glyph glyph-name="uni0441" unicode="&#x441;" 
d="M336 66q33 0 68 10.5t67 34.5l44 -63q-37 -30 -86 -45t-94 -15q-60 0 -106.5 19.5t-78.5 55t-48.5 86t-16.5 112.5q0 60 17 110.5t49 88t78.5 58.5t106.5 21q51 0 96.5 -14t82.5 -45l-45 -62q-32 24 -65.5 34.5t-68.5 10.5q-67 0 -109.5 -49.5t-42.5 -152.5
q0 -52 11.5 -89t31.5 -60.5t48 -34.5t61 -11z" />
    <glyph glyph-name="uni0442" unicode="&#x442;" 
d="M343 0h-92v452h-186v75h470l-11 -75h-181v-452z" />
    <glyph glyph-name="uni0443" unicode="&#x443;" 
d="M358 -3q-14 -42 -34 -78t-48.5 -63.5t-67.5 -45.5t-92 -23l-13 72q40 7 67.5 18.5t46.5 28.5t31 40.5t23 53.5h-31l-182 527h98l144 -453h4l143 453h95z" />
    <glyph glyph-name="uni0444" unicode="&#x444;" 
d="M573 264q0 -62 -9.5 -113t-27.5 -87t-45 -56t-62 -20q-50 0 -89 55v-245l-80 -11v256q-20 -28 -44 -41.5t-47 -13.5q-35 0 -61.5 20t-44.5 56t-27 87t-9 113t7 113t23.5 87t43.5 55.5t66 19.5q26 0 49 -12t44 -39v262l80 -11v-253q22 28 46.5 40.5t51.5 12.5
q39 0 65 -19.5t41.5 -55.5t22 -87t6.5 -113zM416 468q-23 0 -40 -11.5t-36 -34.5v-314q17 -24 32.5 -36.5t36.5 -12.5q35 0 53.5 47.5t18.5 157.5t-15 157t-50 47zM189 59q21 0 36 12.5t35 36.5v315q-19 23 -33.5 34t-37.5 11q-35 0 -52 -47t-17 -157t17 -157.5t52 -47.5z
" />
    <glyph glyph-name="uni0445" unicode="&#x445;" 
d="M295 220l-139 -220h-104l193 278l-170 249h108l116 -190h4l117 190h104l-169 -245l193 -282h-111l-138 220h-4z" />
    <glyph glyph-name="uni0446" unicode="&#x446;" 
d="M103 0v527h92v-453h210v453h92v-455h60v-212h-71l-15 140h-368z" />
    <glyph glyph-name="uni0447" unicode="&#x447;" 
d="M173 527v-198q0 -51 22 -73t67 -22q37 0 76 15.5t63 41.5v236h92v-527h-92v219q-30 -28 -72.5 -42.5t-91.5 -14.5q-78 0 -117 41t-39 115v209h92z" />
    <glyph glyph-name="uni0448" unicode="&#x448;" 
d="M340 527v-455h127v455h85v-527h-504v527h85v-455h127v455h80z" />
    <glyph glyph-name="uni0449" unicode="&#x449;" 
d="M48 0v527h85v-455h127v455h80v-455h127v455h85v-455h50v-212h-71l-15 140h-468z" />
    <glyph glyph-name="uni044A" unicode="&#x44a;" 
d="M45 527h185v-165h70q56 0 101 -10t76.5 -31.5t48 -55t16.5 -81.5q0 -51 -18 -86t-49.5 -57t-76 -31.5t-96.5 -9.5h-164v457h-93v70zM444 184q0 60 -35.5 84t-99.5 24h-79v-220h79q29 0 53.5 4.5t42.5 17t28.5 34.5t10.5 56z" />
    <glyph glyph-name="uni044B" unicode="&#x44b;" 
d="M455 0v527h87v-527h-87zM309 183q0 59 -31 83.5t-97 24.5h-37v-222h37q30 0 53.5 5.5t40 18.5t25.5 35t9 55zM58 0v527h86v-170h33q106 0 165.5 -41t59.5 -133q0 -48 -16 -82.5t-45 -57t-70 -33t-92 -10.5h-121z" />
    <glyph glyph-name="uni044C" unicode="&#x44c;" 
d="M424 184q0 60 -35.5 84t-99.5 24h-79v-220h79q29 0 53.5 4.5t42.5 17t28.5 34.5t10.5 56zM118 0v527h92v-165h70q56 0 101 -10t76.5 -31.5t48 -55t16.5 -81.5q0 -51 -18 -86t-49.5 -57t-76 -31.5t-96.5 -9.5h-164z" />
    <glyph glyph-name="uni044D" unicode="&#x44d;" 
d="M277 466q-38 0 -72.5 -11t-66.5 -35l-43 58q37 30 85 45.5t99 15.5q61 0 106 -19.5t75 -55t45 -86t15 -112.5t-16 -113t-47 -88t-77.5 -57t-106.5 -20q-51 0 -98.5 16t-84.5 47l44 59q63 -47 138 -47q66 0 106.5 40.5t46.5 131.5h-243v70h242q-8 83 -46 122t-101 39z" />
    <glyph glyph-name="uni044E" unicode="&#x44e;" 
d="M381 -12q-44 0 -76.5 18t-53.5 50.5t-32.5 77t-13.5 98.5h-60v-232h-88v527h88v-221h60q3 50 15.5 93t34 74t53.5 48.5t74 17.5q92 0 136.5 -73.5t44.5 -201.5q0 -59 -10.5 -109.5t-33 -87.5t-56.5 -58t-82 -21zM469 264q0 96 -19 149t-68 53q-50 0 -68 -49.5t-18 -153.5
q0 -96 17.5 -149t68.5 -53q26 0 43 13.5t26.5 40t13.5 64t4 85.5z" />
    <glyph glyph-name="uni044F" unicode="&#x44f;" 
d="M262 202l-106 -202h-103l122 224q-46 23 -69.5 61.5t-23.5 83.5q0 79 54.5 124.5t173.5 45.5q45 0 93 -5.5t87 -13.5v-520h-92v202h-136zM179 369q0 -50 26.5 -73.5t89.5 -23.5h103v190q-23 3 -45.5 4.5t-49.5 1.5q-71 0 -97.5 -26t-26.5 -73z" />
    <glyph glyph-name="uni0451" unicode="&#x451;" 
d="M171 232q6 -88 48.5 -128.5t102.5 -40.5q36 0 71 10.5t69 38.5l42 -61q-37 -29 -85 -46t-99 -17q-59 0 -104.5 20t-77 56t-47.5 86.5t-16 112.5q0 60 16 110.5t46 87t72.5 57.5t95.5 21q104 0 162.5 -69.5t58.5 -190.5q0 -14 -0.5 -26t-1.5 -21h-353zM305 466
q-54 0 -91.5 -40.5t-42.5 -125.5h266q-2 82 -36 124t-96 42zM211 647q-25 0 -41.5 16t-16.5 40q0 25 16.5 41t41.5 16q24 0 40.5 -16t16.5 -41q0 -24 -16.5 -40t-40.5 -16zM420 647q-24 0 -40.5 16t-16.5 40q0 25 16.5 41t40.5 16q25 0 41.5 -16t16.5 -41q0 -24 -16.5 -40
t-41.5 -16z" />
    <glyph glyph-name="uni0452" unicode="&#x452;" 
d="M195 597v-137q32 38 76 58.5t91 20.5q77 0 112.5 -41t35.5 -115v-351q0 -57 -10.5 -95.5t-30.5 -65.5t-50 -46t-70 -37l-34 67q26 12 45.5 24.5t32 31t19 46t6.5 69.5v351q0 48 -21 69t-66 21q-21 0 -41 -7.5t-37.5 -19.5t-32.5 -27.5t-25 -30.5v-382h-92v597h-79v70h79
v71l92 10v-81h166v-70h-166z" />
    <glyph glyph-name="uni0453" unicode="&#x453;" 
d="M246 0h-92v527h372l-11 -77h-269v-450zM226 672l188 119l47 -77l-205 -92z" />
    <glyph glyph-name="uni0454" unicode="&#x454;" 
d="M331 63q35 0 69 10.5t66 34.5l44 -60q-37 -30 -85.5 -45t-94.5 -15q-60 0 -106.5 19.5t-78.5 55t-48.5 86t-16.5 112.5q0 60 17 110.5t49 88t78.5 58.5t106.5 21q51 0 96 -14.5t83 -44.5l-45 -59q-33 24 -66 34.5t-68 10.5q-60 0 -102.5 -40t-52.5 -121h237v-70h-238
q6 -91 49.5 -131.5t106.5 -40.5z" />
    <glyph glyph-name="uni0455" unicode="&#x455;" 
d="M275 62q59 0 92.5 21.5t33.5 58.5q0 19 -4.5 33t-18 25t-38 20t-65.5 20q-39 10 -71 22.5t-55 30t-35.5 41.5t-12.5 59q0 33 14.5 60t41.5 46t64.5 29.5t83.5 10.5q57 0 102.5 -15.5t80.5 -40.5l-41 -62q-29 21 -63 33t-77 12q-62 0 -86.5 -17.5t-24.5 -49.5
q0 -17 6.5 -28.5t22.5 -21.5t41.5 -19t64.5 -20q38 -11 69 -23t53.5 -30t34.5 -44t12 -64q0 -43 -19 -73.5t-50.5 -50t-72 -28.5t-83.5 -9q-73 0 -126 21t-88 51l51 58q31 -26 73.5 -41t89.5 -15z" />
    <glyph glyph-name="uni0456" unicode="&#x456;" 
d="M370 71h147v-71h-400v71h161v385h-156v71h248v-456zM389 715q0 -27 -18 -45t-47 -18t-46.5 18t-17.5 45q0 26 17.5 44t46.5 18t47 -18t18 -44z" />
    <glyph glyph-name="uni0457" unicode="&#x457;" 
d="M517 0h-400v71h161v385h-156v71h248v-456h147v-71zM209 647q-25 0 -41.5 16t-16.5 40q0 25 16.5 41t41.5 16q24 0 40.5 -16t16.5 -41q0 -24 -16.5 -40t-40.5 -16zM418 647q-24 0 -40.5 16t-16.5 40q0 25 16.5 41t40.5 16q25 0 41.5 -16t16.5 -41q0 -24 -16.5 -40
t-41.5 -16z" />
    <glyph glyph-name="uni0458" unicode="&#x458;" 
d="M378 62q0 -57 -20 -100.5t-55 -76.5t-82.5 -56.5t-102.5 -41.5l-28 71q37 14 72.5 30.5t63 40t44 54.5t16.5 73v400h-171v71h263v-465zM387 715q0 -27 -18 -45t-47 -18t-46.5 18t-17.5 45q0 26 17.5 44t46.5 18t47 -18t18 -44z" />
    <glyph glyph-name="uni0459" unicode="&#x459;" 
d="M282 0v456h-96l-6 -132q-4 -81 -11.5 -135t-22.5 -91t-39 -62t-61 -48l-42 64q20 16 35 34.5t26 47.5t18 74t10 114l10 205h265v-170h13q103 0 159 -41.5t56 -132.5q0 -47 -15 -81t-43 -57t-67 -34t-88 -11h-101zM503 183q0 59 -27.5 83.5t-90.5 24.5h-17v-222h19
q28 0 49.5 5.5t36.5 18.5t22.5 35t7.5 55z" />
    <glyph glyph-name="uni045A" unicode="&#x45a;" 
d="M282 0v260h-126v-260h-88v527h88v-201h126v201h86v-201h13q50 0 90 -9t67.5 -28.5t42.5 -50.5t15 -74q0 -45 -15.5 -76t-43 -50.5t-67 -28.5t-87.5 -9h-101zM503 164q0 55 -28.5 75.5t-89.5 20.5h-17v-191h17q27 0 49 3t37.5 13t23.5 29t8 50z" />
    <glyph glyph-name="uni045B" unicode="&#x45b;" 
d="M103 0v597h-79v70h79v71l92 10v-81h166v-70h-166v-137q32 38 76 58.5t91 20.5q77 0 112.5 -41t35.5 -115v-383h-92v377q0 48 -21 69t-66 21q-21 0 -41 -7.5t-37.5 -19.5t-32.5 -27.5t-25 -30.5v-382h-92z" />
    <glyph glyph-name="uni045C" unicode="&#x45c;" 
d="M97 0v527h92v-212h87l148 212h101l-174 -244l200 -283h-109l-168 243h-85v-243h-92zM184 672l188 119l47 -77l-205 -92z" />
    <glyph glyph-name="uni045E" unicode="&#x45e;" 
d="M358 -3q-14 -42 -34 -78t-48.5 -63.5t-67.5 -45.5t-92 -23l-13 72q40 7 67.5 18.5t46.5 28.5t31 40.5t23 53.5h-31l-182 527h98l144 -453h4l143 453h95zM300 628q-35 0 -61.5 10.5t-45.5 27.5t-29.5 38t-13.5 41l61 13q21 -61 89 -61q71 0 92 61l61 -13q-3 -20 -14 -41
t-30 -38t-46.5 -27.5t-62.5 -10.5z" />
    <glyph glyph-name="uni045F" unicode="&#x45f;" 
d="M103 0v527h92v-453h210v453h92v-527h-154v-140h-71l-15 140h-154z" />
    <glyph glyph-name="uni0462" unicode="&#x462;" 
d="M252 610v-187h64q63 0 112.5 -12t84.5 -37t53.5 -64.5t18.5 -93.5q0 -59 -20 -100t-55 -67t-84.5 -37.5t-107.5 -11.5h-159v610h-159v79h413l-10 -79h-151zM252 351v-277h74q35 0 64.5 6.5t51 22t33.5 43t12 69.5q0 73 -44 104.5t-117 31.5h-74z" />
    <glyph glyph-name="uni0463" unicode="&#x463;" 
d="M140 0v457h-84v70h84v119l92 11v-130h133l-11 -70h-122v-100h68q56 0 101 -10t76.5 -31t48 -54.5t16.5 -80.5q0 -50 -18 -84.5t-49.5 -56t-76 -31t-96.5 -9.5h-162zM444 181q0 58 -35.5 82t-99.5 24h-77v-215h77q29 0 53.5 4.5t42.5 16.5t28.5 33.5t10.5 54.5z" />
    <glyph glyph-name="uni0472" unicode="&#x472;" 
d="M556 344q0 -79 -16 -144.5t-48.5 -112.5t-80.5 -73t-111 -26t-111 25.5t-80.5 72t-48.5 112t-16 145.5q0 79 16 144.5t48.5 113t80.5 74t111 26.5t111 -25.5t80.5 -72.5t48.5 -113t16 -146zM300 66q81 0 117 64t39 190h-313q3 -126 40.5 -190t116.5 -64zM300 623
q-77 0 -113.5 -59t-42.5 -174h311q-5 115 -41.5 174t-113.5 59z" />
    <glyph glyph-name="uni0473" unicode="&#x473;" 
d="M70 263q0 61 15 112t44 87.5t72.5 56.5t99.5 20t99 -19.5t72 -55.5t43.5 -86.5t14.5 -113.5q0 -61 -15 -112t-44 -87.5t-72 -56.5t-99 -20t-99 19.5t-72 55.5t-44 86.5t-15 113.5zM301 465q-61 0 -94 -41t-38 -129h262q-9 170 -130 170zM300 62q60 0 92.5 39.5
t38.5 123.5h-262q6 -84 38.5 -123.5t92.5 -39.5z" />
    <glyph glyph-name="uni0474" unicode="&#x474;" 
d="M304 105l132 456q8 28 15 48.5t13.5 36t13 28.5t15.5 27l94 -17q-10 -15 -18.5 -29t-16 -31t-14.5 -37.5t-16 -48.5l-169 -538h-104l-227 689h102l176 -584h4z" />
    <glyph glyph-name="uni0475" unicode="&#x475;" 
d="M554 527q-11 -16 -19 -31t-15.5 -31t-14.5 -34.5t-15 -40.5l-137 -390h-107l-189 527h98l145 -442h4l106 334q14 43 25.5 71.5t28.5 48.5z" />
    <glyph glyph-name="uni0490" unicode="&#x490;" 
d="M454 689v147h92v-147l-10 -82h-310v-607h-95v689h323z" />
    <glyph glyph-name="uni0491" unicode="&#x491;" 
d="M246 0h-92v527h280v135h92v-135l-11 -77h-269v-450z" />
    <glyph glyph-name="uni0492" unicode="&#x492;" 
d="M412 363h-156v-363h-95v363h-98v70h98v256h415l-10 -82h-310v-174h156v-70z" />
    <glyph glyph-name="uni0493" unicode="&#x493;" 
d="M266 316h124v-70h-124v-246h-92v246h-72v70h72v211h372l-11 -77h-269v-134z" />
    <glyph glyph-name="uni0496" unicode="&#x496;" 
d="M260 326h-35l-119 -326h-90l139 366l-125 323h89l107 -291h34v291h80v-291h34l108 291h88l-125 -323l110 -289h45v-227h-70l-15 150h-23l-118 326h-34v-326h-80v326z" />
    <glyph glyph-name="uni0497" unicode="&#x497;" 
d="M261 0v245h-42l-110 -245h-92l131 284l-122 243h91l100 -214h44v214h78v-214h43l102 214h90l-122 -243l98 -212h48v-212h-71l-15 140h-22l-110 245h-41v-245h-78z" />
    <glyph glyph-name="uni0498" unicode="&#x498;" 
d="M330 -141q0 26 -23 34t-64 8l7 88q-67 5 -123.5 29t-94.5 68l60 52q32 -35 81 -53.5t104 -18.5q79 0 122.5 36.5t43.5 99.5q0 34 -12 58.5t-33.5 40t-50.5 22.5t-63 7h-121l11 78h104q28 0 54.5 6.5t46.5 20t32 34t12 49.5q0 27 -11 47.5t-30.5 33.5t-46 19.5t-57.5 6.5
q-55 0 -99.5 -17.5t-79.5 -49.5l-53 57q46 42 107.5 64t127.5 22q55 0 99.5 -13.5t75.5 -36.5t47.5 -54t16.5 -66q0 -32 -11 -58t-30.5 -46t-45.5 -33t-55 -18v-4q31 -2 61 -14.5t53 -34t37 -52.5t14 -70q0 -42 -16 -78.5t-46 -64.5t-72.5 -46t-95.5 -22v-46q50 -5 72 -29.5
t22 -55.5q0 -25 -10 -43.5t-27.5 -31t-40 -19t-47.5 -6.5q-31 0 -58.5 7t-47.5 18l28 51q14 -8 32 -12t34 -4q27 0 43.5 9t16.5 31z" />
    <glyph glyph-name="uni0499" unicode="&#x499;" 
d="M326 -141q0 26 -23 34t-64 8l7 88q-67 5 -114.5 25t-80.5 48l49 61q35 -28 78 -44.5t105 -16.5q68 0 102.5 25.5t34.5 68.5q0 83 -130 83h-107l6 72h95q52 0 81.5 21t29.5 56q0 41 -31.5 60t-89.5 19q-42 0 -84.5 -12t-74.5 -36l-45 56q38 30 93.5 47t114.5 17
q44 0 83 -8t67.5 -25t45 -44t16.5 -65q0 -43 -29.5 -72.5t-72.5 -40.5v-4q25 -4 48.5 -13t42 -24.5t29.5 -37.5t11 -53q0 -37 -16 -66t-44 -49.5t-66.5 -32.5t-83.5 -15v-45q50 -5 72 -29.5t22 -55.5q0 -25 -10 -43.5t-27.5 -31t-40 -19t-47.5 -6.5q-31 0 -58.5 7t-47.5 18
l28 51q14 -8 32 -12t35 -4q26 0 42.5 9t16.5 31z" />
    <glyph glyph-name="uni049A" unicode="&#x49a;" 
d="M263 323h-68v-323h-95v689h95v-288h69l205 288h101l-226 -323l193 -289h52v-227h-75l-15 150h-23z" />
    <glyph glyph-name="uni049B" unicode="&#x49b;" 
d="M97 0v527h92v-212h87l148 212h101l-174 -244l149 -211h51v-212h-71l-15 140h-23l-168 243h-85v-243h-92z" />
    <glyph glyph-name="uni049C" unicode="&#x49c;" 
d="M234 150v174h-42v-324h-92v689h92v-289h42v170h54v-170h20l164 289h98l-188 -323l207 -366h-105l-176 324h-20v-174h-54z" />
    <glyph glyph-name="uni049D" unicode="&#x49d;" 
d="M97 0v527h90v-212h46v115h48v-115h26l123 212h95l-144 -243l170 -284h-100l-144 243h-26v-123h-48v123h-46v-243h-90z" />
    <glyph glyph-name="uni04A0" unicode="&#x4a0;" 
d="M291 323h-68v-323h-95v608h-118v81h213v-288h69l205 288h101l-226 -323l245 -366h-113z" />
    <glyph glyph-name="uni04A1" unicode="&#x4a1;" 
d="M24 527h193v-212h87l148 212h101l-174 -244l200 -283h-109l-168 243h-85v-243h-92v457h-101v70z" />
    <glyph glyph-name="uni04A2" unicode="&#x4a2;" 
d="M520 77h60v-227h-75l-15 150h-65v323h-250v-323h-95v689h95v-288h250v288h95v-612z" />
    <glyph glyph-name="uni04A3" unicode="&#x4a3;" 
d="M408 0v232h-216v-232h-92v527h92v-221h216v221h92v-455h60v-212h-71l-15 140h-66z" />
    <glyph glyph-name="uni04AA" unicode="&#x4aa;" 
d="M358 68q57 0 94.5 18t63.5 41l49 -62q-21 -20 -50.5 -37t-67.5 -28q-28 -16 -45.5 -33t-27 -33.5t-13 -32t-3.5 -28.5q0 -23 15 -38t49 -15q20 0 36.5 5t25.5 10l25 -54q-24 -12 -47.5 -17t-49.5 -5q-63 0 -97 30t-34 81q0 32 19.5 63t54.5 55h-1q-65 0 -120 23t-95 68.5
t-62 112t-22 153.5t24 153.5t64.5 111.5t94.5 68t115 23q68 0 114.5 -18t87.5 -50l-52 -61q-32 26 -68 38.5t-76 12.5q-41 0 -78 -14.5t-65 -47t-44 -85.5t-16 -131q0 -75 15.5 -127.5t42.5 -85.5t64 -48.5t80 -15.5z" />
    <glyph glyph-name="uni04AB" unicode="&#x4ab;" 
d="M336 66q33 0 68 10.5t67 34.5l44 -63q-21 -17 -46.5 -29t-52.5 -20q-27 -16 -44 -33t-26.5 -33t-13 -31.5t-3.5 -28.5q0 -23 15 -38t49 -15q20 0 36.5 5t25.5 10l25 -54q-24 -12 -47.5 -17t-49.5 -5q-63 0 -97 30t-34 81q0 32 21 63t56 55q-58 1 -103.5 21t-76.5 55.5
t-47.5 85.5t-16.5 111q0 60 17 110.5t49 88t78.5 58.5t106.5 21q51 0 96.5 -14t82.5 -45l-45 -62q-32 24 -65.5 34.5t-68.5 10.5q-67 0 -109.5 -49.5t-42.5 -152.5q0 -52 11.5 -89t31.5 -60.5t48 -34.5t61 -11z" />
    <glyph glyph-name="uni04AE" unicode="&#x4ae;" 
d="M348 265v-265h-96v264l-232 425h105l176 -337h3l177 337h99z" />
    <glyph glyph-name="uni04AF" unicode="&#x4af;" 
d="M255 -213v225l-201 515h98l148 -419h4l147 419h95l-201 -512v-217z" />
    <glyph glyph-name="uni04B0" unicode="&#x4b0;" 
d="M376 316h99v-70h-127v-246h-96v246h-127v70h98l-203 373h105l176 -337h3l177 337h99z" />
    <glyph glyph-name="uni04B1" unicode="&#x4b1;" 
d="M371 82h78v-70h-104v-214l-90 -11v225h-104v70h76l-173 445h98l148 -419h4l147 419h95z" />
    <glyph glyph-name="uni04B2" unicode="&#x4b2;" 
d="M45 689h108l142 -256h4l148 256h102l-197 -317l174 -295h54v-227h-75l-15 150h-26l-167 302h-4l-164 -302h-102l212 367z" />
    <glyph glyph-name="uni04B3" unicode="&#x4b3;" 
d="M427 0l-138 220h-4l-139 -220h-104l193 278l-170 249h108l116 -190h4l117 190h104l-169 -245l143 -210h59v-212h-71l-15 140h-34z" />
    <glyph glyph-name="uni04B8" unicode="&#x4b8;" 
d="M253 150v87q-205 6 -205 230v222h95v-218q0 -75 25 -110.5t85 -41.5v251h59v-250q42 5 69 20t44 29v320h95v-689h-95v290q-22 -17 -50 -30.5t-63 -19.5v-90h-59z" />
    <glyph glyph-name="uni04B9" unicode="&#x4b9;" 
d="M251 80v82h-14q-78 0 -117 41t-39 115v209h92v-198q0 -48 19.5 -70t58.5 -25v156h55v-151q27 6 52.5 19.5t42.5 32.5v236h92v-527h-92v219q-19 -18 -43 -30t-52 -19v-90h-55z" />
    <glyph glyph-name="uni04BA" unicode="&#x4ba;" 
d="M175 689v-293q31 23 73.5 39.5t95.5 16.5q111 0 159.5 -57.5t48.5 -172.5v-222h-95v218q0 41 -6.5 70t-22.5 47.5t-41.5 27t-64.5 8.5q-57 0 -92 -17t-55 -34v-320h-95v689h95z" />
    <glyph glyph-name="uni04BB" unicode="&#x4bb;" 
d="M101 0v738l92 10v-368q32 38 73.5 58.5t88.5 20.5q77 0 110 -41t33 -115v-303h-92v297q0 48 -18.5 69t-63.5 21q-21 0 -40.5 -7.5t-36 -19.5t-30.5 -27.5t-24 -30.5v-302h-92z" />
    <glyph glyph-name="uni04C0" unicode="&#x4c0;" 
d="M500 614h-152v-539h152v-75h-400v75h152v539h-152v75h400v-75z" />
    <glyph glyph-name="uni04CB" unicode="&#x4cb;" 
d="M520 77h56v-227h-75l-15 150h-61v290q-29 -23 -68.5 -38t-90.5 -15q-218 0 -218 230v222h95v-218q0 -82 30.5 -117.5t104.5 -35.5q56 0 91 17t56 34v320h95v-612z" />
    <glyph glyph-name="uni04CC" unicode="&#x4cc;" 
d="M391 0v219q-30 -28 -72.5 -42.5t-91.5 -14.5q-78 0 -117 41t-39 115v209h92v-198q0 -51 22 -73t67 -22q37 0 76 15.5t63 41.5v236h92v-455h60v-212h-71l-15 140h-66z" />
    <glyph glyph-name="uni04CF" unicode="&#x4cf;" 
d="M496 16q-19 -11 -54.5 -19.5t-73.5 -8.5q-73 0 -116.5 40.5t-43.5 113.5v526h-161v71h253v-605q0 -38 23.5 -54t61.5 -16q21 0 43.5 5t43.5 13z" />
    <glyph glyph-name="uni04D8" unicode="&#x4d8;" 
d="M42 332q0 10 0.5 23.5t2.5 27.5h412q-5 132 -48.5 187.5t-119.5 55.5q-51 0 -86 -17t-67 -44l-51 58q41 35 91 56.5t117 21.5q128 0 194.5 -86.5t66.5 -261.5q0 -86 -18 -154t-51 -115t-80.5 -71.5t-107.5 -24.5q-120 0 -187.5 86.5t-67.5 257.5zM298 64q70 0 111 58
t48 185h-323q5 -132 46 -187.5t118 -55.5z" />
    <glyph glyph-name="uni04D9" unicode="&#x4d9;" 
d="M433 295q-5 89 -44.5 129.5t-100.5 40.5q-41 0 -75.5 -10.5t-71.5 -38.5l-42 60q40 29 87.5 46t103.5 17q61 0 106 -20t75 -56t44.5 -87t14.5 -112q0 -60 -15.5 -110.5t-45 -87t-73 -57.5t-99.5 -21q-110 0 -168.5 69.5t-58.5 190.5q0 14 0.5 26t1.5 21h361zM297 61
q67 0 100 40.5t36 125.5h-273q2 -83 34.5 -124.5t102.5 -41.5z" />
    <glyph glyph-name="uni04E2" unicode="&#x4e2;" 
d="M80 0v689h93v-336q0 -47 -1 -83.5t-3 -66.5t-4 -55t-5 -47h4l237 588h119v-689h-93v336q0 81 4.5 146t8.5 103h-4l-235 -585h-121zM436 796h-273v70h273v-70z" />
    <glyph glyph-name="uni04E3" unicode="&#x4e3;" 
d="M503 527v-527h-89v238q0 70 4 121.5t7 68.5h-4l-216 -428h-108v527h89v-238q0 -31 -1 -60.5t-2.5 -55t-3.5 -44t-3 -27.5h4l214 425h109zM443 674h-273v69h273v-69z" />
    <glyph glyph-name="uni04E8" unicode="&#x4e8;" 
d="M556 344q0 -79 -16 -144.5t-48.5 -112.5t-80.5 -73t-111 -26t-111 25.5t-80.5 72t-48.5 112t-16 145.5q0 79 16 144.5t48.5 113t80.5 74t111 26.5t111 -25.5t80.5 -72.5t48.5 -113t16 -146zM300 66q81 0 117 64t39 190h-313q3 -126 40.5 -190t116.5 -64zM300 623
q-77 0 -113.5 -59t-42.5 -174h311q-5 115 -41.5 174t-113.5 59z" />
    <glyph glyph-name="uni04E9" unicode="&#x4e9;" 
d="M70 263q0 61 15 112t44 87.5t72.5 56.5t99.5 20t99 -19.5t72 -55.5t43.5 -86.5t14.5 -113.5q0 -61 -15 -112t-44 -87.5t-72 -56.5t-99 -20t-99 19.5t-72 55.5t-44 86.5t-15 113.5zM301 465q-61 0 -94 -41t-38 -129h262q-9 170 -130 170zM300 62q60 0 92.5 39.5
t38.5 123.5h-262q6 -84 38.5 -123.5t92.5 -39.5z" />
    <glyph glyph-name="uni04EE" unicode="&#x4ee;" 
d="M376 186q-19 -45 -40 -79.5t-50.5 -58.5t-69.5 -38.5t-96 -21.5l-14 74q45 6 75.5 16.5t50.5 25.5t32.5 36t23.5 49h-39l-226 500h99l189 -435h4l172 435h96zM448 796h-273v70h273v-70z" />
    <glyph glyph-name="uni04EF" unicode="&#x4ef;" 
d="M358 -3q-14 -42 -34 -78t-48.5 -63.5t-67.5 -45.5t-92 -23l-13 72q40 7 67.5 18.5t46.5 28.5t31 40.5t23 53.5h-31l-182 527h98l144 -453h4l143 453h95zM437 674h-273v69h273v-69z" />
    <glyph glyph-name="uni2007" unicode="&#x2007;" 
 />
    <glyph glyph-name="uni2008" unicode="&#x2008;" 
 />
    <glyph glyph-name="uni200B" unicode="&#x200b;" 
 />
    <glyph glyph-name="figuredash" unicode="&#x2012;" 
d="M35 274v78h530v-78h-530z" />
    <glyph glyph-name="endash" unicode="&#x2013;" 
d="M32 274v78h536v-78h-536z" />
    <glyph glyph-name="emdash" unicode="&#x2014;" 
d="M0 274v78h600v-78h-600z" />
    <glyph glyph-name="afii00208" unicode="&#x2015;" 
d="M32 314v78h536v-78h-536z" />
    <glyph glyph-name="underscoredbl" unicode="&#x2017;" 
d="M-3 -215v79h606v-79h-606zM-3 -79v79h606v-79h-606z" />
    <glyph glyph-name="quoteleft" unicode="&#x2018;" 
d="M371 549q0 -32 -23 -53.5t-55 -21.5t-54.5 21.5t-22.5 53.5q0 14 3.5 29t15.5 41l81 170h68l-41 -183q13 -9 20.5 -24t7.5 -33z" />
    <glyph glyph-name="quoteright" unicode="&#x2019;" 
d="M228 714q0 32 23 53.5t55 21.5t55 -21.5t23 -53.5q0 -15 -4 -29.5t-16 -40.5l-81 -170h-68l41 183q-13 9 -20.5 24t-7.5 33z" />
    <glyph glyph-name="quotesinglbase" unicode="&#x201a;" 
d="M228 58q0 32 23 53.5t55 21.5t55 -21.5t23 -53.5q0 -15 -4 -29.5t-16 -40.5l-81 -170h-68l41 183q-13 9 -20.5 24t-7.5 33z" />
    <glyph glyph-name="quotedblleft" unicode="&#x201c;" 
d="M262 549q0 -32 -23 -53.5t-55 -21.5q-33 0 -55 21.5t-22 53.5q0 14 3.5 29t15.5 41l80 170h69l-41 -183q13 -9 20.5 -24t7.5 -33zM480 549q0 -32 -23 -53.5t-55 -21.5t-54.5 21.5t-22.5 53.5q0 14 3.5 29t15.5 41l81 170h68l-41 -183q13 -9 20.5 -24t7.5 -33z" />
    <glyph glyph-name="quotedblright" unicode="&#x201d;" 
d="M119 714q0 32 23 53.5t55 21.5t55 -21.5t23 -53.5q0 -15 -4.5 -29.5t-16.5 -40.5l-80 -170h-68l40 183q-12 9 -19.5 24t-7.5 33zM337 714q0 32 23 53.5t55 21.5t55 -21.5t23 -53.5q0 -15 -4 -29.5t-16 -40.5l-81 -170h-68l41 183q-13 9 -20.5 24t-7.5 33z" />
    <glyph glyph-name="quotedblbase" unicode="&#x201e;" 
d="M120 58q0 32 23 53.5t55 21.5t55 -21.5t23 -53.5q0 -15 -4 -29.5t-16 -40.5l-81 -170h-68l41 183q-13 9 -20.5 24t-7.5 33zM337 58q0 32 23 53.5t55 21.5t54.5 -21.5t22.5 -53.5q0 -15 -4 -30.5t-15 -39.5l-81 -170h-68l41 183q-13 9 -20.5 24t-7.5 33z" />
    <glyph glyph-name="dagger" unicode="&#x2020;" 
d="M344 445v-445h-88v445h-169v77h169v155h88v-155h169v-77h-169z" />
    <glyph glyph-name="daggerdbl" unicode="&#x2021;" 
d="M513 236v-77h-169v-159h-88v159h-169v77h169v202h-169v77h169v162h88v-162h169v-77h-169v-202h169z" />
    <glyph glyph-name="bullet" unicode="&#x2022;" 
d="M300 218q-54 0 -89 35t-35 89t35 88.5t89 34.5t89 -35t35 -89t-35 -88.5t-89 -34.5z" />
    <glyph glyph-name="ellipsis" unicode="&#x2026;" 
d="M230 58q0 29 20.5 49t49.5 20t49 -20t20 -49t-20 -49.5t-49 -20.5t-49.5 20.5t-20.5 49.5zM30 58q0 29 20 49t49 20q30 0 50 -20t20 -49t-20 -49.5t-50 -20.5q-29 0 -49 20.5t-20 49.5zM431 58q0 29 20 49t49 20q30 0 50 -20t20 -49t-20 -49.5t-50 -20.5q-29 0 -49 20.5
t-20 49.5z" />
    <glyph glyph-name="perthousand" unicode="&#x2030;" 
d="M379 124q0 -16 2.5 -31t9 -27t18.5 -19.5t31 -7.5q18 0 29.5 7t18 19t9 27t2.5 32q0 16 -2.5 30.5t-9 26t-18 18.5t-29.5 7q-19 0 -31 -7t-18.5 -18t-9 -26t-2.5 -31zM569 124q0 -64 -36.5 -100t-92.5 -36q-57 0 -94.5 36t-37.5 100q0 31 10 56t27.5 43t41.5 27.5t53 9.5
q56 0 92.5 -36.5t36.5 -99.5zM30 264l-25 58l535 206l24 -58zM102 124q0 -16 2.5 -31t9 -27t18 -19.5t30.5 -7.5t30.5 7t18 19t8.5 27t2 32q0 16 -2 30.5t-8.5 26t-18 18.5t-30.5 7t-30.5 -7t-18 -18t-9 -26t-2.5 -31zM292 124q0 -64 -36.5 -100t-93.5 -36t-94 36t-37 100
q0 63 37 99.5t94 36.5t93.5 -36.5t36.5 -99.5zM103 565q0 -16 2 -31t8.5 -27t18.5 -19.5t31 -7.5t30.5 7t18 19t8.5 27t2 32q0 16 -2 30.5t-8.5 26t-18 18.5t-30.5 7t-31 -7t-18.5 -18t-8.5 -26t-2 -31zM292 565q0 -64 -36.5 -100t-92.5 -36q-57 0 -94.5 36t-37.5 100
q0 31 10 56t27.5 43t41.5 27.5t53 9.5q56 0 92.5 -36.5t36.5 -99.5z" />
    <glyph glyph-name="guilsinglleft" unicode="&#x2039;" 
d="M415 86l-55 -35l-175 209v65l175 210l55 -35l-133 -207z" />
    <glyph glyph-name="guilsinglright" unicode="&#x203a;" 
d="M318 293l-133 207l55 35l175 -210v-65l-175 -209l-55 35z" />
    <glyph glyph-name="fraction" unicode="&#x2044;" 
d="M49 183l-32 56l535 256l31 -56z" />
    <glyph glyph-name="uni2070" unicode="&#x2070;" 
d="M374 539q0 57 -19.5 80.5t-54.5 23.5t-55 -25t-20 -79q0 -52 19.5 -79t55.5 -27q35 0 54.5 24.5t19.5 81.5zM454 539q0 -35 -10 -65t-29.5 -53t-48 -36t-66.5 -13t-67 13t-48.5 36t-29.5 53t-10 65t10 65t29.5 52.5t48.5 35.5t67 13t66.5 -13t48 -35.5t29.5 -52.5t10 -65
z" />
    <glyph glyph-name="uni2074" unicode="&#x2074;" 
d="M400 434v-56h-76v56h-179v50l134 225l65 -26l-113 -188h93l7 85h69v-85h54v-61h-54z" />
    <glyph glyph-name="uni2075" unicode="&#x2075;" 
d="M446 487q0 -57 -41.5 -86t-105.5 -29q-41 0 -78 12.5t-67 42.5l47 41q40 -36 96 -36q69 0 69 55q0 26 -15.5 38t-44.5 12q-14 0 -31.5 -4t-32.5 -12h-57v178h245l-7 -61h-163v-61q15 7 33.5 11t35.5 4q51 0 84 -26.5t33 -78.5z" />
    <glyph glyph-name="uni2076" unicode="&#x2076;" 
d="M391 628q-32 16 -75 16q-88 0 -92 -95q22 19 47.5 30t61.5 11q23 0 45 -6t38.5 -18.5t26.5 -31.5t10 -45q0 -27 -11.5 -48.5t-31 -37t-46.5 -23.5t-57 -8q-40 0 -70 12.5t-50 35t-30 53t-10 66.5q0 34 10.5 64t31.5 52.5t53 36t74 13.5q28 0 56.5 -6.5t54.5 -21.5z
M317 539q-46 0 -91 -39q4 -13 10 -25t15 -21.5t22.5 -15t33.5 -5.5q33 0 50.5 15.5t17.5 38.5q0 27 -16 39.5t-42 12.5z" />
    <glyph glyph-name="uni2077" unicode="&#x2077;" 
d="M278 370l-74 31l154 236h-199v62h282v-51z" />
    <glyph glyph-name="uni2078" unicode="&#x2078;" 
d="M442 622q0 -29 -20 -44t-52 -22q44 -13 66.5 -32t22.5 -52q0 -45 -42.5 -72.5t-117.5 -27.5q-76 0 -117 27t-41 71q0 59 82 78q-32 11 -48 28t-16 44q0 37 39 61t102 24q67 0 104.5 -24.5t37.5 -58.5zM380 473q0 23 -28 33t-75 18q-57 -17 -57 -51q0 -40 79 -40
q38 0 59.5 11.5t21.5 28.5zM235 619q0 -14 17.5 -23t61.5 -17q26 8 39 16.5t13 22.5q0 12 -15.5 21.5t-50.5 9.5q-34 0 -49.5 -9t-15.5 -21z" />
    <glyph glyph-name="uni2079" unicode="&#x2079;" 
d="M182 431q41 5 72 12.5t53.5 18t38.5 25t28 34.5l-2 1q-22 -12 -45.5 -21t-56.5 -9q-25 0 -47.5 6t-39.5 18.5t-27 31t-10 44.5q0 27 12.5 48t33.5 35.5t48.5 22t58.5 7.5q75 0 116 -37t41 -100q0 -88 -63 -135t-192 -61zM292 548q23 0 45 6t40 16q-2 74 -79 74
q-33 0 -53 -13t-20 -37q0 -25 18.5 -35.5t48.5 -10.5z" />
    <glyph glyph-name="uni207A" unicode="&#x207a;" 
d="M266 576v89h69v-89h84v-64h-84v-88h-69v88h-85v64h85z" />
    <glyph glyph-name="uni207B" unicode="&#x207b;" 
d="M181 512v64h238v-64h-238z" />
    <glyph glyph-name="uni207C" unicode="&#x207c;" 
d="M180 451v65h239v-65h-239zM180 572v65h239v-65h-239z" />
    <glyph glyph-name="uni207D" unicode="&#x207d;" 
d="M299 539q0 -39 4.5 -69t14.5 -57t24.5 -53t35.5 -57l-48 -30q-24 30 -43.5 58.5t-33.5 59.5t-22 67t-8 81q0 46 8 82t22 67t33.5 59.5t43.5 58.5l48 -30q-21 -31 -35.5 -57t-24.5 -53t-14.5 -57.5t-4.5 -69.5z" />
    <glyph glyph-name="uni207E" unicode="&#x207e;" 
d="M302 539q0 39 -4.5 69.5t-14.5 57.5t-24.5 53t-35.5 57l48 30q24 -30 43.5 -58.5t33.5 -59.5t22 -67t8 -82q0 -45 -8 -81t-22 -67t-33.5 -59.5t-43.5 -58.5l-48 30q21 31 35.5 57t24.5 53t14.5 57t4.5 69z" />
    <glyph glyph-name="uni207F" unicode="&#x207f;" 
d="M166 378v338h68l3 -30q20 17 46.5 27t50.5 10q53 0 77 -27t24 -76v-242h-76v205q0 43 -7.5 61.5t-36.5 18.5q-21 0 -40.5 -14.5t-32.5 -31.5v-239h-76z" />
    <glyph glyph-name="uni2080" unicode="&#x2080;" 
d="M374 -4q0 57 -19.5 80.5t-54.5 23.5t-55 -25t-20 -79q0 -52 19.5 -79t55.5 -27q35 0 54.5 24.5t19.5 81.5zM454 -4q0 -35 -10 -65t-29.5 -53t-48 -36t-66.5 -13t-67 13t-48.5 36t-29.5 53t-10 65t10 65t29.5 52.5t48.5 35.5t67 13t66.5 -13t48 -35.5t29.5 -52.5t10 -65z
" />
    <glyph glyph-name="uni2081" unicode="&#x2081;" 
d="M328 -165v236l-94 -51l-37 52l145 84h61v-321h-75z" />
    <glyph glyph-name="uni2082" unicode="&#x2082;" 
d="M436 56q0 -24 -8.5 -43t-28 -37t-51.5 -36.5t-78 -41.5h176l-9 -63h-278v55q59 36 97 59.5t60 41t30.5 31.5t8.5 30q0 22 -15 34.5t-42 12.5q-24 0 -47 -10.5t-45 -36.5l-53 40q61 70 149 70q65 0 99.5 -29.5t34.5 -76.5z" />
    <glyph glyph-name="uni2083" unicode="&#x2083;" 
d="M453 -70q0 -45 -40.5 -73t-114.5 -28q-41 0 -81 13t-71 45l48 40q23 -20 50 -29.5t56 -9.5q38 0 55.5 12.5t17.5 35.5q0 26 -17 36.5t-52 10.5h-47l8 45h35q29 0 45 8.5t16 28.5q0 39 -59 39q-27 0 -52 -8.5t-51 -28.5l-41 43q35 29 72 40.5t78 11.5q62 0 96.5 -24
t34.5 -62q0 -26 -15 -42t-49 -22v-3q36 -5 57 -23t21 -56z" />
    <glyph glyph-name="uni2084" unicode="&#x2084;" 
d="M400 -109v-56h-76v56h-179v50l134 225l65 -26l-113 -188h93l7 85h69v-85h54v-61h-54z" />
    <glyph glyph-name="uni2085" unicode="&#x2085;" 
d="M446 -56q0 -57 -41.5 -86t-105.5 -29q-41 0 -78 12.5t-67 42.5l47 41q40 -36 96 -36q69 0 69 55q0 26 -15.5 38t-44.5 12q-14 0 -31.5 -4t-32.5 -12h-57v178h245l-7 -61h-163v-61q15 7 33.5 11t35.5 4q51 0 84 -26.5t33 -78.5z" />
    <glyph glyph-name="uni2086" unicode="&#x2086;" 
d="M391 85q-32 16 -75 16q-88 0 -92 -95q22 19 47.5 30t61.5 11q23 0 45 -6t38.5 -18.5t26.5 -31.5t10 -45q0 -27 -11.5 -48.5t-31 -37t-46.5 -23.5t-57 -8q-40 0 -70 12.5t-50 35t-30 53t-10 66.5q0 34 10.5 64t31.5 52.5t53 36t74 13.5q28 0 56.5 -6.5t54.5 -21.5zM317 -4
q-46 0 -91 -39q4 -13 10 -25t15 -21.5t22.5 -15t33.5 -5.5q33 0 50.5 15.5t17.5 38.5q0 27 -16 39.5t-42 12.5z" />
    <glyph glyph-name="uni2087" unicode="&#x2087;" 
d="M278 -173l-74 31l154 236h-199v62h282v-51z" />
    <glyph glyph-name="uni2088" unicode="&#x2088;" 
d="M442 79q0 -29 -20 -44t-52 -22q44 -13 66.5 -32t22.5 -52q0 -45 -42.5 -72.5t-117.5 -27.5q-76 0 -117 27t-41 71q0 59 82 78q-32 11 -48 28t-16 44q0 37 39 61t102 24q67 0 104.5 -24.5t37.5 -58.5zM380 -70q0 23 -28 33t-75 18q-57 -17 -57 -51q0 -40 79 -40
q38 0 59.5 11.5t21.5 28.5zM235 76q0 -14 17.5 -23t61.5 -17q26 8 39 16.5t13 22.5q0 12 -15.5 21.5t-50.5 9.5q-34 0 -49.5 -9t-15.5 -21z" />
    <glyph glyph-name="uni2089" unicode="&#x2089;" 
d="M182 -112q41 5 72 12.5t53.5 18t38.5 25t28 34.5l-2 1q-22 -12 -45.5 -21t-56.5 -9q-25 0 -47.5 6t-39.5 18.5t-27 31t-10 44.5q0 27 12.5 48t33.5 35.5t48.5 22t58.5 7.5q75 0 116 -37t41 -100q0 -88 -63 -135t-192 -61zM292 5q23 0 45 6t40 16q-2 74 -79 74
q-33 0 -53 -13t-20 -37q0 -25 18.5 -35.5t48.5 -10.5z" />
    <glyph glyph-name="uni208A" unicode="&#x208a;" 
d="M266 33v89h69v-89h84v-64h-84v-88h-69v88h-85v64h85z" />
    <glyph glyph-name="uni208B" unicode="&#x208b;" 
d="M181 -31v64h238v-64h-238z" />
    <glyph glyph-name="uni208C" unicode="&#x208c;" 
d="M180 -92v65h239v-65h-239zM180 29v65h239v-65h-239z" />
    <glyph glyph-name="uni208D" unicode="&#x208d;" 
d="M293 -4q0 -39 4.5 -69t14.5 -57t24.5 -53t35.5 -57l-48 -30q-24 30 -43.5 58.5t-33.5 59.5t-22 67t-8 81q0 46 8 82t22 67t33.5 59.5t43.5 58.5l48 -30q-21 -31 -35.5 -57t-24.5 -53t-14.5 -57.5t-4.5 -69.5z" />
    <glyph glyph-name="uni208E" unicode="&#x208e;" 
d="M306 -4q0 39 -4.5 69.5t-14.5 57.5t-24.5 53t-35.5 57l48 30q24 -30 43.5 -58.5t33.5 -59.5t22 -67t8 -82q0 -45 -8 -81t-22 -67t-33.5 -59.5t-43.5 -58.5l-48 30q21 31 35.5 57t24.5 53t14.5 57t4.5 69z" />
    <glyph glyph-name="Euro" unicode="&#x20ac;" 
d="M121 303q-1 10 -1 20v22q0 12 0.5 24.5t1.5 23.5h-87l15 61h80q23 120 91 183.5t163 63.5q53 0 90 -11.5t71 -34.5l-44 -65q-28 18 -55.5 26t-57.5 8q-64 0 -106 -39t-56 -131h241l-15 -61h-233q-1 -11 -1.5 -23.5t-0.5 -24.5q0 -11 0.5 -22.5t1.5 -19.5h214l-15 -62
h-195q12 -92 50 -134t110 -42q46 0 82 15t59 35v-91q-26 -15 -62.5 -25.5t-82.5 -10.5q-106 0 -169.5 65t-81.5 188h-93l15 62h71z" />
    <glyph glyph-name="litre" unicode="&#x2113;" 
d="M484 620q0 -35 -10.5 -67.5t-34.5 -62.5t-63 -56.5t-96 -48.5v-251q0 -38 23.5 -54t61.5 -16q21 0 43.5 5t43.5 13l24 -66q-19 -11 -54.5 -19.5t-73.5 -8.5q-73 0 -116.5 40.5t-43.5 113.5v214q-24 -6 -49.5 -11t-54.5 -10l-11 62q32 6 60.5 12t54.5 14v103
q0 112 41.5 168t122.5 56q66 0 99 -37t33 -93zM280 455q68 31 94.5 71.5t26.5 90.5q0 33 -11.5 50.5t-40.5 17.5q-39 0 -54 -35t-15 -119v-76z" />
    <glyph glyph-name="uni2116" unicode="&#x2116;" 
d="M504 479q0 81 -10 120.5t-39 39.5t-39 -39.5t-10 -120.5t10 -120.5t39 -39.5t39 39.5t10 120.5zM324 479q0 49 7 89.5t22.5 70t40.5 46t61 16.5q37 0 62 -16t40 -45t21.5 -70t6.5 -91q0 -49 -6.5 -90t-22 -70t-40.5 -45.5t-61 -16.5q-37 0 -62 16t-40.5 45t-22 70
t-6.5 91zM333 0v74h245v-74h-245zM194 0l-109 583h-4q1 -6 3 -30t4 -59t4 -76.5t2 -81.5v-336h-69v689h113l107 -586h4q-1 6 -3 28.5t-4.5 56t-4 76t-1.5 89.5v336h69v-689h-111z" />
    <glyph glyph-name="trademark" unicode="&#x2122;" 
d="M516 298l-9 221q-1 15 -1 30v52q0 11 1 22h-3l-46 -284h-67l-55 284h-3q1 -11 1 -22v-51q0 -15 -1 -30l-8 -222h-62l16 391h95l49 -265h4l41 265h98l15 -391h-65zM154 630v-332h-67v332h-77v59h227l-12 -59h-71z" />
    <glyph glyph-name="Omega" unicode="&#x2126;" 
d="M300 623q-39 0 -68 -15t-49 -47.5t-30 -84t-10 -124.5q0 -119 32 -185.5t92 -96.5v-70h-212v75h112v4q-59 30 -91 97t-32 176q0 83 18 148t51 109.5t80.5 68t106.5 23.5t106.5 -23.5t80.5 -68t51 -109.5t18 -148q0 -109 -33 -175t-92 -98v-4h114v-75h-211v70
q60 30 91.5 96.5t31.5 185.5q0 73 -10 124.5t-30 84t-49.5 47.5t-67.5 15z" />
    <glyph glyph-name="estimated" unicode="&#x212e;" 
d="M450 619q-23 19 -61.5 31t-85.5 12q-98 0 -152 -42v-247h299v246zM151 334v-261q26 -22 64 -34.5t90 -12.5q69 0 118 25.5t75 71.5h49q-15 -29 -36.5 -53.5t-51.5 -42.5t-68.5 -28.5t-86.5 -10.5q-65 0 -113.5 17.5t-83.5 47.5t-56 71.5t-30 89.5v254q8 47 27.5 89.5
t53 74.5t83 50.5t117.5 18.5t117.5 -18.5t83 -50.5t53 -74.5t27.5 -89.5v-134h-432z" />
    <glyph glyph-name="onethird" unicode="&#x2153;" 
d="M603 95q0 -45 -40.5 -73t-114.5 -28q-41 0 -81 13t-71 45l48 40q23 -20 50 -29.5t56 -9.5q38 0 55.5 12.5t17.5 35.5q0 26 -17 36.5t-52 10.5h-47l8 45h35q29 0 45 8.5t16 28.5q0 39 -59 39q-27 0 -52 -8.5t-51 -28.5l-41 43q35 29 72 40.5t78 11.5q62 0 96.5 -24
t34.5 -62q0 -26 -15 -42t-49 -22v-3q36 -5 57 -23t21 -56zM151 378v236l-94 -51l-37 52l145 84h61v-321h-75zM30 183l-32 56l535 256l31 -56z" />
    <glyph glyph-name="twothirds" unicode="&#x2154;" 
d="M279 599q0 -24 -8.5 -43t-28 -37t-51.5 -36.5t-78 -41.5h176l-9 -63h-278v55q59 36 97 59.5t60 41t30.5 31.5t8.5 30q0 22 -15 34.5t-42 12.5q-24 0 -47 -10.5t-45 -36.5l-53 40q61 70 149 70q65 0 99.5 -29.5t34.5 -76.5zM50 183l-32 56l535 256l31 -56zM610 95
q0 -45 -40.5 -73t-114.5 -28q-41 0 -81 13t-71 45l48 40q23 -20 50 -29.5t56 -9.5q38 0 55.5 12.5t17.5 35.5q0 26 -17 36.5t-52 10.5h-47l8 45h35q29 0 45 8.5t16 28.5q0 39 -59 39q-27 0 -52 -8.5t-51 -28.5l-41 43q35 29 72 40.5t78 11.5q62 0 96.5 -24t34.5 -62
q0 -26 -15 -42t-49 -22v-3q36 -5 57 -23t21 -56z" />
    <glyph glyph-name="uni2155" unicode="&#x2155;" 
d="M615 109q0 -57 -41.5 -86t-105.5 -29q-41 0 -78 12.5t-67 42.5l47 41q40 -36 96 -36q69 0 69 55q0 26 -15.5 38t-44.5 12q-14 0 -31.5 -4t-32.5 -12h-57v178h245l-7 -61h-163v-61q15 7 33.5 11t35.5 4q51 0 84 -26.5t33 -78.5zM153 378v236l-94 -51l-37 52l145 84h61
v-321h-75zM32 183l-32 56l535 256l31 -56z" />
    <glyph glyph-name="uni2156" unicode="&#x2156;" 
d="M619 109q0 -57 -41.5 -86t-105.5 -29q-41 0 -78 12.5t-67 42.5l47 41q40 -36 96 -36q69 0 69 55q0 26 -15.5 38t-44.5 12q-14 0 -31.5 -4t-32.5 -12h-57v178h245l-7 -61h-163v-61q15 7 33.5 11t35.5 4q51 0 84 -26.5t33 -78.5zM279 599q0 -24 -8.5 -43t-28 -37
t-51.5 -36.5t-78 -41.5h176l-9 -63h-278v55q59 36 97 59.5t60 41t30.5 31.5t8.5 30q0 22 -15 34.5t-42 12.5q-24 0 -47 -10.5t-45 -36.5l-53 40q61 70 149 70q65 0 99.5 -29.5t34.5 -76.5zM50 183l-32 56l535 256l31 -56z" />
    <glyph glyph-name="uni2157" unicode="&#x2157;" 
d="M620 109q0 -57 -41.5 -86t-105.5 -29q-41 0 -78 12.5t-67 42.5l47 41q40 -36 96 -36q69 0 69 55q0 26 -15.5 38t-44.5 12q-14 0 -31.5 -4t-32.5 -12h-57v178h245l-7 -61h-163v-61q15 7 33.5 11t35.5 4q51 0 84 -26.5t33 -78.5zM308 473q0 -45 -40.5 -73t-114.5 -28
q-41 0 -81 13t-71 45l48 40q23 -20 50 -29.5t56 -9.5q38 0 55.5 12.5t17.5 35.5q0 26 -17 36.5t-52 10.5h-47l8 45h35q29 0 45 8.5t16 28.5q0 39 -59 39q-27 0 -52 -8.5t-51 -28.5l-41 43q35 29 72 40.5t78 11.5q62 0 96.5 -24t34.5 -62q0 -26 -15 -42t-49 -22v-3
q36 -5 57 -23t21 -56zM33 183l-32 56l535 256l31 -56z" />
    <glyph glyph-name="uni2158" unicode="&#x2158;" 
d="M256 434v-56h-76v56h-179v50l134 225l65 -26l-113 -188h93l7 85h69v-85h54v-61h-54zM33 183l-32 56l535 256l31 -56zM618 109q0 -57 -41.5 -86t-105.5 -29q-41 0 -78 12.5t-67 42.5l47 41q40 -36 96 -36q69 0 69 55q0 26 -15.5 38t-44.5 12q-14 0 -31.5 -4t-32.5 -12h-57
v178h245l-7 -61h-163v-61q15 7 33.5 11t35.5 4q51 0 84 -26.5t33 -78.5z" />
    <glyph glyph-name="uni2159" unicode="&#x2159;" 
d="M538 250q-32 16 -75 16q-88 0 -92 -95q22 19 47.5 30t61.5 11q23 0 45 -6t38.5 -18.5t26.5 -31.5t10 -45q0 -27 -11.5 -48.5t-31 -37t-46.5 -23.5t-57 -8q-40 0 -70 12.5t-50 35t-30 53t-10 66.5q0 34 10.5 64t31.5 52.5t53 36t74 13.5q28 0 56.5 -6.5t54.5 -21.5z
M464 161q-46 0 -91 -39q4 -13 10 -25t15 -21.5t22.5 -15t33.5 -5.5q33 0 50.5 15.5t17.5 38.5q0 27 -16 39.5t-42 12.5zM158 378v236l-94 -51l-37 52l145 84h61v-321h-75zM37 183l-32 56l535 256l31 -56z" />
    <glyph glyph-name="uni215A" unicode="&#x215a;" 
d="M531 250q-32 16 -75 16q-88 0 -92 -95q22 19 47.5 30t61.5 11q23 0 45 -6t38.5 -18.5t26.5 -31.5t10 -45q0 -27 -11.5 -48.5t-31 -37t-46.5 -23.5t-57 -8q-40 0 -70 12.5t-50 35t-30 53t-10 66.5q0 34 10.5 64t31.5 52.5t53 36t74 13.5q28 0 56.5 -6.5t54.5 -21.5z
M457 161q-46 0 -91 -39q4 -13 10 -25t15 -21.5t22.5 -15t33.5 -5.5q33 0 50.5 15.5t17.5 38.5q0 27 -16 39.5t-42 12.5zM312 487q0 -57 -41.5 -86t-105.5 -29q-41 0 -78 12.5t-67 42.5l47 41q40 -36 96 -36q69 0 69 55q0 26 -15.5 38t-44.5 12q-14 0 -31.5 -4t-32.5 -12h-57
v178h245l-7 -61h-163v-61q15 7 33.5 11t35.5 4q51 0 84 -26.5t33 -78.5zM33 183l-32 56l535 256l31 -56z" />
    <glyph glyph-name="oneeighth" unicode="&#x215b;" 
d="M593 244q0 -29 -20 -44t-52 -22q44 -13 66.5 -32t22.5 -52q0 -45 -42.5 -72.5t-117.5 -27.5q-76 0 -117 27t-41 71q0 59 82 78q-32 11 -48 28t-16 44q0 37 39 61t102 24q67 0 104.5 -24.5t37.5 -58.5zM531 95q0 23 -28 33t-75 18q-57 -17 -57 -51q0 -40 79 -40
q38 0 59.5 11.5t21.5 28.5zM386 241q0 -14 17.5 -23t61.5 -17q26 8 39 16.5t13 22.5q0 12 -15.5 21.5t-50.5 9.5q-34 0 -49.5 -9t-15.5 -21zM158 378v236l-94 -51l-37 52l145 84h61v-321h-75zM37 183l-32 56l535 256l31 -56z" />
    <glyph glyph-name="threeeighths" unicode="&#x215c;" 
d="M584 244q0 -29 -20 -44t-52 -22q44 -13 66.5 -32t22.5 -52q0 -45 -42.5 -72.5t-117.5 -27.5q-76 0 -117 27t-41 71q0 59 82 78q-32 11 -48 28t-16 44q0 37 39 61t102 24q67 0 104.5 -24.5t37.5 -58.5zM522 95q0 23 -28 33t-75 18q-57 -17 -57 -51q0 -40 79 -40
q38 0 59.5 11.5t21.5 28.5zM377 241q0 -14 17.5 -23t61.5 -17q26 8 39 16.5t13 22.5q0 12 -15.5 21.5t-50.5 9.5q-34 0 -49.5 -9t-15.5 -21zM308 473q0 -45 -40.5 -73t-114.5 -28q-41 0 -81 13t-71 45l48 40q23 -20 50 -29.5t56 -9.5q38 0 55.5 12.5t17.5 35.5
q0 26 -17 36.5t-52 10.5h-47l8 45h35q29 0 45 8.5t16 28.5q0 39 -59 39q-27 0 -52 -8.5t-51 -28.5l-41 43q35 29 72 40.5t78 11.5q62 0 96.5 -24t34.5 -62q0 -26 -15 -42t-49 -22v-3q36 -5 57 -23t21 -56zM33 183l-32 56l535 256l31 -56z" />
    <glyph glyph-name="fiveeighths" unicode="&#x215d;" 
d="M312 487q0 -57 -41.5 -86t-105.5 -29q-41 0 -78 12.5t-67 42.5l47 41q40 -36 96 -36q69 0 69 55q0 26 -15.5 38t-44.5 12q-14 0 -31.5 -4t-32.5 -12h-57v178h245l-7 -61h-163v-61q15 7 33.5 11t35.5 4q51 0 84 -26.5t33 -78.5zM33 183l-32 56l535 256l31 -56zM595 244
q0 -29 -20 -44t-52 -22q44 -13 66.5 -32t22.5 -52q0 -45 -42.5 -72.5t-117.5 -27.5q-76 0 -117 27t-41 71q0 59 82 78q-32 11 -48 28t-16 44q0 37 39 61t102 24q67 0 104.5 -24.5t37.5 -58.5zM533 95q0 23 -28 33t-75 18q-57 -17 -57 -51q0 -40 79 -40q38 0 59.5 11.5
t21.5 28.5zM388 241q0 -14 17.5 -23t61.5 -17q26 8 39 16.5t13 22.5q0 12 -15.5 21.5t-50.5 9.5q-34 0 -49.5 -9t-15.5 -21z" />
    <glyph glyph-name="seveneighths" unicode="&#x215e;" 
d="M180 370l-74 31l154 236h-199v62h282v-51zM23 183l-32 56l535 256l31 -56zM584 244q0 -29 -20 -44t-52 -22q44 -13 66.5 -32t22.5 -52q0 -45 -42.5 -72.5t-117.5 -27.5q-76 0 -117 27t-41 71q0 59 82 78q-32 11 -48 28t-16 44q0 37 39 61t102 24q67 0 104.5 -24.5
t37.5 -58.5zM522 95q0 23 -28 33t-75 18q-57 -17 -57 -51q0 -40 79 -40q38 0 59.5 11.5t21.5 28.5zM377 241q0 -14 17.5 -23t61.5 -17q26 8 39 16.5t13 22.5q0 12 -15.5 21.5t-50.5 9.5q-34 0 -49.5 -9t-15.5 -21z" />
    <glyph glyph-name="uni215F" unicode="&#x215f;" 
d="M158 378v236l-94 -51l-37 52l145 84h61v-321h-75zM37 183l-32 56l535 256l31 -56z" />
    <glyph glyph-name="arrowleft" unicode="&#x2190;" 
d="M166 289l-1 -3q15 -11 30 -26.5t32 -33.5l140 -152l-67 -57l-280 312l280 312l67 -57l-140 -152q-17 -18 -32 -33.5t-30 -26.5l1 -3h414v-80h-414z" />
    <glyph glyph-name="arrowup" unicode="&#x2191;" 
d="M345 0h-90v529l-3 1q-12 -17 -29 -34t-37 -35l-114 -102l-55 60l283 252l283 -252l-55 -60l-121 109q-19 17 -32.5 31.5t-26.5 30.5l-3 -1v-529z" />
    <glyph glyph-name="arrowright" unicode="&#x2192;" 
d="M20 289v80h414l1 3q-15 11 -30 26.5t-32 33.5l-140 152l67 57l280 -312l-280 -312l-67 57l140 152q17 18 32 33.5t30 26.5l-1 3h-414z" />
    <glyph glyph-name="arrowdown" unicode="&#x2193;" 
d="M345 106l3 -1q13 16 26.5 30.5t32.5 31.5l121 109l55 -60l-283 -252l-283 252l55 60l114 -102q20 -18 37 -35t29 -34l3 1v529h90v-529z" />
    <glyph glyph-name="arrowboth" unicode="&#x2194;" 
d="M66 289l-1 -3q15 -11 30 -26.5t32 -33.5l109 -122l-66 -57l-250 282l250 282l66 -57l-109 -122q-17 -18 -32 -33.5t-30 -26.5l1 -3h468l1 3q-15 11 -30 26.5t-32 33.5l-109 122l66 57l250 -282l-250 -282l-66 57l109 122q17 18 32 33.5t30 26.5l-1 3h-468z" />
    <glyph glyph-name="arrowupdn" unicode="&#x2195;" 
d="M345 49l3 -1q13 16 26.5 30.5t32.5 31.5l121 109l55 -60l-283 -252l-283 252l55 60l114 -102q20 -18 37 -35t29 -34l3 1v582l-3 1q-12 -17 -29 -34t-37 -35l-114 -102l-55 60l283 252l283 -252l-55 -60l-121 109q-19 17 -32.5 31.5t-26.5 30.5l-3 -1v-582z" />
    <glyph glyph-name="uni2196" unicode="&#x2196;" 
d="M564 135l-61 -61l-370 373l-3 -1q1 -11 2 -24.5t1 -33.5v-18q0 -9 -1 -20l-9 -197l-87 4l22 422l422 22l7 -83l-196 -8q-10 0 -20 -0.5t-20 -0.5q-14 0 -28.5 0.5t-28.5 1.5l-1 -3z" />
    <glyph glyph-name="uni2197" unicode="&#x2197;" 
d="M407 508l-1 3q-14 -1 -27.5 -1.5t-27.5 -0.5q-10 0 -20.5 0.5t-21.5 0.5l-196 8l7 83l422 -22l22 -422l-87 -4l-9 197v26q0 17 0.5 34.5t1.5 35.5l-3 1l-370 -373l-61 61z" />
    <glyph glyph-name="uni2198" unicode="&#x2198;" 
d="M36 506l61 61l370 -373l3 1q-3 30 -3 60v17q0 10 1 19l9 197l87 -4l-22 -422l-422 -22l-7 83l196 8q10 0 20 0.5t20 0.5q14 0 28.5 -0.5t28.5 -1.5l1 3z" />
    <glyph glyph-name="uni2199" unicode="&#x2199;" 
d="M193 133l1 -3q14 1 27.5 1.5t27.5 0.5q10 0 20.5 -0.5t21.5 -0.5l196 -8l-7 -83l-422 22l-22 422l87 4l9 -197q0 -8 0.5 -16.5t0.5 -16.5q0 -29 -3 -63l3 -1l370 373l61 -61z" />
    <glyph glyph-name="uni21E6" unicode="&#x21e6;" 
d="M640 239q0 -23 -13.5 -36.5t-36.5 -13.5h-332v-176l-298 300l298 300v-176h332q23 0 36.5 -13.5t13.5 -36.5v-148zM596 393h-383v111l-189 -191l189 -191v111h383v160z" />
    <glyph glyph-name="uni21E7" unicode="&#x21e7;" 
d="M219 -12q-23 0 -36.5 13.5t-13.5 36.5v496h-169l300 298l300 -298h-169v-496q0 -23 -13.5 -36.5t-36.5 -13.5h-162zM384 32v547h107l-191 189l-191 -189h107v-547h168z" />
    <glyph glyph-name="uni21E8" unicode="&#x21e8;" 
d="M-40 387q0 23 13.5 36.5t36.5 13.5h332v176l298 -300l-298 -300v176h-332q-23 0 -36.5 13.5t-13.5 36.5v148zM4 233h383v-111l189 191l-189 191v-111h-383v-160z" />
    <glyph glyph-name="uni21E9" unicode="&#x21e9;" 
d="M381 750q23 0 36.5 -13.5t13.5 -36.5v-496h169l-300 -298l-300 298h169v496q0 23 13.5 36.5t36.5 13.5h162zM216 706v-547h-107l191 -189l191 189h-107v547h-168z" />
    <glyph glyph-name="uni21EA" unicode="&#x21ea;" 
d="M169 255v279h-169l300 298l300 -298h-169v-279h-262zM431 155v-117q0 -23 -13.5 -36.5t-36.5 -13.5h-162q-23 0 -36.5 13.5t-13.5 36.5v117h262zM384 297v282h107l-191 189l-191 -189h107v-282h168zM216 113v-81h168v81h-168z" />
    <glyph glyph-name="partialdiff" unicode="&#x2202;" 
d="M275 432q48 0 84 -21.5t59 -53.5l1 1q-8 103 -79.5 172t-198.5 103l21 68q93 -25 160 -60.5t109.5 -87.5t63 -124t20.5 -169q0 -59 -15 -108.5t-43 -86t-68 -57t-91 -20.5q-44 0 -82.5 15t-67.5 44t-46 70t-17 94q0 49 15 90t40.5 70t60 45t74.5 16zM422 278
q-31 43 -62 62.5t-71 19.5q-47 0 -79 -36.5t-32 -108.5t32 -113t86 -41q60 0 92.5 48t33.5 144v25z" />
    <glyph glyph-name="Delta" unicode="&#x2206;" 
d="M240 689h120l223 -689h-566zM136 78h323l-159 525h-4z" />
    <glyph glyph-name="product" unicode="&#x220f;" 
d="M399 -213v826h-196v-815l-91 -11v826h-85v76h546v-76h-84v-815z" />
    <glyph glyph-name="summation" unicode="&#x2211;" 
d="M399 315l-194 -237h296v-78h-403v78l222 266l-222 267v78h403v-78h-296l194 -234v-62z" />
    <glyph glyph-name="minus" unicode="&#x2212;" 
d="M112 272v81h376v-81h-376z" />
    <glyph glyph-name="uni2215" unicode="&#x2215;" 
d="M49 183l-32 56l535 256l31 -56z" />
    <glyph glyph-name="uni2219" unicode="&#x2219;" 
d="M209 338q0 19 7 35.5t19 28.5t28.5 19t35.5 7q39 0 65 -26t26 -64t-26 -64.5t-65 -26.5q-38 0 -64 26.5t-26 64.5z" />
    <glyph glyph-name="radical" unicode="&#x221a;" 
d="M514 790l-220 -790h-104l-167 457l81 27l133 -383h4l208 766h249v-77h-184z" />
    <glyph glyph-name="infinity" unicode="&#x221e;" 
d="M81 316q0 -125 70 -125q21 0 37 11.5t28.5 30.5t23 43t20.5 50q-8 18 -18 38t-22.5 37t-29.5 28.5t-39 11.5q-70 0 -70 -125zM300 245q-12 -27 -27 -50t-33 -40t-41 -27t-52 -10q-42 0 -71.5 15.5t-48 42.5t-26.5 63t-8 77q0 42 8.5 78t26.5 62.5t46.5 41.5t69.5 15
q54 0 90 -32t65 -95q13 26 27.5 49t33 40.5t41 27.5t51.5 10q42 0 71.5 -15.5t48 -42.5t26.5 -63t8 -77q0 -42 -8.5 -78t-26.5 -62.5t-46.5 -41.5t-69.5 -15q-54 0 -90.5 32t-64.5 95zM518 315q0 125 -70 125q-21 0 -37 -11.5t-29 -30.5t-23 -43.5t-20 -49.5q8 -18 17.5 -38
t22.5 -37t29.5 -28.5t39.5 -11.5q70 0 70 125z" />
    <glyph glyph-name="intersection" unicode="&#x2229;" 
d="M147 38h-78v310q0 48 18 90t49.5 73.5t73.5 49.5t90 18t90 -18t73.5 -49.5t49.5 -73.5t18 -90v-310h-78v310q0 31 -12 59t-33 49t-49 33t-59 12q-32 0 -59.5 -12t-48.5 -33t-33 -49t-12 -59v-310z" />
    <glyph glyph-name="integral" unicode="&#x222b;" 
d="M408 778q-41 0 -55.5 -20t-14.5 -57v-770q0 -73 -39 -108.5t-107 -35.5q-38 0 -63.5 6.5t-55.5 20.5l29 67q25 -11 44 -15t39 -4q32 0 48 18t16 51v770q0 76 40 113.5t112 37.5q38 0 66 -6.5t60 -20.5l-29 -67q-26 11 -47.5 15.5t-42.5 4.5z" />
    <glyph glyph-name="approxequal" unicode="&#x2248;" 
d="M375 344q-30 0 -52 8.5t-40 19t-33 19.5t-31 9q-25 0 -40 -15t-27 -36l-61 32q8 15 19.5 31.5t28 30t38 22t48.5 8.5q30 0 52 -9t40 -19.5t33 -19.5t31 -9q25 0 40 15t27 36l61 -32q-8 -15 -19.5 -31.5t-28 -29.5t-38 -21.5t-48.5 -8.5zM375 155q-30 0 -52 8.5t-40 19
t-33 19.5t-31 9q-25 0 -40 -15t-27 -36l-61 32q8 15 19.5 31.5t28 30t38 22t48.5 8.5q30 0 52 -9t40 -19.5t33 -19.5t31 -9q25 0 40 15t27 36l61 -32q-8 -15 -19.5 -31.5t-28 -29.5t-38 -21.5t-48.5 -8.5z" />
    <glyph glyph-name="notequal" unicode="&#x2260;" 
d="M252 176l-88 -150l-51 29l72 121h-83v78h130l67 114h-197v78h244l89 150l50 -27l-73 -123h86v-78h-132l-68 -114h200v-78h-246z" />
    <glyph glyph-name="equivalence" unicode="&#x2261;" 
d="M102 81v78h396v-78h-396zM102 273v78h396v-78h-396zM102 465v78h396v-78h-396z" />
    <glyph glyph-name="lessequal" unicode="&#x2264;" 
d="M103 0v79h376v-79h-376zM103 301v95l357 162l36 -73l-320 -137l320 -126l-36 -76z" />
    <glyph glyph-name="greaterequal" unicode="&#x2265;" 
d="M120 0v79h376v-79h-376zM496 396v-95l-357 -155l-36 73l320 129l-320 135l36 75z" />
    <glyph glyph-name="house" unicode="&#x2302;" 
d="M560 0h-520v308l259 231l261 -231v-308zM110 65h380v212l-191 171l-189 -171v-212z" />
    <glyph glyph-name="revlogicalnot" unicode="&#x2310;" 
d="M112 351h376v-77h-293v-143h-83v220z" />
    <glyph glyph-name="integraltp" unicode="&#x2320;" 
d="M408 778q-41 0 -55.5 -20t-14.5 -57v-1201h-89v1201q0 76 40 113.5t112 37.5q38 0 66 -6.5t60 -20.5l-29 -67q-26 11 -47.5 15.5t-42.5 4.5z" />
    <glyph glyph-name="integralbt" unicode="&#x2321;" 
d="M185 -138q32 0 48 18t16 51v1069h89v-1069q0 -73 -39 -108.5t-107 -35.5q-38 0 -63.5 6.5t-55.5 20.5l29 67q25 -11 44 -15t39 -4z" />
    <glyph glyph-name="uni2326" unicode="&#x2326;" 
d="M400 28h-434q-5 0 -7 1q-2 0 -4 1q-2 0 -2.5 0.5t-2.5 0.5q-5 2 -13 8q-4 3 -10 11q-4 8 -5 13v1q-1 1 -1 3t-0.5 3t-0.5 3v550q0 12 4 20l3 7q5 8 10 12q4 2 6 4q8 5 23 7h434l340 -321zM19 221l67 -67l134 134l134 -134l67 67l-134 134l134 133l-67 69l-134 -135
l-134 135l-67 -69l134 -133z" />
    <glyph glyph-name="uni2327" unicode="&#x2327;" 
d="M-30 28q-23 0 -36.5 13.5t-13.5 36.5v545q0 23 13.5 36.5t36.5 13.5h660q23 0 36.5 -13.5t13.5 -36.5v-545q0 -23 -13.5 -36.5t-36.5 -13.5h-660zM99 221l67 -67l134 134l134 -134l67 67l-134 134l134 133l-67 69l-134 -135l-134 135l-67 -69l134 -133z" />
    <glyph glyph-name="uni2328" unicode="&#x2328;" 
d="M-25 38q-23 0 -36.5 13.5t-13.5 36.5v495q0 23 13.5 36.5t36.5 13.5h680q23 0 36.5 -13.5t13.5 -36.5v-495q0 -23 -13.5 -36.5t-36.5 -13.5h-680zM550 294q0 -8 6 -14t14 -6h54q8 0 14 6t6 14v244q0 8 -6 14t-14 6h-94q-8 0 -14 -6t-6 -14v-74q0 -8 6 -14t14 -6t14 -6
t6 -14v-130zM5 558q-8 0 -14 -6t-6 -14v-74q0 -8 6 -14t14 -6h74q8 0 14 6t6 14v74q0 8 -6 14t-14 6h-74zM177 558q-8 0 -14 -6t-6 -14v-74q0 -8 6 -14t14 -6h74q8 0 14 6t6 14v74q0 8 -6 14t-14 6h-74zM349 558q-8 0 -14 -6t-6 -14v-74q0 -8 6 -14t14 -6h74q8 0 14 6t6 14
v74q0 8 -6 14t-14 6h-74zM45 388q-8 0 -14 -6t-6 -14v-74q0 -8 6 -14t14 -6h74q8 0 14 6t6 14v74q0 8 -6 14t-14 6h-74zM217 388q-8 0 -14 -6t-6 -14v-74q0 -8 6 -14t14 -6h74q8 0 14 6t6 14v74q0 8 -6 14t-14 6h-74zM389 388q-8 0 -14 -6t-6 -14v-74q0 -8 6 -14t14 -6h74
q8 0 14 6t6 14v74q0 8 -6 14t-14 6h-74zM99 223q-8 0 -14 -6t-6 -14v-74q0 -8 6 -14t14 -6h436q8 0 14 6t6 14v74q0 8 -6 14t-14 6h-436z" />
    <glyph glyph-name="uni232B" unicode="&#x232b;" 
d="M447 355l134 133l-67 69l-134 -135l-134 135l-67 -69l134 -133l-134 -134l67 -67l134 134l134 -134l67 67zM200 28l-340 324l340 321h430q23 0 36.5 -13.5t13.5 -36.5v-545q0 -23 -13.5 -36.5t-36.5 -13.5h-430z" />
    <glyph glyph-name="uni23CE" unicode="&#x23ce;" 
d="M371 700q0 23 13.5 36.5t36.5 13.5h159q23 0 36.5 -13.5t13.5 -36.5v-461q0 -23 -13.5 -36.5t-36.5 -13.5h-312v-174l-298 298l298 299v-174h103v262zM584 706h-168v-313h-193v111l-189 -191l189 -191v111h361v473z" />
    <glyph glyph-name="SF100000" unicode="&#x2500;" 
d="M-5 390h610v-80h-610v80z" />
    <glyph glyph-name="uni2501" unicode="&#x2501;" 
d="M-5 470h610v-240h-610v240z" />
    <glyph glyph-name="SF110000" unicode="&#x2502;" 
d="M260 1000h80v-1500h-80v1500z" />
    <glyph glyph-name="uni2503" unicode="&#x2503;" 
d="M180 1000h240v-1500h-240v1500z" />
    <glyph glyph-name="SF010000" unicode="&#x250c;" 
d="M260 390h345v-80h-265v-810h-80v890z" />
    <glyph glyph-name="uni250D" unicode="&#x250d;" 
d="M260 470h345v-240h-265v-730h-80v970z" />
    <glyph glyph-name="uni250E" unicode="&#x250e;" 
d="M180 390h425v-80h-185v-810h-240v890z" />
    <glyph glyph-name="uni250F" unicode="&#x250f;" 
d="M180 470h425v-240h-185v-730h-240v970z" />
    <glyph glyph-name="SF030000" unicode="&#x2510;" 
d="M-5 390h345v-890h-80v810h-265v80z" />
    <glyph glyph-name="uni2511" unicode="&#x2511;" 
d="M-5 470h345v-970h-80v730h-265v240z" />
    <glyph glyph-name="uni2512" unicode="&#x2512;" 
d="M-5 390h425v-890h-240v810h-185v80z" />
    <glyph glyph-name="uni2513" unicode="&#x2513;" 
d="M-5 470h425v-970h-240v730h-185v240z" />
    <glyph glyph-name="SF020000" unicode="&#x2514;" 
d="M260 1000h80v-610h265v-80h-345v690z" />
    <glyph glyph-name="uni2515" unicode="&#x2515;" 
d="M260 1000h80v-530h265v-240h-345v770z" />
    <glyph glyph-name="uni2516" unicode="&#x2516;" 
d="M180 1000h240v-610h185v-80h-425v690z" />
    <glyph glyph-name="uni2517" unicode="&#x2517;" 
d="M180 1000h240v-530h185v-240h-425v770z" />
    <glyph glyph-name="SF040000" unicode="&#x2518;" 
d="M-5 390h265v610h80v-690h-345v80z" />
    <glyph glyph-name="uni2519" unicode="&#x2519;" 
d="M-5 470h265v530h80v-770h-345v240z" />
    <glyph glyph-name="uni251A" unicode="&#x251a;" 
d="M-5 390h185v610h240v-690h-425v80z" />
    <glyph glyph-name="uni251B" unicode="&#x251b;" 
d="M-5 470h185v530h240v-770h-425v240z" />
    <glyph glyph-name="SF080000" unicode="&#x251c;" 
d="M260 1000h80v-610h265v-80h-265v-810h-80v1500z" />
    <glyph glyph-name="uni251D" unicode="&#x251d;" 
d="M260 1000h80v-530h265v-240h-265v-730h-80v1500z" />
    <glyph glyph-name="uni251E" unicode="&#x251e;" 
d="M180 1000h240v-610h185v-80h-265v-810h-80v810h-80v690z" />
    <glyph glyph-name="uni251F" unicode="&#x251f;" 
d="M180 390h80v610h80v-610h265v-80h-185v-810h-240v890z" />
    <glyph glyph-name="uni2520" unicode="&#x2520;" 
d="M180 1000h240v-610h185v-80h-185v-810h-240v1500z" />
    <glyph glyph-name="uni2521" unicode="&#x2521;" 
d="M180 1000h240v-530h185v-240h-265v-730h-80v730h-80v770z" />
    <glyph glyph-name="uni2522" unicode="&#x2522;" 
d="M180 470h80v530h80v-530h265v-240h-185v-730h-240v970z" />
    <glyph glyph-name="uni2523" unicode="&#x2523;" 
d="M180 1000h240v-530h185v-240h-185v-730h-240v1500z" />
    <glyph glyph-name="SF090000" unicode="&#x2524;" 
d="M-5 390h265v610h80v-1500h-80v810h-265v80z" />
    <glyph glyph-name="uni2525" unicode="&#x2525;" 
d="M-5 470h265v530h80v-1500h-80v730h-265v240z" />
    <glyph glyph-name="uni2526" unicode="&#x2526;" 
d="M-5 390h185v610h240v-690h-80v-810h-80v810h-265v80z" />
    <glyph glyph-name="uni2527" unicode="&#x2527;" 
d="M-5 390h265v610h80v-610h80v-890h-240v810h-185v80z" />
    <glyph glyph-name="uni2528" unicode="&#x2528;" 
d="M-5 390h185v610h240v-1500h-240v810h-185v80z" />
    <glyph glyph-name="uni2529" unicode="&#x2529;" 
d="M-5 470h185v530h240v-770h-80v-730h-80v730h-265v240z" />
    <glyph glyph-name="uni252A" unicode="&#x252a;" 
d="M-5 470h265v530h80v-530h80v-970h-240v730h-185v240z" />
    <glyph glyph-name="uni252B" unicode="&#x252b;" 
d="M-5 470h185v530h240v-1500h-240v730h-185v240z" />
    <glyph glyph-name="SF060000" unicode="&#x252c;" 
d="M-5 390h610v-80h-265v-810h-80v810h-265v80z" />
    <glyph glyph-name="uni252D" unicode="&#x252d;" 
d="M-5 470h345v-80h265v-80h-265v-810h-80v730h-265v240z" />
    <glyph glyph-name="uni252E" unicode="&#x252e;" 
d="M-5 390h265v80h345v-240h-265v-730h-80v810h-265v80z" />
    <glyph glyph-name="uni252F" unicode="&#x252f;" 
d="M-5 470h610v-240h-265v-730h-80v730h-265v240z" />
    <glyph glyph-name="uni2530" unicode="&#x2530;" 
d="M-5 390h610v-80h-185v-810h-240v810h-185v80z" />
    <glyph glyph-name="uni2531" unicode="&#x2531;" 
d="M-5 470h425v-80h185v-80h-185v-810h-240v730h-185v240z" />
    <glyph glyph-name="uni2532" unicode="&#x2532;" 
d="M-5 390h185v80h425v-240h-185v-730h-240v810h-185v80z" />
    <glyph glyph-name="uni2533" unicode="&#x2533;" 
d="M-5 470h610v-240h-185v-730h-240v730h-185v240z" />
    <glyph glyph-name="SF070000" unicode="&#x2534;" 
d="M-5 390h265v610h80v-610h265v-80h-610v80z" />
    <glyph glyph-name="uni2535" unicode="&#x2535;" 
d="M-5 470h265v530h80v-610h265v-80h-265v-80h-345v240z" />
    <glyph glyph-name="uni2536" unicode="&#x2536;" 
d="M-5 390h265v610h80v-530h265v-240h-345v80h-265v80z" />
    <glyph glyph-name="uni2537" unicode="&#x2537;" 
d="M-5 470h265v530h80v-530h265v-240h-610v240z" />
    <glyph glyph-name="uni2538" unicode="&#x2538;" 
d="M-5 390h185v610h240v-610h185v-80h-610v80z" />
    <glyph glyph-name="uni2539" unicode="&#x2539;" 
d="M-5 470h185v530h240v-610h185v-80h-185v-80h-425v240z" />
    <glyph glyph-name="uni253A" unicode="&#x253a;" 
d="M-5 390h185v610h240v-530h185v-240h-425v80h-185v80z" />
    <glyph glyph-name="uni253B" unicode="&#x253b;" 
d="M-5 470h185v530h240v-530h185v-240h-610v240z" />
    <glyph glyph-name="SF050000" unicode="&#x253c;" 
d="M-5 390h265v610h80v-610h265v-80h-265v-810h-80v810h-265v80z" />
    <glyph glyph-name="uni253D" unicode="&#x253d;" 
d="M-5 470h265v530h80v-610h265v-80h-265v-810h-80v730h-265v240z" />
    <glyph glyph-name="uni253E" unicode="&#x253e;" 
d="M-5 390h265v610h80v-530h265v-240h-265v-730h-80v810h-265v80z" />
    <glyph glyph-name="uni253F" unicode="&#x253f;" 
d="M-5 470h265v530h80v-530h265v-240h-265v-730h-80v730h-265v240z" />
    <glyph glyph-name="uni2540" unicode="&#x2540;" 
d="M-5 390h185v610h240v-610h185v-80h-265v-810h-80v810h-265v80z" />
    <glyph glyph-name="uni2541" unicode="&#x2541;" 
d="M-5 390h265v610h80v-610h265v-80h-185v-810h-240v810h-185v80z" />
    <glyph glyph-name="uni2542" unicode="&#x2542;" 
d="M-5 390h185v610h240v-610h185v-80h-185v-810h-240v810h-185v80z" />
    <glyph glyph-name="uni2543" unicode="&#x2543;" 
d="M-5 470h185v530h240v-610h185v-80h-185v-80h-80v-730h-80v730h-265v240z" />
    <glyph glyph-name="uni2544" unicode="&#x2544;" 
d="M-5 390h185v610h240v-530h185v-240h-265v-730h-80v730h-80v80h-185v80z" />
    <glyph glyph-name="uni2545" unicode="&#x2545;" 
d="M-5 470h265v530h80v-530h80v-80h185v-80h-185v-810h-240v730h-185v240z" />
    <glyph glyph-name="uni2546" unicode="&#x2546;" 
d="M-5 390h185v80h80v530h80v-530h265v-240h-185v-730h-240v810h-185v80z" />
    <glyph glyph-name="uni2547" unicode="&#x2547;" 
d="M-5 470h185v530h240v-530h185v-240h-265v-730h-80v730h-265v240z" />
    <glyph glyph-name="uni2548" unicode="&#x2548;" 
d="M-5 470h265v530h80v-530h265v-240h-185v-730h-240v730h-185v240z" />
    <glyph glyph-name="uni2549" unicode="&#x2549;" 
d="M-5 470h185v530h240v-610h185v-80h-185v-810h-240v730h-185v240z" />
    <glyph glyph-name="uni254A" unicode="&#x254a;" 
d="M-5 390h185v610h240v-530h185v-240h-185v-730h-240v810h-185v80z" />
    <glyph glyph-name="uni254B" unicode="&#x254b;" 
d="M-5 470h185v530h240v-530h185v-240h-185v-730h-240v730h-185v240z" />
    <glyph glyph-name="uni254C" unicode="&#x254c;" 
d="M340 310v80h265v-80h-265zM-5 390h265v-80h-265v80z" />
    <glyph glyph-name="uni254D" unicode="&#x254d;" 
d="M420 230v240h185v-240h-185zM-5 470h185v-240h-185v240z" />
    <glyph glyph-name="uni254E" unicode="&#x254e;" 
d="M260 310h80v-810h-80v810zM340 390h-80v610h80v-610z" />
    <glyph glyph-name="uni254F" unicode="&#x254f;" 
d="M180 230h240v-730h-240v730zM420 470h-240v530h240v-530z" />
    <glyph glyph-name="SF430000" unicode="&#x2550;" 
d="M-5 310h610v-80h-610v80zM605 390h-610v80h610v-80z" />
    <glyph glyph-name="SF240000" unicode="&#x2551;" 
d="M340 -500v1500h80v-1500h-80zM180 1000h80v-1500h-80v1500z" />
    <glyph glyph-name="SF510000" unicode="&#x2552;" 
d="M605 390h-265v-80h265v-80h-265v-730h-80v970h345v-80z" />
    <glyph glyph-name="SF520000" unicode="&#x2553;" 
d="M340 -500v810h-80v-810h-80v890h425v-80h-185v-810h-80z" />
    <glyph glyph-name="SF390000" unicode="&#x2554;" 
d="M180 470h425v-80h-345v-890h-80v970zM340 -500v810h265v-80h-185v-730h-80z" />
    <glyph glyph-name="SF220000" unicode="&#x2555;" 
d="M-5 310h265v80h-265v80h345v-970h-80v730h-265v80z" />
    <glyph glyph-name="SF210000" unicode="&#x2556;" 
d="M-5 390h425v-890h-80v810h-80v-810h-80v810h-185v80z" />
    <glyph glyph-name="SF250000" unicode="&#x2557;" 
d="M340 -500v890h-345v80h425v-970h-80zM-5 310h265v-810h-80v730h-185v80z" />
    <glyph glyph-name="SF500000" unicode="&#x2558;" 
d="M605 390h-265v-80h265v-80h-345v770h80v-530h265v-80z" />
    <glyph glyph-name="SF490000" unicode="&#x2559;" 
d="M180 1000h80v-610h80v610h80v-610h185v-80h-425v690z" />
    <glyph glyph-name="SF380000" unicode="&#x255a;" 
d="M605 310v-80h-425v770h80v-690h345zM605 390h-265v610h80v-530h185v-80z" />
    <glyph glyph-name="SF280000" unicode="&#x255b;" 
d="M-5 310h265v80h-265v80h265v530h80v-770h-345v80z" />
    <glyph glyph-name="SF270000" unicode="&#x255c;" 
d="M-5 390h185v610h80v-610h80v610h80v-690h-425v80z" />
    <glyph glyph-name="SF260000" unicode="&#x255d;" 
d="M-5 310h345v690h80v-770h-425v80zM180 1000h80v-610h-265v80h185v530z" />
    <glyph glyph-name="SF360000" unicode="&#x255e;" 
d="M605 390h-265v-80h265v-80h-265v-730h-80v1500h80v-530h265v-80z" />
    <glyph glyph-name="SF370000" unicode="&#x255f;" 
d="M340 -500v1500h80v-610h185v-80h-185v-810h-80zM180 1000h80v-1500h-80v1500z" />
    <glyph glyph-name="SF420000" unicode="&#x2560;" 
d="M180 1000h80v-1500h-80v1500zM340 -500v810h265v-80h-185v-730h-80zM605 390h-265v610h80v-530h185v-80z" />
    </font>
</defs>
</svg>
