<?xml version="1.0" standalone="no"?>
<!DOCTYPE svg PUBLIC "-//W3C//DTD SVG 1.1//EN" "http://www.w3.org/Graphics/SVG/1.1/DTD/svg11.dtd" >
<svg>
<metadata>
Created by FontForge 20120731 at Thu Aug  4 17:14:19 2016
 By www
Copyright 2006 House Industries/Brand Design Co., Inc. All Rights Reserved.
</metadata>
<defs>
<font id="UnitedSansReg-Medium" horiz-adv-x="617" >
  <font-face 
    font-family="United Sans Rg Md"
    font-weight="500"
    font-stretch="normal"
    units-per-em="1000"
    panose-1="0 0 0 0 0 0 0 0 0 0"
    ascent="760"
    descent="-240"
    x-height="486"
    cap-height="690"
    bbox="-48 -172 1017 890"
    underline-thickness="50"
    underline-position="-50"
    unicode-range="U+0020-FB02"
  />
<missing-glyph horiz-adv-x="678" 
d="M30 776h618v-862h-618v862zM272 315v-131h77v107l26 27h117l69 69v215l-88 88h-278l-84 -84v-100h76v76l45 45h204l48 -48v-168l-26 -27h-117zM272 116v-116h77v116h-77z" />
    <glyph glyph-name=".notdef" horiz-adv-x="678" 
d="M30 776h618v-862h-618v862zM272 315v-131h77v107l26 27h117l69 69v215l-88 88h-278l-84 -84v-100h76v76l45 45h204l48 -48v-168l-26 -27h-117zM272 116v-116h77v116h-77z" />
    <glyph glyph-name="eth" unicode="&#xf0;" horiz-adv-x="545" 
d="M154 0l-84 84v318l84 84h175l76 -76v122l-143 143v15h79l128 -128l69 69h12v-67l-71 -71v-409l-84 -84h-241zM189 58h171l45 46v234l-90 90h-126l-46 -45v-279z" />
    <glyph glyph-name="Lslash" unicode="&#x141;" horiz-adv-x="514" 
d="M40 276v71l73 33v310h77v-276l137 62v-71l-137 -62v-279h289v-64h-366v309z" />
    <glyph glyph-name="lslash" unicode="&#x142;" horiz-adv-x="243" 
d="M15 293v67l70 32v298h73v-265l70 33v-67l-70 -33v-358h-73v325z" />
    <glyph glyph-name="Scaron" unicode="&#x160;" horiz-adv-x="570" 
d="M144 0l-84 84v99h76v-75l45 -45h204l48 48v170l-36 37h-259l-76 76v208l88 88h273l85 -84v-97h-77v73l-45 45h-199l-48 -48v-161l36 -36h259l76 -76v-218l-88 -88h-278zM244 754l-82 82v28h45l71 -71h13l71 71h46v-28l-83 -82h-81z" />
    <glyph glyph-name="scaron" unicode="&#x161;" horiz-adv-x="514" 
d="M130 0l-70 70v71h73v-52l31 -31h179l38 38v97l-22 22h-237l-60 60v135l77 76h240l70 -70v-71h-74v52l-31 31h-171l-37 -38v-96l21 -21h236l61 -61v-135l-76 -77h-248zM218 544l-82 82v28h45l71 -71h13l71 71h46v-28l-83 -82h-81z" />
    <glyph glyph-name="Yacute" unicode="&#xdd;" horiz-adv-x="536" 
d="M229 0v227l-214 463h82l174 -384l175 384h75l-215 -463v-227h-77zM217 747v29l89 89h54v-29l-90 -89h-53z" />
    <glyph glyph-name="yacute" unicode="&#xfd;" horiz-adv-x="467" 
d="M181 0l-166 486h77l142 -433l145 433h73l-205 -597l-61 -61h-148v56h114l33 33l30 83h-34zM182 537v29l89 89h54v-29l-90 -89h-53z" />
    <glyph glyph-name="Thorn" unicode="&#xde;" horiz-adv-x="578" 
d="M85 0v690h77v-123h283l88 -88v-235l-88 -88h-283v-156h-77zM162 218h244l50 50v187l-50 50h-244v-287z" />
    <glyph glyph-name="thorn" unicode="&#xfe;" horiz-adv-x="558" 
d="M80 -172v862h73v-280l76 76h175l84 -84v-318l-84 -84h-179l-72 72v-244h-73zM240 58h129l46 46v279l-46 45h-127l-89 -89v-194z" />
    <glyph glyph-name="Zcaron" unicode="&#x17d;" horiz-adv-x="502" 
d="M40 0v54l329 572h-322v64h409v-54l-330 -571h336v-65h-422zM210 754l-82 82v28h45l71 -71h13l71 71h46v-28l-83 -82h-81z" />
    <glyph glyph-name="zcaron" unicode="&#x17e;" horiz-adv-x="436" 
d="M35 0v45l276 383h-272v58h359v-46l-277 -381h280v-59h-366zM177 544l-82 82v28h45l71 -71h13l71 71h46v-28l-83 -82h-81z" />
    <glyph glyph-name="onehalf" unicode="&#xbd;" horiz-adv-x="758" 
d="M35 346v50h94v244h-94v50h156v-294h89v-50h-245zM164 0l368 690h59l-369 -690h-58zM445 0v140l46 46h152l18 19v62l-26 26h-103l-25 -24v-34h-61v56l53 53h169l55 -55v-109l-46 -46h-151l-19 -19v-63h215v-52h-277z" />
    <glyph glyph-name="onequarter" unicode="&#xbc;" horiz-adv-x="762" 
d="M35 346v50h94v244h-94v50h156v-294h89v-50h-245zM164 0l368 690h59l-369 -690h-58zM634 0v84h-208v41l81 219h62l-74 -209h139v209h61v-209h42v-51h-42v-84h-61z" />
    <glyph glyph-name="onesuperior" unicode="&#xb9;" horiz-adv-x="305" 
d="M35 346v50h94v244h-94v50h156v-294h89v-50h-245z" />
    <glyph glyph-name="threequarters" unicode="&#xbe;" horiz-adv-x="784" 
d="M94 346l-54 53v54h62v-33l25 -25h104l28 28v54l-19 19h-133v47h133l19 20v51l-26 27h-106l-25 -25v-35h-62v56l54 53h172l55 -55v-80l-34 -34l34 -35v-86l-55 -54h-172zM186 0l368 690h59l-369 -690h-58zM656 0v84h-208v41l81 219h62l-74 -209h139v209h61v-209h42v-51
h-42v-84h-61z" />
    <glyph glyph-name="threesuperior" unicode="&#xb3;" horiz-adv-x="366" 
d="M94 346l-54 53v54h62v-33l25 -25h104l28 28v54l-19 19h-133v47h133l19 20v51l-26 27h-106l-25 -25v-35h-62v56l54 53h172l55 -55v-80l-34 -34l34 -35v-86l-55 -54h-172z" />
    <glyph glyph-name="twosuperior" unicode="&#xb2;" horiz-adv-x="353" 
d="M40 346v140l46 46h152l18 19v62l-26 26h-103l-25 -24v-34h-61v56l53 53h169l55 -55v-109l-46 -46h-151l-19 -19v-63h215v-52h-277z" />
    <glyph glyph-name="minus" unicode="&#x2212;" horiz-adv-x="332" 
d="M15 312v65h303v-65h-303z" />
    <glyph glyph-name="multiply" unicode="&#xd7;" horiz-adv-x="419" 
d="M78 167l-43 42l132 132l-132 132l43 43l131 -133l132 133l43 -43l-132 -132l132 -132l-43 -42l-132 131z" />
    <glyph glyph-name="space" unicode=" " horiz-adv-x="245" 
 />
    <glyph glyph-name="exclam" unicode="!" horiz-adv-x="267" 
d="M95 184v506h77v-506h-77zM95 0v115h77v-115h-77z" />
    <glyph glyph-name="quotedbl" unicode="&#x22;" horiz-adv-x="342" 
d="M215 426v264h67v-264h-67zM60 426v264h67v-264h-67z" />
    <glyph glyph-name="numbersign" unicode="#" horiz-adv-x="493" 
d="M113 171v121h-83v55h83v169h-83v55h83v119h62v-119h142v119h62v-119h84v-55h-84v-169h84v-55h-84v-121h-62v121h-142v-121h-62zM175 347h142v169h-142v-169z" />
    <glyph glyph-name="dollar" unicode="$" horiz-adv-x="570" 
d="M144 20l-84 84v99h76v-75l45 -45h204l48 48v150l-36 37h-259l-76 76v188l88 88h97v99h72v-99h104l85 -84v-97h-77v73l-45 45h-199l-48 -48v-141l36 -36h259l76 -76v-198l-88 -88h-103v-100h-72v100h-103z" />
    <glyph glyph-name="percent" unicode="%" horiz-adv-x="714" 
d="M103 361l-63 63v203l63 63h152l62 -63v-203l-62 -63h-152zM135 411h88l30 30v169l-30 30h-88l-31 -30v-169zM459 0l-62 63v203l62 63h152l63 -63v-203l-63 -63h-152zM492 50h87l31 30v169l-31 30h-87l-31 -30v-169zM141 0l368 690h59l-369 -690h-58z" />
    <glyph glyph-name="ampersand" unicode="&#x26;" horiz-adv-x="614" 
d="M154 0l-84 84v199l72 72l-70 71v181l83 83h287l84 -84v-89h-77v65l-45 45h-211l-44 -45v-138l55 -55h393v-63h-73v-242l-84 -84h-286zM192 64h210l46 46v215h-241l-60 -60v-156z" />
    <glyph glyph-name="quotesingle" unicode="'" horiz-adv-x="187" 
d="M60 426v264h67v-264h-67z" />
    <glyph glyph-name="parenleft" unicode="(" horiz-adv-x="309" 
d="M174 -63l-94 94v627l94 94h90v-64h-53l-54 -54v-579l54 -54h53v-64h-90z" />
    <glyph glyph-name="parenright" unicode=")" horiz-adv-x="309" 
d="M229 31l-94 -94h-90v64h53l54 54v579l-54 54h-53v64h90l94 -94v-627z" />
    <glyph glyph-name="asterisk" unicode="*" horiz-adv-x="349" 
d="M108 399l-45 33l81 96l-121 31l18 53l114 -48l-10 126h59l-10 -126l114 48l18 -53l-121 -31l81 -96l-46 -33l-66 107z" />
    <glyph glyph-name="plus" unicode="+" horiz-adv-x="391" 
d="M13 313v62h151v161h64v-161h150v-62h-150v-162h-64v162h-151z" />
    <glyph glyph-name="comma" unicode="," horiz-adv-x="205" 
d="M55 -104v47h33l11 11v46h-44v112h95v-174l-42 -42h-53z" />
    <glyph glyph-name="hyphen" unicode="-" horiz-adv-x="294" 
d="M15 312v66h264v-66h-264z" />
    <glyph glyph-name="period" unicode="." horiz-adv-x="205" 
d="M55 0v112h95v-112h-95z" />
    <glyph glyph-name="slash" unicode="/" horiz-adv-x="320" 
d="M10 -64l231 817h69l-232 -817h-68z" />
    <glyph glyph-name="zero" unicode="0" horiz-adv-x="619" 
d="M169 0l-94 94v502l94 94h281l94 -94v-502l-94 -94h-281zM206 64h207l54 54v454l-54 54h-207l-54 -54v-454z" />
    <glyph glyph-name="one" unicode="1" horiz-adv-x="443" 
d="M55 0v58h141v575h-141v57h218v-632h135v-58h-353z" />
    <glyph glyph-name="two" unicode="2" horiz-adv-x="556" 
d="M60 0v288l76 76h252l36 36v179l-48 48h-193l-45 -45v-73h-77v97l84 84h268l88 -88v-226l-76 -76h-252l-36 -36v-200h362v-64h-439z" />
    <glyph glyph-name="three" unicode="3" horiz-adv-x="585" 
d="M143 0l-88 88v110h76v-84l49 -50h214l44 45v156l-60 60h-224v64h228l55 55v138l-45 45h-212l-49 -51v-83h-76v109l88 88h287l84 -83v-180l-71 -71l72 -73v-199l-84 -84h-288z" />
    <glyph glyph-name="four" unicode="4" horiz-adv-x="576" 
d="M396 0v191h-366v53l132 446h74l-122 -433h282v433h77v-433h68v-66h-68v-191h-77z" />
    <glyph glyph-name="five" unicode="5" horiz-adv-x="566" 
d="M148 0l-83 84v108h77v-85l45 -44h200l47 48v232l-36 36h-200l-60 -60h-73v371h438v-64h-361v-232l49 49h244l76 -76v-279l-87 -88h-276z" />
    <glyph glyph-name="six" unicode="6" horiz-adv-x="608" 
d="M169 0l-94 94v502l94 94h281l86 -85v-102h-76v76l-47 47h-207l-54 -54v-200l48 49h256l82 -82v-245l-94 -94h-275zM206 64h201l54 54v196l-43 43h-211l-55 -56v-183z" />
    <glyph glyph-name="seven" unicode="7" horiz-adv-x="482" 
d="M176 0v243l192 382h-353v65h442v-52l-204 -399v-239h-77z" />
    <glyph glyph-name="eight" unicode="8" horiz-adv-x="616" 
d="M154 0l-84 84v202l72 72l-70 71v178l83 83h306l84 -83v-178l-71 -71l72 -72v-202l-84 -84h-308zM192 64h232l45 45v159l-60 60h-202l-60 -60v-159zM204 392h209l55 55v135l-45 45h-230l-44 -45v-135z" />
    <glyph glyph-name="nine" unicode="9" horiz-adv-x="608" 
d="M157 0l-85 85v109h75v-83l47 -47h208l54 54v214l-49 -49h-255l-82 82v231l94 94h275l94 -94v-502l-94 -94h-282zM189 347h211l56 56v169l-54 54h-201l-54 -54v-183z" />
    <glyph glyph-name="colon" unicode=":" horiz-adv-x="215" 
d="M60 0v112h95v-112h-95zM60 311v112h95v-112h-95z" />
    <glyph glyph-name="semicolon" unicode=";" horiz-adv-x="215" 
d="M60 -104v47h33l11 11v46h-44v112h95v-174l-42 -42h-53zM60 311v112h95v-112h-95z" />
    <glyph glyph-name="less" unicode="&#x3c;" horiz-adv-x="422" 
d="M382 141l-360 166v74l360 167v-68l-294 -135l294 -136v-68z" />
    <glyph glyph-name="equal" unicode="=" horiz-adv-x="396" 
d="M32 398v62h332v-62h-332zM32 226v62h332v-62h-332z" />
    <glyph glyph-name="greater" unicode="&#x3e;" horiz-adv-x="422" 
d="M400 307l-360 -166v68l294 136l-294 135v68l360 -167v-74z" />
    <glyph glyph-name="question" unicode="?" horiz-adv-x="530" 
d="M196 184v131l69 69h117l26 27v168l-48 48h-204l-45 -45v-76h-76v100l84 84h278l88 -88v-215l-69 -69h-117l-26 -27v-107h-77zM196 0v116h77v-116h-77z" />
    <glyph glyph-name="at" unicode="@" horiz-adv-x="845" 
d="M184 -131l-114 114v523l114 114h477l114 -114v-429l-78 -77h-138l-3 80l-80 -80h-188l-76 76v134l76 77h254v97l-44 44h-163l-35 -36v-47h-76v64l78 77h229l84 -84v-346h45l41 41v389l-75 76h-407l-76 -76v-483l76 -76h428v-58h-463zM321 58h147l74 74v98h-219l-38 -38
v-98z" />
    <glyph glyph-name="A" unicode="A" horiz-adv-x="567" 
d="M20 0l205 690h117l205 -690h-78l-58 200h-258l-57 -200h-76zM282 647l-110 -382h220z" />
    <glyph glyph-name="B" unicode="B" horiz-adv-x="612" 
d="M85 0v690h373l83 -83v-178l-71 -71l72 -72v-202l-84 -84h-373zM162 64h258l45 45v159l-60 60h-243v-264zM162 392h247l55 55v135l-45 45h-257v-235z" />
    <glyph glyph-name="C" unicode="C" horiz-adv-x="590" 
d="M169 0l-94 94v502l94 94h268l88 -88v-113h-75v87l-50 50h-194l-54 -54v-454l54 -54h194l50 50v91h75v-117l-88 -88h-268z" />
    <glyph glyph-name="D" unicode="D" horiz-adv-x="614" 
d="M85 0v690h360l94 -94v-502l-94 -94h-360zM162 64h246l54 54v454l-54 54h-246v-562z" />
    <glyph glyph-name="E" unicode="E" horiz-adv-x="528" 
d="M85 0v690h391v-64h-314v-248h293v-64h-293v-250h316v-64h-393z" />
    <glyph glyph-name="F" unicode="F" horiz-adv-x="498" 
d="M85 0v690h383v-64h-306v-252h285v-64h-285v-310h-77z" />
    <glyph glyph-name="G" unicode="G" horiz-adv-x="603" 
d="M169 0l-94 94v502l94 94h275l84 -84v-98h-77v74l-44 44h-201l-54 -54v-454l54 -54h196l54 54v171h-167v64h244v-259l-94 -94h-270z" />
    <glyph glyph-name="H" unicode="H" horiz-adv-x="620" 
d="M85 0v690h77v-311h296v311h77v-690h-77v310h-296v-310h-77z" />
    <glyph glyph-name="I" unicode="I" horiz-adv-x="412" 
d="M45 0v58h122v575h-122v57h322v-57h-123v-575h123v-58h-322z" />
    <glyph glyph-name="J" unicode="J" horiz-adv-x="398" 
d="M20 0v64h167l54 54v572h77v-596l-94 -94h-204z" />
    <glyph glyph-name="K" unicode="K" horiz-adv-x="596" 
d="M482 0l-187 343l-133 -178v-165h-77v690h77v-420l307 420h85l-210 -286l222 -404h-84z" />
    <glyph glyph-name="L" unicode="L" horiz-adv-x="486" 
d="M85 0v690h77v-626h289v-64h-366z" />
    <glyph glyph-name="M" unicode="M" horiz-adv-x="837" 
d="M85 0v690h121l213 -632l214 632h119v-690h-72v634l-216 -634h-95l-214 634v-634h-70z" />
    <glyph glyph-name="N" unicode="N" horiz-adv-x="630" 
d="M85 0v690h89l302 -587v587h69v-690h-89l-302 589v-589h-69z" />
    <glyph glyph-name="O" unicode="O" horiz-adv-x="619" 
d="M169 0l-94 94v502l94 94h281l94 -94v-502l-94 -94h-281zM206 64h207l54 54v454l-54 54h-207l-54 -54v-454z" />
    <glyph glyph-name="P" unicode="P" horiz-adv-x="573" 
d="M85 0v690h360l88 -88v-235l-88 -88h-283v-279h-77zM162 341h244l50 50v187l-50 50h-244v-287z" />
    <glyph glyph-name="Q" unicode="Q" horiz-adv-x="619" 
d="M472 -155l-97 97v58h-206l-94 94v502l94 94h281l94 -94v-502l-93 -94v-34l71 -71zM206 64h207l54 54v454l-54 54h-207l-54 -54v-454z" />
    <glyph glyph-name="R" unicode="R" horiz-adv-x="607" 
d="M85 0v690h366l88 -88v-208l-83 -83l91 -311h-78l-86 300h-221v-300h-77zM162 364h246l54 54v160l-50 50h-250v-264z" />
    <glyph glyph-name="S" unicode="S" horiz-adv-x="570" 
d="M144 0l-84 84v99h76v-75l45 -45h204l48 48v170l-36 37h-259l-76 76v208l88 88h273l85 -84v-97h-77v73l-45 45h-199l-48 -48v-161l36 -36h259l76 -76v-218l-88 -88h-278z" />
    <glyph glyph-name="T" unicode="T" horiz-adv-x="519" 
d="M221 0v626h-196v64h469v-64h-196v-626h-77z" />
    <glyph glyph-name="U" unicode="U" horiz-adv-x="608" 
d="M174 0l-94 94v596h77v-572l54 -54h186l54 54v572h77v-596l-94 -94h-260z" />
    <glyph glyph-name="V" unicode="V" horiz-adv-x="527" 
d="M208 0l-188 690h77l170 -637l168 637h72l-186 -690h-113z" />
    <glyph glyph-name="W" unicode="W" horiz-adv-x="816" 
d="M162 0l-137 690h72l120 -626l142 626h103l142 -626l119 626h68l-137 -690h-101l-143 628l-143 -628h-105z" />
    <glyph glyph-name="X" unicode="X" horiz-adv-x="556" 
d="M30 0l198 354l-192 336h83l156 -277l161 277h79l-197 -337l205 -353h-84l-165 292l-163 -292h-81z" />
    <glyph glyph-name="Y" unicode="Y" horiz-adv-x="536" 
d="M229 0v227l-214 463h82l174 -384l175 384h75l-215 -463v-227h-77z" />
    <glyph glyph-name="Z" unicode="Z" horiz-adv-x="502" 
d="M40 0v54l329 572h-322v64h409v-54l-330 -571h336v-65h-422z" />
    <glyph glyph-name="bracketleft" unicode="[" horiz-adv-x="312" 
d="M85 -63v815h182v-64h-106v-687h106v-64h-182z" />
    <glyph glyph-name="backslash" unicode="\" horiz-adv-x="320" 
d="M79 753l231 -817h-68l-232 817h69z" />
    <glyph glyph-name="bracketright" unicode="]" horiz-adv-x="312" 
d="M227 752v-815h-182v64h106v687h-106v64h182z" />
    <glyph glyph-name="asciicircum" unicode="^" horiz-adv-x="408" 
d="M23 349l134 341h93l135 -341h-74l-108 290l-108 -290h-72z" />
    <glyph glyph-name="underscore" unicode="_" horiz-adv-x="459" 
d="M-7 -91v50h472v-50h-472z" />
    <glyph glyph-name="grave" unicode="`" horiz-adv-x="280" 
d="M158 537l-89 89v29h53l89 -89v-29h-53z" />
    <glyph glyph-name="a" unicode="a" horiz-adv-x="534" 
d="M131 0l-76 76v134l77 77h253v97l-44 44h-162l-36 -36v-47h-75v64l77 77h230l84 -84v-402h-56l-4 80l-80 -80h-188zM164 58h147l74 74v98h-219l-38 -38v-98z" />
    <glyph glyph-name="b" unicode="b" horiz-adv-x="558" 
d="M80 0v690h73v-280l76 76h175l84 -84v-318l-84 -84h-182l-82 83l-4 -83h-56zM238 58h131l46 46v279l-45 45h-127l-90 -90v-194z" />
    <glyph glyph-name="c" unicode="c" horiz-adv-x="517" 
d="M154 0l-84 84v318l84 84h229l79 -79v-82h-73v63l-40 40h-160l-46 -45v-279l46 -46h160l40 41v63h73v-82l-79 -80h-229z" />
    <glyph glyph-name="d" unicode="d" horiz-adv-x="559" 
d="M154 0l-84 84v318l84 84h175l76 -76v280h74v-690h-56l-5 82l-82 -82h-182zM189 58h131l85 85v195l-90 90h-126l-46 -45v-279z" />
    <glyph glyph-name="e" unicode="e" horiz-adv-x="540" 
d="M154 0l-84 84v318l84 84h237l84 -84v-177h-332v-121l46 -46h179l34 35v51h73v-70l-73 -74h-248zM143 283h259v100l-45 45h-168l-46 -45v-100z" />
    <glyph glyph-name="f" unicode="f" horiz-adv-x="355" 
d="M105 0v428h-75v58h75v125l79 79h161v-57h-125l-42 -42v-105h156v-58h-156v-428h-73z" />
    <glyph glyph-name="g" unicode="g" horiz-adv-x="559" 
d="M146 -172l-70 70v62h74v-44l30 -30h180l45 45v163l-73 -73h-178l-84 84v297l84 84h176l88 -88l5 88h56v-574l-84 -84h-249zM189 79h135l81 81v178l-90 90h-126l-46 -46v-257z" />
    <glyph glyph-name="h" unicode="h" horiz-adv-x="544" 
d="M80 0v690h73v-280l76 76h156l84 -84v-402h-73v384l-44 44h-109l-90 -90v-338h-73z" />
    <glyph glyph-name="i" unicode="i" horiz-adv-x="243" 
d="M158 0h-73v486h73v-486zM85 569v104h73v-104h-73z" />
    <glyph glyph-name="j" unicode="j" horiz-adv-x="243" 
d="M-48 -172v56h91l42 42v560h73v-579l-79 -79h-127zM85 569v104h73v-104h-73z" />
    <glyph glyph-name="k" unicode="k" horiz-adv-x="527" 
d="M416 0l-143 257l-119 -135v-122h-74v690h74v-481l240 277h86l-158 -179l175 -307h-81z" />
    <glyph glyph-name="l" unicode="l" horiz-adv-x="243" 
d="M158 0h-73v690h73v-690z" />
    <glyph glyph-name="m" unicode="m" horiz-adv-x="823" 
d="M80 0v486h56l4 -88l88 88h136l75 -75l75 75h150l84 -84v-402h-73v384l-44 44h-102l-79 -79v-349h-73v384l-44 44h-88l-92 -92v-336h-73z" />
    <glyph glyph-name="n" unicode="n" horiz-adv-x="544" 
d="M80 0v486h56l4 -88l88 88h157l84 -84v-402h-73v384l-44 44h-107l-92 -92v-336h-73z" />
    <glyph glyph-name="o" unicode="o" horiz-adv-x="547" 
d="M154 0l-84 84v318l84 84h239l84 -84v-318l-84 -84h-239zM189 58h170l45 46v279l-45 45h-170l-46 -45v-279z" />
    <glyph glyph-name="p" unicode="p" horiz-adv-x="558" 
d="M80 -172v658h56l4 -85l86 85h178l84 -84v-318l-84 -84h-179l-72 72v-244h-73zM240 58h129l46 46v279l-45 45h-128l-89 -89v-194z" />
    <glyph glyph-name="q" unicode="q" horiz-adv-x="559" 
d="M405 -172v244l-72 -72h-179l-84 84v318l84 84h178l86 -85l5 85h56v-658h-74zM189 58h129l87 87v194l-89 89h-127l-46 -45v-279z" />
    <glyph glyph-name="r" unicode="r" horiz-adv-x="371" 
d="M80 0v486h56l4 -93l94 93h107v-63h-93l-95 -95v-328h-73z" />
    <glyph glyph-name="s" unicode="s" horiz-adv-x="514" 
d="M130 0l-70 70v71h73v-52l31 -31h179l38 38v97l-22 22h-237l-60 60v135l77 76h240l70 -70v-71h-74v52l-31 31h-171l-37 -38v-96l21 -21h236l61 -61v-135l-76 -77h-248z" />
    <glyph glyph-name="t" unicode="t" horiz-adv-x="404" 
d="M188 0l-84 84v344h-79v58h79v149h73v-149h182v-58h-182v-323l47 -47h135v-58h-171z" />
    <glyph glyph-name="u" unicode="u" horiz-adv-x="544" 
d="M159 0l-84 84v402h73v-384l44 -44h107l92 92v336h73v-486h-56l-4 89l-89 -89h-156z" />
    <glyph glyph-name="v" unicode="v" horiz-adv-x="467" 
d="M181 0l-166 486h77l143 -434l144 434h73l-167 -486h-104z" />
    <glyph glyph-name="w" unicode="w" horiz-adv-x="705" 
d="M131 0l-116 486h72l99 -439l125 439h91l123 -439l102 439h63l-116 -486h-99l-119 430l-120 -430h-105z" />
    <glyph glyph-name="x" unicode="x" horiz-adv-x="479" 
d="M378 0l-139 197l-138 -197h-81l176 245l-168 241h84l129 -191l137 191h74l-170 -237l177 -249h-81z" />
    <glyph glyph-name="y" unicode="y" horiz-adv-x="467" 
d="M181 0l-166 486h77l142 -433l145 433h73l-205 -597l-61 -61h-148v56h114l33 33l30 83h-34z" />
    <glyph glyph-name="z" unicode="z" horiz-adv-x="436" 
d="M35 0v45l276 383h-272v58h359v-46l-277 -381h280v-59h-366z" />
    <glyph glyph-name="braceleft" unicode="{" horiz-adv-x="347" 
d="M213 -63l-94 94v258l-33 32h-56v66h55l34 34v237l94 94h89v-64h-52l-54 -54v-226l-53 -53l53 -53v-247l54 -54h52v-64h-89z" />
    <glyph glyph-name="bar" unicode="|" horiz-adv-x="276" 
d="M101 -64v817h74v-817h-74z" />
    <glyph glyph-name="braceright" unicode="}" horiz-adv-x="347" 
d="M228 31l-94 -94h-89v64h52l54 54v247l53 53l-53 53v226l-54 54h-52v64h89l94 -94v-237l34 -34h55v-66h-56l-33 -32v-258z" />
    <glyph glyph-name="asciitilde" unicode="~" horiz-adv-x="428" 
d="M28 543v83l63 64h91l97 -97h26l36 35v62h60v-83l-64 -64h-91l-97 97h-26l-36 -35v-62h-59z" />
    <glyph glyph-name="Adieresis" unicode="&#xc4;" horiz-adv-x="567" 
d="M20 0l205 690h117l205 -690h-78l-58 200h-258l-57 -200h-76zM282 647l-110 -382h220zM326 759v90h63v-90h-63zM177 759v90h62v-90h-62z" />
    <glyph glyph-name="Aring" unicode="&#xc5;" horiz-adv-x="567" 
d="M20 0l205 690h117l205 -690h-78l-58 200h-258l-57 -200h-76zM282 647l-110 -382h220zM230 739l-34 34v83l34 34h107l34 -34v-83l-34 -34h-107zM252 769h62l15 15v60l-15 15h-62l-15 -15v-60z" />
    <glyph glyph-name="Ccedilla" unicode="&#xc7;" horiz-adv-x="590" 
d="M169 0l-94 94v502l94 94h268l88 -88v-113h-75v87l-50 50h-194l-54 -54v-454l54 -54h194l50 50v91h75v-117l-88 -88h-123v-42h47l32 -32v-55l-32 -32h-125v39h94l11 11v22l-11 11h-47l-21 21v57h-93z" />
    <glyph glyph-name="Eacute" unicode="&#xc9;" horiz-adv-x="528" 
d="M85 0v690h391v-64h-314v-248h293v-64h-293v-250h316v-64h-393zM230 747v29l89 89h54v-29l-90 -89h-53z" />
    <glyph glyph-name="Ntilde" unicode="&#xd1;" horiz-adv-x="630" 
d="M85 0v690h89l302 -587v587h69v-690h-89l-302 589v-589h-69zM185 756v56l41 42h76l54 -54h23l14 13v41h53v-56l-41 -42h-76l-54 54h-24l-13 -14v-40h-53z" />
    <glyph glyph-name="Odieresis" unicode="&#xd6;" horiz-adv-x="619" 
d="M169 0l-94 94v502l94 94h281l94 -94v-502l-94 -94h-281zM206 64h207l54 54v454l-54 54h-207l-54 -54v-454zM352 759v90h63v-90h-63zM203 759v90h62v-90h-62z" />
    <glyph glyph-name="Udieresis" unicode="&#xdc;" horiz-adv-x="608" 
d="M174 0l-94 94v596h77v-572l54 -54h186l54 54v572h77v-596l-94 -94h-260zM347 759v90h63v-90h-63zM198 759v90h62v-90h-62z" />
    <glyph glyph-name="aacute" unicode="&#xe1;" horiz-adv-x="534" 
d="M131 0l-76 76v134l77 77h253v97l-44 44h-162l-36 -36v-47h-75v64l77 77h230l84 -84v-402h-56l-4 80l-80 -80h-188zM164 58h147l74 74v98h-219l-38 -38v-98zM206 537v29l89 89h54v-29l-90 -89h-53z" />
    <glyph glyph-name="agrave" unicode="&#xe0;" horiz-adv-x="534" 
d="M131 0l-76 76v134l77 77h253v97l-44 44h-162l-36 -36v-47h-75v64l77 77h230l84 -84v-402h-56l-4 80l-80 -80h-188zM164 58h147l74 74v98h-219l-38 -38v-98zM255 537l-89 89v29h53l89 -89v-29h-53z" />
    <glyph glyph-name="acircumflex" unicode="&#xe2;" horiz-adv-x="534" 
d="M131 0l-76 76v134l77 77h253v97l-44 44h-162l-36 -36v-47h-75v64l77 77h230l84 -84v-402h-56l-4 80l-80 -80h-188zM164 58h147l74 74v98h-219l-38 -38v-98zM134 544v27l82 83h81l83 -83v-27h-46l-71 70h-13l-71 -70h-45z" />
    <glyph glyph-name="adieresis" unicode="&#xe4;" horiz-adv-x="534" 
d="M131 0l-76 76v134l77 77h253v97l-44 44h-162l-36 -36v-47h-75v64l77 77h230l84 -84v-402h-56l-4 80l-80 -80h-188zM164 58h147l74 74v98h-219l-38 -38v-98zM300 549v90h63v-90h-63zM151 549v90h62v-90h-62z" />
    <glyph glyph-name="atilde" unicode="&#xe3;" horiz-adv-x="534" 
d="M131 0l-76 76v134l77 77h253v97l-44 44h-162l-36 -36v-47h-75v64l77 77h230l84 -84v-402h-56l-4 80l-80 -80h-188zM164 58h147l74 74v98h-219l-38 -38v-98zM127 546v56l41 42h76l54 -54h23l14 13v41h53v-56l-41 -42h-76l-54 54h-24l-13 -14v-40h-53z" />
    <glyph glyph-name="aring" unicode="&#xe5;" horiz-adv-x="534" 
d="M131 0l-76 76v134l77 77h253v97l-44 44h-162l-36 -36v-47h-75v64l77 77h230l84 -84v-402h-56l-4 80l-80 -80h-188zM164 58h147l74 74v98h-219l-38 -38v-98zM204 529l-34 34v83l34 34h107l34 -34v-83l-34 -34h-107zM226 559h62l15 15v60l-15 15h-62l-15 -15v-60z" />
    <glyph glyph-name="ccedilla" unicode="&#xe7;" horiz-adv-x="517" 
d="M154 0l-84 84v318l84 84h229l79 -79v-82h-73v63l-40 40h-160l-46 -45v-279l46 -46h160l40 41v63h73v-82l-79 -80h-103v-42h47l32 -32v-55l-32 -32h-125v39h94l11 11v22l-11 11h-47l-21 21v57h-74z" />
    <glyph glyph-name="eacute" unicode="&#xe9;" horiz-adv-x="540" 
d="M154 0l-84 84v318l84 84h237l84 -84v-177h-332v-121l46 -46h179l34 35v51h73v-70l-73 -74h-248zM143 283h259v100l-45 45h-168l-46 -45v-100zM221 537v29l89 89h54v-29l-90 -89h-53z" />
    <glyph glyph-name="egrave" unicode="&#xe8;" horiz-adv-x="540" 
d="M154 0l-84 84v318l84 84h237l84 -84v-177h-332v-121l46 -46h179l34 35v51h73v-70l-73 -74h-248zM143 283h259v100l-45 45h-168l-46 -45v-100zM270 537l-89 89v29h53l89 -89v-29h-53z" />
    <glyph glyph-name="ecircumflex" unicode="&#xea;" horiz-adv-x="540" 
d="M154 0l-84 84v318l84 84h237l84 -84v-177h-332v-121l46 -46h179l34 35v51h73v-70l-73 -74h-248zM143 283h259v100l-45 45h-168l-46 -45v-100zM149 544v27l82 83h81l83 -83v-27h-46l-71 70h-13l-71 -70h-45z" />
    <glyph glyph-name="edieresis" unicode="&#xeb;" horiz-adv-x="540" 
d="M154 0l-84 84v318l84 84h237l84 -84v-177h-332v-121l46 -46h179l34 35v51h73v-70l-73 -74h-248zM143 283h259v100l-45 45h-168l-46 -45v-100zM315 549v90h63v-90h-63zM166 549v90h62v-90h-62z" />
    <glyph glyph-name="iacute" unicode="&#xed;" horiz-adv-x="243" 
d="M158 0h-73v486h73v-486zM70 537v29l89 89h54v-29l-90 -89h-53z" />
    <glyph glyph-name="igrave" unicode="&#xec;" horiz-adv-x="243" 
d="M158 0h-73v486h73v-486zM119 537l-89 89v29h53l89 -89v-29h-53z" />
    <glyph glyph-name="icircumflex" unicode="&#xee;" horiz-adv-x="243" 
d="M158 0h-73v486h73v-486zM-2 544v27l82 83h81l83 -83v-27h-46l-71 70h-13l-71 -70h-45z" />
    <glyph glyph-name="idieresis" unicode="&#xef;" horiz-adv-x="243" 
d="M158 0h-73v486h73v-486zM164 549v90h63v-90h-63zM15 549v90h62v-90h-62z" />
    <glyph glyph-name="ntilde" unicode="&#xf1;" horiz-adv-x="544" 
d="M80 0v486h56l4 -88l88 88h157l84 -84v-402h-73v384l-44 44h-107l-92 -92v-336h-73zM154 546v56l41 42h76l54 -54h23l14 13v41h53v-56l-41 -42h-76l-54 54h-24l-13 -14v-40h-53z" />
    <glyph glyph-name="oacute" unicode="&#xf3;" horiz-adv-x="547" 
d="M154 0l-84 84v318l84 84h239l84 -84v-318l-84 -84h-239zM189 58h170l45 46v279l-45 45h-170l-46 -45v-279zM222 537v29l89 89h54v-29l-90 -89h-53z" />
    <glyph glyph-name="ograve" unicode="&#xf2;" horiz-adv-x="547" 
d="M154 0l-84 84v318l84 84h239l84 -84v-318l-84 -84h-239zM189 58h170l45 46v279l-45 45h-170l-46 -45v-279zM271 537l-89 89v29h53l89 -89v-29h-53z" />
    <glyph glyph-name="ocircumflex" unicode="&#xf4;" horiz-adv-x="547" 
d="M154 0l-84 84v318l84 84h239l84 -84v-318l-84 -84h-239zM189 58h170l45 46v279l-45 45h-170l-46 -45v-279zM150 544v27l82 83h81l83 -83v-27h-46l-71 70h-13l-71 -70h-45z" />
    <glyph glyph-name="odieresis" unicode="&#xf6;" horiz-adv-x="547" 
d="M154 0l-84 84v318l84 84h239l84 -84v-318l-84 -84h-239zM189 58h170l45 46v279l-45 45h-170l-46 -45v-279zM316 549v90h63v-90h-63zM167 549v90h62v-90h-62z" />
    <glyph glyph-name="otilde" unicode="&#xf5;" horiz-adv-x="547" 
d="M154 0l-84 84v318l84 84h239l84 -84v-318l-84 -84h-239zM189 58h170l45 46v279l-45 45h-170l-46 -45v-279zM143 546v56l41 42h76l54 -54h23l14 13v41h53v-56l-41 -42h-76l-54 54h-24l-13 -14v-40h-53z" />
    <glyph glyph-name="uacute" unicode="&#xfa;" horiz-adv-x="544" 
d="M159 0l-84 84v402h73v-384l44 -44h107l92 92v336h73v-486h-56l-4 89l-89 -89h-156zM218 537v29l89 89h54v-29l-90 -89h-53z" />
    <glyph glyph-name="ugrave" unicode="&#xf9;" horiz-adv-x="544" 
d="M159 0l-84 84v402h73v-384l44 -44h107l92 92v336h73v-486h-56l-4 89l-89 -89h-156zM267 537l-89 89v29h53l89 -89v-29h-53z" />
    <glyph glyph-name="ucircumflex" unicode="&#xfb;" horiz-adv-x="544" 
d="M159 0l-84 84v402h73v-384l44 -44h107l92 92v336h73v-486h-56l-4 89l-89 -89h-156zM146 544v27l82 83h81l83 -83v-27h-46l-71 70h-13l-71 -70h-45z" />
    <glyph glyph-name="udieresis" unicode="&#xfc;" horiz-adv-x="544" 
d="M159 0l-84 84v402h73v-384l44 -44h107l92 92v336h73v-486h-56l-4 89l-89 -89h-156zM312 549v90h63v-90h-63zM163 549v90h62v-90h-62z" />
    <glyph glyph-name="dagger" unicode="&#x2020;" horiz-adv-x="287" 
d="M111 262v281h-81v54h81v93h65v-93h81v-54h-81v-281h-65z" />
    <glyph glyph-name="degree" unicode="&#xb0;" horiz-adv-x="284" 
d="M84 459l-50 50v131l50 50h115l51 -50v-131l-51 -50h-115zM106 500h71l22 22v105l-22 22h-71l-21 -22v-105z" />
    <glyph glyph-name="cent" unicode="&#xa2;" horiz-adv-x="565" 
d="M159 65l-94 94v374l94 94h93v95h71v-95h99l88 -89v-109h-76v84l-49 50h-189l-54 -54v-326l54 -54h189l49 50v87h76v-113l-88 -88h-99v-98h-71v98h-93z" />
    <glyph glyph-name="sterling" unicode="&#xa3;" horiz-adv-x="573" 
d="M53 0v57l53 53v193h-56v66h56v227l94 94h239l89 -88v-116h-76v90l-50 50h-165l-54 -54v-203h205v-66h-205v-198l-41 -41h386v-64h-475z" />
    <glyph glyph-name="section" unicode="&#xa7;" horiz-adv-x="572" 
d="M143 -105l-83 84v116h77v-92l44 -45h206l48 48v185h-340l-31 32v31h448v-272l-87 -87h-282zM64 335v267l88 88h273l85 -84v-114h-77v90l-45 45h-199l-48 -48v-181h338l31 -32v-31h-446z" />
    <glyph glyph-name="bullet" unicode="&#x2022;" horiz-adv-x="245" 
d="M84 259l-45 45v83l45 45h77l45 -45v-83l-45 -45h-77z" />
    <glyph glyph-name="paragraph" unicode="&#xb6;" horiz-adv-x="720" 
d="M172 215h209v413h-209l-50 -50v-313zM558 628h-100v-734h-77v259h-248l-88 88v361l88 88h502v-796h-77v734z" />
    <glyph glyph-name="germandbls" unicode="&#xdf;" horiz-adv-x="581" 
d="M80 0v606l84 84h267l84 -84v-188l-54 -54l55 -55v-225l-84 -84h-213v58h178l46 46v191l-41 41h-183v57h184l39 39v155l-45 45h-198l-46 -46v-586h-73z" />
    <glyph glyph-name="registered" unicode="&#xae;" horiz-adv-x="455" 
d="M146 378v229h127l37 -37v-72l-30 -30l35 -90h-38l-33 83h-59v-83h-39zM105 294l-70 70v256l70 70h245l70 -70v-256l-70 -70h-245zM122 327h211l46 47v237l-46 46h-211l-46 -46v-237zM185 494h69l18 18v45l-17 17h-70v-80z" />
    <glyph glyph-name="copyright" unicode="&#xa9;" horiz-adv-x="741" 
d="M285 129l-63 63v306l64 64h168l64 -64v-98h-74v77l-25 25h-96l-27 -27v-260l27 -27h96l25 25v78h74v-99l-63 -63h-170zM169 0l-94 94v502l94 94h403l94 -94v-502l-94 -94h-403zM202 51h337l63 63v462l-63 63h-337l-63 -63v-462z" />
    <glyph glyph-name="trademark" unicode="&#x2122;" horiz-adv-x="578" 
d="M90 400v252h-81v38h207v-38h-79v-252h-47zM243 400v290h66l79 -239l78 239h67v-290h-43v250l-81 -250h-44l-80 249v-249h-42z" />
    <glyph glyph-name="acute" unicode="&#xb4;" horiz-adv-x="280" 
d="M69 537v29l89 89h54v-29l-90 -89h-53z" />
    <glyph glyph-name="dieresis" unicode="&#xa8;" horiz-adv-x="349" 
d="M218 549v90h63v-90h-63zM69 549v90h62v-90h-62z" />
    <glyph glyph-name="AE" unicode="&#xc6;" horiz-adv-x="804" 
d="M20 0l205 690h528v-64h-392l73 -248h298v-64h-279l75 -250h226v-64h-285l-58 200h-258l-57 -200h-76zM282 647l-110 -382h220z" />
    <glyph glyph-name="Oslash" unicode="&#xd8;" horiz-adv-x="619" 
d="M169 0l-94 94v502l94 94h281l94 -94v-502l-94 -94h-281zM205 64h208l54 54v455l-5 5l-262 -509zM157 112l262 509l-5 5h-208l-54 -54v-455z" />
    <glyph glyph-name="yen" unicode="&#xa5;" horiz-adv-x="536" 
d="M54 223v54h152l-191 413h86l170 -381l171 381h79l-192 -413h153v-54h-176v-60h176v-53h-176v-110h-77v110h-175v53h175v60h-175z" />
    <glyph glyph-name="ordfeminine" unicode="&#xaa;" horiz-adv-x="358" 
d="M100 344l-60 60v84l59 59h157v63l-31 31h-91l-24 -24v-22h-62v38l58 57h150l62 -62v-284h-46l-4 53l-53 -53h-115zM131 392h72l53 53v54h-128l-26 -26v-52z" />
    <glyph glyph-name="ordmasculine" unicode="&#xba;" horiz-adv-x="358" 
d="M102 344l-62 62v222l62 62h155l61 -62v-222l-61 -62h-155zM134 394h91l31 31v184l-31 32h-91l-32 -32v-184z" />
    <glyph glyph-name="ae" unicode="&#xe6;" horiz-adv-x="855" 
d="M131 0l-76 76v130l77 76h253v102l-44 44h-163l-35 -36v-47h-75v64l77 77h223l54 -53l53 53h231l84 -84v-177h-331v-121l45 -46h179l34 35v51h73v-70l-73 -74h-242l-53 54l-54 -54h-237zM164 58h177l44 44v123h-219l-38 -37v-94zM459 282h258v101l-45 45h-168l-45 -45
v-101z" />
    <glyph glyph-name="oslash" unicode="&#xf8;" horiz-adv-x="547" 
d="M154 0l-84 84v318l84 84h239l84 -84v-318l-84 -84h-239zM188 58h171l45 46v279l-6 6l-216 -325zM149 98l215 324l-6 6h-169l-46 -45v-279z" />
    <glyph glyph-name="questiondown" unicode="&#xbf;" horiz-adv-x="530" 
d="M334 506v-131l-69 -69h-117l-26 -27v-168l48 -48h204l45 45v76h76v-100l-84 -84h-278l-88 88v215l69 69h117l26 27v107h77zM334 690v-116h-77v116h77z" />
    <glyph glyph-name="exclamdown" unicode="&#xa1;" horiz-adv-x="267" 
d="M172 506v-506h-77v506h77zM172 690v-115h-77v115h77z" />
    <glyph glyph-name="florin" unicode="&#x192;" horiz-adv-x="431" 
d="M30 0v64h64l53 54v243h-112v63h112v172l94 94h155v-64h-117l-55 -54v-148h160v-63h-160v-267l-94 -94h-100z" />
    <glyph glyph-name="guillemotleft" unicode="&#xab;" horiz-adv-x="369" 
d="M132 137l-111 207l111 209h69l-111 -209l111 -207h-69zM272 137l-111 207l111 209h69l-111 -209l111 -207h-69z" />
    <glyph glyph-name="guillemotright" unicode="&#xbb;" horiz-adv-x="369" 
d="M348 344l-111 -207h-69l111 207l-111 209h69zM208 344l-111 -207h-69l111 207l-111 209h69z" />
    <glyph glyph-name="ellipsis" unicode="&#x2026;" horiz-adv-x="567" 
d="M47 0v112h95v-112h-95zM236 0v112h95v-112h-95zM425 0v112h95v-112h-95z" />
    <glyph glyph-name="Agrave" unicode="&#xc0;" horiz-adv-x="567" 
d="M20 0l205 690h117l205 -690h-78l-58 200h-258l-57 -200h-76zM282 647l-110 -382h220zM281 747l-89 89v29h53l89 -89v-29h-53z" />
    <glyph glyph-name="Atilde" unicode="&#xc3;" horiz-adv-x="567" 
d="M20 0l205 690h117l205 -690h-78l-58 200h-258l-57 -200h-76zM282 647l-110 -382h220zM153 756v56l41 42h76l54 -54h23l14 13v41h53v-56l-41 -42h-76l-54 54h-24l-13 -14v-40h-53z" />
    <glyph glyph-name="Otilde" unicode="&#xd5;" horiz-adv-x="619" 
d="M169 0l-94 94v502l94 94h281l94 -94v-502l-94 -94h-281zM206 64h207l54 54v454l-54 54h-207l-54 -54v-454zM179 756v56l41 42h76l54 -54h23l14 13v41h53v-56l-41 -42h-76l-54 54h-24l-13 -14v-40h-53z" />
    <glyph glyph-name="OE" unicode="&#x152;" horiz-adv-x="894" 
d="M169 0l-94 94v502l94 94h674v-64h-314v-248h293v-64h-293v-250h315v-64h-675zM206 64h246v562h-246l-54 -54v-454z" />
    <glyph glyph-name="oe" unicode="&#x153;" horiz-adv-x="874" 
d="M154 0l-84 84v318l84 84h233l54 -53l53 53h231l84 -84v-177h-332v-121l46 -46h179l34 35v51h73v-70l-74 -74h-241l-53 54l-54 -54h-233zM189 58h170l45 46v279l-45 45h-170l-46 -45v-279zM477 283h259v100l-45 45h-168l-46 -45v-100z" />
    <glyph glyph-name="endash" unicode="&#x2013;" horiz-adv-x="404" 
d="M15 312v66h374v-66h-374z" />
    <glyph glyph-name="emdash" unicode="&#x2014;" horiz-adv-x="541" 
d="M15 312v66h511v-66h-511z" />
    <glyph glyph-name="quotedblleft" unicode="&#x201c;" horiz-adv-x="357" 
d="M50 474v174l42 42h53v-47h-33l-11 -11v-46h44v-112h-95zM212 474v174l42 42h53v-47h-33l-11 -11v-46h44v-112h-95z" />
    <glyph glyph-name="quotedblright" unicode="&#x201d;" horiz-adv-x="357" 
d="M307 690v-174l-42 -42h-53v47h33l11 11v46h-44v112h95zM145 690v-174l-42 -42h-53v47h33l11 11v46h-44v112h95z" />
    <glyph glyph-name="quoteleft" unicode="&#x2018;" horiz-adv-x="195" 
d="M50 474v174l42 42h53v-47h-33l-11 -11v-46h44v-112h-95z" />
    <glyph glyph-name="quoteright" unicode="&#x2019;" horiz-adv-x="195" 
d="M145 690v-174l-42 -42h-53v47h33l11 11v46h-44v112h95z" />
    <glyph glyph-name="divide" unicode="&#xf7;" horiz-adv-x="403" 
d="M167 153v89h69v-89h-69zM20 312v63h363v-63h-363zM167 444v89h69v-89h-69z" />
    <glyph glyph-name="ydieresis" unicode="&#xff;" horiz-adv-x="467" 
d="M181 0l-166 486h77l142 -433l145 433h73l-205 -597l-61 -61h-148v56h114l33 33l30 83h-34zM276 549v90h63v-90h-63zM127 549v90h62v-90h-62z" />
    <glyph glyph-name="Ydieresis" unicode="&#x178;" horiz-adv-x="536" 
d="M229 0v227l-214 463h82l174 -384l175 384h75l-215 -463v-227h-77zM311 759v90h63v-90h-63zM162 759v90h62v-90h-62z" />
    <glyph glyph-name="fraction" unicode="&#x2044;" horiz-adv-x="427" 
d="M0 0l368 690h59l-369 -690h-58z" />
    <glyph glyph-name="Euro" unicode="&#x20ac;" horiz-adv-x="602" 
d="M30 382v54h57v160l94 94h268l88 -88v-113h-75v87l-50 50h-194l-54 -54v-136h240v-54h-240v-65h240v-53h-240v-146l54 -54h194l50 50v91h75v-117l-88 -88h-268l-94 94v170h-57v53h57v65h-57z" />
    <glyph glyph-name="guilsinglleft" unicode="&#x2039;" horiz-adv-x="229" 
d="M132 137l-111 207l111 209h69l-111 -209l111 -207h-69z" />
    <glyph glyph-name="guilsinglright" unicode="&#x203a;" horiz-adv-x="229" 
d="M208 344l-111 -207h-69l111 207l-111 209h69z" />
    <glyph glyph-name="fi" unicode="&#xfb01;" horiz-adv-x="598" 
d="M105 0v428h-75v58h75v125l79 79h161v-57h-125l-42 -42v-105h156v-58h-156v-428h-73zM513 0h-73v486h73v-486zM440 569v104h73v-104h-73z" />
    <glyph glyph-name="fl" unicode="&#xfb02;" horiz-adv-x="598" 
d="M105 0v428h-75v58h75v125l79 79h161v-57h-125l-42 -42v-105h156v-58h-156v-428h-73zM513 0h-73v690h73v-690z" />
    <glyph glyph-name="daggerdbl" unicode="&#x2021;" horiz-adv-x="287" 
d="M111 262v91h-81v53h81v139h-81v54h81v91h65v-91h81v-54h-81v-139h81v-53h-81v-91h-65z" />
    <glyph glyph-name="periodcentered" unicode="&#xb7;" horiz-adv-x="215" 
d="M60 311v112h95v-112h-95z" />
    <glyph glyph-name="quotesinglbase" unicode="&#x201a;" horiz-adv-x="195" 
d="M50 -104v47h33l11 11v46h-44v112h95v-174l-42 -42h-53z" />
    <glyph glyph-name="quotedblbase" unicode="&#x201e;" horiz-adv-x="357" 
d="M50 -104v47h33l11 11v46h-44v112h95v-174l-42 -42h-53zM212 -104v47h33l11 11v46h-44v112h95v-174l-42 -42h-53z" />
    <glyph glyph-name="perthousand" unicode="&#x2030;" horiz-adv-x="1057" 
d="M103 361l-63 63v203l63 63h152l62 -63v-203l-62 -63h-152zM135 411h88l30 30v169l-30 30h-88l-31 -30v-169zM459 0l-62 63v203l62 63h152l63 -63v-203l-63 -63h-152zM492 50h87l31 30v169l-31 30h-87l-31 -30v-169zM802 0l-62 63v203l62 63h152l63 -63v-203l-63 -63h-152
zM835 50h87l31 30v169l-31 30h-87l-31 -30v-169zM141 0l368 690h59l-369 -690h-58z" />
    <glyph glyph-name="Acircumflex" unicode="&#xc2;" horiz-adv-x="567" 
d="M20 0l205 690h117l205 -690h-78l-58 200h-258l-57 -200h-76zM282 647l-110 -382h220zM160 754v27l82 83h81l83 -83v-27h-46l-71 70h-13l-71 -70h-45z" />
    <glyph glyph-name="Ecircumflex" unicode="&#xca;" horiz-adv-x="528" 
d="M85 0v690h391v-64h-314v-248h293v-64h-293v-250h316v-64h-393zM158 754v27l82 83h81l83 -83v-27h-46l-71 70h-13l-71 -70h-45z" />
    <glyph glyph-name="Aacute" unicode="&#xc1;" horiz-adv-x="567" 
d="M20 0l205 690h117l205 -690h-78l-58 200h-258l-57 -200h-76zM282 647l-110 -382h220zM232 747v29l89 89h54v-29l-90 -89h-53z" />
    <glyph glyph-name="Edieresis" unicode="&#xcb;" horiz-adv-x="528" 
d="M85 0v690h391v-64h-314v-248h293v-64h-293v-250h316v-64h-393zM324 759v90h63v-90h-63zM175 759v90h62v-90h-62z" />
    <glyph glyph-name="Egrave" unicode="&#xc8;" horiz-adv-x="528" 
d="M85 0v690h391v-64h-314v-248h293v-64h-293v-250h316v-64h-393zM279 747l-89 89v29h53l89 -89v-29h-53z" />
    <glyph glyph-name="Iacute" unicode="&#xcd;" horiz-adv-x="412" 
d="M45 0v58h122v575h-122v57h322v-57h-123v-575h123v-58h-322zM155 747v29l89 89h54v-29l-90 -89h-53z" />
    <glyph glyph-name="Icircumflex" unicode="&#xce;" horiz-adv-x="412" 
d="M45 0v58h122v575h-122v57h322v-57h-123v-575h123v-58h-322zM83 754v27l82 83h81l83 -83v-27h-46l-71 70h-13l-71 -70h-45z" />
    <glyph glyph-name="Idieresis" unicode="&#xcf;" horiz-adv-x="412" 
d="M45 0v58h122v575h-122v57h322v-57h-123v-575h123v-58h-322zM249 759v90h63v-90h-63zM100 759v90h62v-90h-62z" />
    <glyph glyph-name="Igrave" unicode="&#xcc;" horiz-adv-x="412" 
d="M45 0v58h122v575h-122v57h322v-57h-123v-575h123v-58h-322zM204 747l-89 89v29h53l89 -89v-29h-53z" />
    <glyph glyph-name="Oacute" unicode="&#xd3;" horiz-adv-x="619" 
d="M169 0l-94 94v502l94 94h281l94 -94v-502l-94 -94h-281zM206 64h207l54 54v454l-54 54h-207l-54 -54v-454zM258 747v29l89 89h54v-29l-90 -89h-53z" />
    <glyph glyph-name="Ocircumflex" unicode="&#xd4;" horiz-adv-x="619" 
d="M169 0l-94 94v502l94 94h281l94 -94v-502l-94 -94h-281zM206 64h207l54 54v454l-54 54h-207l-54 -54v-454zM186 754v27l82 83h81l83 -83v-27h-46l-71 70h-13l-71 -70h-45z" />
    <glyph glyph-name="Ograve" unicode="&#xd2;" horiz-adv-x="619" 
d="M169 0l-94 94v502l94 94h281l94 -94v-502l-94 -94h-281zM206 64h207l54 54v454l-54 54h-207l-54 -54v-454zM307 747l-89 89v29h53l89 -89v-29h-53z" />
    <glyph glyph-name="Uacute" unicode="&#xda;" horiz-adv-x="608" 
d="M174 0l-94 94v596h77v-572l54 -54h186l54 54v572h77v-596l-94 -94h-260zM253 747v29l89 89h54v-29l-90 -89h-53z" />
    <glyph glyph-name="Ucircumflex" unicode="&#xdb;" horiz-adv-x="608" 
d="M174 0l-94 94v596h77v-572l54 -54h186l54 54v572h77v-596l-94 -94h-260zM181 754v27l82 83h81l83 -83v-27h-46l-71 70h-13l-71 -70h-45z" />
    <glyph glyph-name="Ugrave" unicode="&#xd9;" horiz-adv-x="608" 
d="M174 0l-94 94v596h77v-572l54 -54h186l54 54v572h77v-596l-94 -94h-260zM302 747l-89 89v29h53l89 -89v-29h-53z" />
    <glyph glyph-name="dotlessi" unicode="&#x131;" horiz-adv-x="243" 
d="M158 0h-73v486h73v-486z" />
    <glyph glyph-name="circumflex" unicode="&#x2c6;" horiz-adv-x="383" 
d="M69 544v27l82 83h81l83 -83v-27h-46l-71 70h-13l-71 -70h-45z" />
    <glyph glyph-name="tilde" unicode="&#x2dc;" horiz-adv-x="399" 
d="M69 546v56l41 42h76l54 -54h23l14 13v41h53v-56l-41 -42h-76l-54 54h-24l-13 -14v-40h-53z" />
    <glyph glyph-name="macron" unicode="&#xaf;" horiz-adv-x="356" 
d="M69 569v53h219v-53h-219z" />
    <glyph glyph-name="breve" unicode="&#x2d8;" horiz-adv-x="371" 
d="M110 550l-41 42v51h57v-34l15 -15h89l15 15v34h57v-51l-42 -42h-150z" />
    <glyph glyph-name="dotaccent" unicode="&#x2d9;" horiz-adv-x="234" 
d="M90 549l-21 22v54l21 22h54l22 -22v-54l-22 -22h-54z" />
    <glyph glyph-name="ring" unicode="&#x2da;" horiz-adv-x="312" 
d="M103 529l-34 34v83l34 34h107l34 -34v-83l-34 -34h-107zM125 559h62l15 15v60l-15 15h-62l-15 -15v-60z" />
    <glyph glyph-name="cedilla" unicode="&#xb8;" horiz-adv-x="295" 
d="M69 -161v39h94l11 11v22l-11 11h-47l-21 21v57h52v-42h47l32 -32v-55l-32 -32h-125z" />
    <glyph glyph-name="hungarumlaut" unicode="&#x2dd;" horiz-adv-x="392" 
d="M192 537v30l89 89h42v-30l-89 -89h-42zM69 537v30l89 89h41v-30l-89 -89h-41z" />
    <glyph glyph-name="ogonek" unicode="&#x2db;" horiz-adv-x="262" 
d="M100 -161l-31 32v66l63 63h61l-73 -73v-35l14 -14h59v-39h-93z" />
    <glyph glyph-name="caron" unicode="&#x2c7;" horiz-adv-x="383" 
d="M151 544l-82 82v28h45l71 -71h13l71 71h46v-28l-83 -82h-81z" />
    <glyph glyph-name="commaaccent" horiz-adv-x="195" 
d="M69 -161v125h57v-103l-23 -22h-34z" />
    <glyph glyph-name="uni0237" unicode="&#x237;" horiz-adv-x="243" 
d="M-48 -172v56h91l42 42v560h73v-579l-79 -79h-127z" />
    <glyph glyph-name="Dcroat" unicode="&#x110;" horiz-adv-x="637" 
d="M40 311v68h68v311h360l94 -94v-502l-94 -94h-360v311h-68zM185 64h246l54 54v454l-54 54h-246v-247h129v-68h-129v-247z" />
    <glyph glyph-name="dcroat" unicode="&#x111;" horiz-adv-x="559" 
d="M293 556v58h112v76h74v-76h59v-58h-59v-556h-56l-5 83l-82 -83h-182l-84 84v318l84 84h175l76 -76v146h-112zM189 58h131l85 86v194l-90 90h-126l-46 -45v-279z" />
    <glyph glyph-name="Abreve" unicode="&#x102;" horiz-adv-x="567" 
d="M20 0l205 690h117l205 -690h-78l-58 200h-258l-57 -200h-76zM282 647l-110 -382h220zM208 760l-41 42v51h57v-34l15 -15h89l15 15v34h57v-51l-42 -42h-150z" />
    <glyph glyph-name="Amacron" unicode="&#x100;" horiz-adv-x="567" 
d="M20 0l205 690h117l205 -690h-78l-58 200h-258l-57 -200h-76zM282 647l-110 -382h220zM174 779v53h219v-53h-219z" />
    <glyph glyph-name="Aogonek" unicode="&#x104;" horiz-adv-x="567" 
d="M20 0l205 690h117l205 -690h-22l-73 -73v-35l14 -14h59v-39h-93l-31 32v66l67 67l-57 196h-258l-57 -200h-76zM282 647l-110 -382h220z" />
    <glyph glyph-name="Cacute" unicode="&#x106;" horiz-adv-x="590" 
d="M169 0l-94 94v502l94 94h268l88 -88v-113h-75v87l-50 50h-194l-54 -54v-454l54 -54h194l50 50v91h75v-117l-88 -88h-268zM249 747v29l89 89h54v-29l-90 -89h-53z" />
    <glyph glyph-name="Ccaron" unicode="&#x10c;" horiz-adv-x="590" 
d="M169 0l-94 94v502l94 94h268l88 -88v-113h-75v87l-50 50h-194l-54 -54v-454l54 -54h194l50 50v91h75v-117l-88 -88h-268zM259 754l-82 82v28h45l71 -71h13l71 71h46v-28l-83 -82h-81z" />
    <glyph glyph-name="Ccircumflex" unicode="&#x108;" horiz-adv-x="590" 
d="M169 0l-94 94v502l94 94h268l88 -88v-113h-75v87l-50 50h-194l-54 -54v-454l54 -54h194l50 50v91h75v-117l-88 -88h-268zM177 754v27l82 83h81l83 -83v-27h-46l-71 70h-13l-71 -70h-45z" />
    <glyph glyph-name="Dcaron" unicode="&#x10e;" horiz-adv-x="614" 
d="M85 0v690h360l94 -94v-502l-94 -94h-360zM162 64h246l54 54v454l-54 54h-246v-562zM256 754l-82 82v28h45l71 -71h13l71 71h46v-28l-83 -82h-81z" />
    <glyph glyph-name="Ecaron" unicode="&#x11a;" horiz-adv-x="528" 
d="M85 0v690h391v-64h-314v-248h293v-64h-293v-250h316v-64h-393zM240 754l-82 82v28h45l71 -71h13l71 71h46v-28l-83 -82h-81z" />
    <glyph glyph-name="Edotaccent" unicode="&#x116;" horiz-adv-x="528" 
d="M85 0v690h391v-64h-314v-248h293v-64h-293v-250h316v-64h-393zM254 759l-21 22v54l21 22h54l22 -22v-54l-22 -22h-54z" />
    <glyph glyph-name="Emacron" unicode="&#x112;" horiz-adv-x="528" 
d="M85 0v690h391v-64h-314v-248h293v-64h-293v-250h316v-64h-393zM172 779v53h219v-53h-219z" />
    <glyph glyph-name="Eogonek" unicode="&#x118;" horiz-adv-x="528" 
d="M85 0v690h391v-64h-314v-248h293v-64h-293v-250h316v-64l-73 -73v-35l14 -14h59v-39h-93l-31 32v66l63 63h-332z" />
    <glyph glyph-name="Gbreve" unicode="&#x11e;" horiz-adv-x="603" 
d="M169 0l-94 94v502l94 94h275l84 -84v-98h-77v74l-44 44h-201l-54 -54v-454l54 -54h196l54 54v171h-167v64h244v-259l-94 -94h-270zM229 760l-41 42v51h57v-34l15 -15h89l15 15v34h57v-51l-42 -42h-150z" />
    <glyph glyph-name="Gcircumflex" unicode="&#x11c;" horiz-adv-x="603" 
d="M169 0l-94 94v502l94 94h275l84 -84v-98h-77v74l-44 44h-201l-54 -54v-454l54 -54h196l54 54v171h-167v64h244v-259l-94 -94h-270zM181 754v27l82 83h81l83 -83v-27h-46l-71 70h-13l-71 -70h-45z" />
    <glyph glyph-name="Gcommaaccent" unicode="&#x122;" horiz-adv-x="603" 
d="M169 0l-94 94v502l94 94h275l84 -84v-98h-77v74l-44 44h-201l-54 -54v-454l54 -54h196l54 54v171h-167v64h244v-259l-94 -94h-270zM276 -161v125h57v-103l-23 -22h-34z" />
    <glyph glyph-name="Hcircumflex" unicode="&#x124;" horiz-adv-x="620" 
d="M85 0v690h77v-311h296v311h77v-690h-77v310h-296v-310h-77zM187 754v27l82 83h81l83 -83v-27h-46l-71 70h-13l-71 -70h-45z" />
    <glyph glyph-name="Idotaccent" unicode="&#x130;" horiz-adv-x="412" 
d="M45 0v58h122v575h-122v57h322v-57h-123v-575h123v-58h-322zM179 759l-21 22v54l21 22h54l22 -22v-54l-22 -22h-54z" />
    <glyph glyph-name="Imacron" unicode="&#x12a;" horiz-adv-x="412" 
d="M45 0v58h122v575h-122v57h322v-57h-123v-575h123v-58h-322zM97 779v53h219v-53h-219z" />
    <glyph glyph-name="Iogonek" unicode="&#x12e;" horiz-adv-x="412" 
d="M45 0v58h122v575h-122v57h322v-57h-123v-575h123v-58h-140l-73 -73v-35l14 -14h59v-39h-93l-31 32v66l63 63h-121z" />
    <glyph glyph-name="Jcircumflex" unicode="&#x134;" horiz-adv-x="398" 
d="M20 0v64h167l54 54v572h77v-596l-94 -94h-204zM157 754v27l82 83h81l83 -83v-27h-46l-71 70h-13l-71 -70h-45z" />
    <glyph glyph-name="Kcommaaccent" unicode="&#x136;" horiz-adv-x="596" 
d="M482 0l-187 343l-133 -178v-165h-77v690h77v-420l307 420h85l-210 -286l222 -404h-84zM297 -161v125h57v-103l-23 -22h-34z" />
    <glyph glyph-name="Lacute" unicode="&#x139;" horiz-adv-x="486" 
d="M85 0v690h77v-626h289v-64h-366zM96 747v29l89 89h54v-29l-90 -89h-53z" />
    <glyph glyph-name="Lcaron" unicode="&#x13d;" horiz-adv-x="486" 
d="M85 0v690h77v-626h289v-64h-366zM253 595v125h57v-103l-23 -22h-34z" />
    <glyph glyph-name="Lcommaaccent" unicode="&#x13b;" horiz-adv-x="486" 
d="M85 0v690h77v-626h289v-64h-366zM240 -161v125h57v-103l-23 -22h-34z" />
    <glyph glyph-name="Nacute" unicode="&#x143;" horiz-adv-x="630" 
d="M85 0v690h89l302 -587v587h69v-690h-89l-302 589v-589h-69zM264 747v29l89 89h54v-29l-90 -89h-53z" />
    <glyph glyph-name="Ncaron" unicode="&#x147;" horiz-adv-x="630" 
d="M85 0v690h89l302 -587v587h69v-690h-89l-302 589v-589h-69zM274 754l-82 82v28h45l71 -71h13l71 71h46v-28l-83 -82h-81z" />
    <glyph glyph-name="Ncommaaccent" unicode="&#x145;" horiz-adv-x="630" 
d="M85 0v690h89l302 -587v587h69v-690h-89l-302 589v-589h-69zM287 -161v125h57v-103l-23 -22h-34z" />
    <glyph glyph-name="Ohungarumlaut" unicode="&#x150;" horiz-adv-x="619" 
d="M169 0l-94 94v502l94 94h281l94 -94v-502l-94 -94h-281zM206 64h207l54 54v454l-54 54h-207l-54 -54v-454zM333 747v30l89 89h42v-30l-89 -89h-42zM210 747v30l89 89h41v-30l-89 -89h-41z" />
    <glyph glyph-name="Omacron" unicode="&#x14c;" horiz-adv-x="619" 
d="M169 0l-94 94v502l94 94h281l94 -94v-502l-94 -94h-281zM206 64h207l54 54v454l-54 54h-207l-54 -54v-454zM200 779v53h219v-53h-219z" />
    <glyph glyph-name="Racute" unicode="&#x154;" horiz-adv-x="607" 
d="M85 0v690h366l88 -88v-208l-83 -83l91 -311h-78l-86 300h-221v-300h-77zM162 364h246l54 54v160l-50 50h-250v-264zM250 747v29l89 89h54v-29l-90 -89h-53z" />
    <glyph glyph-name="Rcaron" unicode="&#x158;" horiz-adv-x="607" 
d="M85 0v690h366l88 -88v-208l-83 -83l91 -311h-78l-86 300h-221v-300h-77zM162 364h246l54 54v160l-50 50h-250v-264zM260 754l-82 82v28h45l71 -71h13l71 71h46v-28l-83 -82h-81z" />
    <glyph glyph-name="Rcommaaccent" unicode="&#x156;" horiz-adv-x="607" 
d="M85 0v690h366l88 -88v-208l-83 -83l91 -311h-78l-86 300h-221v-300h-77zM162 364h246l54 54v160l-50 50h-250v-264zM288 -161v125h57v-103l-23 -22h-34z" />
    <glyph glyph-name="Sacute" unicode="&#x15a;" horiz-adv-x="570" 
d="M144 0l-84 84v99h76v-75l45 -45h204l48 48v170l-36 37h-259l-76 76v208l88 88h273l85 -84v-97h-77v73l-45 45h-199l-48 -48v-161l36 -36h259l76 -76v-218l-88 -88h-278zM234 747v29l89 89h54v-29l-90 -89h-53z" />
    <glyph glyph-name="Scedilla" unicode="&#x15e;" horiz-adv-x="570" 
d="M144 0l-84 84v99h76v-75l45 -45h204l48 48v170l-36 37h-259l-76 76v208l88 88h273l85 -84v-97h-77v73l-45 45h-199l-48 -48v-161l36 -36h259l76 -76v-218l-88 -88h-123v-42h47l32 -32v-55l-32 -32h-125v39h94l11 11v22l-11 11h-47l-21 21v57h-103z" />
    <glyph glyph-name="Scircumflex" unicode="&#x15c;" horiz-adv-x="570" 
d="M144 0l-84 84v99h76v-75l45 -45h204l48 48v170l-36 37h-259l-76 76v208l88 88h273l85 -84v-97h-77v73l-45 45h-199l-48 -48v-161l36 -36h259l76 -76v-218l-88 -88h-278zM162 754v27l82 83h81l83 -83v-27h-46l-71 70h-13l-71 -70h-45z" />
    <glyph glyph-name="Scommaaccent" unicode="&#x218;" horiz-adv-x="570" 
d="M144 0l-84 84v99h76v-75l45 -45h204l48 48v170l-36 37h-259l-76 76v208l88 88h273l85 -84v-97h-77v73l-45 45h-199l-48 -48v-161l36 -36h259l76 -76v-218l-88 -88h-278zM257 -161v125h57v-103l-23 -22h-34z" />
    <glyph glyph-name="Tcaron" unicode="&#x164;" horiz-adv-x="519" 
d="M221 0v626h-196v64h469v-64h-196v-626h-77zM218 754l-82 82v28h45l71 -71h13l71 71h46v-28l-83 -82h-81z" />
    <glyph glyph-name="Tcommaaccent" unicode="&#x162;" horiz-adv-x="519" 
d="M221 0v626h-196v64h469v-64h-196v-626h-77zM231 -161v125h57v-103l-23 -22h-34z" />
    <glyph glyph-name="Ubreve" unicode="&#x16c;" horiz-adv-x="608" 
d="M174 0l-94 94v596h77v-572l54 -54h186l54 54v572h77v-596l-94 -94h-260zM229 760l-41 42v51h57v-34l15 -15h89l15 15v34h57v-51l-42 -42h-150z" />
    <glyph glyph-name="Uhungarumlaut" unicode="&#x170;" horiz-adv-x="608" 
d="M174 0l-94 94v596h77v-572l54 -54h186l54 54v572h77v-596l-94 -94h-260zM328 747v30l89 89h42v-30l-89 -89h-42zM205 747v30l89 89h41v-30l-89 -89h-41z" />
    <glyph glyph-name="Umacron" unicode="&#x16a;" horiz-adv-x="608" 
d="M174 0l-94 94v596h77v-572l54 -54h186l54 54v572h77v-596l-94 -94h-260zM195 779v53h219v-53h-219z" />
    <glyph glyph-name="Uogonek" unicode="&#x172;" horiz-adv-x="608" 
d="M174 0l-94 94v596h77v-572l54 -54h186l54 54v572h77v-596l-94 -94h-79l-73 -73v-35l14 -14h59v-39h-93l-31 32v66l63 63h-120z" />
    <glyph glyph-name="Uring" unicode="&#x16e;" horiz-adv-x="608" 
d="M174 0l-94 94v596h77v-572l54 -54h186l54 54v572h77v-596l-94 -94h-260zM251 739l-34 34v83l34 34h107l34 -34v-83l-34 -34h-107zM273 769h62l15 15v60l-15 15h-62l-15 -15v-60z" />
    <glyph glyph-name="Zacute" unicode="&#x179;" horiz-adv-x="502" 
d="M40 0v54l329 572h-322v64h409v-54l-330 -571h336v-65h-422zM200 747v29l89 89h54v-29l-90 -89h-53z" />
    <glyph glyph-name="Zdotaccent" unicode="&#x17b;" horiz-adv-x="502" 
d="M40 0v54l329 572h-322v64h409v-54l-330 -571h336v-65h-422zM224 759l-21 22v54l21 22h54l22 -22v-54l-22 -22h-54z" />
    <glyph glyph-name="abreve" unicode="&#x103;" horiz-adv-x="534" 
d="M131 0l-76 76v134l77 77h253v97l-44 44h-162l-36 -36v-47h-75v64l77 77h230l84 -84v-402h-56l-4 80l-80 -80h-188zM164 58h147l74 74v98h-219l-38 -38v-98zM182 550l-41 42v51h57v-34l15 -15h89l15 15v34h57v-51l-42 -42h-150z" />
    <glyph glyph-name="amacron" unicode="&#x101;" horiz-adv-x="534" 
d="M131 0l-76 76v134l77 77h253v97l-44 44h-162l-36 -36v-47h-75v64l77 77h230l84 -84v-402h-56l-4 80l-80 -80h-188zM164 58h147l74 74v98h-219l-38 -38v-98zM148 569v53h219v-53h-219z" />
    <glyph glyph-name="aogonek" unicode="&#x105;" horiz-adv-x="534" 
d="M131 0l-76 76v134l77 77h253v97l-44 44h-163l-35 -36v-47h-75v64l77 77h230l84 -84v-402l-73 -73v-35l14 -14h59v-39h-93l-31 32v66l68 68l-4 75l-80 -80h-188zM164 58h147l74 74v98h-219l-38 -38v-98z" />
    <glyph glyph-name="cacute" unicode="&#x107;" horiz-adv-x="517" 
d="M154 0l-84 84v318l84 84h229l79 -79v-82h-73v63l-40 40h-160l-46 -45v-279l46 -46h160l40 41v63h73v-82l-79 -80h-229zM215 537v29l89 89h54v-29l-90 -89h-53z" />
    <glyph glyph-name="ccaron" unicode="&#x10d;" horiz-adv-x="517" 
d="M154 0l-84 84v318l84 84h229l79 -79v-82h-73v63l-40 40h-160l-46 -45v-279l46 -46h160l40 41v63h73v-82l-79 -80h-229zM225 544l-82 82v28h45l71 -71h13l71 71h46v-28l-83 -82h-81z" />
    <glyph glyph-name="ccircumflex" unicode="&#x109;" horiz-adv-x="517" 
d="M154 0l-84 84v318l84 84h229l79 -79v-82h-73v63l-40 40h-160l-46 -45v-279l46 -46h160l40 41v63h73v-82l-79 -80h-229zM143 544v27l82 83h81l83 -83v-27h-46l-71 70h-13l-71 -70h-45z" />
    <glyph glyph-name="dcaron" unicode="&#x10f;" horiz-adv-x="559" 
d="M154 0l-84 84v318l84 84h175l76 -76v280h74v-690h-56l-5 82l-82 -82h-182zM189 58h131l85 85v195l-90 90h-126l-46 -45v-279zM539 565v125h57v-103l-23 -22h-34z" />
    <glyph glyph-name="ecaron" unicode="&#x11b;" horiz-adv-x="540" 
d="M154 0l-84 84v318l84 84h237l84 -84v-177h-332v-121l46 -46h179l34 35v51h73v-70l-73 -74h-248zM143 283h259v100l-45 45h-168l-46 -45v-100zM231 544l-82 82v28h45l71 -71h13l71 71h46v-28l-83 -82h-81z" />
    <glyph glyph-name="edotaccent" unicode="&#x117;" horiz-adv-x="540" 
d="M154 0l-84 84v318l84 84h237l84 -84v-177h-332v-121l46 -46h179l34 35v51h73v-70l-73 -74h-248zM143 283h259v100l-45 45h-168l-46 -45v-100zM245 549l-21 22v54l21 22h54l22 -22v-54l-22 -22h-54z" />
    <glyph glyph-name="emacron" unicode="&#x113;" horiz-adv-x="540" 
d="M154 0l-84 84v318l84 84h237l84 -84v-177h-332v-121l46 -46h179l34 35v51h73v-70l-73 -74h-248zM143 283h259v100l-45 45h-168l-46 -45v-100zM163 569v53h219v-53h-219z" />
    <glyph glyph-name="eogonek" unicode="&#x119;" horiz-adv-x="540" 
d="M154 0l-84 84v318l84 84h237l84 -84v-177h-332v-121l46 -46h179l34 35v51h73v-70l-73 -74l-73 -73v-35l14 -14h59v-39h-93l-31 32v66l63 63h-187zM143 283h259v100l-45 45h-168l-46 -45v-100z" />
    <glyph glyph-name="gbreve" unicode="&#x11f;" horiz-adv-x="559" 
d="M146 -172l-70 70v62h74v-44l30 -30h180l45 45v163l-73 -73h-178l-84 84v297l84 84h176l88 -88l5 88h56v-574l-84 -84h-249zM189 79h135l81 81v178l-90 90h-126l-46 -46v-257zM189 550l-41 42v51h57v-34l15 -15h89l15 15v34h57v-51l-42 -42h-150z" />
    <glyph glyph-name="gcircumflex" unicode="&#x11d;" horiz-adv-x="559" 
d="M146 -172l-70 70v62h74v-44l30 -30h180l45 45v163l-73 -73h-178l-84 84v297l84 84h176l88 -88l5 88h56v-574l-84 -84h-249zM189 79h135l81 81v178l-90 90h-126l-46 -46v-257zM141 544v27l82 83h81l83 -83v-27h-46l-71 70h-13l-71 -70h-45z" />
    <glyph glyph-name="gcommaaccent" unicode="&#x123;" horiz-adv-x="559" 
d="M146 -172l-70 70v62h74v-44l30 -30h180l45 45v163l-73 -73h-178l-84 84v297l84 84h176l88 -88l5 88h56v-574l-84 -84h-249zM189 79h135l81 81v178l-90 90h-126l-46 -46v-257zM293 661v-125h-57v103l23 22h34z" />
    <glyph glyph-name="hcircumflex" unicode="&#x125;" horiz-adv-x="544" 
d="M80 0v690h73v-280l76 76h156l84 -84v-402h-73v384l-44 44h-109l-90 -90v-338h-73zM-5 729v27l82 83h81l83 -83v-27h-46l-71 70h-13l-71 -70h-45z" />
    <glyph glyph-name="imacron" unicode="&#x12b;" horiz-adv-x="243" 
d="M158 0h-73v486h73v-486zM12 569v53h219v-53h-219z" />
    <glyph glyph-name="iogonek" unicode="&#x12f;" horiz-adv-x="243" 
d="M158 0h-12l-73 -73v-35l14 -14h59v-39h-93l-31 32v66l63 63v486h73v-486zM85 569v104h73v-104h-73z" />
    <glyph glyph-name="jcircumflex" unicode="&#x135;" horiz-adv-x="243" 
d="M-48 -172v56h91l42 42v560h73v-579l-79 -79h-127zM-2 544v27l82 83h81l83 -83v-27h-46l-71 70h-13l-71 -70h-45z" />
    <glyph glyph-name="kcommaaccent" unicode="&#x137;" horiz-adv-x="527" 
d="M416 0l-143 257l-119 -135v-122h-74v690h74v-481l240 277h86l-158 -179l175 -307h-81zM260 -161v125h57v-103l-23 -22h-34z" />
    <glyph glyph-name="lacute" unicode="&#x13a;" horiz-adv-x="243" 
d="M158 0h-73v690h73v-690zM94 737v29l89 89h54v-29l-90 -89h-53z" />
    <glyph glyph-name="lcaron" unicode="&#x13e;" horiz-adv-x="243" 
d="M158 0h-73v690h73v-690zM218 565v125h57v-103l-23 -22h-34z" />
    <glyph glyph-name="lcommaaccent" unicode="&#x13c;" horiz-adv-x="243" 
d="M158 0h-73v690h73v-690zM93 -161v125h57v-103l-23 -22h-34z" />
    <glyph glyph-name="nacute" unicode="&#x144;" horiz-adv-x="544" 
d="M80 0v486h56l4 -88l88 88h157l84 -84v-402h-73v384l-44 44h-107l-92 -92v-336h-73zM233 537v29l89 89h54v-29l-90 -89h-53z" />
    <glyph glyph-name="ncaron" unicode="&#x148;" horiz-adv-x="544" 
d="M80 0v486h56l4 -88l88 88h157l84 -84v-402h-73v384l-44 44h-107l-92 -92v-336h-73zM243 544l-82 82v28h45l71 -71h13l71 71h46v-28l-83 -82h-81z" />
    <glyph glyph-name="ncommaaccent" unicode="&#x146;" horiz-adv-x="544" 
d="M80 0v486h56l4 -88l88 88h157l84 -84v-402h-73v384l-44 44h-107l-92 -92v-336h-73zM246 -161v125h57v-103l-23 -22h-34z" />
    <glyph glyph-name="ohungarumlaut" unicode="&#x151;" horiz-adv-x="547" 
d="M154 0l-84 84v318l84 84h239l84 -84v-318l-84 -84h-239zM189 58h170l45 46v279l-45 45h-170l-46 -45v-279zM297 537v30l89 89h42v-30l-89 -89h-42zM174 537v30l89 89h41v-30l-89 -89h-41z" />
    <glyph glyph-name="omacron" unicode="&#x14d;" horiz-adv-x="547" 
d="M154 0l-84 84v318l84 84h239l84 -84v-318l-84 -84h-239zM189 58h170l45 46v279l-45 45h-170l-46 -45v-279zM164 569v53h219v-53h-219z" />
    <glyph glyph-name="racute" unicode="&#x155;" horiz-adv-x="371" 
d="M80 0v486h56l4 -93l94 93h107v-63h-93l-95 -95v-328h-73zM159 537v29l89 89h54v-29l-90 -89h-53z" />
    <glyph glyph-name="rcaron" unicode="&#x159;" horiz-adv-x="371" 
d="M80 0v486h56l4 -93l94 93h107v-63h-93l-95 -95v-328h-73zM169 544l-82 82v28h45l71 -71h13l71 71h46v-28l-83 -82h-81z" />
    <glyph glyph-name="rcommaaccent" unicode="&#x157;" horiz-adv-x="371" 
d="M80 0v486h56l4 -93l94 93h107v-63h-93l-95 -95v-328h-73zM88 -161v125h57v-103l-23 -22h-34z" />
    <glyph glyph-name="sacute" unicode="&#x15b;" horiz-adv-x="514" 
d="M130 0l-70 70v71h73v-52l31 -31h179l38 38v97l-22 22h-237l-60 60v135l77 76h240l70 -70v-71h-74v52l-31 31h-171l-37 -38v-96l21 -21h236l61 -61v-135l-76 -77h-248zM208 537v29l89 89h54v-29l-90 -89h-53z" />
    <glyph glyph-name="scedilla" unicode="&#x15f;" horiz-adv-x="514" 
d="M130 0l-70 70v71h73v-52l31 -31h179l38 38v97l-22 22h-237l-60 60v135l77 76h240l70 -70v-71h-74v52l-31 31h-171l-37 -38v-96l21 -21h236l61 -61v-135l-76 -77h-105v-42h47l32 -32v-55l-32 -32h-125v39h94l11 11v22l-11 11h-47l-21 21v57h-91z" />
    <glyph glyph-name="scircumflex" unicode="&#x15d;" horiz-adv-x="514" 
d="M130 0l-70 70v71h73v-52l31 -31h179l38 38v97l-22 22h-237l-60 60v135l77 76h240l70 -70v-71h-74v52l-31 31h-171l-37 -38v-96l21 -21h236l61 -61v-135l-76 -77h-248zM136 544v27l82 83h81l83 -83v-27h-46l-71 70h-13l-71 -70h-45z" />
    <glyph glyph-name="scommaaccent" unicode="&#x219;" horiz-adv-x="514" 
d="M130 0l-70 70v71h73v-52l31 -31h179l38 38v97l-22 22h-237l-60 60v135l77 76h240l70 -70v-71h-74v52l-31 31h-171l-37 -38v-96l21 -21h236l61 -61v-135l-76 -77h-248zM231 -161v125h57v-103l-23 -22h-34z" />
    <glyph glyph-name="tcaron" unicode="&#x165;" horiz-adv-x="404" 
d="M188 0l-84 84v344h-79v58h79v149h73v-149h182v-58h-182v-323l47 -47h135v-58h-171zM264 579v125h57v-103l-23 -22h-34z" />
    <glyph glyph-name="tcommaaccent" unicode="&#x163;" horiz-adv-x="404" 
d="M188 0l-84 84v344h-79v58h79v149h73v-149h182v-58h-182v-323l47 -47h135v-58h-171zM215 -161v125h57v-103l-23 -22h-34z" />
    <glyph glyph-name="ubreve" unicode="&#x16d;" horiz-adv-x="544" 
d="M159 0l-84 84v402h73v-384l44 -44h107l92 92v336h73v-486h-56l-4 89l-89 -89h-156zM194 550l-41 42v51h57v-34l15 -15h89l15 15v34h57v-51l-42 -42h-150z" />
    <glyph glyph-name="uhungarumlaut" unicode="&#x171;" horiz-adv-x="544" 
d="M159 0l-84 84v402h73v-384l44 -44h107l92 92v336h73v-486h-56l-4 89l-89 -89h-156zM293 537v30l89 89h42v-30l-89 -89h-42zM170 537v30l89 89h41v-30l-89 -89h-41z" />
    <glyph glyph-name="umacron" unicode="&#x16b;" horiz-adv-x="544" 
d="M159 0l-84 84v402h73v-384l44 -44h107l92 92v336h73v-486h-56l-4 89l-89 -89h-156zM160 569v53h219v-53h-219z" />
    <glyph glyph-name="uogonek" unicode="&#x173;" horiz-adv-x="544" 
d="M159 0l-84 84v402h73v-384l44 -44h107l92 92v336h73v-486l-73 -73v-35l14 -14h59v-39h-93l-31 32v66l68 68l-4 84l-89 -89h-156z" />
    <glyph glyph-name="uring" unicode="&#x16f;" horiz-adv-x="544" 
d="M159 0l-84 84v402h73v-384l44 -44h107l92 92v336h73v-486h-56l-4 89l-89 -89h-156zM216 529l-34 34v83l34 34h107l34 -34v-83l-34 -34h-107zM238 559h62l15 15v60l-15 15h-62l-15 -15v-60z" />
    <glyph glyph-name="zacute" unicode="&#x17a;" horiz-adv-x="436" 
d="M35 0v45l276 383h-272v58h359v-46l-277 -381h280v-59h-366zM167 537v29l89 89h54v-29l-90 -89h-53z" />
    <glyph glyph-name="zdotaccent" unicode="&#x17c;" horiz-adv-x="436" 
d="M35 0v45l276 383h-272v58h359v-46l-277 -381h280v-59h-366zM191 549l-21 22v54l21 22h54l22 -22v-54l-22 -22h-54z" />
    <glyph glyph-name="published" horiz-adv-x="741" 
d="M169 0l-94 94v502l94 94h403l94 -94v-502l-94 -94h-403zM202 51h337l63 63v462l-63 63h-337l-63 -63v-462zM232 129v433h224l61 -61v-178l-62 -62h-149v-132h-74zM306 321h113l24 24v133l-24 24h-113v-181z" />
    <glyph glyph-name="servicemark" unicode="&#x2120;" horiz-adv-x="614" 
d="M63 400l-40 40v42h48v-29l15 -15h80l15 15v64l-9 9h-115l-33 33v91l40 40h124l40 -40v-42h-47v30l-15 15h-79l-16 -16v-61l9 -9h115l33 -33v-94l-40 -40h-125zM279 400v290h66l79 -239l78 239h67v-290h-43v250l-81 -250h-44l-80 249v-249h-42z" />
    <glyph glyph-name="G.alt" horiz-adv-x="598" 
d="M169 0l-94 94v502l94 94h275l84 -84v-98h-77v74l-44 44h-201l-54 -54v-454l54 -54h178l72 72v153h-167v64h244v-353h-58l-5 70l-70 -70h-231z" />
    <glyph glyph-name="Gbreve.alt" horiz-adv-x="598" 
d="M169 0l-94 94v502l94 94h275l84 -84v-98h-77v74l-44 44h-201l-54 -54v-454l54 -54h178l72 72v153h-167v64h244v-353h-58l-5 70l-70 -70h-231zM229 760l-41 42v51h57v-34l15 -15h89l15 15v34h57v-51l-42 -42h-150z" />
    <glyph glyph-name="Gcircumflex.alt" horiz-adv-x="598" 
d="M169 0l-94 94v502l94 94h275l84 -84v-98h-77v74l-44 44h-201l-54 -54v-454l54 -54h178l72 72v153h-167v64h244v-353h-58l-5 70l-70 -70h-231zM181 754v27l82 83h81l83 -83v-27h-46l-71 70h-13l-71 -70h-45z" />
    <glyph glyph-name="Gcommaaccent.alt" horiz-adv-x="598" 
d="M169 0l-94 94v502l94 94h275l84 -84v-98h-77v74l-44 44h-201l-54 -54v-454l54 -54h178l72 72v153h-167v64h244v-353h-58l-5 70l-70 -70h-231zM276 -161v125h57v-103l-23 -22h-34z" />
    <glyph glyph-name="I.alt" horiz-adv-x="287" 
d="M182 0h-77v690h77v-690z" />
    <glyph glyph-name="Iacute.alt" horiz-adv-x="287" 
d="M182 0h-77v690h77v-690zM92 747v29l89 89h54v-29l-90 -89h-53z" />
    <glyph glyph-name="Igrave.alt" horiz-adv-x="287" 
d="M182 0h-77v690h77v-690zM141 747l-89 89v29h53l89 -89v-29h-53z" />
    <glyph glyph-name="Icircumflex.alt" horiz-adv-x="287" 
d="M182 0h-77v690h77v-690zM20 754v27l82 83h81l83 -83v-27h-46l-71 70h-13l-71 -70h-45z" />
    <glyph glyph-name="Idieresis.alt" horiz-adv-x="287" 
d="M182 0h-77v690h77v-690zM186 759v90h63v-90h-63zM37 759v90h62v-90h-62z" />
    <glyph glyph-name="Idotaccent.alt" horiz-adv-x="287" 
d="M182 0h-77v690h77v-690zM116 759l-21 22v54l21 22h54l22 -22v-54l-22 -22h-54z" />
    <glyph glyph-name="Imacron.alt" horiz-adv-x="287" 
d="M182 0h-77v690h77v-690zM34 779v53h219v-53h-219z" />
    <glyph glyph-name="Iogonek.alt" horiz-adv-x="287" 
d="M182 0h-16l-73 -73v-35l14 -14h59v-39h-93l-31 32v66l63 63v690h77v-690z" />
    <glyph glyph-name="J.alt" horiz-adv-x="550" 
d="M139 0l-94 94v176h77v-152l54 -54h163l54 54v572h77v-596l-94 -94h-237z" />
    <glyph glyph-name="Jcircumflex.alt" horiz-adv-x="550" 
d="M139 0l-94 94v176h77v-152l54 -54h163l54 54v572h77v-596l-94 -94h-237zM309 754v27l82 83h81l83 -83v-27h-46l-71 70h-13l-71 -70h-45z" />
    <glyph glyph-name="Q.alt" horiz-adv-x="619" 
d="M169 0l-94 94v502l94 94h281l94 -94v-502l-61 -61l90 -88l-47 -48l-103 103h-254zM206 64h153l-91 91l47 47l118 -118l34 34v454l-54 54h-207l-54 -54v-454z" />
    <glyph glyph-name="a.alt" horiz-adv-x="559" 
d="M154 0l-84 84v318l84 84h182l83 -83l3 83h57v-486h-56l-4 83l-83 -83h-182zM189 58h131l86 86v198l-86 86h-131l-46 -46v-278z" />
    <glyph glyph-name="aacute.alt" horiz-adv-x="559" 
d="M154 0l-84 84v318l84 84h182l83 -83l3 83h57v-486h-56l-4 83l-83 -83h-182zM189 58h131l86 86v198l-86 86h-131l-46 -46v-278zM213 537v29l89 89h54v-29l-90 -89h-53z" />
    <glyph glyph-name="agrave.alt" horiz-adv-x="559" 
d="M154 0l-84 84v318l84 84h182l83 -83l3 83h57v-486h-56l-4 83l-83 -83h-182zM189 58h131l86 86v198l-86 86h-131l-46 -46v-278zM262 537l-89 89v29h53l89 -89v-29h-53z" />
    <glyph glyph-name="acircumflex.alt" horiz-adv-x="559" 
d="M154 0l-84 84v318l84 84h182l83 -83l3 83h57v-486h-56l-4 83l-83 -83h-182zM189 58h131l86 86v198l-86 86h-131l-46 -46v-278zM141 544v27l82 83h81l83 -83v-27h-46l-71 70h-13l-71 -70h-45z" />
    <glyph glyph-name="adieresis.alt" horiz-adv-x="559" 
d="M154 0l-84 84v318l84 84h182l83 -83l3 83h57v-486h-56l-4 83l-83 -83h-182zM189 58h131l86 86v198l-86 86h-131l-46 -46v-278zM307 549v90h63v-90h-63zM158 549v90h62v-90h-62z" />
    <glyph glyph-name="atilde.alt" horiz-adv-x="559" 
d="M154 0l-84 84v318l84 84h182l83 -83l3 83h57v-486h-56l-4 83l-83 -83h-182zM189 58h131l86 86v198l-86 86h-131l-46 -46v-278zM134 546v56l41 42h76l54 -54h23l14 13v41h53v-56l-41 -42h-76l-54 54h-24l-13 -14v-40h-53z" />
    <glyph glyph-name="aring.alt" horiz-adv-x="559" 
d="M154 0l-84 84v318l84 84h182l83 -83l3 83h57v-486h-56l-4 83l-83 -83h-182zM189 58h131l86 86v198l-86 86h-131l-46 -46v-278zM211 529l-34 34v83l34 34h107l34 -34v-83l-34 -34h-107zM233 559h62l15 15v60l-15 15h-62l-15 -15v-60z" />
    <glyph glyph-name="abreve.alt" horiz-adv-x="559" 
d="M154 0l-84 84v318l84 84h182l83 -83l3 83h57v-486h-56l-4 83l-83 -83h-182zM189 58h131l86 86v198l-86 86h-131l-46 -46v-278zM189 550l-41 42v51h57v-34l15 -15h89l15 15v34h57v-51l-42 -42h-150z" />
    <glyph glyph-name="amacron.alt" horiz-adv-x="559" 
d="M154 0l-84 84v318l84 84h182l83 -83l3 83h57v-486h-56l-4 83l-83 -83h-182zM189 58h131l86 86v198l-86 86h-131l-46 -46v-278zM155 569v53h219v-53h-219z" />
    <glyph glyph-name="aogonek.alt" horiz-adv-x="559" 
d="M154 0l-84 84v318l84 84h182l83 -83l3 83h57v-486l-73 -73v-35l14 -14h59v-39h-93l-31 32v66l68 68l-4 78l-83 -83h-182zM189 58h131l86 86v198l-86 86h-131l-46 -46v-278z" />
    <glyph glyph-name="g.alt" horiz-adv-x="532" 
d="M130 -172l-75 74v117l61 61l-32 31v50l37 37l-57 56v157l75 75h363v-55h-69l40 -40v-129l-76 -75h-213l-31 -31v-31l28 -28h239l75 -75v-120l-75 -74h-290zM177 242h183l39 40v111l-38 38h-184l-39 -40v-109zM167 -117h216l40 39v80l-40 40h-216l-39 -40v-80z" />
    <glyph glyph-name="gbreve.alt" horiz-adv-x="532" 
d="M130 -172l-75 74v117l61 61l-32 31v50l37 37l-57 56v157l75 75h363v-55h-69l40 -40v-129l-76 -75h-213l-31 -31v-31l28 -28h239l75 -75v-120l-75 -74h-290zM177 242h183l39 40v111l-38 38h-184l-39 -40v-109zM167 -117h216l40 39v80l-40 40h-216l-39 -40v-80zM203 550
l-41 42v51h57v-34l15 -15h89l15 15v34h57v-51l-42 -42h-150z" />
    <glyph glyph-name="gcircumflex.alt" horiz-adv-x="532" 
d="M130 -172l-75 74v117l61 61l-32 31v50l37 37l-57 56v157l75 75h363v-55h-69l40 -40v-129l-76 -75h-213l-31 -31v-31l28 -28h239l75 -75v-120l-75 -74h-290zM177 242h183l39 40v111l-38 38h-184l-39 -40v-109zM167 -117h216l40 39v80l-40 40h-216l-39 -40v-80zM155 544v27
l82 83h81l83 -83v-27h-46l-71 70h-13l-71 -70h-45z" />
    <glyph glyph-name="gcommaaccent.alt" horiz-adv-x="532" 
d="M130 -172l-75 74v117l61 61l-32 31v50l37 37l-57 56v157l75 75h363v-55h-69l40 -40v-129l-76 -75h-213l-31 -31v-31l28 -28h239l75 -75v-120l-75 -74h-290zM177 242h183l39 40v111l-38 38h-184l-39 -40v-109zM167 -117h216l40 39v80l-40 40h-216l-39 -40v-80zM307 661
v-125h-57v103l23 22h34z" />
    <glyph glyph-name="at.alt1" horiz-adv-x="868" 
d="M80 0v573l117 117h479l117 -117v-495l-78 -78h-141l-6 78l-77 -78h-186l-79 79v172l75 75h253v121l-47 47h-153l-38 -38v-67h-78v87l80 80h225l87 -87v-407h49l40 40v447l-78 79h-409l-78 -79v-549h-74zM340 63h142l72 71v129h-214l-38 -38v-124z" />
    <glyph glyph-name="at.alt2" horiz-adv-x="845" 
d="M184 -131l-114 114v523l114 114h477l114 -114v-429l-78 -77h-138l-4 83l-82 -83h-181l-84 84v318l84 84h181l82 -83l3 83h57v-430h45l41 41v389l-75 76h-407l-76 -76v-483l76 -76h428v-58h-463zM327 58h130l85 86v199l-85 85h-130l-45 -45v-279z" />
    <glyph glyph-name="at.alt3" horiz-adv-x="868" 
d="M80 0v573l117 117h479l117 -117v-495l-78 -78h-142l-7 80l-80 -80h-168l-87 87v382l87 87h168l80 -80l7 80h55v-494h51l40 40v447l-78 79h-409l-78 -79v-549h-74zM354 63h116l83 82v266l-83 83h-116l-48 -48v-335z" />
    <glyph glyph-name="ampersand.alt" horiz-adv-x="595" 
d="M154 0l-84 84v217l72 72l-70 71v163l83 83h266l84 -84v-98h-77v74l-44 45h-191l-44 -45v-117l45 -45l265 -144v112h76v-304l-84 -84h-297zM192 64h222l45 45v84l-261 141l-51 -51v-174z" />
    <glyph glyph-name="ordfeminine.alt" horiz-adv-x="358" 
d="M102 344l-62 62v222l62 62h113l53 -53l4 53h46v-346h-46l-4 53l-53 -53h-113zM133 394h72l51 51v144l-51 52h-71l-32 -32v-184z" />
    <glyph glyph-name="zero.tabular" 
d="M168 0l-94 94v502l94 94h281l94 -94v-502l-94 -94h-281zM205 64h207l54 54v454l-54 54h-207l-54 -54v-454z" />
    <glyph glyph-name="one.tabular" 
d="M102 0v58h181v575h-181v57h258v-632h175v-58h-433z" />
    <glyph glyph-name="two.tabular" 
d="M88 0v288l76 76h258l36 36v179l-48 48h-199l-45 -45v-73h-77v97l84 84h274l88 -88v-226l-76 -76h-258l-36 -36v-200h368v-64h-445z" />
    <glyph glyph-name="three.tabular" 
d="M165 0l-88 88v110h76v-84l49 -50h218l44 45v156l-60 60h-228v64h232l55 55v138l-45 45h-216l-49 -51v-83h-76v109l88 88h291l84 -83v-180l-71 -71l72 -73v-199l-84 -84h-292z" />
    <glyph glyph-name="four.tabular" 
d="M417 0v191h-363v53l132 446h74l-122 -433h279v433h77v-433h68v-66h-68v-191h-77z" />
    <glyph glyph-name="five.tabular" 
d="M174 0l-83 84v108h77v-85l45 -44h200l47 48v232l-36 36h-200l-60 -60h-73v371h438v-64h-361v-232l49 49h244l76 -76v-279l-87 -88h-276z" />
    <glyph glyph-name="six.tabular" 
d="M174 0l-94 94v502l94 94h281l86 -85v-102h-76v76l-47 47h-207l-54 -54v-200l48 49h256l82 -82v-245l-94 -94h-275zM211 64h201l54 54v196l-43 43h-211l-55 -56v-183z" />
    <glyph glyph-name="seven.tabular" 
d="M244 0v246l221 379h-412v65h502v-52l-234 -399v-239h-77z" />
    <glyph glyph-name="eight.tabular" 
d="M155 0l-84 84v202l72 72l-70 71v178l83 83h306l84 -83v-178l-71 -71l72 -72v-202l-84 -84h-308zM193 64h232l45 45v159l-60 60h-202l-60 -60v-159zM205 392h209l55 55v135l-45 45h-230l-44 -45v-135z" />
    <glyph glyph-name="nine.tabular" 
d="M162 0l-85 85v109h75v-83l47 -47h208l54 54v214l-49 -49h-255l-82 82v231l94 94h275l94 -94v-502l-94 -94h-282zM194 347h211l56 56v169l-54 54h-201l-54 -54v-183z" />
    <glyph glyph-name="plus.tabular" 
d="M107 313v62h170v166h64v-166h169v-62h-169v-166h-64v166h-170z" />
    <glyph glyph-name="minus.tabular" 
d="M129 312v65h359v-65h-359z" />
    <glyph glyph-name="multiply.tabular" 
d="M166 156l-43 43l142 142l-142 142l44 43l141 -142l142 142l43 -43l-142 -142l142 -142l-43 -43l-142 142z" />
    <glyph glyph-name="divide.tabular" 
d="M274 141v95h69v-95h-69zM105 312v63h407v-63h-407zM274 450v95h69v-95h-69z" />
    <glyph glyph-name="equal.tabular" 
d="M125 401v62h367v-62h-367zM125 223v62h367v-62h-367z" />
    <glyph glyph-name="greater.tabular" 
d="M521 308l-407 -179v68l342 147l-342 147v69l407 -179v-73z" />
    <glyph glyph-name="less.tabular" 
d="M503 129l-407 179v73l407 179v-69l-342 -147l342 -147v-68z" />
    <glyph glyph-name="numbersign.tabular" 
d="M163 171v121h-89v55h89v169h-89v55h89v119h62v-119h166v119h62v-119h90v-55h-90v-169h90v-55h-90v-121h-62v121h-166v-121h-62zM225 347h166v169h-166v-169z" />
    <glyph glyph-name="dollar.tabular" 
d="M168 20l-84 84v99h76v-75l45 -45h204l48 48v150l-36 37h-259l-76 76v188l88 88h97v99h72v-99h104l85 -84v-97h-77v73l-45 45h-199l-48 -48v-141l36 -36h259l76 -76v-198l-88 -88h-103v-100h-72v100h-103z" />
    <glyph glyph-name="cent.tabular" 
d="M180 65l-94 94v374l94 94h98v95h71v-95h104l88 -89v-109h-76v84l-49 50h-199l-54 -54v-326l54 -54h199l49 50v87h76v-113l-88 -88h-104v-98h-71v98h-98z" />
    <glyph glyph-name="sterling.tabular" 
d="M75 0v57l53 53v193h-56v66h56v227l94 94h239l89 -88v-116h-76v90l-50 50h-165l-54 -54v-203h205v-66h-205v-198l-41 -41h386v-64h-475z" />
    <glyph glyph-name="yen.tabular" 
d="M95 223v54h152l-191 413h86l170 -381l171 381h79l-192 -413h153v-54h-176v-60h176v-53h-176v-110h-77v110h-175v53h175v60h-175z" />
    <glyph glyph-name="florin.tabular" 
d="M89 0v64h94l53 54v243h-142v63h142v172l94 94h195v-64h-157l-55 -54v-148h200v-63h-200v-267l-94 -94h-130z" />
    <glyph glyph-name="Euro.tabular" 
d="M38 382v54h57v160l94 94h268l88 -88v-113h-75v87l-50 50h-194l-54 -54v-136h240v-54h-240v-65h240v-53h-240v-146l54 -54h194l50 50v91h75v-117l-88 -88h-268l-94 94v170h-57v53h57v65h-57z" />
    <glyph glyph-name="section.tabular" 
d="M166 -105l-83 84v116h77v-92l44 -45h206l48 48v185h-340l-31 32v31h448v-272l-87 -87h-282zM87 335v267l88 88h273l85 -84v-114h-77v90l-45 45h-199l-48 -48v-181h338l31 -32v-31h-446z" />
    <glyph glyph-name="space.tabular" horiz-adv-x="308" 
 />
    <glyph glyph-name="colon.tabular" horiz-adv-x="308" 
d="M107 0v112h95v-112h-95zM107 311v112h95v-112h-95z" />
    <glyph glyph-name="semicolon.tabular" horiz-adv-x="308" 
d="M107 -104v47h33l11 11v46h-44v112h95v-174l-42 -42h-53zM107 311v112h95v-112h-95z" />
    <glyph glyph-name="comma.tabular" horiz-adv-x="308" 
d="M107 -104v47h33l11 11v46h-44v112h95v-174l-42 -42h-53z" />
    <glyph glyph-name="period.tabular" horiz-adv-x="308" 
d="M107 0v112h95v-112h-95z" />
    <glyph glyph-name="parenleft.tabular" horiz-adv-x="322" 
d="M181 -63l-94 94v627l94 94h90v-64h-53l-54 -54v-579l54 -54h53v-64h-90z" />
    <glyph glyph-name="parenright.tabular" horiz-adv-x="322" 
d="M235 31l-94 -94h-90v64h53l54 54v579l-54 54h-53v64h90l94 -94v-627z" />
    <glyph glyph-name="bracketleft.tabular" horiz-adv-x="322" 
d="M90 -63v815h182v-64h-106v-687h106v-64h-182z" />
    <glyph glyph-name="bracketright.tabular" horiz-adv-x="322" 
d="M232 752v-815h-182v64h106v687h-106v64h182z" />
    <glyph glyph-name="braceleft.tabular" horiz-adv-x="322" 
d="M200 -63l-94 94v258l-33 32h-56v66h55l34 34v237l94 94h89v-64h-52l-54 -54v-226l-53 -53l53 -53v-247l54 -54h52v-64h-89z" />
    <glyph glyph-name="braceright.tabular" horiz-adv-x="322" 
d="M216 31l-94 -94h-89v64h52l54 54v247l53 53l-53 53v226l-54 54h-52v64h89l94 -94v-237l34 -34h55v-66h-56l-33 -32v-258z" />
    <glyph glyph-name="zero.numerator" horiz-adv-x="375" 
d="M103 346l-58 58v228l58 58h169l58 -58v-228l-58 -58h-169zM136 396h103l30 30v184l-30 29h-103l-29 -29v-184z" />
    <glyph glyph-name="one.numerator" horiz-adv-x="305" 
d="M35 346v50h94v244h-94v50h156v-294h89v-50h-245z" />
    <glyph glyph-name="two.numerator" horiz-adv-x="353" 
d="M40 346v140l46 46h152l18 19v62l-26 26h-103l-25 -24v-34h-61v56l53 53h169l55 -55v-109l-46 -46h-151l-19 -19v-63h215v-52h-277z" />
    <glyph glyph-name="three.numerator" horiz-adv-x="366" 
d="M94 346l-54 53v54h62v-33l25 -25h104l28 28v54l-19 19h-133v47h133l19 20v51l-26 27h-106l-25 -25v-35h-62v56l54 53h172l55 -55v-80l-34 -34l34 -35v-86l-55 -54h-172z" />
    <glyph glyph-name="four.numerator" horiz-adv-x="356" 
d="M228 346v84h-208v41l81 219h62l-74 -209h139v209h61v-209h42v-51h-42v-84h-61z" />
    <glyph glyph-name="five.numerator" horiz-adv-x="366" 
d="M99 346l-54 53v55h62v-33l24 -25h102l26 27v72l-25 25h-104l-19 -19h-66v189h268v-52h-206v-89l22 22h141l51 -52v-118l-55 -55h-167z" />
    <glyph glyph-name="six.numerator" horiz-adv-x="370" 
d="M100 346l-55 55v231l58 58h172l53 -53v-48h-58v26l-24 24h-107l-32 -32v-81l28 28h141l54 -54v-99l-56 -55h-174zM133 395h109l26 26v60l-23 23h-114l-24 -24v-59z" />
    <glyph glyph-name="seven.numerator" horiz-adv-x="310" 
d="M112 346v139l102 153h-199v52h280v-35l-120 -176v-133h-63z" />
    <glyph glyph-name="eight.numerator" horiz-adv-x="375" 
d="M99 346l-54 54v86l34 35l-34 34v80l54 55h176l55 -55v-80l-35 -34l35 -35v-86l-55 -54h-176zM135 395h104l29 28v54l-20 19h-122l-20 -19v-54zM126 543h122l20 20v51l-26 27h-109l-27 -27v-51z" />
    <glyph glyph-name="nine.numerator" horiz-adv-x="369" 
d="M94 346l-53 53v49h58v-27l25 -25h106l32 33v79l-28 -28h-141l-53 54v101l55 55h174l55 -55v-231l-58 -58h-172zM124 530h114l24 24v60l-26 27h-108l-27 -27v-61z" />
    <glyph glyph-name="zero.denominator" horiz-adv-x="375" 
d="M103 0l-58 58v228l58 58h169l58 -58v-228l-58 -58h-169zM136 50h103l30 30v184l-30 29h-103l-29 -29v-184z" />
    <glyph glyph-name="one.denominator" horiz-adv-x="305" 
d="M35 0v50h94v244h-94v50h156v-294h89v-50h-245z" />
    <glyph glyph-name="two.denominator" horiz-adv-x="353" 
d="M40 0v140l46 46h152l18 19v62l-26 26h-103l-25 -24v-34h-61v56l53 53h169l55 -55v-109l-46 -46h-151l-19 -19v-63h215v-52h-277z" />
    <glyph glyph-name="three.denominator" horiz-adv-x="366" 
d="M94 0l-54 53v54h62v-33l25 -25h104l28 28v54l-19 19h-133v47h133l19 20v51l-26 27h-106l-25 -25v-35h-62v56l54 53h172l55 -55v-80l-34 -34l34 -35v-86l-55 -54h-172z" />
    <glyph glyph-name="four.denominator" horiz-adv-x="356" 
d="M228 0v84h-208v41l81 219h62l-74 -209h139v209h61v-209h42v-51h-42v-84h-61z" />
    <glyph glyph-name="five.denominator" horiz-adv-x="366" 
d="M99 0l-54 53v55h62v-33l24 -25h102l26 27v72l-25 25h-104l-19 -19h-66v189h268v-52h-206v-89l22 22h141l51 -52v-118l-55 -55h-167z" />
    <glyph glyph-name="six.denominator" horiz-adv-x="370" 
d="M100 0l-55 55v231l58 58h172l53 -53v-48h-58v26l-24 24h-107l-32 -32v-81l28 28h141l54 -54v-99l-56 -55h-174zM133 49h109l26 26v60l-23 23h-114l-24 -24v-59z" />
    <glyph glyph-name="seven.denominator" horiz-adv-x="310" 
d="M112 0v139l102 153h-199v52h280v-35l-120 -176v-133h-63z" />
    <glyph glyph-name="eight.denominator" horiz-adv-x="375" 
d="M99 0l-54 54v86l34 35l-34 34v80l54 55h176l55 -55v-80l-35 -34l35 -35v-86l-55 -54h-176zM135 49h104l29 28v54l-20 19h-122l-20 -19v-54zM126 197h122l20 20v51l-26 27h-109l-27 -27v-51z" />
    <glyph glyph-name="nine.denominator" horiz-adv-x="369" 
d="M94 0l-53 53v49h58v-27l25 -25h106l32 33v79l-28 -28h-141l-53 54v101l55 55h174l55 -55v-231l-58 -58h-172zM124 184h114l24 24v60l-26 27h-108l-27 -27v-61z" />
    <glyph glyph-name="Eth" unicode="&#xd0;" horiz-adv-x="637" 
d="M40 311v68h68v311h360l94 -94v-502l-94 -94h-360v311h-68zM185 64h246l54 54v454l-54 54h-246v-247h129v-68h-129v-247z" />
    </font>
</defs>
</svg>
